M48
;GenerationSoftware,Autodesk,EAGLE,9.6.1*%
;CreationDate,2024-03-26T23:02:01Z*%
FMAT,2
ICI,OFF
METRIC,TZ,000.000
T2C0.350
T1C1.016
%
G90
M71
T1
X22225Y11354
X22225Y13894
X22225Y16434
X22225Y18974
X22225Y21514
X22225Y24054
X22225Y26594
X22225Y29134
X22225Y31674
X22225Y34214
X-23495Y11354
X-23495Y13894
X-23495Y16434
X-23495Y18974
X-23495Y21514
X-23495Y24054
X-23495Y26594
X-23495Y29134
X-23495Y31674
X-23495Y34214
T2
X-17269Y35433
X-22987Y38475
M30