G04 EAGLE Gerber RS-274X export*
G75*
%MOMM*%
%FSLAX34Y34*%
%LPD*%
%INBottom Copper*%
%IPPOS*%
%AMOC8*
5,1,8,0,0,1.08239X$1,22.5*%
G01*
%ADD10C,1.000000*%
%ADD11C,1.524000*%
%ADD12R,1.200000X0.550000*%
%ADD13R,1.000000X1.100000*%
%ADD14R,1.600000X2.700000*%
%ADD15R,2.700000X1.600000*%
%ADD16R,1.100000X1.000000*%
%ADD17C,0.756400*%
%ADD18C,0.406400*%
%ADD19C,0.203200*%

G36*
X-233607Y455661D02*
X-233607Y455661D01*
X-233680Y455659D01*
X-233728Y455641D01*
X-233778Y455633D01*
X-233842Y455599D01*
X-233910Y455574D01*
X-233968Y455533D01*
X-233996Y455518D01*
X-234012Y455501D01*
X-234046Y455476D01*
X-259523Y432425D01*
X-259574Y432362D01*
X-259631Y432306D01*
X-259650Y432267D01*
X-259677Y432233D01*
X-259704Y432157D01*
X-259740Y432085D01*
X-259751Y432029D01*
X-259761Y432002D01*
X-259762Y431974D01*
X-259772Y431921D01*
X-259836Y431098D01*
X-259835Y431076D01*
X-259839Y431038D01*
X-259839Y28039D01*
X-259822Y27934D01*
X-259809Y27828D01*
X-259802Y27813D01*
X-259799Y27797D01*
X-259749Y27702D01*
X-259703Y27606D01*
X-259690Y27590D01*
X-259684Y27579D01*
X-259662Y27558D01*
X-259593Y27479D01*
X-230775Y966D01*
X-230712Y925D01*
X-230654Y876D01*
X-230609Y858D01*
X-230569Y831D01*
X-230496Y812D01*
X-230426Y784D01*
X-230361Y777D01*
X-230331Y769D01*
X-230306Y770D01*
X-230259Y765D01*
X218829Y765D01*
X218904Y777D01*
X218979Y780D01*
X219024Y797D01*
X219072Y805D01*
X219139Y840D01*
X219209Y867D01*
X219262Y906D01*
X219289Y920D01*
X219307Y939D01*
X219345Y966D01*
X246385Y25843D01*
X246451Y25927D01*
X246520Y26009D01*
X246526Y26024D01*
X246537Y26037D01*
X246572Y26138D01*
X246612Y26237D01*
X246614Y26257D01*
X246619Y26269D01*
X246619Y26299D01*
X246631Y26404D01*
X246631Y431038D01*
X246627Y431060D01*
X246628Y431098D01*
X246427Y433653D01*
X246408Y433731D01*
X246398Y433811D01*
X246379Y433849D01*
X246369Y433891D01*
X246326Y433959D01*
X246290Y434032D01*
X246252Y434075D01*
X246237Y434099D01*
X246215Y434117D01*
X246179Y434157D01*
X222627Y455467D01*
X222591Y455490D01*
X222561Y455520D01*
X222488Y455556D01*
X222420Y455600D01*
X222379Y455610D01*
X222341Y455629D01*
X222192Y455658D01*
X222182Y455660D01*
X222179Y455660D01*
X222176Y455661D01*
X222056Y455670D01*
X222034Y455669D01*
X221996Y455673D01*
X-233536Y455673D01*
X-233607Y455661D01*
G37*
%LPC*%
G36*
X-8247Y46448D02*
X-8247Y46448D01*
X-8282Y46451D01*
X-8368Y46428D01*
X-8456Y46414D01*
X-8486Y46398D01*
X-8520Y46389D01*
X-8589Y46349D01*
X-9225Y46445D01*
X-9258Y46445D01*
X-9339Y46454D01*
X-9979Y46454D01*
X-10041Y46490D01*
X-10113Y46542D01*
X-10146Y46552D01*
X-10176Y46570D01*
X-10338Y46613D01*
X-12515Y46941D01*
X-12550Y46941D01*
X-12584Y46948D01*
X-12672Y46939D01*
X-12761Y46938D01*
X-12794Y46927D01*
X-12829Y46923D01*
X-12902Y46894D01*
X-13517Y47084D01*
X-13550Y47088D01*
X-13628Y47109D01*
X-14262Y47204D01*
X-14317Y47250D01*
X-14381Y47312D01*
X-14412Y47327D01*
X-14439Y47349D01*
X-14593Y47415D01*
X-16697Y48064D01*
X-16731Y48069D01*
X-16764Y48082D01*
X-16853Y48086D01*
X-16941Y48098D01*
X-16975Y48092D01*
X-17009Y48093D01*
X-17087Y48075D01*
X-17667Y48355D01*
X-17698Y48364D01*
X-17773Y48396D01*
X-18384Y48585D01*
X-18433Y48638D01*
X-18486Y48709D01*
X-18515Y48728D01*
X-18538Y48754D01*
X-18681Y48843D01*
X-20665Y49798D01*
X-20698Y49808D01*
X-20728Y49825D01*
X-20815Y49843D01*
X-20900Y49868D01*
X-20935Y49867D01*
X-20969Y49873D01*
X-21048Y49867D01*
X-21580Y50230D01*
X-21610Y50244D01*
X-21679Y50287D01*
X-22256Y50565D01*
X-22295Y50624D01*
X-22338Y50702D01*
X-22363Y50726D01*
X-22383Y50755D01*
X-22510Y50864D01*
X-24329Y52104D01*
X-24361Y52119D01*
X-24388Y52140D01*
X-24472Y52171D01*
X-24552Y52208D01*
X-24587Y52212D01*
X-24619Y52224D01*
X-24699Y52230D01*
X-25170Y52667D01*
X-25198Y52686D01*
X-25259Y52738D01*
X-25788Y53099D01*
X-25819Y53164D01*
X-25849Y53247D01*
X-25871Y53275D01*
X-25886Y53306D01*
X-25995Y53433D01*
X-27610Y54931D01*
X-27638Y54950D01*
X-27662Y54975D01*
X-27740Y55017D01*
X-27815Y55067D01*
X-27848Y55075D01*
X-27878Y55092D01*
X-27956Y55109D01*
X-28357Y55613D01*
X-28382Y55635D01*
X-28435Y55696D01*
X-28904Y56132D01*
X-28925Y56200D01*
X-28942Y56288D01*
X-28960Y56318D01*
X-28970Y56351D01*
X-29059Y56493D01*
X-30432Y58214D01*
X-30457Y58237D01*
X-30477Y58266D01*
X-30549Y58320D01*
X-30614Y58379D01*
X-30646Y58393D01*
X-30674Y58414D01*
X-30748Y58443D01*
X-31069Y59000D01*
X-31090Y59026D01*
X-31134Y59094D01*
X-31533Y59595D01*
X-31543Y59666D01*
X-31547Y59755D01*
X-31560Y59787D01*
X-31565Y59821D01*
X-31632Y59975D01*
X-32733Y61882D01*
X-32755Y61909D01*
X-32770Y61940D01*
X-32833Y62004D01*
X-32889Y62072D01*
X-32918Y62091D01*
X-32943Y62115D01*
X-33012Y62155D01*
X-33247Y62754D01*
X-33263Y62782D01*
X-33296Y62857D01*
X-33616Y63411D01*
X-33616Y63483D01*
X-33607Y63571D01*
X-33614Y63605D01*
X-33614Y63640D01*
X-33658Y63802D01*
X-34462Y65852D01*
X-34480Y65881D01*
X-34490Y65914D01*
X-34542Y65986D01*
X-34588Y66063D01*
X-34614Y66086D01*
X-34635Y66114D01*
X-34697Y66163D01*
X-34840Y66791D01*
X-34852Y66821D01*
X-34874Y66899D01*
X-35107Y67495D01*
X-35096Y67566D01*
X-35074Y67652D01*
X-35077Y67687D01*
X-35071Y67721D01*
X-35090Y67888D01*
X-35580Y70035D01*
X-35593Y70067D01*
X-35599Y70101D01*
X-35640Y70180D01*
X-35673Y70262D01*
X-35696Y70289D01*
X-35712Y70319D01*
X-35766Y70377D01*
X-35814Y71019D01*
X-35822Y71051D01*
X-35831Y71132D01*
X-35973Y71756D01*
X-35952Y71825D01*
X-35917Y71906D01*
X-35915Y71941D01*
X-35904Y71974D01*
X-35898Y72142D01*
X-36052Y74195D01*
X-36079Y74306D01*
X-36103Y74418D01*
X-36108Y74426D01*
X-36110Y74434D01*
X-36170Y74531D01*
X-36229Y74629D01*
X-36236Y74635D01*
X-36241Y74643D01*
X-36329Y74715D01*
X-36416Y74789D01*
X-36424Y74793D01*
X-36431Y74798D01*
X-36538Y74838D01*
X-36644Y74881D01*
X-36655Y74882D01*
X-36661Y74885D01*
X-36684Y74886D01*
X-36811Y74900D01*
X-75654Y74900D01*
X-75615Y75361D01*
X-75618Y75390D01*
X-75613Y75420D01*
X-75629Y75488D01*
X-75637Y75558D01*
X-75652Y75584D01*
X-75659Y75613D01*
X-75701Y75670D01*
X-75736Y75731D01*
X-75759Y75749D01*
X-75777Y75773D01*
X-75837Y75809D01*
X-75894Y75852D01*
X-75922Y75859D01*
X-75948Y75875D01*
X-76044Y75891D01*
X-76086Y75902D01*
X-76098Y75900D01*
X-76112Y75902D01*
X-94823Y75902D01*
X-104179Y92152D01*
X-104199Y92174D01*
X-104211Y92201D01*
X-104251Y92237D01*
X-104273Y92266D01*
X-104287Y92274D01*
X-104311Y92301D01*
X-104337Y92314D01*
X-104359Y92334D01*
X-104426Y92356D01*
X-104444Y92367D01*
X-104451Y92368D01*
X-104490Y92387D01*
X-104520Y92389D01*
X-104547Y92398D01*
X-104604Y92394D01*
X-104608Y92395D01*
X-104623Y92395D01*
X-104629Y92394D01*
X-104689Y92396D01*
X-104717Y92386D01*
X-104746Y92384D01*
X-104799Y92359D01*
X-104818Y92355D01*
X-104839Y92341D01*
X-104875Y92327D01*
X-104884Y92319D01*
X-104896Y92313D01*
X-105296Y92037D01*
X-124666Y125591D01*
X-124724Y125662D01*
X-124776Y125737D01*
X-124802Y125756D01*
X-124822Y125781D01*
X-124899Y125830D01*
X-124973Y125885D01*
X-125011Y125899D01*
X-125022Y125907D01*
X-125023Y125907D01*
X-125030Y125912D01*
X-125062Y125919D01*
X-125129Y125946D01*
X-125136Y125948D01*
X-125199Y125954D01*
X-125260Y125970D01*
X-125269Y125969D01*
X-125270Y125969D01*
X-125276Y125969D01*
X-125321Y125966D01*
X-125381Y125972D01*
X-125442Y125958D01*
X-125505Y125954D01*
X-125589Y125924D01*
X-125621Y125917D01*
X-125636Y125907D01*
X-125663Y125898D01*
X-127538Y124994D01*
X-127566Y124974D01*
X-127598Y124961D01*
X-127666Y124904D01*
X-127739Y124853D01*
X-127760Y124825D01*
X-127786Y124802D01*
X-127831Y124737D01*
X-128446Y124546D01*
X-128475Y124532D01*
X-128551Y124505D01*
X-129128Y124227D01*
X-129200Y124233D01*
X-129287Y124248D01*
X-129322Y124243D01*
X-129356Y124246D01*
X-129521Y124214D01*
X-131620Y123565D01*
X-131651Y123550D01*
X-131685Y123542D01*
X-131761Y123495D01*
X-131841Y123455D01*
X-131865Y123431D01*
X-131895Y123413D01*
X-131948Y123354D01*
X-132585Y123258D01*
X-132616Y123248D01*
X-132696Y123233D01*
X-133308Y123043D01*
X-133377Y123060D01*
X-133462Y123088D01*
X-133497Y123088D01*
X-133530Y123096D01*
X-133698Y123090D01*
X-135871Y122761D01*
X-135904Y122750D01*
X-135938Y122747D01*
X-136020Y122712D01*
X-136105Y122685D01*
X-136133Y122664D01*
X-136165Y122651D01*
X-136226Y122601D01*
X-136870Y122601D01*
X-136903Y122595D01*
X-136984Y122592D01*
X-137617Y122496D01*
X-137683Y122523D01*
X-137762Y122564D01*
X-137797Y122569D01*
X-137829Y122582D01*
X-137996Y122600D01*
X-140193Y122599D01*
X-140228Y122593D01*
X-140262Y122596D01*
X-140348Y122573D01*
X-140436Y122559D01*
X-140467Y122543D01*
X-140500Y122534D01*
X-140569Y122494D01*
X-141205Y122590D01*
X-141238Y122589D01*
X-141319Y122598D01*
X-141959Y122598D01*
X-142021Y122634D01*
X-142093Y122686D01*
X-142127Y122696D01*
X-142156Y122714D01*
X-142318Y122757D01*
X-144492Y123083D01*
X-144527Y123083D01*
X-144560Y123090D01*
X-144649Y123081D01*
X-144738Y123080D01*
X-144771Y123068D01*
X-144805Y123065D01*
X-144879Y123036D01*
X-145494Y123225D01*
X-145527Y123229D01*
X-145605Y123250D01*
X-146238Y123345D01*
X-146294Y123390D01*
X-146358Y123452D01*
X-146389Y123467D01*
X-146416Y123489D01*
X-146570Y123556D01*
X-148670Y124202D01*
X-148704Y124207D01*
X-148737Y124220D01*
X-148826Y124224D01*
X-148914Y124236D01*
X-148948Y124229D01*
X-148982Y124231D01*
X-149060Y124213D01*
X-149640Y124492D01*
X-149672Y124501D01*
X-149746Y124534D01*
X-150358Y124722D01*
X-150406Y124775D01*
X-150460Y124846D01*
X-150489Y124865D01*
X-150512Y124891D01*
X-150654Y124980D01*
X-152635Y125932D01*
X-152668Y125942D01*
X-152698Y125959D01*
X-152786Y125976D01*
X-152871Y126002D01*
X-152905Y126000D01*
X-152939Y126007D01*
X-153019Y126001D01*
X-153551Y126363D01*
X-153581Y126377D01*
X-153649Y126420D01*
X-154226Y126697D01*
X-154266Y126757D01*
X-154309Y126835D01*
X-154328Y126853D01*
X-154334Y126862D01*
X-154341Y126869D01*
X-154354Y126887D01*
X-154481Y126997D01*
X-156298Y128233D01*
X-156329Y128248D01*
X-156356Y128270D01*
X-156440Y128300D01*
X-156521Y128337D01*
X-156555Y128341D01*
X-156588Y128353D01*
X-156667Y128359D01*
X-157139Y128796D01*
X-157167Y128814D01*
X-157228Y128867D01*
X-157757Y129227D01*
X-157788Y129292D01*
X-157818Y129376D01*
X-157840Y129403D01*
X-157855Y129434D01*
X-157964Y129561D01*
X-159576Y131055D01*
X-159605Y131074D01*
X-159629Y131099D01*
X-159707Y131142D01*
X-159781Y131191D01*
X-159815Y131200D01*
X-159845Y131216D01*
X-159923Y131234D01*
X-160324Y131737D01*
X-160349Y131759D01*
X-160402Y131820D01*
X-160872Y132255D01*
X-160892Y132324D01*
X-160910Y132411D01*
X-160927Y132441D01*
X-160937Y132474D01*
X-161027Y132616D01*
X-162398Y134334D01*
X-162424Y134357D01*
X-162443Y134385D01*
X-162515Y134439D01*
X-162581Y134498D01*
X-162612Y134512D01*
X-162640Y134533D01*
X-162714Y134562D01*
X-163036Y135119D01*
X-163057Y135145D01*
X-163100Y135213D01*
X-163500Y135714D01*
X-163510Y135785D01*
X-163515Y135873D01*
X-163527Y135906D01*
X-163532Y135940D01*
X-163600Y136094D01*
X-164700Y137996D01*
X-164722Y138023D01*
X-164737Y138054D01*
X-164799Y138118D01*
X-164855Y138186D01*
X-164885Y138205D01*
X-164909Y138230D01*
X-164978Y138269D01*
X-165213Y138868D01*
X-165230Y138896D01*
X-165263Y138971D01*
X-165583Y139525D01*
X-165583Y139597D01*
X-165574Y139685D01*
X-165582Y139719D01*
X-165582Y139754D01*
X-165625Y139916D01*
X-166429Y141961D01*
X-166447Y141991D01*
X-166458Y142024D01*
X-166510Y142096D01*
X-166555Y142172D01*
X-166582Y142195D01*
X-166602Y142223D01*
X-166664Y142272D01*
X-166808Y142900D01*
X-166820Y142930D01*
X-166841Y143008D01*
X-167076Y143604D01*
X-167064Y143675D01*
X-167042Y143761D01*
X-167045Y143796D01*
X-167040Y143830D01*
X-167059Y143997D01*
X-167549Y146139D01*
X-167562Y146171D01*
X-167568Y146205D01*
X-167608Y146284D01*
X-167642Y146367D01*
X-167665Y146393D01*
X-167681Y146424D01*
X-167735Y146482D01*
X-167783Y147124D01*
X-167791Y147156D01*
X-167800Y147236D01*
X-167943Y147861D01*
X-167921Y147929D01*
X-167887Y148011D01*
X-167884Y148045D01*
X-167874Y148078D01*
X-167868Y148246D01*
X-168034Y150437D01*
X-168042Y150471D01*
X-168042Y150506D01*
X-168071Y150590D01*
X-168092Y150677D01*
X-168110Y150706D01*
X-168121Y150739D01*
X-168166Y150804D01*
X-168118Y151446D01*
X-168121Y151479D01*
X-168120Y151514D01*
X-168118Y151532D01*
X-168119Y151538D01*
X-168118Y151560D01*
X-168167Y152198D01*
X-168135Y152263D01*
X-168089Y152339D01*
X-168081Y152372D01*
X-168066Y152404D01*
X-168035Y152568D01*
X-167872Y154760D01*
X-167875Y154795D01*
X-167870Y154829D01*
X-167886Y154917D01*
X-167894Y155005D01*
X-167908Y155037D01*
X-167914Y155071D01*
X-167948Y155142D01*
X-167805Y155770D01*
X-167803Y155803D01*
X-167789Y155883D01*
X-167741Y156521D01*
X-167700Y156580D01*
X-167643Y156648D01*
X-167630Y156680D01*
X-167611Y156709D01*
X-167556Y156867D01*
X-167068Y159010D01*
X-167066Y159045D01*
X-167056Y159078D01*
X-167058Y159167D01*
X-167053Y159256D01*
X-167062Y159289D01*
X-167063Y159324D01*
X-167086Y159400D01*
X-166852Y159999D01*
X-166845Y160031D01*
X-166818Y160108D01*
X-166676Y160732D01*
X-166627Y160784D01*
X-166560Y160843D01*
X-166543Y160873D01*
X-166519Y160899D01*
X-166441Y161047D01*
X-165639Y163093D01*
X-165632Y163127D01*
X-165617Y163159D01*
X-165606Y163247D01*
X-165588Y163334D01*
X-165592Y163368D01*
X-165588Y163403D01*
X-165600Y163481D01*
X-165349Y163917D01*
X-165333Y163957D01*
X-165310Y163994D01*
X-165290Y164072D01*
X-165262Y164147D01*
X-165260Y164190D01*
X-165249Y164233D01*
X-165256Y164312D01*
X-165253Y164393D01*
X-165265Y164434D01*
X-165269Y164478D01*
X-165300Y164551D01*
X-165323Y164628D01*
X-165348Y164664D01*
X-165365Y164704D01*
X-165456Y164818D01*
X-165464Y164830D01*
X-165467Y164831D01*
X-165470Y164835D01*
X-187609Y186974D01*
X-187683Y187027D01*
X-187752Y187087D01*
X-187783Y187099D01*
X-187809Y187118D01*
X-187896Y187145D01*
X-187981Y187179D01*
X-188021Y187183D01*
X-188044Y187190D01*
X-188076Y187189D01*
X-188147Y187197D01*
X-217976Y187197D01*
X-218090Y187178D01*
X-218207Y187161D01*
X-218212Y187159D01*
X-218218Y187158D01*
X-218321Y187103D01*
X-218426Y187050D01*
X-218430Y187045D01*
X-218436Y187042D01*
X-218516Y186958D01*
X-218598Y186874D01*
X-218602Y186868D01*
X-218605Y186864D01*
X-218613Y186847D01*
X-218679Y186727D01*
X-219577Y184558D01*
X-222150Y181985D01*
X-225511Y180593D01*
X-244389Y180593D01*
X-247750Y181985D01*
X-250323Y184558D01*
X-251715Y187919D01*
X-251715Y191557D01*
X-250323Y194918D01*
X-247750Y197491D01*
X-244389Y198883D01*
X-225511Y198883D01*
X-222150Y197491D01*
X-219577Y194918D01*
X-218679Y192749D01*
X-218617Y192649D01*
X-218557Y192549D01*
X-218553Y192545D01*
X-218549Y192540D01*
X-218459Y192465D01*
X-218370Y192389D01*
X-218365Y192387D01*
X-218360Y192383D01*
X-218251Y192341D01*
X-218142Y192297D01*
X-218135Y192296D01*
X-218130Y192295D01*
X-218112Y192294D01*
X-217976Y192279D01*
X-185727Y192279D01*
X-162892Y169444D01*
X-162841Y169407D01*
X-162797Y169363D01*
X-162742Y169336D01*
X-162693Y169301D01*
X-162633Y169282D01*
X-162576Y169254D01*
X-162516Y169246D01*
X-162458Y169228D01*
X-162395Y169230D01*
X-162333Y169221D01*
X-162273Y169233D01*
X-162212Y169235D01*
X-162153Y169256D01*
X-162091Y169268D01*
X-162038Y169298D01*
X-161981Y169319D01*
X-161932Y169358D01*
X-161877Y169389D01*
X-161814Y169452D01*
X-161789Y169473D01*
X-161779Y169488D01*
X-161759Y169508D01*
X-161050Y170398D01*
X-161033Y170429D01*
X-161009Y170454D01*
X-160973Y170535D01*
X-160930Y170613D01*
X-160923Y170647D01*
X-160909Y170679D01*
X-160897Y170757D01*
X-160426Y171195D01*
X-160405Y171221D01*
X-160348Y171279D01*
X-159950Y171780D01*
X-159883Y171805D01*
X-159797Y171829D01*
X-159768Y171849D01*
X-159736Y171861D01*
X-159601Y171961D01*
X-157991Y173457D01*
X-157970Y173485D01*
X-157943Y173506D01*
X-157895Y173581D01*
X-157840Y173651D01*
X-157829Y173684D01*
X-157810Y173713D01*
X-157787Y173789D01*
X-157255Y174152D01*
X-157232Y174175D01*
X-157166Y174223D01*
X-156697Y174659D01*
X-156627Y174674D01*
X-156539Y174685D01*
X-156508Y174701D01*
X-156474Y174708D01*
X-156326Y174787D01*
X-154607Y175960D01*
X-154562Y176003D01*
X-154510Y176039D01*
X-154473Y176088D01*
X-154429Y176130D01*
X-154400Y176185D01*
X-154362Y176236D01*
X-154330Y176318D01*
X-154315Y176347D01*
X-154312Y176365D01*
X-154301Y176392D01*
X-154285Y176452D01*
X-154276Y176542D01*
X-154259Y176632D01*
X-154264Y176664D01*
X-154261Y176696D01*
X-154281Y176785D01*
X-154294Y176875D01*
X-154311Y176913D01*
X-154316Y176936D01*
X-154333Y176964D01*
X-154361Y177029D01*
X-173799Y210698D01*
X-173399Y210886D01*
X-173376Y210904D01*
X-173349Y210914D01*
X-173297Y210963D01*
X-173240Y211005D01*
X-173225Y211030D01*
X-173204Y211050D01*
X-173175Y211115D01*
X-173140Y211177D01*
X-173136Y211206D01*
X-173124Y211232D01*
X-173123Y211303D01*
X-173114Y211374D01*
X-173122Y211402D01*
X-173122Y211431D01*
X-173156Y211524D01*
X-173168Y211565D01*
X-173175Y211574D01*
X-173179Y211587D01*
X-182536Y227838D01*
X-173179Y244089D01*
X-173170Y244117D01*
X-173153Y244141D01*
X-173139Y244210D01*
X-173116Y244278D01*
X-173119Y244307D01*
X-173113Y244335D01*
X-173127Y244405D01*
X-173132Y244476D01*
X-173146Y244502D01*
X-173151Y244530D01*
X-173191Y244589D01*
X-173224Y244652D01*
X-173246Y244671D01*
X-173263Y244695D01*
X-173345Y244752D01*
X-173377Y244779D01*
X-173388Y244782D01*
X-173399Y244790D01*
X-173799Y244978D01*
X-154424Y278539D01*
X-154384Y278645D01*
X-154341Y278751D01*
X-154340Y278760D01*
X-154337Y278769D01*
X-154333Y278882D01*
X-154326Y278997D01*
X-154328Y279006D01*
X-154328Y279014D01*
X-154360Y279123D01*
X-154390Y279234D01*
X-154395Y279242D01*
X-154398Y279250D01*
X-154464Y279344D01*
X-154527Y279439D01*
X-154535Y279446D01*
X-154539Y279452D01*
X-154558Y279466D01*
X-154654Y279548D01*
X-156326Y280689D01*
X-156357Y280704D01*
X-156384Y280725D01*
X-156468Y280756D01*
X-156549Y280793D01*
X-156583Y280797D01*
X-156616Y280809D01*
X-156695Y280815D01*
X-157166Y281253D01*
X-157194Y281271D01*
X-157255Y281324D01*
X-157784Y281685D01*
X-157815Y281750D01*
X-157845Y281833D01*
X-157867Y281860D01*
X-157881Y281892D01*
X-157991Y282019D01*
X-159601Y283515D01*
X-159630Y283534D01*
X-159654Y283559D01*
X-159732Y283602D01*
X-159806Y283651D01*
X-159840Y283660D01*
X-159870Y283676D01*
X-159948Y283694D01*
X-160348Y284197D01*
X-160373Y284219D01*
X-160426Y284281D01*
X-160895Y284717D01*
X-160915Y284785D01*
X-160933Y284873D01*
X-160950Y284903D01*
X-160960Y284936D01*
X-161050Y285078D01*
X-161759Y285968D01*
X-161805Y286010D01*
X-161845Y286059D01*
X-161896Y286092D01*
X-161941Y286133D01*
X-161998Y286158D01*
X-162051Y286192D01*
X-162111Y286207D01*
X-162166Y286231D01*
X-162229Y286237D01*
X-162290Y286252D01*
X-162351Y286247D01*
X-162412Y286253D01*
X-162473Y286238D01*
X-162535Y286233D01*
X-162591Y286209D01*
X-162651Y286195D01*
X-162704Y286161D01*
X-162761Y286137D01*
X-162830Y286082D01*
X-162835Y286079D01*
X-162837Y286077D01*
X-162859Y286064D01*
X-162870Y286050D01*
X-162892Y286032D01*
X-209216Y239709D01*
X-210927Y237997D01*
X-217976Y237997D01*
X-218090Y237978D01*
X-218207Y237961D01*
X-218212Y237959D01*
X-218218Y237958D01*
X-218321Y237903D01*
X-218426Y237850D01*
X-218430Y237845D01*
X-218436Y237842D01*
X-218516Y237758D01*
X-218598Y237674D01*
X-218602Y237668D01*
X-218605Y237664D01*
X-218613Y237647D01*
X-218679Y237527D01*
X-219577Y235358D01*
X-222150Y232785D01*
X-225511Y231393D01*
X-244389Y231393D01*
X-247750Y232785D01*
X-250323Y235358D01*
X-251715Y238719D01*
X-251715Y242357D01*
X-250323Y245718D01*
X-247750Y248291D01*
X-244389Y249683D01*
X-225511Y249683D01*
X-222150Y248291D01*
X-219577Y245718D01*
X-218679Y243549D01*
X-218617Y243449D01*
X-218557Y243349D01*
X-218553Y243345D01*
X-218549Y243340D01*
X-218459Y243265D01*
X-218370Y243189D01*
X-218365Y243187D01*
X-218360Y243183D01*
X-218251Y243141D01*
X-218142Y243097D01*
X-218135Y243096D01*
X-218130Y243095D01*
X-218112Y243094D01*
X-217976Y243079D01*
X-213347Y243079D01*
X-213257Y243093D01*
X-213166Y243101D01*
X-213136Y243113D01*
X-213104Y243118D01*
X-213024Y243161D01*
X-212940Y243197D01*
X-212908Y243223D01*
X-212887Y243234D01*
X-212865Y243257D01*
X-212809Y243302D01*
X-165470Y290641D01*
X-165444Y290676D01*
X-165412Y290706D01*
X-165373Y290776D01*
X-165326Y290841D01*
X-165313Y290882D01*
X-165292Y290920D01*
X-165277Y290999D01*
X-165254Y291076D01*
X-165255Y291119D01*
X-165247Y291162D01*
X-165258Y291242D01*
X-165260Y291322D01*
X-165275Y291363D01*
X-165281Y291406D01*
X-165340Y291540D01*
X-165345Y291553D01*
X-165347Y291555D01*
X-165349Y291559D01*
X-165598Y291992D01*
X-165597Y292064D01*
X-165588Y292152D01*
X-165596Y292186D01*
X-165596Y292221D01*
X-165639Y292383D01*
X-166441Y294429D01*
X-166459Y294459D01*
X-166469Y294492D01*
X-166521Y294564D01*
X-166567Y294640D01*
X-166593Y294663D01*
X-166613Y294691D01*
X-166675Y294741D01*
X-166818Y295368D01*
X-166831Y295399D01*
X-166852Y295477D01*
X-166919Y295649D01*
X-167085Y296073D01*
X-167074Y296144D01*
X-167052Y296230D01*
X-167054Y296265D01*
X-167049Y296299D01*
X-167068Y296466D01*
X-167556Y298609D01*
X-167569Y298641D01*
X-167574Y298675D01*
X-167615Y298754D01*
X-167648Y298836D01*
X-167671Y298863D01*
X-167687Y298893D01*
X-167741Y298952D01*
X-167789Y299593D01*
X-167796Y299625D01*
X-167805Y299706D01*
X-167948Y300330D01*
X-167926Y300399D01*
X-167891Y300481D01*
X-167889Y300515D01*
X-167878Y300548D01*
X-167872Y300716D01*
X-168035Y302907D01*
X-168043Y302941D01*
X-168043Y302976D01*
X-168072Y303060D01*
X-168093Y303147D01*
X-168111Y303176D01*
X-168122Y303209D01*
X-168167Y303274D01*
X-168118Y303916D01*
X-168121Y303949D01*
X-168118Y304030D01*
X-168166Y304669D01*
X-168134Y304733D01*
X-168088Y304809D01*
X-168080Y304843D01*
X-168065Y304874D01*
X-168034Y305039D01*
X-167868Y307230D01*
X-167871Y307265D01*
X-167866Y307299D01*
X-167882Y307386D01*
X-167889Y307475D01*
X-167903Y307507D01*
X-167909Y307541D01*
X-167944Y307612D01*
X-167800Y308240D01*
X-167798Y308273D01*
X-167783Y308352D01*
X-167735Y308991D01*
X-167694Y309050D01*
X-167637Y309118D01*
X-167624Y309150D01*
X-167604Y309179D01*
X-167549Y309337D01*
X-167059Y311479D01*
X-167057Y311514D01*
X-167047Y311547D01*
X-167049Y311636D01*
X-167043Y311725D01*
X-167052Y311758D01*
X-167053Y311793D01*
X-167077Y311869D01*
X-166841Y312468D01*
X-166834Y312500D01*
X-166808Y312576D01*
X-166665Y313201D01*
X-166616Y313253D01*
X-166549Y313312D01*
X-166531Y313342D01*
X-166508Y313367D01*
X-166429Y313515D01*
X-165625Y315561D01*
X-165618Y315594D01*
X-165603Y315626D01*
X-165592Y315714D01*
X-165574Y315801D01*
X-165577Y315835D01*
X-165573Y315870D01*
X-165585Y315948D01*
X-165263Y316505D01*
X-165251Y316536D01*
X-165213Y316608D01*
X-164979Y317204D01*
X-164923Y317248D01*
X-164848Y317296D01*
X-164826Y317323D01*
X-164799Y317345D01*
X-164700Y317480D01*
X-163600Y319382D01*
X-163587Y319415D01*
X-163568Y319444D01*
X-163546Y319524D01*
X-163545Y319524D01*
X-163544Y319529D01*
X-163512Y319613D01*
X-163511Y319647D01*
X-163502Y319681D01*
X-163502Y319760D01*
X-163100Y320263D01*
X-163084Y320292D01*
X-163036Y320357D01*
X-162716Y320911D01*
X-162653Y320946D01*
X-162572Y320983D01*
X-162547Y321007D01*
X-162517Y321024D01*
X-162398Y321142D01*
X-161027Y322860D01*
X-161010Y322890D01*
X-160986Y322916D01*
X-160950Y322997D01*
X-160906Y323074D01*
X-160900Y323108D01*
X-160886Y323140D01*
X-160874Y323219D01*
X-160402Y323656D01*
X-160382Y323682D01*
X-160324Y323739D01*
X-159925Y324240D01*
X-159858Y324265D01*
X-159772Y324289D01*
X-159744Y324309D01*
X-159711Y324321D01*
X-159576Y324421D01*
X-157964Y325915D01*
X-157943Y325942D01*
X-157916Y325964D01*
X-157868Y326039D01*
X-157813Y326109D01*
X-157802Y326142D01*
X-157783Y326171D01*
X-157760Y326247D01*
X-157228Y326609D01*
X-157204Y326632D01*
X-157139Y326680D01*
X-156669Y327115D01*
X-156599Y327131D01*
X-156511Y327142D01*
X-156480Y327157D01*
X-156446Y327164D01*
X-156298Y327243D01*
X-154481Y328479D01*
X-154456Y328503D01*
X-154426Y328521D01*
X-154367Y328588D01*
X-154303Y328649D01*
X-154287Y328680D01*
X-154264Y328706D01*
X-154229Y328777D01*
X-153649Y329056D01*
X-153622Y329075D01*
X-153551Y329113D01*
X-153021Y329473D01*
X-152950Y329478D01*
X-152861Y329476D01*
X-152828Y329486D01*
X-152793Y329488D01*
X-152635Y329544D01*
X-150654Y330496D01*
X-150626Y330516D01*
X-150594Y330529D01*
X-150526Y330586D01*
X-150453Y330637D01*
X-150432Y330665D01*
X-150406Y330687D01*
X-150361Y330753D01*
X-149746Y330942D01*
X-149716Y330957D01*
X-149640Y330984D01*
X-149063Y331261D01*
X-148991Y331255D01*
X-148904Y331240D01*
X-148869Y331245D01*
X-148835Y331242D01*
X-148670Y331274D01*
X-146570Y331920D01*
X-146539Y331935D01*
X-146505Y331943D01*
X-146429Y331990D01*
X-146349Y332029D01*
X-146325Y332054D01*
X-146295Y332072D01*
X-146241Y332130D01*
X-145605Y332226D01*
X-145573Y332236D01*
X-145494Y332251D01*
X-144882Y332440D01*
X-144812Y332423D01*
X-144728Y332395D01*
X-144693Y332395D01*
X-144659Y332387D01*
X-144492Y332393D01*
X-142318Y332719D01*
X-142285Y332730D01*
X-142251Y332733D01*
X-142169Y332767D01*
X-142084Y332795D01*
X-142056Y332815D01*
X-142024Y332829D01*
X-141962Y332878D01*
X-141319Y332878D01*
X-141286Y332883D01*
X-141205Y332886D01*
X-140572Y332981D01*
X-140506Y332955D01*
X-140426Y332914D01*
X-140392Y332909D01*
X-140360Y332896D01*
X-140193Y332877D01*
X-137996Y332876D01*
X-137961Y332881D01*
X-137927Y332879D01*
X-137841Y332901D01*
X-137753Y332915D01*
X-137722Y332932D01*
X-137689Y332940D01*
X-137620Y332980D01*
X-136984Y332884D01*
X-136950Y332884D01*
X-136870Y332875D01*
X-136230Y332875D01*
X-136168Y332838D01*
X-136096Y332786D01*
X-136063Y332776D01*
X-136033Y332759D01*
X-135871Y332715D01*
X-133698Y332386D01*
X-133663Y332387D01*
X-133629Y332379D01*
X-133541Y332388D01*
X-133452Y332389D01*
X-133419Y332401D01*
X-133385Y332404D01*
X-133311Y332433D01*
X-132696Y332243D01*
X-132663Y332239D01*
X-132585Y332218D01*
X-131952Y332122D01*
X-131896Y332077D01*
X-131832Y332015D01*
X-131801Y332000D01*
X-131774Y331978D01*
X-131620Y331911D01*
X-129521Y331262D01*
X-129487Y331257D01*
X-129454Y331245D01*
X-129365Y331240D01*
X-129277Y331228D01*
X-129243Y331235D01*
X-129209Y331233D01*
X-129131Y331251D01*
X-128551Y330971D01*
X-128520Y330962D01*
X-128446Y330930D01*
X-127834Y330740D01*
X-127785Y330687D01*
X-127732Y330616D01*
X-127703Y330597D01*
X-127680Y330571D01*
X-127538Y330482D01*
X-125749Y329620D01*
X-125640Y329587D01*
X-125530Y329552D01*
X-125521Y329552D01*
X-125513Y329550D01*
X-125399Y329554D01*
X-125284Y329556D01*
X-125276Y329559D01*
X-125267Y329559D01*
X-125160Y329600D01*
X-125052Y329638D01*
X-125045Y329643D01*
X-125037Y329646D01*
X-124949Y329719D01*
X-124858Y329789D01*
X-124852Y329798D01*
X-124847Y329802D01*
X-124835Y329821D01*
X-124759Y329925D01*
X-105296Y363639D01*
X-104896Y363363D01*
X-104869Y363351D01*
X-104847Y363332D01*
X-104779Y363312D01*
X-104714Y363284D01*
X-104684Y363284D01*
X-104656Y363276D01*
X-104586Y363284D01*
X-104515Y363283D01*
X-104488Y363295D01*
X-104458Y363298D01*
X-104397Y363333D01*
X-104331Y363360D01*
X-104311Y363381D01*
X-104285Y363396D01*
X-104223Y363471D01*
X-104193Y363502D01*
X-104188Y363513D01*
X-104179Y363524D01*
X-94823Y379774D01*
X-76112Y379774D01*
X-76083Y379780D01*
X-76053Y379777D01*
X-75986Y379799D01*
X-75917Y379813D01*
X-75893Y379830D01*
X-75864Y379840D01*
X-75811Y379886D01*
X-75753Y379926D01*
X-75737Y379951D01*
X-75715Y379971D01*
X-75684Y380034D01*
X-75646Y380093D01*
X-75641Y380123D01*
X-75628Y380150D01*
X-75620Y380247D01*
X-75613Y380290D01*
X-75616Y380301D01*
X-75615Y380315D01*
X-75654Y380776D01*
X-36811Y380776D01*
X-36698Y380795D01*
X-36585Y380811D01*
X-36577Y380815D01*
X-36568Y380816D01*
X-36467Y380869D01*
X-36365Y380921D01*
X-36359Y380927D01*
X-36351Y380931D01*
X-36272Y381014D01*
X-36192Y381095D01*
X-36188Y381103D01*
X-36182Y381109D01*
X-36133Y381213D01*
X-36083Y381316D01*
X-36081Y381326D01*
X-36078Y381333D01*
X-36075Y381355D01*
X-36052Y381481D01*
X-35898Y383534D01*
X-35901Y383569D01*
X-35896Y383603D01*
X-35912Y383691D01*
X-35919Y383779D01*
X-35933Y383811D01*
X-35940Y383845D01*
X-35974Y383917D01*
X-35831Y384544D01*
X-35829Y384577D01*
X-35814Y384657D01*
X-35766Y385295D01*
X-35725Y385354D01*
X-35668Y385422D01*
X-35655Y385455D01*
X-35636Y385483D01*
X-35580Y385641D01*
X-35090Y387788D01*
X-35088Y387823D01*
X-35078Y387856D01*
X-35081Y387945D01*
X-35075Y388034D01*
X-35084Y388067D01*
X-35085Y388102D01*
X-35109Y388178D01*
X-34874Y388777D01*
X-34867Y388809D01*
X-34840Y388885D01*
X-34698Y389510D01*
X-34648Y389562D01*
X-34582Y389621D01*
X-34564Y389651D01*
X-34540Y389676D01*
X-34462Y389824D01*
X-33658Y391874D01*
X-33651Y391908D01*
X-33636Y391939D01*
X-33625Y392028D01*
X-33606Y392115D01*
X-33610Y392149D01*
X-33606Y392183D01*
X-33618Y392262D01*
X-33296Y392819D01*
X-33284Y392850D01*
X-33247Y392922D01*
X-33013Y393518D01*
X-32956Y393562D01*
X-32882Y393610D01*
X-32860Y393638D01*
X-32833Y393659D01*
X-32733Y393794D01*
X-31632Y395701D01*
X-31620Y395733D01*
X-31601Y395762D01*
X-31577Y395848D01*
X-31545Y395931D01*
X-31544Y395966D01*
X-31535Y395999D01*
X-31535Y396079D01*
X-31134Y396582D01*
X-31117Y396611D01*
X-31069Y396676D01*
X-30749Y397230D01*
X-30687Y397266D01*
X-30606Y397302D01*
X-30581Y397326D01*
X-30550Y397343D01*
X-30432Y397462D01*
X-29059Y399183D01*
X-29042Y399213D01*
X-29034Y399222D01*
X-29025Y399232D01*
X-29024Y399233D01*
X-29019Y399239D01*
X-28982Y399320D01*
X-28939Y399398D01*
X-28933Y399430D01*
X-28921Y399455D01*
X-28921Y399458D01*
X-28918Y399464D01*
X-28906Y399542D01*
X-28435Y399980D01*
X-28414Y400006D01*
X-28357Y400063D01*
X-27958Y400564D01*
X-27891Y400590D01*
X-27805Y400614D01*
X-27777Y400633D01*
X-27744Y400646D01*
X-27610Y400745D01*
X-26461Y401812D01*
X-26440Y401839D01*
X-26413Y401860D01*
X-26364Y401935D01*
X-26310Y402006D01*
X-26298Y402038D01*
X-26280Y402067D01*
X-26258Y402154D01*
X-26229Y402238D01*
X-26228Y402272D01*
X-26220Y402305D01*
X-26227Y402394D01*
X-26226Y402484D01*
X-26236Y402517D01*
X-26239Y402551D01*
X-26274Y402633D01*
X-26301Y402718D01*
X-26322Y402746D01*
X-26335Y402777D01*
X-26440Y402908D01*
X-34788Y411256D01*
X-34862Y411309D01*
X-34932Y411369D01*
X-34962Y411381D01*
X-34988Y411400D01*
X-35075Y411427D01*
X-35160Y411461D01*
X-35201Y411465D01*
X-35223Y411472D01*
X-35255Y411471D01*
X-35327Y411479D01*
X-111662Y411479D01*
X-111752Y411465D01*
X-111843Y411457D01*
X-111873Y411445D01*
X-111905Y411440D01*
X-111986Y411397D01*
X-112070Y411361D01*
X-112102Y411335D01*
X-112122Y411324D01*
X-112145Y411301D01*
X-112201Y411256D01*
X-128046Y395411D01*
X-128099Y395337D01*
X-128159Y395267D01*
X-128171Y395237D01*
X-128190Y395211D01*
X-128217Y395124D01*
X-128251Y395039D01*
X-128255Y394998D01*
X-128262Y394976D01*
X-128261Y394944D01*
X-128269Y394872D01*
X-128269Y364708D01*
X-204180Y288797D01*
X-217976Y288797D01*
X-218090Y288778D01*
X-218207Y288761D01*
X-218212Y288759D01*
X-218218Y288758D01*
X-218321Y288703D01*
X-218426Y288650D01*
X-218430Y288645D01*
X-218436Y288642D01*
X-218516Y288558D01*
X-218598Y288474D01*
X-218602Y288468D01*
X-218605Y288464D01*
X-218613Y288447D01*
X-218679Y288327D01*
X-219577Y286158D01*
X-222150Y283585D01*
X-225511Y282193D01*
X-244389Y282193D01*
X-247750Y283585D01*
X-250323Y286158D01*
X-251715Y289519D01*
X-251715Y293157D01*
X-250323Y296518D01*
X-247750Y299091D01*
X-244389Y300483D01*
X-225511Y300483D01*
X-222150Y299091D01*
X-219577Y296518D01*
X-218679Y294349D01*
X-218617Y294249D01*
X-218557Y294149D01*
X-218553Y294145D01*
X-218549Y294140D01*
X-218459Y294065D01*
X-218370Y293989D01*
X-218365Y293987D01*
X-218360Y293983D01*
X-218251Y293941D01*
X-218142Y293897D01*
X-218135Y293896D01*
X-218130Y293895D01*
X-218112Y293894D01*
X-217976Y293879D01*
X-206600Y293879D01*
X-206510Y293893D01*
X-206419Y293901D01*
X-206389Y293913D01*
X-206357Y293918D01*
X-206276Y293961D01*
X-206192Y293997D01*
X-206160Y294023D01*
X-206140Y294034D01*
X-206117Y294057D01*
X-206061Y294102D01*
X-133574Y366589D01*
X-133521Y366663D01*
X-133461Y366733D01*
X-133449Y366763D01*
X-133430Y366789D01*
X-133403Y366876D01*
X-133369Y366961D01*
X-133365Y367002D01*
X-133358Y367024D01*
X-133359Y367056D01*
X-133351Y367128D01*
X-133351Y397292D01*
X-114082Y416561D01*
X-32907Y416561D01*
X-22152Y405806D01*
X-22094Y405764D01*
X-22041Y405714D01*
X-21994Y405693D01*
X-21952Y405663D01*
X-21883Y405641D01*
X-21818Y405611D01*
X-21767Y405606D01*
X-21717Y405590D01*
X-21645Y405592D01*
X-21573Y405584D01*
X-21523Y405595D01*
X-21471Y405597D01*
X-21447Y405606D01*
X-21404Y405621D01*
X-21333Y405637D01*
X-21271Y405670D01*
X-21240Y405681D01*
X-21222Y405696D01*
X-21185Y405716D01*
X-21051Y405807D01*
X-20979Y405812D01*
X-20891Y405809D01*
X-20857Y405820D01*
X-20823Y405822D01*
X-20665Y405878D01*
X-18681Y406833D01*
X-18652Y406853D01*
X-18620Y406866D01*
X-18552Y406923D01*
X-18479Y406974D01*
X-18459Y407002D01*
X-18432Y407024D01*
X-18388Y407090D01*
X-17773Y407280D01*
X-17743Y407295D01*
X-17667Y407321D01*
X-17090Y407599D01*
X-17018Y407593D01*
X-16931Y407578D01*
X-16896Y407583D01*
X-16862Y407580D01*
X-16697Y407612D01*
X-14593Y408261D01*
X-14562Y408276D01*
X-14528Y408284D01*
X-14452Y408330D01*
X-14373Y408370D01*
X-14348Y408395D01*
X-14319Y408413D01*
X-14265Y408471D01*
X-13628Y408567D01*
X-13597Y408577D01*
X-13517Y408592D01*
X-12905Y408781D01*
X-12836Y408765D01*
X-12751Y408736D01*
X-12717Y408736D01*
X-12683Y408728D01*
X-12515Y408735D01*
X-10338Y409063D01*
X-10305Y409074D01*
X-10270Y409076D01*
X-10189Y409111D01*
X-10104Y409138D01*
X-10076Y409159D01*
X-10044Y409173D01*
X-9982Y409222D01*
X-9339Y409222D01*
X-9306Y409228D01*
X-9225Y409231D01*
X-8592Y409326D01*
X-8525Y409299D01*
X-8446Y409259D01*
X-8412Y409254D01*
X-8380Y409241D01*
X-8213Y409222D01*
X-6011Y409222D01*
X-5977Y409228D01*
X-5942Y409225D01*
X-5856Y409248D01*
X-5768Y409262D01*
X-5738Y409278D01*
X-5704Y409287D01*
X-5635Y409327D01*
X-4999Y409231D01*
X-4966Y409231D01*
X-4885Y409222D01*
X-4245Y409222D01*
X-4183Y409186D01*
X-4111Y409134D01*
X-4078Y409124D01*
X-4048Y409106D01*
X-3886Y409063D01*
X-1709Y408735D01*
X-1674Y408735D01*
X-1640Y408728D01*
X-1552Y408737D01*
X-1463Y408738D01*
X-1430Y408749D01*
X-1395Y408753D01*
X-1322Y408782D01*
X-707Y408592D01*
X-674Y408588D01*
X-596Y408567D01*
X38Y408472D01*
X93Y408426D01*
X157Y408364D01*
X188Y408349D01*
X215Y408327D01*
X369Y408261D01*
X2473Y407612D01*
X2507Y407607D01*
X2540Y407594D01*
X2629Y407590D01*
X2717Y407578D01*
X2751Y407584D01*
X2785Y407583D01*
X2863Y407601D01*
X3443Y407321D01*
X3474Y407312D01*
X3549Y407280D01*
X4160Y407091D01*
X4209Y407038D01*
X4262Y406967D01*
X4291Y406948D01*
X4314Y406922D01*
X4457Y406833D01*
X6441Y405878D01*
X6474Y405868D01*
X6504Y405851D01*
X6591Y405833D01*
X6677Y405808D01*
X6711Y405809D01*
X6745Y405803D01*
X6824Y405809D01*
X7356Y405446D01*
X7386Y405432D01*
X7455Y405389D01*
X8032Y405111D01*
X8071Y405052D01*
X8114Y404974D01*
X8139Y404950D01*
X8159Y404921D01*
X8286Y404812D01*
X10105Y403572D01*
X10137Y403557D01*
X10164Y403536D01*
X10248Y403505D01*
X10328Y403468D01*
X10363Y403464D01*
X10395Y403452D01*
X10475Y403446D01*
X10946Y403009D01*
X10974Y402990D01*
X11035Y402938D01*
X11564Y402577D01*
X11595Y402512D01*
X11625Y402429D01*
X11647Y402401D01*
X11662Y402370D01*
X11771Y402243D01*
X13386Y400745D01*
X13414Y400726D01*
X13438Y400701D01*
X13516Y400659D01*
X13591Y400609D01*
X13624Y400601D01*
X13654Y400584D01*
X13732Y400567D01*
X14133Y400063D01*
X14158Y400041D01*
X14211Y399980D01*
X14680Y399544D01*
X14701Y399476D01*
X14718Y399388D01*
X14722Y399382D01*
X14722Y399380D01*
X14736Y399357D01*
X14746Y399325D01*
X14835Y399183D01*
X16208Y397462D01*
X16234Y397439D01*
X16253Y397410D01*
X16324Y397356D01*
X16390Y397297D01*
X16422Y397283D01*
X16450Y397262D01*
X16524Y397233D01*
X16846Y396676D01*
X16866Y396650D01*
X16910Y396582D01*
X17309Y396081D01*
X17319Y396010D01*
X17323Y395921D01*
X17336Y395889D01*
X17341Y395855D01*
X17408Y395701D01*
X18509Y393794D01*
X18531Y393767D01*
X18546Y393736D01*
X18609Y393672D01*
X18665Y393604D01*
X18694Y393585D01*
X18719Y393561D01*
X18788Y393521D01*
X19023Y392922D01*
X19039Y392894D01*
X19072Y392819D01*
X19392Y392265D01*
X19392Y392193D01*
X19383Y392105D01*
X19390Y392071D01*
X19390Y392036D01*
X19434Y391874D01*
X20238Y389824D01*
X20256Y389795D01*
X20266Y389762D01*
X20318Y389690D01*
X20364Y389613D01*
X20390Y389590D01*
X20411Y389562D01*
X20473Y389513D01*
X20616Y388885D01*
X20628Y388855D01*
X20650Y388777D01*
X20883Y388181D01*
X20872Y388110D01*
X20850Y388024D01*
X20853Y387989D01*
X20847Y387955D01*
X20866Y387788D01*
X21356Y385641D01*
X21369Y385609D01*
X21375Y385575D01*
X21416Y385496D01*
X21449Y385414D01*
X21472Y385387D01*
X21488Y385357D01*
X21542Y385299D01*
X21590Y384657D01*
X21598Y384625D01*
X21607Y384544D01*
X21749Y383920D01*
X21728Y383851D01*
X21693Y383769D01*
X21691Y383735D01*
X21680Y383702D01*
X21674Y383534D01*
X21828Y381481D01*
X21855Y381370D01*
X21879Y381258D01*
X21884Y381250D01*
X21886Y381242D01*
X21946Y381145D01*
X22005Y381047D01*
X22012Y381041D01*
X22017Y381033D01*
X22105Y380961D01*
X22192Y380887D01*
X22200Y380883D01*
X22207Y380878D01*
X22314Y380838D01*
X22420Y380795D01*
X22431Y380794D01*
X22437Y380791D01*
X22460Y380790D01*
X22587Y380776D01*
X61430Y380776D01*
X61391Y380315D01*
X61394Y380286D01*
X61389Y380256D01*
X61405Y380188D01*
X61413Y380118D01*
X61428Y380092D01*
X61435Y380063D01*
X61477Y380006D01*
X61512Y379945D01*
X61535Y379927D01*
X61553Y379903D01*
X61613Y379867D01*
X61670Y379824D01*
X61698Y379817D01*
X61724Y379801D01*
X61820Y379785D01*
X61862Y379774D01*
X61874Y379776D01*
X61888Y379774D01*
X80599Y379774D01*
X89955Y363524D01*
X89975Y363502D01*
X89987Y363475D01*
X90040Y363428D01*
X90087Y363375D01*
X90113Y363362D01*
X90135Y363342D01*
X90202Y363319D01*
X90266Y363289D01*
X90296Y363288D01*
X90323Y363278D01*
X90394Y363283D01*
X90465Y363280D01*
X90493Y363290D01*
X90522Y363292D01*
X90611Y363334D01*
X90651Y363349D01*
X90660Y363357D01*
X90672Y363363D01*
X91874Y364196D01*
X111352Y330320D01*
X111426Y330230D01*
X111496Y330140D01*
X111503Y330136D01*
X111508Y330130D01*
X111606Y330068D01*
X111702Y330005D01*
X111709Y330003D01*
X111716Y329999D01*
X111828Y329971D01*
X111939Y329942D01*
X111947Y329943D01*
X111955Y329941D01*
X112070Y329951D01*
X112185Y329958D01*
X112194Y329961D01*
X112200Y329962D01*
X112220Y329971D01*
X112343Y330014D01*
X113314Y330482D01*
X113342Y330502D01*
X113374Y330515D01*
X113442Y330572D01*
X113515Y330623D01*
X113536Y330651D01*
X113562Y330674D01*
X113607Y330739D01*
X114222Y330930D01*
X114251Y330944D01*
X114327Y330971D01*
X114904Y331249D01*
X114976Y331243D01*
X115063Y331228D01*
X115098Y331233D01*
X115132Y331230D01*
X115297Y331262D01*
X117396Y331911D01*
X117427Y331926D01*
X117461Y331934D01*
X117537Y331981D01*
X117617Y332021D01*
X117641Y332045D01*
X117671Y332063D01*
X117724Y332122D01*
X118361Y332218D01*
X118392Y332228D01*
X118472Y332243D01*
X119084Y332433D01*
X119153Y332416D01*
X119238Y332388D01*
X119273Y332388D01*
X119306Y332380D01*
X119474Y332386D01*
X121647Y332715D01*
X121680Y332726D01*
X121714Y332729D01*
X121796Y332764D01*
X121881Y332791D01*
X121909Y332812D01*
X121941Y332825D01*
X122002Y332875D01*
X122646Y332875D01*
X122679Y332881D01*
X122760Y332884D01*
X123393Y332980D01*
X123459Y332953D01*
X123538Y332912D01*
X123573Y332907D01*
X123605Y332894D01*
X123772Y332876D01*
X125969Y332877D01*
X126004Y332883D01*
X126038Y332880D01*
X126124Y332903D01*
X126212Y332917D01*
X126243Y332933D01*
X126276Y332942D01*
X126345Y332982D01*
X126981Y332886D01*
X127014Y332887D01*
X127095Y332878D01*
X127735Y332878D01*
X127797Y332842D01*
X127869Y332790D01*
X127903Y332780D01*
X127932Y332762D01*
X128094Y332719D01*
X130268Y332393D01*
X130303Y332393D01*
X130336Y332386D01*
X130425Y332395D01*
X130514Y332396D01*
X130547Y332408D01*
X130581Y332411D01*
X130655Y332440D01*
X131270Y332251D01*
X131303Y332247D01*
X131381Y332226D01*
X132014Y332131D01*
X132070Y332086D01*
X132134Y332024D01*
X132165Y332009D01*
X132192Y331987D01*
X132346Y331920D01*
X134446Y331274D01*
X134480Y331269D01*
X134513Y331256D01*
X134602Y331252D01*
X134690Y331240D01*
X134724Y331247D01*
X134758Y331245D01*
X134836Y331263D01*
X135416Y330984D01*
X135448Y330975D01*
X135522Y330942D01*
X136134Y330754D01*
X136182Y330701D01*
X136236Y330630D01*
X136265Y330611D01*
X136288Y330585D01*
X136430Y330496D01*
X138411Y329544D01*
X138444Y329534D01*
X138474Y329517D01*
X138562Y329500D01*
X138647Y329474D01*
X138681Y329476D01*
X138715Y329469D01*
X138795Y329475D01*
X139327Y329113D01*
X139357Y329099D01*
X139425Y329056D01*
X140002Y328779D01*
X140042Y328719D01*
X140085Y328641D01*
X140110Y328617D01*
X140130Y328589D01*
X140257Y328479D01*
X142074Y327243D01*
X142105Y327228D01*
X142132Y327206D01*
X142216Y327176D01*
X142297Y327139D01*
X142331Y327135D01*
X142364Y327123D01*
X142443Y327117D01*
X142915Y326680D01*
X142943Y326662D01*
X143004Y326609D01*
X143533Y326249D01*
X143564Y326184D01*
X143594Y326100D01*
X143616Y326073D01*
X143631Y326042D01*
X143740Y325915D01*
X145352Y324421D01*
X145381Y324402D01*
X145405Y324377D01*
X145483Y324334D01*
X145557Y324285D01*
X145591Y324276D01*
X145621Y324260D01*
X145699Y324242D01*
X146100Y323739D01*
X146125Y323717D01*
X146178Y323656D01*
X146648Y323221D01*
X146668Y323152D01*
X146686Y323065D01*
X146703Y323035D01*
X146713Y323002D01*
X146803Y322860D01*
X148174Y321142D01*
X148200Y321119D01*
X148219Y321091D01*
X148291Y321037D01*
X148357Y320978D01*
X148388Y320964D01*
X148416Y320943D01*
X148490Y320914D01*
X148812Y320357D01*
X148833Y320331D01*
X148876Y320263D01*
X149276Y319762D01*
X149286Y319691D01*
X149291Y319603D01*
X149303Y319570D01*
X149308Y319536D01*
X149376Y319382D01*
X150476Y317480D01*
X150498Y317453D01*
X150513Y317422D01*
X150575Y317358D01*
X150631Y317290D01*
X150661Y317271D01*
X150685Y317246D01*
X150754Y317207D01*
X150989Y316608D01*
X151006Y316580D01*
X151039Y316505D01*
X151359Y315951D01*
X151359Y315879D01*
X151350Y315791D01*
X151358Y315757D01*
X151358Y315722D01*
X151401Y315560D01*
X152205Y313515D01*
X152223Y313485D01*
X152234Y313452D01*
X152286Y313380D01*
X152331Y313304D01*
X152358Y313281D01*
X152378Y313253D01*
X152440Y313204D01*
X152584Y312576D01*
X152596Y312546D01*
X152617Y312468D01*
X152852Y311872D01*
X152840Y311801D01*
X152818Y311715D01*
X152821Y311680D01*
X152816Y311646D01*
X152835Y311479D01*
X153050Y310538D01*
X153072Y310484D01*
X153084Y310428D01*
X153118Y310371D01*
X153143Y310310D01*
X153181Y310266D01*
X153211Y310217D01*
X153261Y310174D01*
X153304Y310124D01*
X153354Y310094D01*
X153398Y310057D01*
X153459Y310032D01*
X153516Y309998D01*
X153572Y309986D01*
X153626Y309965D01*
X153725Y309954D01*
X153756Y309947D01*
X153770Y309949D01*
X153792Y309946D01*
X206651Y309946D01*
X206722Y309958D01*
X206794Y309960D01*
X206843Y309978D01*
X206894Y309986D01*
X206957Y310019D01*
X207025Y310044D01*
X207066Y310077D01*
X207111Y310101D01*
X207161Y310153D01*
X207217Y310198D01*
X207245Y310242D01*
X207281Y310279D01*
X207311Y310344D01*
X207350Y310405D01*
X207363Y310455D01*
X207384Y310502D01*
X207392Y310574D01*
X207410Y310643D01*
X207406Y310695D01*
X207412Y310747D01*
X207396Y310817D01*
X207391Y310889D01*
X207370Y310936D01*
X207359Y310987D01*
X207323Y311049D01*
X207294Y311115D01*
X207250Y311171D01*
X207233Y311198D01*
X207215Y311214D01*
X207190Y311246D01*
X206877Y311558D01*
X205485Y314919D01*
X205485Y318557D01*
X206877Y321918D01*
X209450Y324491D01*
X212811Y325883D01*
X231689Y325883D01*
X235050Y324491D01*
X237623Y321918D01*
X239015Y318557D01*
X239015Y314919D01*
X237623Y311558D01*
X235050Y308985D01*
X231689Y307593D01*
X212811Y307593D01*
X210844Y308408D01*
X210750Y308430D01*
X210657Y308459D01*
X210630Y308458D01*
X210605Y308464D01*
X210508Y308455D01*
X210411Y308452D01*
X210386Y308443D01*
X210360Y308441D01*
X210271Y308401D01*
X210180Y308368D01*
X210159Y308352D01*
X210135Y308341D01*
X210064Y308275D01*
X209988Y308214D01*
X209974Y308192D01*
X209954Y308175D01*
X209907Y308089D01*
X209855Y308007D01*
X209848Y307982D01*
X209836Y307959D01*
X209818Y307863D01*
X209795Y307769D01*
X209797Y307743D01*
X209792Y307717D01*
X209806Y307620D01*
X209814Y307524D01*
X209824Y307500D01*
X209828Y307474D01*
X209872Y307387D01*
X209910Y307297D01*
X209930Y307272D01*
X209939Y307254D01*
X209963Y307231D01*
X210015Y307166D01*
X216475Y300706D01*
X216549Y300653D01*
X216619Y300593D01*
X216649Y300581D01*
X216675Y300562D01*
X216762Y300535D01*
X216847Y300501D01*
X216888Y300497D01*
X216910Y300490D01*
X216942Y300491D01*
X217014Y300483D01*
X231689Y300483D01*
X235050Y299091D01*
X237623Y296518D01*
X239015Y293157D01*
X239015Y289519D01*
X237623Y286158D01*
X235050Y283585D01*
X231689Y282193D01*
X212811Y282193D01*
X209450Y283585D01*
X206877Y286158D01*
X205485Y289519D01*
X205485Y293157D01*
X206877Y296518D01*
X209463Y299104D01*
X209465Y299105D01*
X209508Y299120D01*
X209569Y299169D01*
X209635Y299210D01*
X209664Y299245D01*
X209700Y299274D01*
X209742Y299340D01*
X209792Y299400D01*
X209808Y299442D01*
X209833Y299481D01*
X209852Y299556D01*
X209880Y299629D01*
X209882Y299675D01*
X209893Y299720D01*
X209887Y299797D01*
X209890Y299875D01*
X209877Y299919D01*
X209874Y299965D01*
X209843Y300036D01*
X209822Y300111D01*
X209796Y300149D01*
X209778Y300191D01*
X209692Y300298D01*
X209682Y300313D01*
X209678Y300316D01*
X209673Y300322D01*
X205353Y304642D01*
X205279Y304695D01*
X205210Y304754D01*
X205180Y304766D01*
X205153Y304785D01*
X205066Y304812D01*
X204981Y304846D01*
X204941Y304851D01*
X204918Y304858D01*
X204886Y304857D01*
X204815Y304865D01*
X154663Y304865D01*
X154550Y304846D01*
X154437Y304830D01*
X154429Y304826D01*
X154420Y304825D01*
X154320Y304772D01*
X154217Y304720D01*
X154211Y304714D01*
X154203Y304710D01*
X154124Y304627D01*
X154043Y304546D01*
X154040Y304538D01*
X154034Y304532D01*
X153985Y304428D01*
X153935Y304325D01*
X153933Y304315D01*
X153930Y304309D01*
X153928Y304286D01*
X153904Y304160D01*
X153894Y304030D01*
X153897Y303997D01*
X153894Y303916D01*
X153943Y303278D01*
X153911Y303213D01*
X153865Y303137D01*
X153857Y303103D01*
X153842Y303072D01*
X153811Y302907D01*
X153648Y300716D01*
X153651Y300681D01*
X153646Y300647D01*
X153662Y300559D01*
X153670Y300471D01*
X153684Y300439D01*
X153690Y300405D01*
X153724Y300334D01*
X153581Y299706D01*
X153579Y299673D01*
X153565Y299593D01*
X153517Y298955D01*
X153476Y298896D01*
X153419Y298828D01*
X153406Y298796D01*
X153387Y298767D01*
X153336Y298622D01*
X153335Y298619D01*
X153335Y298617D01*
X153332Y298609D01*
X152844Y296466D01*
X152842Y296431D01*
X152832Y296398D01*
X152834Y296309D01*
X152829Y296220D01*
X152838Y296187D01*
X152839Y296152D01*
X152862Y296076D01*
X152628Y295477D01*
X152621Y295445D01*
X152594Y295368D01*
X152452Y294744D01*
X152403Y294692D01*
X152336Y294633D01*
X152319Y294603D01*
X152295Y294577D01*
X152217Y294429D01*
X151415Y292383D01*
X151408Y292349D01*
X151393Y292317D01*
X151382Y292229D01*
X151364Y292142D01*
X151368Y292108D01*
X151364Y292073D01*
X151376Y291995D01*
X151054Y291437D01*
X151043Y291406D01*
X151005Y291335D01*
X150771Y290738D01*
X150715Y290694D01*
X150640Y290646D01*
X150618Y290619D01*
X150591Y290597D01*
X150492Y290462D01*
X149394Y288558D01*
X149382Y288526D01*
X149363Y288497D01*
X149339Y288411D01*
X149307Y288328D01*
X149306Y288293D01*
X149297Y288260D01*
X149297Y288181D01*
X148896Y287677D01*
X148880Y287648D01*
X148832Y287583D01*
X148512Y287028D01*
X148450Y286993D01*
X148369Y286956D01*
X148343Y286933D01*
X148313Y286916D01*
X148195Y286797D01*
X146826Y285078D01*
X146809Y285047D01*
X146785Y285022D01*
X146749Y284941D01*
X146706Y284863D01*
X146699Y284829D01*
X146685Y284797D01*
X146673Y284719D01*
X146202Y284281D01*
X146181Y284255D01*
X146124Y284197D01*
X145726Y283696D01*
X145659Y283671D01*
X145573Y283647D01*
X145544Y283627D01*
X145512Y283615D01*
X145377Y283515D01*
X143767Y282019D01*
X143746Y281991D01*
X143719Y281970D01*
X143671Y281895D01*
X143616Y281825D01*
X143605Y281792D01*
X143586Y281763D01*
X143563Y281687D01*
X143031Y281324D01*
X143008Y281301D01*
X142942Y281253D01*
X142473Y280817D01*
X142403Y280802D01*
X142315Y280790D01*
X142284Y280775D01*
X142250Y280768D01*
X142102Y280689D01*
X141096Y280002D01*
X141087Y279994D01*
X141078Y279989D01*
X141042Y279951D01*
X141013Y279924D01*
X140929Y279848D01*
X140925Y279840D01*
X140918Y279833D01*
X140865Y279732D01*
X140809Y279633D01*
X140807Y279624D01*
X140803Y279615D01*
X140785Y279503D01*
X140764Y279392D01*
X140765Y279382D01*
X140764Y279372D01*
X140782Y279260D01*
X140798Y279148D01*
X140803Y279137D01*
X140804Y279130D01*
X140815Y279108D01*
X140865Y278994D01*
X160244Y245292D01*
X159175Y244790D01*
X159152Y244772D01*
X159125Y244762D01*
X159073Y244713D01*
X159016Y244671D01*
X159001Y244646D01*
X158980Y244626D01*
X158951Y244561D01*
X158916Y244499D01*
X158912Y244470D01*
X158900Y244444D01*
X158899Y244373D01*
X158890Y244302D01*
X158898Y244274D01*
X158898Y244245D01*
X158932Y244152D01*
X158944Y244111D01*
X158951Y244102D01*
X158955Y244089D01*
X168312Y227838D01*
X158955Y211587D01*
X158946Y211560D01*
X158929Y211536D01*
X158915Y211466D01*
X158892Y211398D01*
X158895Y211369D01*
X158889Y211341D01*
X158903Y211271D01*
X158908Y211200D01*
X158922Y211174D01*
X158927Y211146D01*
X158967Y211087D01*
X159000Y211024D01*
X159022Y211005D01*
X159039Y210981D01*
X159121Y210924D01*
X159153Y210897D01*
X159164Y210894D01*
X159175Y210886D01*
X160703Y210167D01*
X141284Y176395D01*
X141245Y176289D01*
X141202Y176184D01*
X141201Y176174D01*
X141198Y176165D01*
X141194Y176052D01*
X141187Y175938D01*
X141190Y175929D01*
X141189Y175919D01*
X141222Y175811D01*
X141251Y175701D01*
X141257Y175693D01*
X141260Y175684D01*
X141325Y175591D01*
X141388Y175496D01*
X141397Y175489D01*
X141401Y175483D01*
X141421Y175468D01*
X141515Y175387D01*
X142102Y174987D01*
X142133Y174972D01*
X142160Y174950D01*
X142244Y174920D01*
X142325Y174883D01*
X142359Y174879D01*
X142392Y174867D01*
X142471Y174861D01*
X142942Y174423D01*
X142970Y174405D01*
X143031Y174352D01*
X143592Y173970D01*
X143657Y173939D01*
X143718Y173900D01*
X143768Y173887D01*
X143814Y173866D01*
X143886Y173858D01*
X143957Y173840D01*
X144008Y173844D01*
X144059Y173838D01*
X144130Y173853D01*
X144202Y173859D01*
X144249Y173879D01*
X144299Y173890D01*
X144362Y173927D01*
X144428Y173955D01*
X144483Y173999D01*
X144511Y174016D01*
X144526Y174034D01*
X144559Y174060D01*
X206219Y235720D01*
X206286Y235814D01*
X206357Y235909D01*
X206359Y235915D01*
X206362Y235920D01*
X206397Y236031D01*
X206433Y236143D01*
X206433Y236149D01*
X206435Y236155D01*
X206432Y236271D01*
X206431Y236388D01*
X206429Y236396D01*
X206428Y236401D01*
X206422Y236418D01*
X206384Y236550D01*
X205485Y238719D01*
X205485Y242357D01*
X206877Y245718D01*
X209450Y248291D01*
X212811Y249683D01*
X231689Y249683D01*
X235050Y248291D01*
X237623Y245718D01*
X239015Y242357D01*
X239015Y238719D01*
X237623Y235358D01*
X235050Y232785D01*
X231689Y231393D01*
X212811Y231393D01*
X210642Y232292D01*
X210528Y232319D01*
X210414Y232347D01*
X210408Y232347D01*
X210402Y232348D01*
X210286Y232337D01*
X210169Y232328D01*
X210164Y232326D01*
X210157Y232325D01*
X210050Y232277D01*
X209943Y232232D01*
X209937Y232227D01*
X209933Y232225D01*
X209919Y232212D01*
X209812Y232127D01*
X147953Y170268D01*
X147906Y170202D01*
X147895Y170191D01*
X147891Y170182D01*
X147831Y170109D01*
X147823Y170087D01*
X147809Y170068D01*
X147780Y169972D01*
X147744Y169878D01*
X147744Y169855D01*
X147737Y169833D01*
X147739Y169733D01*
X147736Y169633D01*
X147743Y169610D01*
X147743Y169587D01*
X147778Y169493D01*
X147806Y169397D01*
X147822Y169372D01*
X147828Y169356D01*
X147848Y169330D01*
X147896Y169255D01*
X148195Y168879D01*
X148221Y168856D01*
X148240Y168827D01*
X148311Y168774D01*
X148377Y168714D01*
X148409Y168700D01*
X148437Y168679D01*
X148511Y168650D01*
X148832Y168093D01*
X148853Y168067D01*
X148896Y167999D01*
X149295Y167498D01*
X149305Y167427D01*
X149309Y167338D01*
X149322Y167306D01*
X149327Y167271D01*
X149355Y167208D01*
X149357Y167199D01*
X149364Y167188D01*
X149394Y167118D01*
X150492Y165214D01*
X150514Y165187D01*
X150529Y165156D01*
X150591Y165092D01*
X150648Y165023D01*
X150677Y165005D01*
X150701Y164980D01*
X150770Y164941D01*
X151005Y164341D01*
X151022Y164313D01*
X151054Y164239D01*
X151374Y163684D01*
X151373Y163612D01*
X151364Y163524D01*
X151372Y163490D01*
X151372Y163455D01*
X151415Y163293D01*
X151675Y162632D01*
X152217Y161247D01*
X152235Y161217D01*
X152245Y161184D01*
X152297Y161112D01*
X152343Y161036D01*
X152369Y161013D01*
X152389Y160985D01*
X152451Y160935D01*
X152594Y160308D01*
X152607Y160277D01*
X152628Y160199D01*
X152861Y159603D01*
X152850Y159532D01*
X152828Y159446D01*
X152830Y159411D01*
X152825Y159377D01*
X152844Y159210D01*
X153332Y157067D01*
X153345Y157035D01*
X153350Y157001D01*
X153391Y156922D01*
X153424Y156840D01*
X153447Y156813D01*
X153463Y156783D01*
X153517Y156724D01*
X153565Y156083D01*
X153572Y156051D01*
X153581Y155970D01*
X153724Y155346D01*
X153702Y155277D01*
X153667Y155195D01*
X153665Y155161D01*
X153654Y155128D01*
X153648Y154960D01*
X153811Y152769D01*
X153819Y152735D01*
X153819Y152700D01*
X153848Y152616D01*
X153868Y152529D01*
X153887Y152500D01*
X153898Y152467D01*
X153943Y152402D01*
X153894Y151760D01*
X153897Y151727D01*
X153894Y151646D01*
X153942Y151007D01*
X153910Y150943D01*
X153864Y150867D01*
X153856Y150833D01*
X153841Y150802D01*
X153810Y150637D01*
X153644Y148446D01*
X153647Y148411D01*
X153642Y148377D01*
X153658Y148290D01*
X153665Y148201D01*
X153679Y148169D01*
X153685Y148135D01*
X153720Y148064D01*
X153576Y147436D01*
X153574Y147403D01*
X153559Y147324D01*
X153511Y146685D01*
X153473Y146630D01*
X153437Y146592D01*
X153431Y146579D01*
X153413Y146558D01*
X153400Y146526D01*
X153380Y146497D01*
X153344Y146392D01*
X153333Y146369D01*
X153332Y146358D01*
X153325Y146339D01*
X152835Y144197D01*
X152833Y144162D01*
X152823Y144129D01*
X152825Y144040D01*
X152819Y143951D01*
X152828Y143918D01*
X152829Y143883D01*
X152853Y143807D01*
X152617Y143208D01*
X152610Y143176D01*
X152584Y143100D01*
X152441Y142475D01*
X152392Y142423D01*
X152325Y142364D01*
X152308Y142334D01*
X152284Y142309D01*
X152205Y142161D01*
X151401Y140116D01*
X151394Y140082D01*
X151379Y140050D01*
X151368Y139962D01*
X151349Y139875D01*
X151353Y139841D01*
X151349Y139806D01*
X151361Y139728D01*
X151039Y139171D01*
X151027Y139140D01*
X150989Y139068D01*
X150755Y138472D01*
X150699Y138428D01*
X150624Y138380D01*
X150602Y138353D01*
X150575Y138331D01*
X150496Y138224D01*
X150491Y138218D01*
X150489Y138214D01*
X150476Y138196D01*
X149376Y136294D01*
X149363Y136261D01*
X149344Y136232D01*
X149320Y136147D01*
X149288Y136063D01*
X149287Y136029D01*
X149278Y135995D01*
X149278Y135916D01*
X148876Y135413D01*
X148860Y135384D01*
X148812Y135319D01*
X148492Y134765D01*
X148429Y134730D01*
X148348Y134693D01*
X148323Y134669D01*
X148293Y134652D01*
X148174Y134534D01*
X146803Y132816D01*
X146786Y132786D01*
X146762Y132760D01*
X146726Y132679D01*
X146682Y132602D01*
X146676Y132568D01*
X146662Y132536D01*
X146650Y132457D01*
X146178Y132020D01*
X146158Y131994D01*
X146100Y131937D01*
X145701Y131436D01*
X145634Y131411D01*
X145548Y131387D01*
X145520Y131367D01*
X145487Y131355D01*
X145352Y131255D01*
X143740Y129761D01*
X143719Y129734D01*
X143692Y129712D01*
X143644Y129637D01*
X143589Y129567D01*
X143578Y129534D01*
X143559Y129505D01*
X143536Y129429D01*
X143004Y129067D01*
X142980Y129044D01*
X142915Y128996D01*
X142445Y128561D01*
X142375Y128545D01*
X142287Y128534D01*
X142256Y128519D01*
X142222Y128512D01*
X142074Y128433D01*
X140257Y127197D01*
X140232Y127173D01*
X140202Y127155D01*
X140143Y127088D01*
X140079Y127027D01*
X140063Y126996D01*
X140040Y126970D01*
X140005Y126899D01*
X139425Y126620D01*
X139398Y126601D01*
X139327Y126563D01*
X138797Y126203D01*
X138726Y126198D01*
X138637Y126200D01*
X138604Y126190D01*
X138569Y126188D01*
X138411Y126132D01*
X136430Y125180D01*
X136402Y125160D01*
X136370Y125147D01*
X136302Y125090D01*
X136229Y125039D01*
X136208Y125011D01*
X136182Y124989D01*
X136137Y124923D01*
X135522Y124734D01*
X135492Y124719D01*
X135416Y124692D01*
X134839Y124415D01*
X134767Y124421D01*
X134680Y124436D01*
X134645Y124431D01*
X134611Y124434D01*
X134446Y124402D01*
X132346Y123756D01*
X132315Y123741D01*
X132281Y123733D01*
X132205Y123686D01*
X132125Y123647D01*
X132101Y123622D01*
X132071Y123604D01*
X132017Y123546D01*
X131381Y123450D01*
X131349Y123440D01*
X131270Y123425D01*
X130658Y123236D01*
X130588Y123253D01*
X130504Y123281D01*
X130469Y123281D01*
X130435Y123289D01*
X130268Y123283D01*
X128094Y122957D01*
X128061Y122946D01*
X128027Y122943D01*
X127945Y122909D01*
X127860Y122881D01*
X127832Y122861D01*
X127800Y122847D01*
X127738Y122798D01*
X127095Y122798D01*
X127062Y122793D01*
X126981Y122790D01*
X126348Y122695D01*
X126282Y122721D01*
X126202Y122762D01*
X126168Y122767D01*
X126136Y122780D01*
X125969Y122799D01*
X123772Y122800D01*
X123737Y122795D01*
X123703Y122797D01*
X123617Y122775D01*
X123529Y122761D01*
X123498Y122744D01*
X123465Y122736D01*
X123396Y122696D01*
X122760Y122792D01*
X122727Y122792D01*
X122646Y122801D01*
X122006Y122801D01*
X121944Y122838D01*
X121872Y122890D01*
X121839Y122900D01*
X121809Y122917D01*
X121647Y122961D01*
X119474Y123290D01*
X119439Y123289D01*
X119405Y123297D01*
X119317Y123288D01*
X119228Y123287D01*
X119195Y123275D01*
X119161Y123272D01*
X119087Y123243D01*
X118472Y123433D01*
X118439Y123437D01*
X118361Y123458D01*
X117728Y123554D01*
X117672Y123599D01*
X117608Y123661D01*
X117577Y123676D01*
X117550Y123698D01*
X117396Y123765D01*
X115297Y124414D01*
X115263Y124419D01*
X115230Y124431D01*
X115141Y124436D01*
X115053Y124448D01*
X115019Y124441D01*
X114985Y124443D01*
X114907Y124425D01*
X114327Y124705D01*
X114296Y124714D01*
X114222Y124746D01*
X113610Y124936D01*
X113561Y124989D01*
X113508Y125060D01*
X113479Y125079D01*
X113456Y125105D01*
X113314Y125194D01*
X112800Y125441D01*
X112690Y125474D01*
X112580Y125509D01*
X112572Y125509D01*
X112565Y125511D01*
X112450Y125507D01*
X112334Y125505D01*
X112327Y125502D01*
X112319Y125502D01*
X112211Y125461D01*
X112102Y125422D01*
X112096Y125417D01*
X112089Y125415D01*
X112000Y125342D01*
X111909Y125270D01*
X111903Y125263D01*
X111898Y125259D01*
X111887Y125241D01*
X111810Y125135D01*
X92292Y91191D01*
X90672Y92313D01*
X90645Y92325D01*
X90623Y92344D01*
X90582Y92356D01*
X90563Y92367D01*
X90537Y92371D01*
X90490Y92392D01*
X90460Y92392D01*
X90432Y92400D01*
X90362Y92392D01*
X90291Y92393D01*
X90264Y92381D01*
X90234Y92378D01*
X90197Y92357D01*
X90189Y92355D01*
X90170Y92342D01*
X90107Y92316D01*
X90087Y92295D01*
X90061Y92280D01*
X90037Y92251D01*
X90025Y92243D01*
X90007Y92215D01*
X89999Y92205D01*
X89969Y92174D01*
X89964Y92163D01*
X89955Y92152D01*
X80599Y75902D01*
X61888Y75902D01*
X61859Y75896D01*
X61829Y75899D01*
X61762Y75877D01*
X61693Y75863D01*
X61669Y75846D01*
X61640Y75837D01*
X61587Y75790D01*
X61529Y75750D01*
X61513Y75725D01*
X61491Y75705D01*
X61460Y75642D01*
X61422Y75583D01*
X61417Y75553D01*
X61404Y75526D01*
X61396Y75429D01*
X61389Y75386D01*
X61392Y75375D01*
X61391Y75361D01*
X61430Y74900D01*
X22587Y74900D01*
X22474Y74881D01*
X22361Y74865D01*
X22353Y74861D01*
X22344Y74860D01*
X22243Y74807D01*
X22141Y74755D01*
X22135Y74749D01*
X22127Y74745D01*
X22048Y74662D01*
X21968Y74581D01*
X21964Y74573D01*
X21958Y74567D01*
X21909Y74463D01*
X21859Y74360D01*
X21857Y74350D01*
X21854Y74343D01*
X21851Y74321D01*
X21828Y74195D01*
X21674Y72142D01*
X21677Y72107D01*
X21672Y72073D01*
X21688Y71985D01*
X21696Y71897D01*
X21709Y71865D01*
X21716Y71831D01*
X21750Y71759D01*
X21607Y71132D01*
X21605Y71099D01*
X21590Y71019D01*
X21542Y70381D01*
X21501Y70322D01*
X21444Y70254D01*
X21431Y70221D01*
X21412Y70193D01*
X21356Y70035D01*
X20866Y67888D01*
X20864Y67853D01*
X20854Y67820D01*
X20857Y67731D01*
X20851Y67642D01*
X20860Y67609D01*
X20861Y67574D01*
X20885Y67498D01*
X20650Y66899D01*
X20643Y66867D01*
X20616Y66791D01*
X20474Y66166D01*
X20424Y66114D01*
X20358Y66055D01*
X20340Y66025D01*
X20316Y66000D01*
X20238Y65852D01*
X19434Y63802D01*
X19427Y63768D01*
X19412Y63737D01*
X19401Y63648D01*
X19382Y63561D01*
X19386Y63527D01*
X19382Y63493D01*
X19394Y63414D01*
X19072Y62857D01*
X19060Y62826D01*
X19023Y62754D01*
X18789Y62158D01*
X18732Y62114D01*
X18658Y62066D01*
X18636Y62038D01*
X18609Y62017D01*
X18509Y61882D01*
X17408Y59975D01*
X17396Y59943D01*
X17377Y59914D01*
X17353Y59828D01*
X17321Y59745D01*
X17320Y59710D01*
X17311Y59677D01*
X17311Y59597D01*
X16910Y59094D01*
X16896Y59069D01*
X16876Y59048D01*
X16867Y59030D01*
X16846Y59000D01*
X16525Y58446D01*
X16463Y58410D01*
X16382Y58374D01*
X16356Y58350D01*
X16326Y58333D01*
X16208Y58214D01*
X14835Y56493D01*
X14818Y56462D01*
X14795Y56437D01*
X14758Y56356D01*
X14715Y56278D01*
X14708Y56244D01*
X14694Y56212D01*
X14682Y56134D01*
X14211Y55696D01*
X14190Y55670D01*
X14133Y55613D01*
X13734Y55112D01*
X13667Y55086D01*
X13581Y55062D01*
X13553Y55043D01*
X13520Y55030D01*
X13386Y54931D01*
X12237Y53864D01*
X12216Y53837D01*
X12189Y53816D01*
X12140Y53741D01*
X12086Y53670D01*
X12074Y53638D01*
X12056Y53609D01*
X12034Y53522D01*
X12005Y53438D01*
X12004Y53404D01*
X11996Y53371D01*
X12003Y53282D01*
X12002Y53192D01*
X12012Y53159D01*
X12015Y53125D01*
X12050Y53043D01*
X12077Y52958D01*
X12098Y52930D01*
X12111Y52899D01*
X12180Y52813D01*
X12187Y52801D01*
X12196Y52793D01*
X12216Y52768D01*
X17608Y47376D01*
X17682Y47323D01*
X17752Y47263D01*
X17782Y47251D01*
X17808Y47232D01*
X17895Y47206D01*
X17980Y47171D01*
X18021Y47167D01*
X18043Y47160D01*
X18075Y47161D01*
X18146Y47153D01*
X134177Y47153D01*
X134267Y47168D01*
X134358Y47175D01*
X134387Y47188D01*
X134419Y47193D01*
X134500Y47235D01*
X134584Y47271D01*
X134616Y47297D01*
X134637Y47308D01*
X134659Y47331D01*
X134715Y47376D01*
X182656Y95317D01*
X182709Y95391D01*
X182769Y95461D01*
X182781Y95491D01*
X182800Y95517D01*
X182827Y95604D01*
X182861Y95689D01*
X182865Y95730D01*
X182872Y95752D01*
X182871Y95784D01*
X182879Y95856D01*
X182879Y153960D01*
X184591Y155672D01*
X209673Y180754D01*
X209700Y180791D01*
X209733Y180822D01*
X209771Y180891D01*
X209816Y180954D01*
X209830Y180998D01*
X209852Y181038D01*
X209866Y181114D01*
X209889Y181189D01*
X209887Y181235D01*
X209896Y181280D01*
X209884Y181357D01*
X209882Y181435D01*
X209867Y181478D01*
X209860Y181523D01*
X209825Y181593D01*
X209798Y181666D01*
X209769Y181701D01*
X209748Y181742D01*
X209693Y181797D01*
X209644Y181858D01*
X209606Y181882D01*
X209573Y181915D01*
X209457Y181978D01*
X206877Y184558D01*
X205485Y187919D01*
X205485Y191557D01*
X206877Y194918D01*
X209450Y197491D01*
X212811Y198883D01*
X231689Y198883D01*
X235050Y197491D01*
X237623Y194918D01*
X239015Y191557D01*
X239015Y187919D01*
X237623Y184558D01*
X235050Y181985D01*
X231689Y180593D01*
X217014Y180593D01*
X216924Y180579D01*
X216833Y180571D01*
X216803Y180559D01*
X216771Y180554D01*
X216690Y180511D01*
X216606Y180475D01*
X216574Y180449D01*
X216554Y180438D01*
X216531Y180415D01*
X216475Y180370D01*
X210015Y173910D01*
X209958Y173831D01*
X209896Y173756D01*
X209887Y173731D01*
X209871Y173710D01*
X209843Y173617D01*
X209808Y173526D01*
X209807Y173500D01*
X209799Y173475D01*
X209801Y173378D01*
X209797Y173280D01*
X209805Y173255D01*
X209805Y173229D01*
X209839Y173138D01*
X209866Y173044D01*
X209881Y173023D01*
X209890Y172998D01*
X209951Y172922D01*
X210006Y172842D01*
X210027Y172826D01*
X210043Y172806D01*
X210125Y172753D01*
X210204Y172695D01*
X210228Y172687D01*
X210250Y172673D01*
X210345Y172649D01*
X210437Y172619D01*
X210464Y172619D01*
X210489Y172613D01*
X210586Y172620D01*
X210683Y172621D01*
X210715Y172631D01*
X210734Y172632D01*
X210764Y172645D01*
X210844Y172668D01*
X212811Y173483D01*
X231689Y173483D01*
X235050Y172091D01*
X237623Y169518D01*
X239015Y166157D01*
X239015Y162519D01*
X237623Y159158D01*
X235050Y156585D01*
X231689Y155193D01*
X212811Y155193D01*
X209450Y156585D01*
X206877Y159158D01*
X205485Y162519D01*
X205485Y166157D01*
X206300Y168124D01*
X206322Y168218D01*
X206351Y168311D01*
X206350Y168338D01*
X206356Y168363D01*
X206347Y168460D01*
X206344Y168557D01*
X206335Y168582D01*
X206333Y168608D01*
X206293Y168697D01*
X206260Y168788D01*
X206244Y168809D01*
X206233Y168833D01*
X206167Y168904D01*
X206106Y168980D01*
X206084Y168994D01*
X206067Y169014D01*
X205981Y169061D01*
X205899Y169113D01*
X205874Y169120D01*
X205851Y169132D01*
X205755Y169150D01*
X205661Y169173D01*
X205635Y169171D01*
X205609Y169176D01*
X205512Y169162D01*
X205416Y169154D01*
X205392Y169144D01*
X205366Y169140D01*
X205279Y169096D01*
X205189Y169058D01*
X205164Y169038D01*
X205146Y169029D01*
X205123Y169005D01*
X205058Y168953D01*
X188184Y152079D01*
X188131Y152005D01*
X188071Y151935D01*
X188059Y151905D01*
X188040Y151879D01*
X188013Y151792D01*
X187979Y151707D01*
X187975Y151666D01*
X187968Y151644D01*
X187969Y151612D01*
X187961Y151540D01*
X187961Y93436D01*
X136597Y42072D01*
X15726Y42072D01*
X7928Y49870D01*
X7870Y49912D01*
X7817Y49961D01*
X7770Y49983D01*
X7728Y50013D01*
X7660Y50034D01*
X7594Y50065D01*
X7543Y50070D01*
X7493Y50086D01*
X7421Y50084D01*
X7349Y50092D01*
X7299Y50081D01*
X7247Y50079D01*
X7180Y50054D01*
X7109Y50039D01*
X7047Y50006D01*
X7016Y49995D01*
X6998Y49980D01*
X6961Y49960D01*
X6827Y49869D01*
X6755Y49864D01*
X6666Y49867D01*
X6633Y49856D01*
X6599Y49854D01*
X6441Y49798D01*
X4457Y48843D01*
X4428Y48823D01*
X4396Y48810D01*
X4328Y48753D01*
X4255Y48702D01*
X4235Y48674D01*
X4208Y48652D01*
X4164Y48586D01*
X3549Y48396D01*
X3519Y48381D01*
X3443Y48355D01*
X2866Y48077D01*
X2794Y48083D01*
X2707Y48098D01*
X2672Y48093D01*
X2638Y48096D01*
X2473Y48064D01*
X369Y47415D01*
X338Y47400D01*
X304Y47392D01*
X228Y47346D01*
X149Y47306D01*
X124Y47281D01*
X95Y47263D01*
X41Y47205D01*
X-596Y47109D01*
X-627Y47099D01*
X-707Y47084D01*
X-1319Y46895D01*
X-1388Y46911D01*
X-1473Y46940D01*
X-1507Y46940D01*
X-1541Y46948D01*
X-1709Y46941D01*
X-3886Y46613D01*
X-3919Y46602D01*
X-3954Y46600D01*
X-4035Y46565D01*
X-4120Y46538D01*
X-4148Y46517D01*
X-4180Y46503D01*
X-4242Y46454D01*
X-4885Y46454D01*
X-4918Y46448D01*
X-4999Y46445D01*
X-5632Y46350D01*
X-5699Y46377D01*
X-5778Y46417D01*
X-5812Y46422D01*
X-5844Y46435D01*
X-6011Y46454D01*
X-8213Y46454D01*
X-8247Y46448D01*
G37*
%LPD*%
G36*
X-5063Y47986D02*
X-5063Y47986D01*
X-5020Y47985D01*
X-1030Y48586D01*
X-1000Y48597D01*
X-957Y48603D01*
X2899Y49792D01*
X2927Y49808D01*
X2969Y49820D01*
X6605Y51571D01*
X6630Y51590D01*
X6669Y51608D01*
X10003Y53881D01*
X10026Y53904D01*
X10062Y53928D01*
X13020Y56672D01*
X13039Y56698D01*
X13071Y56727D01*
X15587Y59882D01*
X15601Y59910D01*
X15629Y59944D01*
X17647Y63439D01*
X17657Y63469D01*
X17679Y63506D01*
X19153Y67262D01*
X19154Y67269D01*
X19156Y67270D01*
X19160Y67297D01*
X19175Y67334D01*
X20073Y71268D01*
X20074Y71300D01*
X20084Y71342D01*
X20386Y75366D01*
X20382Y75393D01*
X20387Y75420D01*
X20370Y75490D01*
X20361Y75563D01*
X20347Y75587D01*
X20341Y75613D01*
X20298Y75672D01*
X20261Y75735D01*
X20239Y75751D01*
X20223Y75773D01*
X20160Y75810D01*
X20102Y75854D01*
X20075Y75861D01*
X20052Y75875D01*
X19948Y75892D01*
X19909Y75902D01*
X19899Y75900D01*
X19888Y75902D01*
X-34112Y75902D01*
X-34139Y75897D01*
X-34166Y75899D01*
X-34235Y75877D01*
X-34307Y75863D01*
X-34329Y75847D01*
X-34355Y75839D01*
X-34411Y75791D01*
X-34471Y75750D01*
X-34485Y75727D01*
X-34506Y75709D01*
X-34539Y75644D01*
X-34578Y75583D01*
X-34582Y75556D01*
X-34594Y75531D01*
X-34604Y75427D01*
X-34611Y75386D01*
X-34609Y75377D01*
X-34610Y75366D01*
X-34308Y71342D01*
X-34300Y71311D01*
X-34297Y71268D01*
X-33399Y67334D01*
X-33386Y67305D01*
X-33377Y67262D01*
X-31903Y63506D01*
X-31886Y63479D01*
X-31871Y63439D01*
X-29853Y59944D01*
X-29832Y59920D01*
X-29811Y59882D01*
X-27295Y56727D01*
X-27270Y56707D01*
X-27244Y56672D01*
X-24286Y53928D01*
X-24259Y53911D01*
X-24227Y53881D01*
X-20893Y51608D01*
X-20864Y51595D01*
X-20829Y51571D01*
X-17193Y49820D01*
X-17162Y49812D01*
X-17123Y49792D01*
X-13267Y48603D01*
X-13236Y48600D01*
X-13194Y48586D01*
X-9204Y47985D01*
X-9172Y47986D01*
X-9130Y47979D01*
X-5094Y47979D01*
X-5063Y47986D01*
G37*
G36*
X19915Y379779D02*
X19915Y379779D01*
X19942Y379777D01*
X20011Y379799D01*
X20083Y379813D01*
X20105Y379829D01*
X20131Y379837D01*
X20187Y379885D01*
X20247Y379926D01*
X20261Y379949D01*
X20282Y379967D01*
X20315Y380032D01*
X20354Y380093D01*
X20358Y380120D01*
X20370Y380145D01*
X20380Y380249D01*
X20387Y380290D01*
X20385Y380299D01*
X20386Y380310D01*
X20084Y384334D01*
X20076Y384365D01*
X20073Y384408D01*
X19175Y388342D01*
X19162Y388371D01*
X19153Y388414D01*
X17679Y392170D01*
X17662Y392197D01*
X17647Y392238D01*
X15629Y395732D01*
X15608Y395756D01*
X15587Y395794D01*
X13071Y398949D01*
X13046Y398969D01*
X13020Y399004D01*
X10062Y401748D01*
X10035Y401765D01*
X10003Y401795D01*
X6669Y404068D01*
X6640Y404081D01*
X6605Y404106D01*
X2969Y405856D01*
X2938Y405864D01*
X2899Y405884D01*
X-957Y407073D01*
X-988Y407076D01*
X-1030Y407090D01*
X-5020Y407691D01*
X-5052Y407690D01*
X-5094Y407697D01*
X-9130Y407697D01*
X-9161Y407690D01*
X-9204Y407691D01*
X-13194Y407090D01*
X-13224Y407079D01*
X-13267Y407073D01*
X-17123Y405884D01*
X-17151Y405868D01*
X-17193Y405856D01*
X-20829Y404106D01*
X-20854Y404086D01*
X-20893Y404068D01*
X-24227Y401795D01*
X-24250Y401772D01*
X-24286Y401748D01*
X-27244Y399004D01*
X-27263Y398978D01*
X-27295Y398949D01*
X-29811Y395794D01*
X-29825Y395766D01*
X-29853Y395732D01*
X-31871Y392238D01*
X-31881Y392207D01*
X-31903Y392170D01*
X-33377Y388414D01*
X-33383Y388382D01*
X-33399Y388342D01*
X-34297Y384408D01*
X-34298Y384376D01*
X-34308Y384334D01*
X-34610Y380310D01*
X-34606Y380283D01*
X-34611Y380256D01*
X-34594Y380186D01*
X-34585Y380113D01*
X-34571Y380089D01*
X-34565Y380063D01*
X-34522Y380004D01*
X-34485Y379941D01*
X-34463Y379925D01*
X-34447Y379903D01*
X-34384Y379866D01*
X-34326Y379822D01*
X-34299Y379815D01*
X-34276Y379801D01*
X-34172Y379784D01*
X-34133Y379774D01*
X-34123Y379776D01*
X-34112Y379774D01*
X19888Y379774D01*
X19915Y379779D01*
G37*
G36*
X-152584Y280116D02*
X-152584Y280116D01*
X-152511Y280117D01*
X-152486Y280127D01*
X-152459Y280130D01*
X-152396Y280166D01*
X-152329Y280195D01*
X-152310Y280214D01*
X-152286Y280227D01*
X-152219Y280309D01*
X-152191Y280338D01*
X-152187Y280347D01*
X-152180Y280356D01*
X-125180Y327056D01*
X-125171Y327081D01*
X-125155Y327104D01*
X-125140Y327175D01*
X-125117Y327244D01*
X-125119Y327271D01*
X-125113Y327298D01*
X-125126Y327370D01*
X-125132Y327442D01*
X-125144Y327467D01*
X-125149Y327493D01*
X-125190Y327554D01*
X-125223Y327619D01*
X-125244Y327636D01*
X-125259Y327659D01*
X-125345Y327720D01*
X-125377Y327746D01*
X-125386Y327748D01*
X-125395Y327755D01*
X-129026Y329506D01*
X-129057Y329514D01*
X-129095Y329534D01*
X-132947Y330724D01*
X-132979Y330727D01*
X-133020Y330741D01*
X-137005Y331344D01*
X-137037Y331343D01*
X-137080Y331350D01*
X-141111Y331352D01*
X-141142Y331346D01*
X-141185Y331347D01*
X-145172Y330748D01*
X-145202Y330737D01*
X-145245Y330732D01*
X-149098Y329546D01*
X-149126Y329531D01*
X-149167Y329519D01*
X-152800Y327772D01*
X-152825Y327753D01*
X-152865Y327735D01*
X-156197Y325466D01*
X-156219Y325443D01*
X-156255Y325419D01*
X-159212Y322679D01*
X-159230Y322653D01*
X-159263Y322624D01*
X-161778Y319474D01*
X-161793Y319446D01*
X-161820Y319413D01*
X-163838Y315923D01*
X-163848Y315893D01*
X-163870Y315856D01*
X-164507Y314235D01*
X-165293Y312238D01*
X-165345Y312104D01*
X-165351Y312072D01*
X-165367Y312033D01*
X-166267Y308103D01*
X-166267Y308071D01*
X-166278Y308029D01*
X-166582Y304009D01*
X-166578Y303978D01*
X-166582Y303935D01*
X-166283Y299915D01*
X-166274Y299884D01*
X-166272Y299841D01*
X-165377Y295910D01*
X-165364Y295881D01*
X-165355Y295839D01*
X-163885Y292086D01*
X-163867Y292059D01*
X-163852Y292018D01*
X-161839Y288526D01*
X-161818Y288502D01*
X-161797Y288464D01*
X-159285Y285311D01*
X-159261Y285291D01*
X-159235Y285256D01*
X-156281Y282513D01*
X-156254Y282496D01*
X-156223Y282466D01*
X-152894Y280193D01*
X-152868Y280183D01*
X-152847Y280165D01*
X-152778Y280144D01*
X-152710Y280116D01*
X-152683Y280116D01*
X-152657Y280108D01*
X-152584Y280116D01*
G37*
G36*
X138393Y280116D02*
X138393Y280116D01*
X138466Y280112D01*
X138491Y280122D01*
X138518Y280124D01*
X138614Y280168D01*
X138652Y280182D01*
X138659Y280188D01*
X138670Y280193D01*
X141999Y282466D01*
X142021Y282489D01*
X142057Y282513D01*
X145011Y285256D01*
X145029Y285282D01*
X145061Y285311D01*
X147573Y288464D01*
X147587Y288493D01*
X147615Y288526D01*
X149628Y292018D01*
X149638Y292048D01*
X149661Y292086D01*
X150569Y294405D01*
X150765Y294904D01*
X150960Y295403D01*
X150961Y295404D01*
X151131Y295839D01*
X151137Y295870D01*
X151153Y295910D01*
X152048Y299841D01*
X152048Y299873D01*
X152059Y299915D01*
X152358Y303935D01*
X152354Y303966D01*
X152358Y304009D01*
X152054Y308029D01*
X152045Y308060D01*
X152043Y308103D01*
X151143Y312033D01*
X151130Y312062D01*
X151121Y312104D01*
X149646Y315856D01*
X149629Y315882D01*
X149614Y315923D01*
X147596Y319413D01*
X147575Y319436D01*
X147554Y319474D01*
X145039Y322624D01*
X145014Y322645D01*
X144988Y322679D01*
X142031Y325419D01*
X142004Y325436D01*
X141973Y325466D01*
X138641Y327735D01*
X138611Y327747D01*
X138576Y327772D01*
X134943Y329519D01*
X134912Y329526D01*
X134874Y329546D01*
X131021Y330732D01*
X130989Y330735D01*
X130948Y330748D01*
X126961Y331347D01*
X126930Y331345D01*
X126887Y331352D01*
X122856Y331350D01*
X122825Y331343D01*
X122781Y331344D01*
X118796Y330741D01*
X118766Y330730D01*
X118723Y330724D01*
X114871Y329534D01*
X114844Y329519D01*
X114802Y329506D01*
X111171Y327755D01*
X111149Y327739D01*
X111124Y327729D01*
X111071Y327679D01*
X111013Y327635D01*
X110999Y327611D01*
X110980Y327593D01*
X110950Y327526D01*
X110914Y327462D01*
X110911Y327435D01*
X110900Y327410D01*
X110899Y327337D01*
X110890Y327265D01*
X110898Y327239D01*
X110898Y327212D01*
X110934Y327113D01*
X110946Y327074D01*
X110952Y327067D01*
X110956Y327056D01*
X137956Y280356D01*
X137974Y280335D01*
X137985Y280311D01*
X138039Y280261D01*
X138088Y280207D01*
X138112Y280195D01*
X138132Y280177D01*
X138201Y280153D01*
X138267Y280121D01*
X138294Y280120D01*
X138320Y280111D01*
X138393Y280116D01*
G37*
G36*
X-137080Y124126D02*
X-137080Y124126D01*
X-137049Y124133D01*
X-137005Y124132D01*
X-133020Y124735D01*
X-132990Y124746D01*
X-132947Y124752D01*
X-129095Y125942D01*
X-129068Y125957D01*
X-129026Y125970D01*
X-125395Y127721D01*
X-125373Y127737D01*
X-125348Y127747D01*
X-125295Y127797D01*
X-125237Y127841D01*
X-125223Y127865D01*
X-125204Y127883D01*
X-125174Y127950D01*
X-125138Y128014D01*
X-125135Y128041D01*
X-125124Y128066D01*
X-125123Y128139D01*
X-125114Y128211D01*
X-125122Y128237D01*
X-125122Y128265D01*
X-125158Y128363D01*
X-125170Y128402D01*
X-125176Y128410D01*
X-125180Y128420D01*
X-152180Y175120D01*
X-152198Y175141D01*
X-152209Y175165D01*
X-152263Y175215D01*
X-152312Y175269D01*
X-152336Y175281D01*
X-152356Y175299D01*
X-152425Y175323D01*
X-152491Y175355D01*
X-152518Y175356D01*
X-152544Y175365D01*
X-152617Y175360D01*
X-152690Y175364D01*
X-152715Y175354D01*
X-152742Y175352D01*
X-152838Y175308D01*
X-152876Y175294D01*
X-152883Y175288D01*
X-152894Y175283D01*
X-156223Y173010D01*
X-156245Y172987D01*
X-156281Y172963D01*
X-159235Y170220D01*
X-159253Y170194D01*
X-159285Y170165D01*
X-161797Y167012D01*
X-161811Y166983D01*
X-161839Y166950D01*
X-163852Y163458D01*
X-163862Y163428D01*
X-163885Y163390D01*
X-165355Y159637D01*
X-165361Y159606D01*
X-165377Y159566D01*
X-166272Y155635D01*
X-166272Y155603D01*
X-166283Y155561D01*
X-166582Y151541D01*
X-166578Y151510D01*
X-166582Y151467D01*
X-166278Y147447D01*
X-166269Y147416D01*
X-166267Y147373D01*
X-165367Y143443D01*
X-165354Y143414D01*
X-165345Y143372D01*
X-163870Y139621D01*
X-163853Y139594D01*
X-163838Y139553D01*
X-161820Y136063D01*
X-161799Y136040D01*
X-161778Y136002D01*
X-159263Y132852D01*
X-159238Y132831D01*
X-159212Y132797D01*
X-156255Y130057D01*
X-156228Y130040D01*
X-156197Y130010D01*
X-152865Y127742D01*
X-152835Y127729D01*
X-152800Y127704D01*
X-149167Y125957D01*
X-149136Y125950D01*
X-149098Y125930D01*
X-145245Y124744D01*
X-145213Y124741D01*
X-145172Y124728D01*
X-141185Y124129D01*
X-141154Y124131D01*
X-141111Y124124D01*
X-137080Y124126D01*
G37*
G36*
X126918Y124330D02*
X126918Y124330D01*
X126961Y124329D01*
X130948Y124928D01*
X130978Y124939D01*
X131021Y124944D01*
X134874Y126130D01*
X134902Y126145D01*
X134943Y126157D01*
X138576Y127904D01*
X138601Y127923D01*
X138641Y127942D01*
X141973Y130210D01*
X141995Y130233D01*
X142031Y130257D01*
X144988Y132997D01*
X145006Y133023D01*
X145039Y133052D01*
X147554Y136202D01*
X147569Y136230D01*
X147596Y136263D01*
X149614Y139753D01*
X149624Y139784D01*
X149646Y139821D01*
X151121Y143572D01*
X151127Y143604D01*
X151131Y143615D01*
X151132Y143615D01*
X151143Y143643D01*
X152043Y147573D01*
X152043Y147605D01*
X152054Y147647D01*
X152358Y151667D01*
X152354Y151698D01*
X152358Y151741D01*
X152059Y155761D01*
X152050Y155792D01*
X152048Y155835D01*
X151153Y159766D01*
X151140Y159795D01*
X151131Y159837D01*
X149661Y163590D01*
X149643Y163617D01*
X149628Y163658D01*
X147615Y167150D01*
X147594Y167174D01*
X147573Y167212D01*
X145061Y170365D01*
X145037Y170385D01*
X145011Y170420D01*
X142057Y173163D01*
X142030Y173180D01*
X141999Y173210D01*
X138670Y175483D01*
X138644Y175493D01*
X138623Y175511D01*
X138554Y175532D01*
X138486Y175560D01*
X138459Y175560D01*
X138433Y175568D01*
X138360Y175560D01*
X138287Y175560D01*
X138262Y175549D01*
X138235Y175546D01*
X138172Y175510D01*
X138105Y175481D01*
X138086Y175462D01*
X138062Y175449D01*
X137995Y175367D01*
X137967Y175338D01*
X137963Y175329D01*
X137956Y175320D01*
X110956Y128620D01*
X110947Y128595D01*
X110931Y128572D01*
X110916Y128501D01*
X110893Y128432D01*
X110895Y128405D01*
X110889Y128378D01*
X110902Y128306D01*
X110908Y128234D01*
X110920Y128209D01*
X110925Y128183D01*
X110966Y128122D01*
X110999Y128057D01*
X111020Y128040D01*
X111035Y128017D01*
X111121Y127956D01*
X111153Y127930D01*
X111162Y127928D01*
X111171Y127921D01*
X114802Y126170D01*
X114833Y126162D01*
X114871Y126142D01*
X118723Y124952D01*
X118755Y124949D01*
X118796Y124935D01*
X122781Y124332D01*
X122813Y124333D01*
X122856Y124326D01*
X126887Y124324D01*
X126918Y124330D01*
G37*
%LPC*%
G36*
X-244002Y375225D02*
X-244002Y375225D01*
X-244895Y376118D01*
X-244895Y393382D01*
X-244002Y394275D01*
X-215738Y394275D01*
X-214795Y393331D01*
X-214792Y393318D01*
X-214739Y393229D01*
X-214690Y393138D01*
X-214676Y393124D01*
X-214666Y393107D01*
X-214587Y393040D01*
X-214512Y392968D01*
X-214494Y392960D01*
X-214479Y392947D01*
X-214383Y392908D01*
X-214289Y392865D01*
X-214269Y392863D01*
X-214251Y392855D01*
X-214084Y392837D01*
X-211165Y392837D01*
X-211075Y392851D01*
X-210984Y392859D01*
X-210954Y392871D01*
X-210922Y392876D01*
X-210841Y392919D01*
X-210758Y392955D01*
X-210725Y392981D01*
X-210705Y392992D01*
X-210683Y393015D01*
X-210627Y393060D01*
X-210132Y393555D01*
X-196868Y393555D01*
X-196373Y393060D01*
X-196299Y393007D01*
X-196230Y392947D01*
X-196200Y392935D01*
X-196174Y392916D01*
X-196087Y392889D01*
X-196002Y392855D01*
X-195961Y392851D01*
X-195939Y392844D01*
X-195906Y392845D01*
X-195835Y392837D01*
X-195439Y392837D01*
X-195348Y392851D01*
X-195258Y392859D01*
X-195228Y392871D01*
X-195196Y392876D01*
X-195115Y392919D01*
X-195031Y392955D01*
X-194999Y392981D01*
X-194978Y392992D01*
X-194956Y393015D01*
X-194900Y393060D01*
X-194280Y393680D01*
X-194227Y393754D01*
X-194167Y393824D01*
X-194155Y393854D01*
X-194136Y393880D01*
X-194109Y393967D01*
X-194075Y394052D01*
X-194071Y394093D01*
X-194064Y394115D01*
X-194065Y394147D01*
X-194057Y394219D01*
X-194057Y403341D01*
X-194071Y403432D01*
X-194079Y403522D01*
X-194091Y403552D01*
X-194096Y403584D01*
X-194139Y403665D01*
X-194175Y403749D01*
X-194201Y403781D01*
X-194212Y403802D01*
X-194235Y403824D01*
X-194280Y403880D01*
X-194900Y404500D01*
X-194974Y404553D01*
X-195044Y404613D01*
X-195074Y404625D01*
X-195100Y404644D01*
X-195187Y404671D01*
X-195272Y404705D01*
X-195313Y404709D01*
X-195335Y404716D01*
X-195367Y404715D01*
X-195439Y404723D01*
X-195835Y404723D01*
X-195925Y404709D01*
X-196016Y404701D01*
X-196046Y404689D01*
X-196078Y404684D01*
X-196159Y404641D01*
X-196242Y404605D01*
X-196275Y404579D01*
X-196295Y404568D01*
X-196317Y404545D01*
X-196373Y404500D01*
X-196868Y404005D01*
X-210132Y404005D01*
X-211025Y404898D01*
X-211025Y411662D01*
X-210132Y412555D01*
X-196868Y412555D01*
X-196373Y412060D01*
X-196299Y412007D01*
X-196230Y411947D01*
X-196200Y411935D01*
X-196174Y411916D01*
X-196087Y411889D01*
X-196002Y411855D01*
X-195961Y411851D01*
X-195939Y411844D01*
X-195906Y411845D01*
X-195835Y411837D01*
X-192177Y411837D01*
X-186943Y406603D01*
X-186943Y390957D01*
X-192177Y385723D01*
X-195835Y385723D01*
X-195925Y385709D01*
X-196016Y385701D01*
X-196046Y385689D01*
X-196078Y385684D01*
X-196159Y385641D01*
X-196242Y385605D01*
X-196275Y385579D01*
X-196295Y385568D01*
X-196317Y385545D01*
X-196373Y385500D01*
X-196868Y385005D01*
X-210132Y385005D01*
X-210627Y385500D01*
X-210701Y385553D01*
X-210770Y385613D01*
X-210800Y385625D01*
X-210826Y385644D01*
X-210913Y385671D01*
X-210998Y385705D01*
X-211039Y385709D01*
X-211061Y385716D01*
X-211094Y385715D01*
X-211165Y385723D01*
X-214084Y385723D01*
X-214104Y385720D01*
X-214123Y385722D01*
X-214225Y385700D01*
X-214327Y385684D01*
X-214344Y385674D01*
X-214364Y385670D01*
X-214453Y385617D01*
X-214544Y385568D01*
X-214558Y385554D01*
X-214575Y385544D01*
X-214642Y385465D01*
X-214714Y385390D01*
X-214722Y385372D01*
X-214735Y385357D01*
X-214774Y385261D01*
X-214817Y385167D01*
X-214819Y385147D01*
X-214827Y385129D01*
X-214845Y384962D01*
X-214845Y376118D01*
X-215738Y375225D01*
X-244002Y375225D01*
G37*
%LPD*%
%LPC*%
G36*
X-181322Y339305D02*
X-181322Y339305D01*
X-182215Y340198D01*
X-182215Y366094D01*
X-182218Y366114D01*
X-182216Y366133D01*
X-182238Y366235D01*
X-182254Y366337D01*
X-182264Y366354D01*
X-182268Y366374D01*
X-182321Y366463D01*
X-182370Y366554D01*
X-182384Y366568D01*
X-182394Y366585D01*
X-182473Y366652D01*
X-182548Y366724D01*
X-182566Y366732D01*
X-182581Y366745D01*
X-182677Y366784D01*
X-182771Y366827D01*
X-182791Y366829D01*
X-182809Y366837D01*
X-182976Y366855D01*
X-185592Y366855D01*
X-186485Y367748D01*
X-186485Y379012D01*
X-185592Y379905D01*
X-183778Y379905D01*
X-183758Y379908D01*
X-183739Y379906D01*
X-183637Y379928D01*
X-183535Y379944D01*
X-183518Y379954D01*
X-183498Y379958D01*
X-183409Y380011D01*
X-183318Y380060D01*
X-183304Y380074D01*
X-183287Y380084D01*
X-183220Y380163D01*
X-183148Y380238D01*
X-183140Y380256D01*
X-183127Y380271D01*
X-183088Y380367D01*
X-183045Y380461D01*
X-183043Y380481D01*
X-183035Y380499D01*
X-183017Y380666D01*
X-183017Y384244D01*
X-183020Y384264D01*
X-183018Y384283D01*
X-183040Y384385D01*
X-183056Y384487D01*
X-183066Y384504D01*
X-183070Y384524D01*
X-183123Y384613D01*
X-183172Y384704D01*
X-183186Y384718D01*
X-183196Y384735D01*
X-183275Y384802D01*
X-183350Y384874D01*
X-183368Y384882D01*
X-183383Y384895D01*
X-183479Y384934D01*
X-183573Y384977D01*
X-183593Y384979D01*
X-183611Y384987D01*
X-183778Y385005D01*
X-184132Y385005D01*
X-185025Y385898D01*
X-185025Y392662D01*
X-184132Y393555D01*
X-170868Y393555D01*
X-169975Y392662D01*
X-169975Y385898D01*
X-170868Y385005D01*
X-175142Y385005D01*
X-175162Y385002D01*
X-175181Y385004D01*
X-175283Y384982D01*
X-175385Y384966D01*
X-175402Y384956D01*
X-175422Y384952D01*
X-175511Y384899D01*
X-175602Y384850D01*
X-175616Y384836D01*
X-175633Y384826D01*
X-175700Y384747D01*
X-175772Y384672D01*
X-175780Y384654D01*
X-175793Y384639D01*
X-175832Y384543D01*
X-175875Y384449D01*
X-175877Y384429D01*
X-175885Y384411D01*
X-175903Y384244D01*
X-175903Y380666D01*
X-175900Y380646D01*
X-175902Y380627D01*
X-175880Y380525D01*
X-175864Y380423D01*
X-175854Y380406D01*
X-175850Y380386D01*
X-175797Y380297D01*
X-175748Y380206D01*
X-175734Y380192D01*
X-175724Y380175D01*
X-175645Y380108D01*
X-175570Y380036D01*
X-175552Y380028D01*
X-175537Y380015D01*
X-175441Y379976D01*
X-175347Y379933D01*
X-175327Y379931D01*
X-175309Y379923D01*
X-175142Y379905D01*
X-173328Y379905D01*
X-172435Y379012D01*
X-172435Y370116D01*
X-172432Y370096D01*
X-172434Y370077D01*
X-172412Y369975D01*
X-172396Y369873D01*
X-172386Y369856D01*
X-172382Y369836D01*
X-172329Y369747D01*
X-172280Y369656D01*
X-172266Y369642D01*
X-172256Y369625D01*
X-172177Y369558D01*
X-172102Y369486D01*
X-172084Y369478D01*
X-172069Y369465D01*
X-171973Y369426D01*
X-171879Y369383D01*
X-171859Y369381D01*
X-171841Y369373D01*
X-171674Y369355D01*
X-164058Y369355D01*
X-163165Y368462D01*
X-163165Y340198D01*
X-164058Y339305D01*
X-181322Y339305D01*
G37*
%LPD*%
%LPC*%
G36*
X-244389Y307593D02*
X-244389Y307593D01*
X-247750Y308985D01*
X-250323Y311558D01*
X-251715Y314919D01*
X-251715Y318557D01*
X-250323Y321918D01*
X-247750Y324491D01*
X-244389Y325883D01*
X-225511Y325883D01*
X-222150Y324491D01*
X-219577Y321918D01*
X-218185Y318557D01*
X-218185Y314919D01*
X-219577Y311558D01*
X-222150Y308985D01*
X-225511Y307593D01*
X-244389Y307593D01*
G37*
%LPD*%
%LPC*%
G36*
X212811Y256793D02*
X212811Y256793D01*
X209450Y258185D01*
X206877Y260758D01*
X205485Y264119D01*
X205485Y267757D01*
X206877Y271118D01*
X209450Y273691D01*
X212811Y275083D01*
X231689Y275083D01*
X235050Y273691D01*
X237623Y271118D01*
X239015Y267757D01*
X239015Y264119D01*
X237623Y260758D01*
X235050Y258185D01*
X231689Y256793D01*
X212811Y256793D01*
G37*
%LPD*%
%LPC*%
G36*
X-244389Y256793D02*
X-244389Y256793D01*
X-247750Y258185D01*
X-250323Y260758D01*
X-251715Y264119D01*
X-251715Y267757D01*
X-250323Y271118D01*
X-247750Y273691D01*
X-244389Y275083D01*
X-225511Y275083D01*
X-222150Y273691D01*
X-219577Y271118D01*
X-218185Y267757D01*
X-218185Y264119D01*
X-219577Y260758D01*
X-222150Y258185D01*
X-225511Y256793D01*
X-244389Y256793D01*
G37*
%LPD*%
%LPC*%
G36*
X212811Y205993D02*
X212811Y205993D01*
X209450Y207385D01*
X206877Y209958D01*
X205485Y213319D01*
X205485Y216957D01*
X206877Y220318D01*
X209450Y222891D01*
X212811Y224283D01*
X231689Y224283D01*
X235050Y222891D01*
X237623Y220318D01*
X239015Y216957D01*
X239015Y213319D01*
X237623Y209958D01*
X235050Y207385D01*
X231689Y205993D01*
X212811Y205993D01*
G37*
%LPD*%
%LPC*%
G36*
X-244389Y205993D02*
X-244389Y205993D01*
X-247750Y207385D01*
X-250323Y209958D01*
X-251715Y213319D01*
X-251715Y216957D01*
X-250323Y220318D01*
X-247750Y222891D01*
X-244389Y224283D01*
X-225511Y224283D01*
X-222150Y222891D01*
X-219577Y220318D01*
X-218185Y216957D01*
X-218185Y213319D01*
X-219577Y209958D01*
X-222150Y207385D01*
X-225511Y205993D01*
X-244389Y205993D01*
G37*
%LPD*%
%LPC*%
G36*
X-244389Y155193D02*
X-244389Y155193D01*
X-247750Y156585D01*
X-250323Y159158D01*
X-251715Y162519D01*
X-251715Y166157D01*
X-250323Y169518D01*
X-247750Y172091D01*
X-244389Y173483D01*
X-225511Y173483D01*
X-222150Y172091D01*
X-219577Y169518D01*
X-218185Y166157D01*
X-218185Y162519D01*
X-219577Y159158D01*
X-222150Y156585D01*
X-225511Y155193D01*
X-244389Y155193D01*
G37*
%LPD*%
%LPC*%
G36*
X-244389Y129793D02*
X-244389Y129793D01*
X-247750Y131185D01*
X-250323Y133758D01*
X-251715Y137119D01*
X-251715Y140757D01*
X-250323Y144118D01*
X-247750Y146691D01*
X-244389Y148083D01*
X-225511Y148083D01*
X-222150Y146691D01*
X-219577Y144118D01*
X-218185Y140757D01*
X-218185Y137119D01*
X-219577Y133758D01*
X-222150Y131185D01*
X-225511Y129793D01*
X-244389Y129793D01*
G37*
%LPD*%
%LPC*%
G36*
X212811Y129793D02*
X212811Y129793D01*
X209450Y131185D01*
X206877Y133758D01*
X205485Y137119D01*
X205485Y140757D01*
X206877Y144118D01*
X209450Y146691D01*
X212811Y148083D01*
X231689Y148083D01*
X235050Y146691D01*
X237623Y144118D01*
X239015Y140757D01*
X239015Y137119D01*
X237623Y133758D01*
X235050Y131185D01*
X231689Y129793D01*
X212811Y129793D01*
G37*
%LPD*%
%LPC*%
G36*
X-184132Y404005D02*
X-184132Y404005D01*
X-185025Y404898D01*
X-185025Y411662D01*
X-184132Y412555D01*
X-182546Y412555D01*
X-182526Y412558D01*
X-182507Y412556D01*
X-182405Y412578D01*
X-182303Y412594D01*
X-182286Y412604D01*
X-182266Y412608D01*
X-182177Y412661D01*
X-182086Y412710D01*
X-182072Y412724D01*
X-182055Y412734D01*
X-181988Y412813D01*
X-181916Y412888D01*
X-181908Y412906D01*
X-181895Y412921D01*
X-181856Y413017D01*
X-181813Y413111D01*
X-181811Y413131D01*
X-181803Y413149D01*
X-181785Y413316D01*
X-181785Y425622D01*
X-180892Y426515D01*
X-169628Y426515D01*
X-168735Y425622D01*
X-168735Y413358D01*
X-169752Y412341D01*
X-169800Y412275D01*
X-169806Y412268D01*
X-169808Y412264D01*
X-169865Y412198D01*
X-169877Y412168D01*
X-169896Y412142D01*
X-169923Y412055D01*
X-169957Y411970D01*
X-169961Y411929D01*
X-169968Y411907D01*
X-169967Y411874D01*
X-169975Y411803D01*
X-169975Y404898D01*
X-170868Y404005D01*
X-184132Y404005D01*
G37*
%LPD*%
D10*
X84888Y387173D03*
X176888Y227838D03*
X84888Y68503D03*
X-99112Y68503D03*
X-191112Y227838D03*
X-99112Y387173D03*
X130888Y307406D03*
X130888Y148271D03*
X-7112Y68503D03*
X-145112Y148071D03*
X-145112Y307406D03*
X-7112Y387173D03*
D11*
X214630Y113538D02*
X229870Y113538D01*
X229870Y138938D02*
X214630Y138938D01*
X214630Y164338D02*
X229870Y164338D01*
X229870Y189738D02*
X214630Y189738D01*
X214630Y215138D02*
X229870Y215138D01*
X229870Y240538D02*
X214630Y240538D01*
X214630Y265938D02*
X229870Y265938D01*
X229870Y291338D02*
X214630Y291338D01*
X214630Y316738D02*
X229870Y316738D01*
X229870Y342138D02*
X214630Y342138D01*
X-227330Y113538D02*
X-242570Y113538D01*
X-242570Y138938D02*
X-227330Y138938D01*
X-227330Y164338D02*
X-242570Y164338D01*
X-242570Y189738D02*
X-227330Y189738D01*
X-227330Y215138D02*
X-242570Y215138D01*
X-242570Y240538D02*
X-227330Y240538D01*
X-227330Y265938D02*
X-242570Y265938D01*
X-242570Y291338D02*
X-227330Y291338D01*
X-227330Y316738D02*
X-242570Y316738D01*
X-242570Y342138D02*
X-227330Y342138D01*
D12*
X-203500Y389280D03*
X-203500Y398780D03*
X-203500Y408280D03*
X-177500Y408280D03*
X-177500Y389280D03*
D13*
X-175260Y419490D03*
X-175260Y436490D03*
D14*
X-172690Y354330D03*
X-200690Y354330D03*
D15*
X-229870Y384750D03*
X-229870Y412750D03*
D16*
X-179460Y373380D03*
X-196460Y373380D03*
D17*
X-172690Y354330D03*
D18*
X-179460Y373380D01*
X-179460Y387320D02*
X-177500Y389280D01*
X-179460Y387320D02*
X-179460Y373380D01*
D17*
X-229870Y384750D03*
D18*
X-225340Y389280D01*
X-203500Y389280D01*
X-203500Y408280D02*
X-193650Y408280D01*
X-190500Y405130D01*
X-190500Y392430D01*
X-193650Y389280D02*
X-203500Y389280D01*
X-193650Y389280D02*
X-190500Y392430D01*
D19*
X206183Y307406D02*
X222250Y291338D01*
X206183Y307406D02*
X130888Y307406D01*
X214630Y240538D02*
X222250Y240538D01*
X214630Y240538D02*
X130888Y156796D01*
X130888Y148271D01*
X185420Y152908D02*
X222250Y189738D01*
X185420Y152908D02*
X185420Y94488D01*
X135544Y44612D01*
X16779Y44612D01*
X-7112Y68503D01*
X-145112Y148071D02*
X-186780Y189738D01*
X-234950Y189738D01*
X-211980Y240538D02*
X-145112Y307406D01*
X-211980Y240538D02*
X-234950Y240538D01*
X-234950Y291338D02*
X-205232Y291338D01*
X-130810Y365760D01*
X-130810Y396240D01*
X-113030Y414020D01*
X-33959Y414020D01*
X-7112Y387173D01*
D18*
X-177500Y408280D02*
X-177500Y417250D01*
X-175260Y419490D01*
M02*
