G04 EAGLE Gerber RS-274X export*
G75*
%MOMM*%
%FSLAX34Y34*%
%LPD*%
%IN*%
%IPPOS*%
%AMOC8*
5,1,8,0,0,1.08239X$1,22.5*%
G01*
%ADD10C,0.254000*%


D10*
X-260604Y25400D02*
X-260507Y23186D01*
X-260218Y20989D01*
X-259739Y18826D01*
X-259072Y16713D01*
X-258224Y14666D01*
X-257201Y12700D01*
X-256010Y10831D01*
X-254662Y9073D01*
X-253165Y7440D01*
X-251531Y5942D01*
X-249773Y4594D01*
X-247904Y3403D01*
X-245939Y2380D01*
X-243891Y1532D01*
X-241778Y865D01*
X-239615Y386D01*
X-237418Y97D01*
X-235204Y0D01*
X221996Y0D01*
X224210Y97D01*
X226407Y386D01*
X228570Y865D01*
X230683Y1532D01*
X232731Y2380D01*
X234696Y3403D01*
X236565Y4594D01*
X238323Y5942D01*
X239957Y7440D01*
X241454Y9073D01*
X242802Y10831D01*
X243993Y12700D01*
X245016Y14666D01*
X245864Y16713D01*
X246531Y18826D01*
X247010Y20989D01*
X247299Y23186D01*
X247396Y25400D01*
X247396Y431038D01*
X247299Y433252D01*
X247010Y435449D01*
X246531Y437612D01*
X245864Y439725D01*
X245016Y441773D01*
X243993Y443738D01*
X242802Y445607D01*
X241454Y447365D01*
X239957Y448999D01*
X238323Y450496D01*
X236565Y451844D01*
X234696Y453035D01*
X232731Y454058D01*
X230683Y454906D01*
X228570Y455573D01*
X226407Y456052D01*
X224210Y456341D01*
X221996Y456438D01*
X-235204Y456438D01*
X-237418Y456341D01*
X-239615Y456052D01*
X-241778Y455573D01*
X-243891Y454906D01*
X-245939Y454058D01*
X-247904Y453035D01*
X-249773Y451844D01*
X-251531Y450496D01*
X-253165Y448999D01*
X-254662Y447365D01*
X-256010Y445607D01*
X-257201Y443738D01*
X-258224Y441773D01*
X-259072Y439725D01*
X-259739Y437612D01*
X-260218Y435449D01*
X-260507Y433252D01*
X-260604Y431038D01*
X-260604Y25400D01*
X-183112Y227838D02*
X-95112Y75403D01*
X80888Y75403D01*
X168888Y227838D01*
X80888Y380273D01*
X-95112Y380273D01*
X-183112Y227838D01*
M02*
