G04 EAGLE Gerber RS-274X export*
G75*
%MOMM*%
%FSLAX34Y34*%
%LPD*%
%INSilkscreen Bottom*%
%IPPOS*%
%AMOC8*
5,1,8,0,0,1.08239X$1,22.5*%
G01*
%ADD10C,0.101600*%
%ADD11C,0.152400*%
%ADD12C,0.076200*%


D10*
X109916Y403333D02*
X108321Y404450D01*
X104598Y399133D01*
X107788Y396899D01*
X107871Y396844D01*
X107955Y396792D01*
X108042Y396743D01*
X108130Y396697D01*
X108220Y396655D01*
X108312Y396616D01*
X108405Y396581D01*
X108499Y396549D01*
X108594Y396521D01*
X108691Y396497D01*
X108788Y396476D01*
X108886Y396460D01*
X108985Y396446D01*
X109084Y396437D01*
X109183Y396432D01*
X109283Y396430D01*
X109382Y396432D01*
X109481Y396438D01*
X109580Y396448D01*
X109679Y396461D01*
X109777Y396479D01*
X109874Y396500D01*
X109970Y396524D01*
X110066Y396553D01*
X110160Y396585D01*
X110253Y396620D01*
X110344Y396659D01*
X110434Y396702D01*
X110522Y396748D01*
X110608Y396797D01*
X110693Y396850D01*
X110775Y396906D01*
X110855Y396965D01*
X110933Y397027D01*
X111008Y397092D01*
X111081Y397159D01*
X111151Y397230D01*
X111219Y397303D01*
X111283Y397379D01*
X111345Y397457D01*
X111404Y397537D01*
X115127Y402854D01*
X115182Y402937D01*
X115234Y403021D01*
X115283Y403108D01*
X115329Y403196D01*
X115371Y403286D01*
X115410Y403378D01*
X115445Y403471D01*
X115477Y403565D01*
X115505Y403660D01*
X115529Y403757D01*
X115550Y403854D01*
X115566Y403952D01*
X115580Y404051D01*
X115589Y404150D01*
X115594Y404249D01*
X115596Y404349D01*
X115594Y404448D01*
X115588Y404547D01*
X115578Y404646D01*
X115565Y404745D01*
X115547Y404843D01*
X115526Y404940D01*
X115502Y405036D01*
X115473Y405132D01*
X115441Y405226D01*
X115406Y405319D01*
X115367Y405410D01*
X115324Y405500D01*
X115278Y405588D01*
X115229Y405674D01*
X115176Y405759D01*
X115120Y405841D01*
X115061Y405921D01*
X114999Y405999D01*
X114934Y406074D01*
X114867Y406147D01*
X114796Y406217D01*
X114723Y406285D01*
X114647Y406349D01*
X114569Y406411D01*
X114489Y406470D01*
X114490Y406470D02*
X111299Y408704D01*
X106630Y411974D02*
X99928Y402403D01*
X94611Y406126D02*
X106630Y411974D01*
X101312Y415697D02*
X94611Y406126D01*
X89941Y409396D02*
X96642Y418967D01*
X93984Y420828D01*
X93984Y420829D02*
X93890Y420892D01*
X93794Y420952D01*
X93696Y421009D01*
X93596Y421062D01*
X93494Y421112D01*
X93390Y421158D01*
X93285Y421200D01*
X93179Y421239D01*
X93071Y421274D01*
X92962Y421305D01*
X92852Y421333D01*
X92741Y421356D01*
X92630Y421376D01*
X92518Y421392D01*
X92405Y421404D01*
X92292Y421412D01*
X92179Y421416D01*
X92065Y421416D01*
X91952Y421412D01*
X91839Y421404D01*
X91726Y421392D01*
X91614Y421376D01*
X91503Y421356D01*
X91392Y421333D01*
X91282Y421305D01*
X91173Y421274D01*
X91065Y421239D01*
X90959Y421200D01*
X90854Y421158D01*
X90750Y421112D01*
X90648Y421062D01*
X90548Y421009D01*
X90450Y420952D01*
X90354Y420892D01*
X90260Y420829D01*
X90169Y420762D01*
X90079Y420693D01*
X89992Y420620D01*
X89908Y420544D01*
X89827Y420465D01*
X89748Y420384D01*
X89672Y420300D01*
X89599Y420213D01*
X89530Y420124D01*
X89463Y420032D01*
X89464Y420031D02*
X86485Y415778D01*
X86422Y415684D01*
X86362Y415588D01*
X86305Y415490D01*
X86252Y415390D01*
X86202Y415288D01*
X86156Y415184D01*
X86114Y415079D01*
X86075Y414973D01*
X86040Y414865D01*
X86009Y414756D01*
X85981Y414646D01*
X85958Y414535D01*
X85938Y414424D01*
X85922Y414312D01*
X85910Y414199D01*
X85902Y414086D01*
X85898Y413973D01*
X85898Y413859D01*
X85902Y413746D01*
X85910Y413633D01*
X85922Y413520D01*
X85938Y413408D01*
X85958Y413297D01*
X85981Y413186D01*
X86009Y413076D01*
X86040Y412967D01*
X86075Y412859D01*
X86114Y412753D01*
X86156Y412648D01*
X86202Y412544D01*
X86252Y412442D01*
X86305Y412342D01*
X86362Y412244D01*
X86422Y412148D01*
X86485Y412054D01*
X86552Y411962D01*
X86621Y411873D01*
X86694Y411786D01*
X86770Y411702D01*
X86849Y411621D01*
X86930Y411542D01*
X87014Y411466D01*
X87101Y411393D01*
X87191Y411324D01*
X87282Y411257D01*
X89941Y409396D01*
X185566Y258949D02*
X187514Y258949D01*
X185566Y258949D02*
X185566Y252458D01*
X189461Y252458D01*
X189560Y252460D01*
X189660Y252466D01*
X189759Y252475D01*
X189857Y252488D01*
X189955Y252505D01*
X190053Y252526D01*
X190149Y252551D01*
X190244Y252579D01*
X190338Y252611D01*
X190431Y252646D01*
X190523Y252685D01*
X190613Y252728D01*
X190701Y252773D01*
X190788Y252823D01*
X190872Y252875D01*
X190955Y252931D01*
X191035Y252989D01*
X191113Y253051D01*
X191188Y253116D01*
X191261Y253184D01*
X191331Y253254D01*
X191399Y253327D01*
X191464Y253402D01*
X191526Y253480D01*
X191584Y253560D01*
X191640Y253643D01*
X191692Y253727D01*
X191742Y253814D01*
X191787Y253902D01*
X191830Y253992D01*
X191869Y254084D01*
X191904Y254177D01*
X191936Y254271D01*
X191964Y254366D01*
X191989Y254462D01*
X192010Y254560D01*
X192027Y254658D01*
X192040Y254756D01*
X192049Y254855D01*
X192055Y254955D01*
X192057Y255054D01*
X192058Y255054D02*
X192058Y261546D01*
X192057Y261546D02*
X192055Y261645D01*
X192049Y261745D01*
X192040Y261844D01*
X192027Y261942D01*
X192010Y262040D01*
X191989Y262138D01*
X191964Y262234D01*
X191936Y262329D01*
X191904Y262423D01*
X191869Y262516D01*
X191830Y262608D01*
X191787Y262698D01*
X191742Y262786D01*
X191692Y262873D01*
X191640Y262957D01*
X191584Y263040D01*
X191526Y263120D01*
X191464Y263198D01*
X191399Y263273D01*
X191331Y263346D01*
X191261Y263416D01*
X191188Y263484D01*
X191113Y263549D01*
X191035Y263611D01*
X190955Y263669D01*
X190872Y263725D01*
X190788Y263777D01*
X190701Y263827D01*
X190613Y263872D01*
X190523Y263915D01*
X190431Y263954D01*
X190338Y263989D01*
X190244Y264021D01*
X190149Y264049D01*
X190053Y264074D01*
X189955Y264095D01*
X189857Y264112D01*
X189759Y264125D01*
X189660Y264134D01*
X189560Y264140D01*
X189461Y264142D01*
X185566Y264142D01*
X179866Y264142D02*
X179866Y252458D01*
X173374Y252458D02*
X179866Y264142D01*
X173374Y264142D02*
X173374Y252458D01*
X167674Y252458D02*
X167674Y264142D01*
X164428Y264142D01*
X164315Y264140D01*
X164202Y264134D01*
X164089Y264124D01*
X163976Y264110D01*
X163864Y264093D01*
X163753Y264071D01*
X163643Y264046D01*
X163533Y264016D01*
X163425Y263983D01*
X163318Y263946D01*
X163212Y263906D01*
X163108Y263861D01*
X163005Y263813D01*
X162904Y263762D01*
X162805Y263707D01*
X162708Y263649D01*
X162613Y263587D01*
X162520Y263522D01*
X162430Y263454D01*
X162342Y263383D01*
X162256Y263308D01*
X162173Y263231D01*
X162093Y263151D01*
X162016Y263068D01*
X161941Y262982D01*
X161870Y262894D01*
X161802Y262804D01*
X161737Y262711D01*
X161675Y262616D01*
X161617Y262519D01*
X161562Y262420D01*
X161511Y262319D01*
X161463Y262216D01*
X161418Y262112D01*
X161378Y262006D01*
X161341Y261899D01*
X161308Y261791D01*
X161278Y261681D01*
X161253Y261571D01*
X161231Y261460D01*
X161214Y261348D01*
X161200Y261235D01*
X161190Y261122D01*
X161184Y261009D01*
X161182Y260896D01*
X161182Y255704D01*
X161184Y255591D01*
X161190Y255478D01*
X161200Y255365D01*
X161214Y255252D01*
X161231Y255140D01*
X161253Y255029D01*
X161278Y254919D01*
X161308Y254809D01*
X161341Y254701D01*
X161378Y254594D01*
X161418Y254488D01*
X161463Y254384D01*
X161511Y254281D01*
X161562Y254180D01*
X161617Y254081D01*
X161675Y253984D01*
X161737Y253889D01*
X161802Y253796D01*
X161870Y253706D01*
X161941Y253618D01*
X162016Y253532D01*
X162093Y253449D01*
X162173Y253369D01*
X162256Y253292D01*
X162342Y253217D01*
X162430Y253146D01*
X162520Y253078D01*
X162613Y253013D01*
X162708Y252951D01*
X162805Y252893D01*
X162904Y252838D01*
X163005Y252787D01*
X163108Y252739D01*
X163212Y252694D01*
X163318Y252654D01*
X163425Y252617D01*
X163533Y252584D01*
X163643Y252554D01*
X163753Y252529D01*
X163864Y252507D01*
X163976Y252490D01*
X164089Y252476D01*
X164202Y252466D01*
X164315Y252460D01*
X164428Y252458D01*
X167674Y252458D01*
X110441Y52200D02*
X108846Y51083D01*
X112569Y45766D01*
X115760Y48000D01*
X115759Y48000D02*
X115839Y48059D01*
X115917Y48121D01*
X115993Y48185D01*
X116066Y48253D01*
X116137Y48323D01*
X116204Y48396D01*
X116269Y48471D01*
X116331Y48549D01*
X116390Y48629D01*
X116446Y48711D01*
X116499Y48796D01*
X116548Y48882D01*
X116594Y48970D01*
X116637Y49060D01*
X116676Y49151D01*
X116711Y49244D01*
X116743Y49338D01*
X116772Y49434D01*
X116796Y49530D01*
X116817Y49627D01*
X116835Y49725D01*
X116848Y49824D01*
X116858Y49923D01*
X116864Y50022D01*
X116866Y50121D01*
X116864Y50221D01*
X116859Y50320D01*
X116849Y50419D01*
X116836Y50518D01*
X116820Y50616D01*
X116799Y50713D01*
X116775Y50810D01*
X116747Y50905D01*
X116715Y50999D01*
X116680Y51092D01*
X116641Y51184D01*
X116599Y51274D01*
X116553Y51362D01*
X116504Y51449D01*
X116452Y51533D01*
X116397Y51616D01*
X112674Y56933D01*
X112615Y57013D01*
X112553Y57091D01*
X112489Y57167D01*
X112421Y57240D01*
X112351Y57311D01*
X112278Y57378D01*
X112203Y57443D01*
X112125Y57505D01*
X112045Y57564D01*
X111963Y57620D01*
X111878Y57673D01*
X111792Y57722D01*
X111704Y57768D01*
X111614Y57811D01*
X111523Y57850D01*
X111430Y57885D01*
X111336Y57917D01*
X111240Y57946D01*
X111144Y57970D01*
X111047Y57991D01*
X110949Y58009D01*
X110850Y58022D01*
X110751Y58032D01*
X110652Y58038D01*
X110553Y58040D01*
X110453Y58038D01*
X110354Y58033D01*
X110255Y58024D01*
X110156Y58010D01*
X110058Y57994D01*
X109961Y57973D01*
X109864Y57949D01*
X109769Y57921D01*
X109675Y57889D01*
X109582Y57854D01*
X109490Y57815D01*
X109400Y57773D01*
X109312Y57727D01*
X109225Y57678D01*
X109141Y57626D01*
X109058Y57571D01*
X105868Y55337D01*
X101198Y52067D02*
X107899Y42496D01*
X102582Y38773D02*
X101198Y52067D01*
X95881Y48344D02*
X102582Y38773D01*
X97912Y35503D02*
X91211Y45074D01*
X88552Y43212D01*
X88552Y43213D02*
X88461Y43146D01*
X88371Y43077D01*
X88284Y43004D01*
X88200Y42928D01*
X88119Y42849D01*
X88040Y42768D01*
X87964Y42684D01*
X87891Y42597D01*
X87822Y42508D01*
X87755Y42416D01*
X87692Y42322D01*
X87632Y42226D01*
X87575Y42128D01*
X87522Y42028D01*
X87472Y41926D01*
X87426Y41822D01*
X87384Y41717D01*
X87345Y41611D01*
X87310Y41503D01*
X87279Y41394D01*
X87251Y41284D01*
X87228Y41173D01*
X87208Y41062D01*
X87192Y40950D01*
X87180Y40837D01*
X87172Y40724D01*
X87168Y40611D01*
X87168Y40497D01*
X87172Y40384D01*
X87180Y40271D01*
X87192Y40158D01*
X87208Y40046D01*
X87228Y39935D01*
X87251Y39824D01*
X87279Y39714D01*
X87310Y39605D01*
X87345Y39497D01*
X87384Y39391D01*
X87426Y39286D01*
X87472Y39182D01*
X87522Y39080D01*
X87575Y38980D01*
X87632Y38882D01*
X87692Y38786D01*
X87755Y38692D01*
X90734Y34438D01*
X90733Y34438D02*
X90800Y34347D01*
X90869Y34257D01*
X90942Y34170D01*
X91018Y34086D01*
X91097Y34005D01*
X91178Y33926D01*
X91262Y33850D01*
X91349Y33777D01*
X91439Y33708D01*
X91530Y33641D01*
X91624Y33578D01*
X91720Y33518D01*
X91818Y33461D01*
X91918Y33408D01*
X92020Y33358D01*
X92124Y33312D01*
X92229Y33270D01*
X92335Y33231D01*
X92443Y33196D01*
X92552Y33165D01*
X92662Y33137D01*
X92773Y33114D01*
X92884Y33094D01*
X92996Y33078D01*
X93109Y33066D01*
X93222Y33058D01*
X93335Y33054D01*
X93449Y33054D01*
X93562Y33058D01*
X93675Y33066D01*
X93788Y33078D01*
X93900Y33094D01*
X94011Y33114D01*
X94122Y33137D01*
X94232Y33165D01*
X94341Y33196D01*
X94449Y33231D01*
X94555Y33270D01*
X94660Y33312D01*
X94764Y33358D01*
X94866Y33408D01*
X94966Y33461D01*
X95064Y33518D01*
X95160Y33578D01*
X95254Y33641D01*
X97912Y35503D01*
X-105584Y38433D02*
X-107179Y39550D01*
X-110902Y34233D01*
X-107712Y31999D01*
X-107629Y31944D01*
X-107545Y31892D01*
X-107458Y31843D01*
X-107370Y31797D01*
X-107280Y31755D01*
X-107188Y31716D01*
X-107095Y31681D01*
X-107001Y31649D01*
X-106906Y31621D01*
X-106809Y31597D01*
X-106712Y31576D01*
X-106614Y31560D01*
X-106515Y31547D01*
X-106416Y31537D01*
X-106317Y31532D01*
X-106217Y31530D01*
X-106118Y31532D01*
X-106019Y31538D01*
X-105920Y31548D01*
X-105821Y31561D01*
X-105723Y31579D01*
X-105626Y31600D01*
X-105530Y31624D01*
X-105434Y31653D01*
X-105340Y31685D01*
X-105247Y31720D01*
X-105156Y31759D01*
X-105066Y31802D01*
X-104978Y31848D01*
X-104892Y31897D01*
X-104807Y31950D01*
X-104725Y32006D01*
X-104645Y32065D01*
X-104567Y32127D01*
X-104492Y32192D01*
X-104419Y32259D01*
X-104349Y32330D01*
X-104281Y32403D01*
X-104217Y32479D01*
X-104155Y32557D01*
X-104096Y32637D01*
X-100373Y37954D01*
X-100318Y38037D01*
X-100266Y38121D01*
X-100217Y38208D01*
X-100171Y38296D01*
X-100129Y38386D01*
X-100090Y38478D01*
X-100055Y38571D01*
X-100023Y38665D01*
X-99995Y38760D01*
X-99971Y38857D01*
X-99950Y38954D01*
X-99934Y39052D01*
X-99921Y39151D01*
X-99911Y39250D01*
X-99906Y39349D01*
X-99904Y39449D01*
X-99906Y39548D01*
X-99912Y39647D01*
X-99922Y39746D01*
X-99935Y39845D01*
X-99953Y39943D01*
X-99974Y40040D01*
X-99998Y40136D01*
X-100027Y40232D01*
X-100059Y40326D01*
X-100094Y40419D01*
X-100133Y40510D01*
X-100176Y40600D01*
X-100222Y40688D01*
X-100271Y40774D01*
X-100324Y40859D01*
X-100380Y40941D01*
X-100439Y41021D01*
X-100501Y41099D01*
X-100566Y41174D01*
X-100633Y41247D01*
X-100704Y41317D01*
X-100777Y41385D01*
X-100853Y41449D01*
X-100931Y41511D01*
X-101011Y41570D01*
X-101010Y41570D02*
X-104201Y43804D01*
X-108871Y47074D02*
X-115572Y37503D01*
X-120890Y41226D02*
X-108871Y47074D01*
X-114188Y50797D02*
X-120890Y41226D01*
X-125559Y44496D02*
X-118858Y54067D01*
X-121516Y55928D01*
X-121516Y55929D02*
X-121610Y55992D01*
X-121706Y56052D01*
X-121804Y56109D01*
X-121904Y56162D01*
X-122006Y56212D01*
X-122110Y56258D01*
X-122215Y56300D01*
X-122321Y56339D01*
X-122429Y56374D01*
X-122538Y56405D01*
X-122648Y56433D01*
X-122759Y56456D01*
X-122870Y56476D01*
X-122982Y56492D01*
X-123095Y56504D01*
X-123208Y56512D01*
X-123321Y56516D01*
X-123435Y56516D01*
X-123548Y56512D01*
X-123661Y56504D01*
X-123774Y56492D01*
X-123886Y56476D01*
X-123997Y56456D01*
X-124108Y56433D01*
X-124218Y56405D01*
X-124327Y56374D01*
X-124435Y56339D01*
X-124541Y56300D01*
X-124646Y56258D01*
X-124750Y56212D01*
X-124852Y56162D01*
X-124952Y56109D01*
X-125050Y56052D01*
X-125146Y55992D01*
X-125240Y55929D01*
X-125331Y55862D01*
X-125421Y55793D01*
X-125508Y55720D01*
X-125592Y55644D01*
X-125673Y55565D01*
X-125752Y55484D01*
X-125828Y55400D01*
X-125901Y55313D01*
X-125970Y55224D01*
X-126037Y55132D01*
X-126037Y55131D02*
X-129015Y50878D01*
X-129016Y50878D02*
X-129079Y50784D01*
X-129139Y50688D01*
X-129196Y50590D01*
X-129249Y50490D01*
X-129299Y50388D01*
X-129345Y50284D01*
X-129387Y50179D01*
X-129426Y50073D01*
X-129461Y49965D01*
X-129492Y49856D01*
X-129520Y49746D01*
X-129543Y49635D01*
X-129563Y49524D01*
X-129579Y49412D01*
X-129591Y49299D01*
X-129599Y49186D01*
X-129603Y49073D01*
X-129603Y48959D01*
X-129599Y48846D01*
X-129591Y48733D01*
X-129579Y48620D01*
X-129563Y48508D01*
X-129543Y48397D01*
X-129520Y48286D01*
X-129492Y48176D01*
X-129461Y48067D01*
X-129426Y47959D01*
X-129387Y47853D01*
X-129345Y47748D01*
X-129299Y47644D01*
X-129249Y47542D01*
X-129196Y47442D01*
X-129139Y47344D01*
X-129079Y47248D01*
X-129016Y47154D01*
X-128949Y47062D01*
X-128880Y46973D01*
X-128807Y46886D01*
X-128731Y46802D01*
X-128652Y46721D01*
X-128571Y46642D01*
X-128487Y46566D01*
X-128400Y46493D01*
X-128310Y46424D01*
X-128219Y46357D01*
X-128218Y46357D02*
X-125559Y44496D01*
X-181256Y260219D02*
X-183204Y260219D01*
X-183204Y253728D01*
X-179309Y253728D01*
X-179210Y253730D01*
X-179110Y253736D01*
X-179011Y253745D01*
X-178913Y253758D01*
X-178815Y253775D01*
X-178717Y253796D01*
X-178621Y253821D01*
X-178526Y253849D01*
X-178432Y253881D01*
X-178339Y253916D01*
X-178247Y253955D01*
X-178157Y253998D01*
X-178069Y254043D01*
X-177982Y254093D01*
X-177898Y254145D01*
X-177815Y254201D01*
X-177735Y254259D01*
X-177657Y254321D01*
X-177582Y254386D01*
X-177509Y254454D01*
X-177439Y254524D01*
X-177371Y254597D01*
X-177306Y254672D01*
X-177244Y254750D01*
X-177186Y254830D01*
X-177130Y254913D01*
X-177078Y254997D01*
X-177028Y255084D01*
X-176983Y255172D01*
X-176940Y255262D01*
X-176901Y255354D01*
X-176866Y255447D01*
X-176834Y255541D01*
X-176806Y255636D01*
X-176781Y255732D01*
X-176760Y255830D01*
X-176743Y255928D01*
X-176730Y256026D01*
X-176721Y256125D01*
X-176715Y256225D01*
X-176713Y256324D01*
X-176713Y262816D01*
X-176715Y262915D01*
X-176721Y263015D01*
X-176730Y263114D01*
X-176743Y263212D01*
X-176760Y263310D01*
X-176781Y263408D01*
X-176806Y263504D01*
X-176834Y263599D01*
X-176866Y263693D01*
X-176901Y263786D01*
X-176940Y263878D01*
X-176983Y263968D01*
X-177028Y264056D01*
X-177078Y264143D01*
X-177130Y264227D01*
X-177186Y264310D01*
X-177244Y264390D01*
X-177306Y264468D01*
X-177371Y264543D01*
X-177439Y264616D01*
X-177509Y264686D01*
X-177582Y264754D01*
X-177657Y264819D01*
X-177735Y264881D01*
X-177815Y264939D01*
X-177898Y264995D01*
X-177982Y265047D01*
X-178069Y265097D01*
X-178157Y265142D01*
X-178247Y265185D01*
X-178339Y265224D01*
X-178431Y265259D01*
X-178526Y265291D01*
X-178621Y265319D01*
X-178717Y265344D01*
X-178815Y265365D01*
X-178913Y265382D01*
X-179011Y265395D01*
X-179110Y265404D01*
X-179210Y265410D01*
X-179309Y265412D01*
X-183204Y265412D01*
X-188904Y265412D02*
X-188904Y253728D01*
X-195396Y253728D02*
X-188904Y265412D01*
X-195396Y265412D02*
X-195396Y253728D01*
X-201096Y253728D02*
X-201096Y265412D01*
X-204342Y265412D01*
X-204455Y265410D01*
X-204568Y265404D01*
X-204681Y265394D01*
X-204794Y265380D01*
X-204906Y265363D01*
X-205017Y265341D01*
X-205127Y265316D01*
X-205237Y265286D01*
X-205345Y265253D01*
X-205452Y265216D01*
X-205558Y265176D01*
X-205662Y265131D01*
X-205765Y265083D01*
X-205866Y265032D01*
X-205965Y264977D01*
X-206062Y264919D01*
X-206157Y264857D01*
X-206250Y264792D01*
X-206340Y264724D01*
X-206428Y264653D01*
X-206514Y264578D01*
X-206597Y264501D01*
X-206677Y264421D01*
X-206754Y264338D01*
X-206829Y264252D01*
X-206900Y264164D01*
X-206968Y264074D01*
X-207033Y263981D01*
X-207095Y263886D01*
X-207153Y263789D01*
X-207208Y263690D01*
X-207259Y263589D01*
X-207307Y263486D01*
X-207352Y263382D01*
X-207392Y263276D01*
X-207429Y263169D01*
X-207462Y263061D01*
X-207492Y262951D01*
X-207517Y262841D01*
X-207539Y262730D01*
X-207556Y262618D01*
X-207570Y262505D01*
X-207580Y262392D01*
X-207586Y262279D01*
X-207588Y262166D01*
X-207588Y256974D01*
X-207586Y256861D01*
X-207580Y256748D01*
X-207570Y256635D01*
X-207556Y256522D01*
X-207539Y256410D01*
X-207517Y256299D01*
X-207492Y256189D01*
X-207462Y256079D01*
X-207429Y255971D01*
X-207392Y255864D01*
X-207352Y255758D01*
X-207307Y255654D01*
X-207259Y255551D01*
X-207208Y255450D01*
X-207153Y255351D01*
X-207095Y255254D01*
X-207033Y255159D01*
X-206968Y255066D01*
X-206900Y254976D01*
X-206829Y254888D01*
X-206754Y254802D01*
X-206677Y254719D01*
X-206597Y254639D01*
X-206514Y254562D01*
X-206428Y254487D01*
X-206340Y254416D01*
X-206250Y254348D01*
X-206157Y254283D01*
X-206062Y254221D01*
X-205965Y254163D01*
X-205866Y254108D01*
X-205765Y254057D01*
X-205662Y254009D01*
X-205558Y253964D01*
X-205452Y253924D01*
X-205345Y253887D01*
X-205237Y253854D01*
X-205127Y253824D01*
X-205017Y253799D01*
X-204906Y253777D01*
X-204794Y253760D01*
X-204681Y253746D01*
X-204568Y253736D01*
X-204455Y253730D01*
X-204342Y253728D01*
X-201096Y253728D01*
X-110464Y414713D02*
X-108869Y415830D01*
X-110464Y414713D02*
X-106741Y409396D01*
X-103551Y411630D01*
X-103471Y411689D01*
X-103393Y411751D01*
X-103317Y411815D01*
X-103244Y411883D01*
X-103173Y411953D01*
X-103106Y412026D01*
X-103041Y412101D01*
X-102979Y412179D01*
X-102920Y412259D01*
X-102864Y412341D01*
X-102811Y412426D01*
X-102762Y412512D01*
X-102716Y412600D01*
X-102673Y412690D01*
X-102634Y412781D01*
X-102599Y412874D01*
X-102567Y412968D01*
X-102538Y413064D01*
X-102514Y413160D01*
X-102493Y413257D01*
X-102475Y413355D01*
X-102462Y413454D01*
X-102452Y413553D01*
X-102446Y413652D01*
X-102444Y413751D01*
X-102446Y413851D01*
X-102451Y413950D01*
X-102461Y414049D01*
X-102474Y414148D01*
X-102490Y414246D01*
X-102511Y414343D01*
X-102535Y414440D01*
X-102563Y414535D01*
X-102595Y414629D01*
X-102630Y414722D01*
X-102669Y414814D01*
X-102711Y414904D01*
X-102757Y414992D01*
X-102806Y415079D01*
X-102858Y415163D01*
X-102913Y415246D01*
X-106636Y420563D01*
X-106695Y420643D01*
X-106757Y420721D01*
X-106821Y420797D01*
X-106889Y420870D01*
X-106959Y420941D01*
X-107032Y421008D01*
X-107107Y421073D01*
X-107185Y421135D01*
X-107265Y421194D01*
X-107347Y421250D01*
X-107432Y421303D01*
X-107518Y421352D01*
X-107606Y421398D01*
X-107696Y421441D01*
X-107787Y421480D01*
X-107880Y421515D01*
X-107974Y421547D01*
X-108070Y421576D01*
X-108166Y421600D01*
X-108263Y421621D01*
X-108361Y421639D01*
X-108460Y421652D01*
X-108559Y421662D01*
X-108658Y421668D01*
X-108757Y421670D01*
X-108857Y421668D01*
X-108956Y421663D01*
X-109055Y421653D01*
X-109154Y421640D01*
X-109252Y421624D01*
X-109349Y421603D01*
X-109446Y421579D01*
X-109541Y421551D01*
X-109635Y421519D01*
X-109728Y421484D01*
X-109820Y421445D01*
X-109910Y421403D01*
X-109998Y421357D01*
X-110085Y421308D01*
X-110169Y421256D01*
X-110252Y421201D01*
X-113442Y418967D01*
X-118112Y415697D02*
X-111411Y406126D01*
X-116728Y402403D02*
X-118112Y415697D01*
X-123430Y411974D02*
X-116728Y402403D01*
X-121398Y399133D02*
X-128100Y408704D01*
X-130758Y406842D01*
X-130759Y406843D02*
X-130850Y406776D01*
X-130940Y406707D01*
X-131027Y406634D01*
X-131111Y406558D01*
X-131192Y406479D01*
X-131271Y406398D01*
X-131347Y406314D01*
X-131420Y406227D01*
X-131489Y406137D01*
X-131556Y406046D01*
X-131619Y405952D01*
X-131679Y405856D01*
X-131736Y405758D01*
X-131789Y405658D01*
X-131839Y405556D01*
X-131885Y405452D01*
X-131927Y405347D01*
X-131966Y405241D01*
X-132001Y405133D01*
X-132032Y405024D01*
X-132060Y404914D01*
X-132083Y404803D01*
X-132103Y404692D01*
X-132119Y404580D01*
X-132131Y404467D01*
X-132139Y404354D01*
X-132143Y404241D01*
X-132143Y404127D01*
X-132139Y404014D01*
X-132131Y403901D01*
X-132119Y403788D01*
X-132103Y403676D01*
X-132083Y403565D01*
X-132060Y403454D01*
X-132032Y403344D01*
X-132001Y403235D01*
X-131966Y403127D01*
X-131927Y403021D01*
X-131885Y402916D01*
X-131839Y402812D01*
X-131789Y402710D01*
X-131736Y402610D01*
X-131679Y402512D01*
X-131619Y402416D01*
X-131556Y402322D01*
X-131555Y402322D02*
X-128577Y398068D01*
X-128510Y397977D01*
X-128441Y397887D01*
X-128368Y397800D01*
X-128292Y397716D01*
X-128213Y397635D01*
X-128132Y397556D01*
X-128048Y397480D01*
X-127961Y397407D01*
X-127871Y397338D01*
X-127780Y397271D01*
X-127686Y397208D01*
X-127590Y397148D01*
X-127492Y397091D01*
X-127392Y397038D01*
X-127290Y396988D01*
X-127186Y396942D01*
X-127081Y396900D01*
X-126975Y396861D01*
X-126867Y396826D01*
X-126758Y396795D01*
X-126648Y396767D01*
X-126537Y396744D01*
X-126426Y396724D01*
X-126314Y396708D01*
X-126201Y396696D01*
X-126088Y396688D01*
X-125975Y396684D01*
X-125861Y396684D01*
X-125748Y396688D01*
X-125635Y396696D01*
X-125522Y396708D01*
X-125410Y396724D01*
X-125299Y396744D01*
X-125188Y396767D01*
X-125078Y396795D01*
X-124969Y396826D01*
X-124861Y396861D01*
X-124755Y396900D01*
X-124650Y396942D01*
X-124546Y396988D01*
X-124444Y397038D01*
X-124344Y397091D01*
X-124246Y397148D01*
X-124150Y397208D01*
X-124056Y397271D01*
X-121398Y399133D01*
D11*
X171536Y338420D02*
X171536Y320640D01*
X171536Y338420D02*
X166598Y338420D01*
X166458Y338418D01*
X166319Y338412D01*
X166179Y338402D01*
X166040Y338388D01*
X165901Y338371D01*
X165763Y338349D01*
X165626Y338323D01*
X165489Y338294D01*
X165353Y338261D01*
X165219Y338224D01*
X165085Y338183D01*
X164953Y338138D01*
X164821Y338089D01*
X164692Y338037D01*
X164564Y337982D01*
X164437Y337922D01*
X164312Y337859D01*
X164189Y337793D01*
X164068Y337723D01*
X163949Y337650D01*
X163832Y337573D01*
X163718Y337493D01*
X163605Y337410D01*
X163495Y337324D01*
X163388Y337234D01*
X163283Y337142D01*
X163181Y337047D01*
X163081Y336949D01*
X162984Y336848D01*
X162890Y336744D01*
X162800Y336638D01*
X162712Y336529D01*
X162627Y336418D01*
X162546Y336304D01*
X162467Y336189D01*
X162392Y336071D01*
X162321Y335951D01*
X162253Y335828D01*
X162188Y335705D01*
X162127Y335579D01*
X162069Y335451D01*
X162015Y335323D01*
X161965Y335192D01*
X161918Y335060D01*
X161875Y334927D01*
X161836Y334793D01*
X161801Y334658D01*
X161770Y334522D01*
X161742Y334384D01*
X161719Y334247D01*
X161699Y334108D01*
X161683Y333969D01*
X161671Y333830D01*
X161663Y333691D01*
X161659Y333551D01*
X161659Y333411D01*
X161663Y333271D01*
X161671Y333132D01*
X161683Y332993D01*
X161699Y332854D01*
X161719Y332715D01*
X161742Y332578D01*
X161770Y332440D01*
X161801Y332304D01*
X161836Y332169D01*
X161875Y332035D01*
X161918Y331902D01*
X161965Y331770D01*
X162015Y331639D01*
X162069Y331511D01*
X162127Y331383D01*
X162188Y331257D01*
X162253Y331134D01*
X162321Y331012D01*
X162392Y330891D01*
X162467Y330773D01*
X162546Y330658D01*
X162627Y330544D01*
X162712Y330433D01*
X162800Y330324D01*
X162890Y330218D01*
X162984Y330114D01*
X163081Y330013D01*
X163181Y329915D01*
X163283Y329820D01*
X163388Y329728D01*
X163495Y329638D01*
X163605Y329552D01*
X163718Y329469D01*
X163832Y329389D01*
X163949Y329312D01*
X164068Y329239D01*
X164189Y329169D01*
X164312Y329103D01*
X164437Y329040D01*
X164564Y328980D01*
X164692Y328925D01*
X164821Y328873D01*
X164953Y328824D01*
X165085Y328779D01*
X165219Y328738D01*
X165353Y328701D01*
X165489Y328668D01*
X165626Y328639D01*
X165763Y328613D01*
X165901Y328591D01*
X166040Y328574D01*
X166179Y328560D01*
X166319Y328550D01*
X166458Y328544D01*
X166598Y328542D01*
X171536Y328542D01*
X155541Y334469D02*
X150602Y338420D01*
X150602Y320640D01*
X145664Y320640D02*
X155541Y320640D01*
X174076Y133830D02*
X174076Y116050D01*
X174076Y133830D02*
X169138Y133830D01*
X168998Y133828D01*
X168859Y133822D01*
X168719Y133812D01*
X168580Y133798D01*
X168441Y133781D01*
X168303Y133759D01*
X168166Y133733D01*
X168029Y133704D01*
X167893Y133671D01*
X167759Y133634D01*
X167625Y133593D01*
X167493Y133548D01*
X167361Y133499D01*
X167232Y133447D01*
X167104Y133392D01*
X166977Y133332D01*
X166852Y133269D01*
X166729Y133203D01*
X166608Y133133D01*
X166489Y133060D01*
X166372Y132983D01*
X166258Y132903D01*
X166145Y132820D01*
X166035Y132734D01*
X165928Y132644D01*
X165823Y132552D01*
X165721Y132457D01*
X165621Y132359D01*
X165524Y132258D01*
X165430Y132154D01*
X165340Y132048D01*
X165252Y131939D01*
X165167Y131828D01*
X165086Y131714D01*
X165007Y131599D01*
X164932Y131481D01*
X164861Y131361D01*
X164793Y131238D01*
X164728Y131115D01*
X164667Y130989D01*
X164609Y130861D01*
X164555Y130733D01*
X164505Y130602D01*
X164458Y130470D01*
X164415Y130337D01*
X164376Y130203D01*
X164341Y130068D01*
X164310Y129932D01*
X164282Y129794D01*
X164259Y129657D01*
X164239Y129518D01*
X164223Y129379D01*
X164211Y129240D01*
X164203Y129101D01*
X164199Y128961D01*
X164199Y128821D01*
X164203Y128681D01*
X164211Y128542D01*
X164223Y128403D01*
X164239Y128264D01*
X164259Y128125D01*
X164282Y127988D01*
X164310Y127850D01*
X164341Y127714D01*
X164376Y127579D01*
X164415Y127445D01*
X164458Y127312D01*
X164505Y127180D01*
X164555Y127049D01*
X164609Y126921D01*
X164667Y126793D01*
X164728Y126667D01*
X164793Y126544D01*
X164861Y126421D01*
X164932Y126301D01*
X165007Y126183D01*
X165086Y126068D01*
X165167Y125954D01*
X165252Y125843D01*
X165340Y125734D01*
X165430Y125628D01*
X165524Y125524D01*
X165621Y125423D01*
X165721Y125325D01*
X165823Y125230D01*
X165928Y125138D01*
X166035Y125048D01*
X166145Y124962D01*
X166258Y124879D01*
X166372Y124799D01*
X166489Y124722D01*
X166608Y124649D01*
X166729Y124579D01*
X166852Y124513D01*
X166977Y124450D01*
X167104Y124390D01*
X167232Y124335D01*
X167361Y124283D01*
X167493Y124234D01*
X167625Y124189D01*
X167759Y124148D01*
X167893Y124111D01*
X168029Y124078D01*
X168166Y124049D01*
X168303Y124023D01*
X168441Y124001D01*
X168580Y123984D01*
X168719Y123970D01*
X168859Y123960D01*
X168998Y123954D01*
X169138Y123952D01*
X174076Y123952D01*
X152649Y133830D02*
X152517Y133828D01*
X152386Y133822D01*
X152254Y133812D01*
X152123Y133799D01*
X151993Y133781D01*
X151863Y133760D01*
X151733Y133735D01*
X151605Y133706D01*
X151477Y133673D01*
X151351Y133636D01*
X151225Y133596D01*
X151101Y133552D01*
X150978Y133504D01*
X150857Y133453D01*
X150737Y133398D01*
X150619Y133340D01*
X150503Y133278D01*
X150389Y133212D01*
X150276Y133144D01*
X150166Y133072D01*
X150058Y132997D01*
X149952Y132918D01*
X149848Y132837D01*
X149747Y132752D01*
X149649Y132665D01*
X149553Y132574D01*
X149460Y132481D01*
X149369Y132385D01*
X149282Y132287D01*
X149197Y132186D01*
X149116Y132082D01*
X149037Y131976D01*
X148962Y131868D01*
X148890Y131758D01*
X148822Y131645D01*
X148756Y131531D01*
X148694Y131415D01*
X148636Y131297D01*
X148581Y131177D01*
X148530Y131056D01*
X148482Y130933D01*
X148438Y130809D01*
X148398Y130683D01*
X148361Y130557D01*
X148328Y130429D01*
X148299Y130301D01*
X148274Y130171D01*
X148253Y130041D01*
X148235Y129911D01*
X148222Y129780D01*
X148212Y129648D01*
X148206Y129517D01*
X148204Y129385D01*
X152649Y133830D02*
X152799Y133828D01*
X152948Y133822D01*
X153097Y133812D01*
X153246Y133799D01*
X153395Y133781D01*
X153543Y133760D01*
X153691Y133734D01*
X153837Y133705D01*
X153983Y133672D01*
X154128Y133635D01*
X154272Y133594D01*
X154415Y133550D01*
X154557Y133502D01*
X154697Y133450D01*
X154836Y133395D01*
X154974Y133336D01*
X155109Y133273D01*
X155244Y133207D01*
X155376Y133137D01*
X155506Y133064D01*
X155635Y132987D01*
X155762Y132907D01*
X155886Y132824D01*
X156008Y132738D01*
X156128Y132648D01*
X156245Y132555D01*
X156360Y132460D01*
X156473Y132361D01*
X156583Y132259D01*
X156690Y132155D01*
X156794Y132048D01*
X156896Y131938D01*
X156994Y131825D01*
X157090Y131710D01*
X157182Y131592D01*
X157272Y131472D01*
X157358Y131350D01*
X157441Y131226D01*
X157521Y131099D01*
X157597Y130971D01*
X157670Y130840D01*
X157740Y130707D01*
X157806Y130573D01*
X157868Y130437D01*
X157927Y130300D01*
X157983Y130161D01*
X158034Y130020D01*
X158082Y129879D01*
X149686Y125928D02*
X149590Y126021D01*
X149498Y126117D01*
X149408Y126216D01*
X149321Y126317D01*
X149237Y126420D01*
X149155Y126525D01*
X149077Y126633D01*
X149002Y126743D01*
X148929Y126855D01*
X148860Y126969D01*
X148794Y127085D01*
X148732Y127203D01*
X148673Y127322D01*
X148617Y127443D01*
X148564Y127566D01*
X148515Y127690D01*
X148470Y127815D01*
X148427Y127942D01*
X148389Y128069D01*
X148354Y128198D01*
X148323Y128327D01*
X148295Y128458D01*
X148271Y128589D01*
X148250Y128721D01*
X148234Y128853D01*
X148221Y128986D01*
X148211Y129119D01*
X148206Y129252D01*
X148204Y129385D01*
X149685Y125928D02*
X158081Y116050D01*
X148204Y116050D01*
X5806Y46980D02*
X5806Y29200D01*
X5806Y46980D02*
X868Y46980D01*
X728Y46978D01*
X589Y46972D01*
X449Y46962D01*
X310Y46948D01*
X171Y46931D01*
X33Y46909D01*
X-104Y46883D01*
X-241Y46854D01*
X-377Y46821D01*
X-511Y46784D01*
X-645Y46743D01*
X-777Y46698D01*
X-909Y46649D01*
X-1038Y46597D01*
X-1166Y46542D01*
X-1293Y46482D01*
X-1418Y46419D01*
X-1541Y46353D01*
X-1662Y46283D01*
X-1781Y46210D01*
X-1898Y46133D01*
X-2012Y46053D01*
X-2125Y45970D01*
X-2235Y45884D01*
X-2342Y45794D01*
X-2447Y45702D01*
X-2549Y45607D01*
X-2649Y45509D01*
X-2746Y45408D01*
X-2840Y45304D01*
X-2930Y45198D01*
X-3018Y45089D01*
X-3103Y44978D01*
X-3184Y44864D01*
X-3263Y44749D01*
X-3338Y44631D01*
X-3409Y44510D01*
X-3477Y44388D01*
X-3542Y44265D01*
X-3603Y44139D01*
X-3661Y44011D01*
X-3715Y43883D01*
X-3765Y43752D01*
X-3812Y43620D01*
X-3855Y43487D01*
X-3894Y43353D01*
X-3929Y43218D01*
X-3960Y43082D01*
X-3988Y42944D01*
X-4011Y42807D01*
X-4031Y42668D01*
X-4047Y42529D01*
X-4059Y42390D01*
X-4067Y42251D01*
X-4071Y42111D01*
X-4071Y41971D01*
X-4067Y41831D01*
X-4059Y41692D01*
X-4047Y41553D01*
X-4031Y41414D01*
X-4011Y41275D01*
X-3988Y41138D01*
X-3960Y41000D01*
X-3929Y40864D01*
X-3894Y40729D01*
X-3855Y40595D01*
X-3812Y40462D01*
X-3765Y40330D01*
X-3715Y40199D01*
X-3661Y40071D01*
X-3603Y39943D01*
X-3542Y39817D01*
X-3477Y39694D01*
X-3409Y39571D01*
X-3338Y39451D01*
X-3263Y39333D01*
X-3184Y39218D01*
X-3103Y39104D01*
X-3018Y38993D01*
X-2930Y38884D01*
X-2840Y38778D01*
X-2746Y38674D01*
X-2649Y38573D01*
X-2549Y38475D01*
X-2447Y38380D01*
X-2342Y38288D01*
X-2235Y38198D01*
X-2125Y38112D01*
X-2012Y38029D01*
X-1898Y37949D01*
X-1781Y37872D01*
X-1662Y37799D01*
X-1541Y37729D01*
X-1418Y37663D01*
X-1293Y37600D01*
X-1166Y37540D01*
X-1038Y37485D01*
X-909Y37433D01*
X-777Y37384D01*
X-645Y37339D01*
X-511Y37298D01*
X-377Y37261D01*
X-241Y37228D01*
X-104Y37199D01*
X33Y37173D01*
X171Y37151D01*
X310Y37134D01*
X449Y37120D01*
X589Y37110D01*
X728Y37104D01*
X868Y37102D01*
X5806Y37102D01*
X-10189Y29200D02*
X-15128Y29200D01*
X-15268Y29202D01*
X-15407Y29208D01*
X-15547Y29218D01*
X-15686Y29232D01*
X-15825Y29249D01*
X-15963Y29271D01*
X-16100Y29297D01*
X-16237Y29326D01*
X-16373Y29359D01*
X-16507Y29396D01*
X-16641Y29437D01*
X-16773Y29482D01*
X-16905Y29531D01*
X-17034Y29583D01*
X-17162Y29638D01*
X-17289Y29698D01*
X-17414Y29761D01*
X-17537Y29827D01*
X-17658Y29897D01*
X-17777Y29970D01*
X-17894Y30047D01*
X-18008Y30127D01*
X-18121Y30210D01*
X-18231Y30296D01*
X-18338Y30386D01*
X-18443Y30478D01*
X-18545Y30573D01*
X-18645Y30671D01*
X-18742Y30772D01*
X-18836Y30876D01*
X-18926Y30982D01*
X-19014Y31091D01*
X-19099Y31202D01*
X-19180Y31316D01*
X-19259Y31431D01*
X-19334Y31549D01*
X-19405Y31669D01*
X-19473Y31792D01*
X-19538Y31915D01*
X-19599Y32041D01*
X-19657Y32169D01*
X-19711Y32297D01*
X-19761Y32428D01*
X-19808Y32560D01*
X-19851Y32693D01*
X-19890Y32827D01*
X-19925Y32962D01*
X-19956Y33098D01*
X-19984Y33236D01*
X-20007Y33373D01*
X-20027Y33512D01*
X-20043Y33651D01*
X-20055Y33790D01*
X-20063Y33929D01*
X-20067Y34069D01*
X-20067Y34209D01*
X-20063Y34349D01*
X-20055Y34488D01*
X-20043Y34627D01*
X-20027Y34766D01*
X-20007Y34905D01*
X-19984Y35042D01*
X-19956Y35180D01*
X-19925Y35316D01*
X-19890Y35451D01*
X-19851Y35585D01*
X-19808Y35718D01*
X-19761Y35850D01*
X-19711Y35981D01*
X-19657Y36109D01*
X-19599Y36237D01*
X-19538Y36363D01*
X-19473Y36486D01*
X-19405Y36608D01*
X-19334Y36729D01*
X-19259Y36847D01*
X-19180Y36962D01*
X-19099Y37076D01*
X-19014Y37187D01*
X-18926Y37296D01*
X-18836Y37402D01*
X-18742Y37506D01*
X-18645Y37607D01*
X-18545Y37705D01*
X-18443Y37800D01*
X-18338Y37892D01*
X-18231Y37982D01*
X-18121Y38068D01*
X-18008Y38151D01*
X-17894Y38231D01*
X-17777Y38308D01*
X-17658Y38381D01*
X-17537Y38451D01*
X-17414Y38517D01*
X-17289Y38580D01*
X-17162Y38640D01*
X-17034Y38695D01*
X-16905Y38747D01*
X-16773Y38796D01*
X-16641Y38841D01*
X-16507Y38882D01*
X-16373Y38919D01*
X-16237Y38952D01*
X-16100Y38981D01*
X-15963Y39007D01*
X-15825Y39029D01*
X-15686Y39046D01*
X-15547Y39060D01*
X-15407Y39070D01*
X-15268Y39076D01*
X-15128Y39078D01*
X-16115Y46980D02*
X-10189Y46980D01*
X-16115Y46980D02*
X-16239Y46978D01*
X-16363Y46972D01*
X-16487Y46962D01*
X-16610Y46949D01*
X-16733Y46931D01*
X-16855Y46910D01*
X-16977Y46885D01*
X-17098Y46856D01*
X-17217Y46823D01*
X-17336Y46787D01*
X-17453Y46746D01*
X-17569Y46703D01*
X-17684Y46655D01*
X-17797Y46604D01*
X-17909Y46549D01*
X-18018Y46491D01*
X-18126Y46430D01*
X-18232Y46365D01*
X-18336Y46297D01*
X-18437Y46225D01*
X-18537Y46151D01*
X-18633Y46073D01*
X-18728Y45993D01*
X-18820Y45909D01*
X-18909Y45823D01*
X-18995Y45734D01*
X-19079Y45642D01*
X-19159Y45547D01*
X-19237Y45451D01*
X-19311Y45351D01*
X-19383Y45250D01*
X-19451Y45146D01*
X-19516Y45040D01*
X-19577Y44932D01*
X-19635Y44823D01*
X-19690Y44711D01*
X-19741Y44598D01*
X-19789Y44483D01*
X-19832Y44367D01*
X-19873Y44250D01*
X-19909Y44131D01*
X-19942Y44012D01*
X-19971Y43891D01*
X-19996Y43769D01*
X-20017Y43647D01*
X-20035Y43524D01*
X-20048Y43401D01*
X-20058Y43277D01*
X-20064Y43153D01*
X-20066Y43029D01*
X-20064Y42905D01*
X-20058Y42781D01*
X-20048Y42657D01*
X-20035Y42534D01*
X-20017Y42411D01*
X-19996Y42289D01*
X-19971Y42167D01*
X-19942Y42046D01*
X-19909Y41927D01*
X-19873Y41808D01*
X-19832Y41691D01*
X-19789Y41575D01*
X-19741Y41460D01*
X-19690Y41347D01*
X-19635Y41235D01*
X-19577Y41126D01*
X-19516Y41018D01*
X-19451Y40912D01*
X-19383Y40808D01*
X-19311Y40707D01*
X-19237Y40607D01*
X-19159Y40511D01*
X-19079Y40416D01*
X-18995Y40324D01*
X-18909Y40235D01*
X-18820Y40149D01*
X-18728Y40065D01*
X-18633Y39985D01*
X-18537Y39907D01*
X-18437Y39833D01*
X-18336Y39761D01*
X-18232Y39693D01*
X-18126Y39628D01*
X-18018Y39567D01*
X-17909Y39509D01*
X-17797Y39454D01*
X-17684Y39403D01*
X-17569Y39355D01*
X-17453Y39312D01*
X-17336Y39271D01*
X-17217Y39235D01*
X-17098Y39202D01*
X-16977Y39173D01*
X-16855Y39148D01*
X-16733Y39127D01*
X-16610Y39109D01*
X-16487Y39096D01*
X-16363Y39086D01*
X-16239Y39080D01*
X-16115Y39078D01*
X-12164Y39078D01*
X-163734Y123670D02*
X-163734Y141450D01*
X-168673Y141450D01*
X-168813Y141448D01*
X-168952Y141442D01*
X-169092Y141432D01*
X-169231Y141418D01*
X-169370Y141401D01*
X-169508Y141379D01*
X-169645Y141353D01*
X-169782Y141324D01*
X-169918Y141291D01*
X-170052Y141254D01*
X-170186Y141213D01*
X-170318Y141168D01*
X-170450Y141119D01*
X-170579Y141067D01*
X-170707Y141012D01*
X-170834Y140952D01*
X-170959Y140889D01*
X-171082Y140823D01*
X-171203Y140753D01*
X-171322Y140680D01*
X-171439Y140603D01*
X-171553Y140523D01*
X-171666Y140440D01*
X-171776Y140354D01*
X-171883Y140264D01*
X-171988Y140172D01*
X-172090Y140077D01*
X-172190Y139979D01*
X-172287Y139878D01*
X-172381Y139774D01*
X-172471Y139668D01*
X-172559Y139559D01*
X-172644Y139448D01*
X-172725Y139334D01*
X-172804Y139219D01*
X-172879Y139101D01*
X-172950Y138981D01*
X-173018Y138858D01*
X-173083Y138735D01*
X-173144Y138609D01*
X-173202Y138481D01*
X-173256Y138353D01*
X-173306Y138222D01*
X-173353Y138090D01*
X-173396Y137957D01*
X-173435Y137823D01*
X-173470Y137688D01*
X-173501Y137552D01*
X-173529Y137414D01*
X-173552Y137277D01*
X-173572Y137138D01*
X-173588Y136999D01*
X-173600Y136860D01*
X-173608Y136721D01*
X-173612Y136581D01*
X-173612Y136441D01*
X-173608Y136301D01*
X-173600Y136162D01*
X-173588Y136023D01*
X-173572Y135884D01*
X-173552Y135745D01*
X-173529Y135608D01*
X-173501Y135470D01*
X-173470Y135334D01*
X-173435Y135199D01*
X-173396Y135065D01*
X-173353Y134932D01*
X-173306Y134800D01*
X-173256Y134669D01*
X-173202Y134541D01*
X-173144Y134413D01*
X-173083Y134287D01*
X-173018Y134164D01*
X-172950Y134041D01*
X-172879Y133921D01*
X-172804Y133803D01*
X-172725Y133688D01*
X-172644Y133574D01*
X-172559Y133463D01*
X-172471Y133354D01*
X-172381Y133248D01*
X-172287Y133144D01*
X-172190Y133043D01*
X-172090Y132945D01*
X-171988Y132850D01*
X-171883Y132758D01*
X-171776Y132668D01*
X-171666Y132582D01*
X-171553Y132499D01*
X-171439Y132419D01*
X-171322Y132342D01*
X-171203Y132269D01*
X-171082Y132199D01*
X-170959Y132133D01*
X-170834Y132070D01*
X-170707Y132010D01*
X-170579Y131955D01*
X-170450Y131903D01*
X-170318Y131854D01*
X-170186Y131809D01*
X-170052Y131768D01*
X-169918Y131731D01*
X-169782Y131698D01*
X-169645Y131669D01*
X-169508Y131643D01*
X-169370Y131621D01*
X-169231Y131604D01*
X-169092Y131590D01*
X-168952Y131580D01*
X-168813Y131574D01*
X-168673Y131572D01*
X-163734Y131572D01*
X-179729Y127621D02*
X-183680Y141450D01*
X-179729Y127621D02*
X-189606Y127621D01*
X-186643Y131572D02*
X-186643Y123670D01*
X-158654Y320640D02*
X-158654Y338420D01*
X-163593Y338420D01*
X-163733Y338418D01*
X-163872Y338412D01*
X-164012Y338402D01*
X-164151Y338388D01*
X-164290Y338371D01*
X-164428Y338349D01*
X-164565Y338323D01*
X-164702Y338294D01*
X-164838Y338261D01*
X-164972Y338224D01*
X-165106Y338183D01*
X-165238Y338138D01*
X-165370Y338089D01*
X-165499Y338037D01*
X-165627Y337982D01*
X-165754Y337922D01*
X-165879Y337859D01*
X-166002Y337793D01*
X-166123Y337723D01*
X-166242Y337650D01*
X-166359Y337573D01*
X-166473Y337493D01*
X-166586Y337410D01*
X-166696Y337324D01*
X-166803Y337234D01*
X-166908Y337142D01*
X-167010Y337047D01*
X-167110Y336949D01*
X-167207Y336848D01*
X-167301Y336744D01*
X-167391Y336638D01*
X-167479Y336529D01*
X-167564Y336418D01*
X-167645Y336304D01*
X-167724Y336189D01*
X-167799Y336071D01*
X-167870Y335951D01*
X-167938Y335828D01*
X-168003Y335705D01*
X-168064Y335579D01*
X-168122Y335451D01*
X-168176Y335323D01*
X-168226Y335192D01*
X-168273Y335060D01*
X-168316Y334927D01*
X-168355Y334793D01*
X-168390Y334658D01*
X-168421Y334522D01*
X-168449Y334384D01*
X-168472Y334247D01*
X-168492Y334108D01*
X-168508Y333969D01*
X-168520Y333830D01*
X-168528Y333691D01*
X-168532Y333551D01*
X-168532Y333411D01*
X-168528Y333271D01*
X-168520Y333132D01*
X-168508Y332993D01*
X-168492Y332854D01*
X-168472Y332715D01*
X-168449Y332578D01*
X-168421Y332440D01*
X-168390Y332304D01*
X-168355Y332169D01*
X-168316Y332035D01*
X-168273Y331902D01*
X-168226Y331770D01*
X-168176Y331639D01*
X-168122Y331511D01*
X-168064Y331383D01*
X-168003Y331257D01*
X-167938Y331134D01*
X-167870Y331012D01*
X-167799Y330891D01*
X-167724Y330773D01*
X-167645Y330658D01*
X-167564Y330544D01*
X-167479Y330433D01*
X-167391Y330324D01*
X-167301Y330218D01*
X-167207Y330114D01*
X-167110Y330013D01*
X-167010Y329915D01*
X-166908Y329820D01*
X-166803Y329728D01*
X-166696Y329638D01*
X-166586Y329552D01*
X-166473Y329469D01*
X-166359Y329389D01*
X-166242Y329312D01*
X-166123Y329239D01*
X-166002Y329169D01*
X-165879Y329103D01*
X-165754Y329040D01*
X-165627Y328980D01*
X-165499Y328925D01*
X-165370Y328873D01*
X-165238Y328824D01*
X-165106Y328779D01*
X-164972Y328738D01*
X-164838Y328701D01*
X-164702Y328668D01*
X-164565Y328639D01*
X-164428Y328613D01*
X-164290Y328591D01*
X-164151Y328574D01*
X-164012Y328560D01*
X-163872Y328550D01*
X-163733Y328544D01*
X-163593Y328542D01*
X-158654Y328542D01*
X-174649Y320640D02*
X-180575Y320640D01*
X-180699Y320642D01*
X-180823Y320648D01*
X-180947Y320658D01*
X-181070Y320671D01*
X-181193Y320689D01*
X-181315Y320710D01*
X-181437Y320735D01*
X-181558Y320764D01*
X-181677Y320797D01*
X-181796Y320833D01*
X-181913Y320874D01*
X-182029Y320917D01*
X-182144Y320965D01*
X-182257Y321016D01*
X-182369Y321071D01*
X-182478Y321129D01*
X-182586Y321190D01*
X-182692Y321255D01*
X-182796Y321323D01*
X-182897Y321395D01*
X-182997Y321469D01*
X-183093Y321547D01*
X-183188Y321627D01*
X-183280Y321711D01*
X-183369Y321797D01*
X-183455Y321886D01*
X-183539Y321978D01*
X-183619Y322073D01*
X-183697Y322169D01*
X-183771Y322269D01*
X-183843Y322370D01*
X-183911Y322474D01*
X-183976Y322580D01*
X-184037Y322688D01*
X-184095Y322797D01*
X-184150Y322909D01*
X-184201Y323022D01*
X-184249Y323137D01*
X-184292Y323253D01*
X-184333Y323370D01*
X-184369Y323489D01*
X-184402Y323608D01*
X-184431Y323729D01*
X-184456Y323851D01*
X-184477Y323973D01*
X-184495Y324096D01*
X-184508Y324219D01*
X-184518Y324343D01*
X-184524Y324467D01*
X-184526Y324591D01*
X-184526Y326567D01*
X-184524Y326691D01*
X-184518Y326815D01*
X-184508Y326939D01*
X-184495Y327062D01*
X-184477Y327185D01*
X-184456Y327307D01*
X-184431Y327429D01*
X-184402Y327550D01*
X-184369Y327669D01*
X-184333Y327788D01*
X-184292Y327905D01*
X-184249Y328021D01*
X-184201Y328136D01*
X-184150Y328249D01*
X-184095Y328361D01*
X-184037Y328470D01*
X-183976Y328578D01*
X-183911Y328684D01*
X-183843Y328788D01*
X-183771Y328889D01*
X-183697Y328989D01*
X-183619Y329085D01*
X-183539Y329180D01*
X-183455Y329272D01*
X-183369Y329361D01*
X-183280Y329447D01*
X-183188Y329531D01*
X-183093Y329611D01*
X-182997Y329689D01*
X-182897Y329763D01*
X-182796Y329835D01*
X-182692Y329903D01*
X-182586Y329968D01*
X-182478Y330029D01*
X-182369Y330087D01*
X-182257Y330142D01*
X-182144Y330193D01*
X-182029Y330241D01*
X-181913Y330284D01*
X-181796Y330325D01*
X-181677Y330361D01*
X-181558Y330394D01*
X-181437Y330423D01*
X-181315Y330448D01*
X-181193Y330469D01*
X-181070Y330487D01*
X-180947Y330500D01*
X-180823Y330510D01*
X-180699Y330516D01*
X-180575Y330518D01*
X-174649Y330518D01*
X-174649Y338420D01*
X-184526Y338420D01*
X5806Y407390D02*
X5806Y425170D01*
X868Y425170D01*
X728Y425168D01*
X589Y425162D01*
X449Y425152D01*
X310Y425138D01*
X171Y425121D01*
X33Y425099D01*
X-104Y425073D01*
X-241Y425044D01*
X-377Y425011D01*
X-511Y424974D01*
X-645Y424933D01*
X-777Y424888D01*
X-909Y424839D01*
X-1038Y424787D01*
X-1166Y424732D01*
X-1293Y424672D01*
X-1418Y424609D01*
X-1541Y424543D01*
X-1662Y424473D01*
X-1781Y424400D01*
X-1898Y424323D01*
X-2012Y424243D01*
X-2125Y424160D01*
X-2235Y424074D01*
X-2342Y423984D01*
X-2447Y423892D01*
X-2549Y423797D01*
X-2649Y423699D01*
X-2746Y423598D01*
X-2840Y423494D01*
X-2930Y423388D01*
X-3018Y423279D01*
X-3103Y423168D01*
X-3184Y423054D01*
X-3263Y422939D01*
X-3338Y422821D01*
X-3409Y422701D01*
X-3477Y422578D01*
X-3542Y422455D01*
X-3603Y422329D01*
X-3661Y422201D01*
X-3715Y422073D01*
X-3765Y421942D01*
X-3812Y421810D01*
X-3855Y421677D01*
X-3894Y421543D01*
X-3929Y421408D01*
X-3960Y421272D01*
X-3988Y421134D01*
X-4011Y420997D01*
X-4031Y420858D01*
X-4047Y420719D01*
X-4059Y420580D01*
X-4067Y420441D01*
X-4071Y420301D01*
X-4071Y420161D01*
X-4067Y420021D01*
X-4059Y419882D01*
X-4047Y419743D01*
X-4031Y419604D01*
X-4011Y419465D01*
X-3988Y419328D01*
X-3960Y419190D01*
X-3929Y419054D01*
X-3894Y418919D01*
X-3855Y418785D01*
X-3812Y418652D01*
X-3765Y418520D01*
X-3715Y418389D01*
X-3661Y418261D01*
X-3603Y418133D01*
X-3542Y418007D01*
X-3477Y417884D01*
X-3409Y417762D01*
X-3338Y417641D01*
X-3263Y417523D01*
X-3184Y417408D01*
X-3103Y417294D01*
X-3018Y417183D01*
X-2930Y417074D01*
X-2840Y416968D01*
X-2746Y416864D01*
X-2649Y416763D01*
X-2549Y416665D01*
X-2447Y416570D01*
X-2342Y416478D01*
X-2235Y416388D01*
X-2125Y416302D01*
X-2012Y416219D01*
X-1898Y416139D01*
X-1781Y416062D01*
X-1662Y415989D01*
X-1541Y415919D01*
X-1418Y415853D01*
X-1293Y415790D01*
X-1166Y415730D01*
X-1038Y415675D01*
X-909Y415623D01*
X-777Y415574D01*
X-645Y415529D01*
X-511Y415488D01*
X-377Y415451D01*
X-241Y415418D01*
X-104Y415389D01*
X33Y415363D01*
X171Y415341D01*
X310Y415324D01*
X449Y415310D01*
X589Y415300D01*
X728Y415294D01*
X868Y415292D01*
X5806Y415292D01*
X-10189Y417268D02*
X-16115Y417268D01*
X-16239Y417266D01*
X-16363Y417260D01*
X-16487Y417250D01*
X-16610Y417237D01*
X-16733Y417219D01*
X-16855Y417198D01*
X-16977Y417173D01*
X-17098Y417144D01*
X-17217Y417111D01*
X-17336Y417075D01*
X-17453Y417034D01*
X-17569Y416991D01*
X-17684Y416943D01*
X-17797Y416892D01*
X-17909Y416837D01*
X-18018Y416779D01*
X-18126Y416718D01*
X-18232Y416653D01*
X-18336Y416585D01*
X-18437Y416513D01*
X-18537Y416439D01*
X-18633Y416361D01*
X-18728Y416281D01*
X-18820Y416197D01*
X-18909Y416111D01*
X-18995Y416022D01*
X-19079Y415930D01*
X-19159Y415835D01*
X-19237Y415739D01*
X-19311Y415639D01*
X-19383Y415538D01*
X-19451Y415434D01*
X-19516Y415328D01*
X-19577Y415220D01*
X-19635Y415111D01*
X-19690Y414999D01*
X-19741Y414886D01*
X-19789Y414771D01*
X-19832Y414655D01*
X-19873Y414538D01*
X-19909Y414419D01*
X-19942Y414300D01*
X-19971Y414179D01*
X-19996Y414057D01*
X-20017Y413935D01*
X-20035Y413812D01*
X-20048Y413689D01*
X-20058Y413565D01*
X-20064Y413441D01*
X-20066Y413317D01*
X-20066Y412329D01*
X-20067Y412329D02*
X-20065Y412189D01*
X-20059Y412050D01*
X-20049Y411910D01*
X-20035Y411771D01*
X-20018Y411632D01*
X-19996Y411494D01*
X-19970Y411357D01*
X-19941Y411220D01*
X-19908Y411084D01*
X-19871Y410950D01*
X-19830Y410816D01*
X-19785Y410684D01*
X-19736Y410552D01*
X-19684Y410423D01*
X-19629Y410295D01*
X-19569Y410168D01*
X-19506Y410043D01*
X-19440Y409920D01*
X-19370Y409799D01*
X-19297Y409680D01*
X-19220Y409563D01*
X-19140Y409449D01*
X-19057Y409336D01*
X-18971Y409226D01*
X-18881Y409119D01*
X-18789Y409014D01*
X-18694Y408912D01*
X-18596Y408812D01*
X-18495Y408715D01*
X-18391Y408621D01*
X-18285Y408531D01*
X-18176Y408443D01*
X-18065Y408358D01*
X-17951Y408277D01*
X-17836Y408198D01*
X-17718Y408123D01*
X-17597Y408052D01*
X-17475Y407984D01*
X-17352Y407919D01*
X-17226Y407858D01*
X-17098Y407800D01*
X-16970Y407746D01*
X-16839Y407696D01*
X-16707Y407649D01*
X-16574Y407606D01*
X-16440Y407567D01*
X-16305Y407532D01*
X-16169Y407501D01*
X-16031Y407473D01*
X-15894Y407450D01*
X-15755Y407430D01*
X-15616Y407414D01*
X-15477Y407402D01*
X-15338Y407394D01*
X-15198Y407390D01*
X-15058Y407390D01*
X-14918Y407394D01*
X-14779Y407402D01*
X-14640Y407414D01*
X-14501Y407430D01*
X-14362Y407450D01*
X-14225Y407473D01*
X-14087Y407501D01*
X-13951Y407532D01*
X-13816Y407567D01*
X-13682Y407606D01*
X-13549Y407649D01*
X-13417Y407696D01*
X-13286Y407746D01*
X-13158Y407800D01*
X-13030Y407858D01*
X-12904Y407919D01*
X-12781Y407984D01*
X-12658Y408052D01*
X-12538Y408123D01*
X-12420Y408198D01*
X-12305Y408277D01*
X-12191Y408358D01*
X-12080Y408443D01*
X-11971Y408531D01*
X-11865Y408621D01*
X-11761Y408715D01*
X-11660Y408812D01*
X-11562Y408912D01*
X-11467Y409014D01*
X-11375Y409119D01*
X-11285Y409226D01*
X-11199Y409336D01*
X-11116Y409449D01*
X-11036Y409563D01*
X-10959Y409680D01*
X-10886Y409799D01*
X-10816Y409920D01*
X-10750Y410043D01*
X-10687Y410168D01*
X-10627Y410295D01*
X-10572Y410423D01*
X-10520Y410552D01*
X-10471Y410684D01*
X-10426Y410816D01*
X-10385Y410950D01*
X-10348Y411084D01*
X-10315Y411220D01*
X-10286Y411357D01*
X-10260Y411494D01*
X-10238Y411632D01*
X-10221Y411771D01*
X-10207Y411910D01*
X-10197Y412050D01*
X-10191Y412189D01*
X-10189Y412329D01*
X-10189Y417268D01*
X-10191Y417462D01*
X-10199Y417656D01*
X-10210Y417849D01*
X-10227Y418043D01*
X-10248Y418235D01*
X-10275Y418427D01*
X-10305Y418619D01*
X-10341Y418810D01*
X-10381Y418999D01*
X-10426Y419188D01*
X-10475Y419376D01*
X-10529Y419562D01*
X-10588Y419747D01*
X-10651Y419930D01*
X-10718Y420112D01*
X-10791Y420292D01*
X-10867Y420470D01*
X-10948Y420647D01*
X-11033Y420821D01*
X-11122Y420993D01*
X-11216Y421163D01*
X-11313Y421330D01*
X-11415Y421496D01*
X-11521Y421658D01*
X-11630Y421818D01*
X-11744Y421975D01*
X-11861Y422130D01*
X-11983Y422281D01*
X-12108Y422429D01*
X-12236Y422575D01*
X-12368Y422717D01*
X-12503Y422856D01*
X-12642Y422991D01*
X-12784Y423123D01*
X-12930Y423251D01*
X-13078Y423376D01*
X-13229Y423498D01*
X-13384Y423615D01*
X-13541Y423729D01*
X-13701Y423838D01*
X-13863Y423944D01*
X-14029Y424046D01*
X-14196Y424143D01*
X-14366Y424237D01*
X-14538Y424326D01*
X-14712Y424411D01*
X-14889Y424492D01*
X-15067Y424568D01*
X-15247Y424641D01*
X-15429Y424708D01*
X-15612Y424771D01*
X-15797Y424830D01*
X-15983Y424884D01*
X-16171Y424933D01*
X-16360Y424978D01*
X-16549Y425018D01*
X-16740Y425054D01*
X-16932Y425084D01*
X-17124Y425111D01*
X-17316Y425132D01*
X-17510Y425149D01*
X-17703Y425160D01*
X-17897Y425168D01*
X-18091Y425170D01*
X223141Y84498D02*
X223141Y66718D01*
X223141Y76596D02*
X213264Y76596D01*
X213264Y84498D02*
X213264Y66718D01*
X205833Y66718D02*
X200894Y66718D01*
X200754Y66720D01*
X200615Y66726D01*
X200475Y66736D01*
X200336Y66750D01*
X200197Y66767D01*
X200059Y66789D01*
X199922Y66815D01*
X199785Y66844D01*
X199649Y66877D01*
X199515Y66914D01*
X199381Y66955D01*
X199249Y67000D01*
X199117Y67049D01*
X198988Y67101D01*
X198860Y67156D01*
X198733Y67216D01*
X198608Y67279D01*
X198485Y67345D01*
X198364Y67415D01*
X198245Y67488D01*
X198128Y67565D01*
X198014Y67645D01*
X197901Y67728D01*
X197791Y67814D01*
X197684Y67904D01*
X197579Y67996D01*
X197477Y68091D01*
X197377Y68189D01*
X197280Y68290D01*
X197186Y68394D01*
X197096Y68500D01*
X197008Y68609D01*
X196923Y68720D01*
X196842Y68834D01*
X196763Y68949D01*
X196688Y69067D01*
X196617Y69187D01*
X196549Y69310D01*
X196484Y69433D01*
X196423Y69559D01*
X196365Y69687D01*
X196311Y69815D01*
X196261Y69946D01*
X196214Y70078D01*
X196171Y70211D01*
X196132Y70345D01*
X196097Y70480D01*
X196066Y70616D01*
X196038Y70754D01*
X196015Y70891D01*
X195995Y71030D01*
X195979Y71169D01*
X195967Y71308D01*
X195959Y71447D01*
X195955Y71587D01*
X195955Y71727D01*
X195959Y71867D01*
X195967Y72006D01*
X195979Y72145D01*
X195995Y72284D01*
X196015Y72423D01*
X196038Y72560D01*
X196066Y72698D01*
X196097Y72834D01*
X196132Y72969D01*
X196171Y73103D01*
X196214Y73236D01*
X196261Y73368D01*
X196311Y73499D01*
X196365Y73627D01*
X196423Y73755D01*
X196484Y73881D01*
X196549Y74004D01*
X196617Y74126D01*
X196688Y74247D01*
X196763Y74365D01*
X196842Y74480D01*
X196923Y74594D01*
X197008Y74705D01*
X197096Y74814D01*
X197186Y74920D01*
X197280Y75024D01*
X197377Y75125D01*
X197477Y75223D01*
X197579Y75318D01*
X197684Y75410D01*
X197791Y75500D01*
X197901Y75586D01*
X198014Y75669D01*
X198128Y75749D01*
X198245Y75826D01*
X198364Y75899D01*
X198485Y75969D01*
X198608Y76035D01*
X198733Y76098D01*
X198860Y76158D01*
X198988Y76213D01*
X199117Y76265D01*
X199249Y76314D01*
X199381Y76359D01*
X199515Y76400D01*
X199649Y76437D01*
X199785Y76470D01*
X199922Y76499D01*
X200059Y76525D01*
X200197Y76547D01*
X200336Y76564D01*
X200475Y76578D01*
X200615Y76588D01*
X200754Y76594D01*
X200894Y76596D01*
X199906Y84498D02*
X205833Y84498D01*
X199906Y84498D02*
X199782Y84496D01*
X199658Y84490D01*
X199534Y84480D01*
X199411Y84467D01*
X199288Y84449D01*
X199166Y84428D01*
X199044Y84403D01*
X198923Y84374D01*
X198804Y84341D01*
X198685Y84305D01*
X198568Y84264D01*
X198452Y84221D01*
X198337Y84173D01*
X198224Y84122D01*
X198112Y84067D01*
X198003Y84009D01*
X197895Y83948D01*
X197789Y83883D01*
X197685Y83815D01*
X197584Y83743D01*
X197484Y83669D01*
X197388Y83591D01*
X197293Y83511D01*
X197201Y83427D01*
X197112Y83341D01*
X197026Y83252D01*
X196942Y83160D01*
X196862Y83065D01*
X196784Y82969D01*
X196710Y82869D01*
X196638Y82768D01*
X196570Y82664D01*
X196505Y82558D01*
X196444Y82450D01*
X196386Y82341D01*
X196331Y82229D01*
X196280Y82116D01*
X196232Y82001D01*
X196189Y81885D01*
X196148Y81768D01*
X196112Y81649D01*
X196079Y81530D01*
X196050Y81409D01*
X196025Y81287D01*
X196004Y81165D01*
X195986Y81042D01*
X195973Y80919D01*
X195963Y80795D01*
X195957Y80671D01*
X195955Y80547D01*
X195957Y80423D01*
X195963Y80299D01*
X195973Y80175D01*
X195986Y80052D01*
X196004Y79929D01*
X196025Y79807D01*
X196050Y79685D01*
X196079Y79564D01*
X196112Y79445D01*
X196148Y79326D01*
X196189Y79209D01*
X196232Y79093D01*
X196280Y78978D01*
X196331Y78865D01*
X196386Y78753D01*
X196444Y78644D01*
X196505Y78536D01*
X196570Y78430D01*
X196638Y78326D01*
X196710Y78225D01*
X196784Y78125D01*
X196862Y78029D01*
X196942Y77934D01*
X197026Y77842D01*
X197112Y77753D01*
X197201Y77667D01*
X197293Y77583D01*
X197388Y77503D01*
X197484Y77425D01*
X197584Y77351D01*
X197685Y77279D01*
X197789Y77211D01*
X197895Y77146D01*
X198003Y77085D01*
X198112Y77027D01*
X198224Y76972D01*
X198337Y76921D01*
X198452Y76873D01*
X198568Y76830D01*
X198685Y76789D01*
X198804Y76753D01*
X198923Y76720D01*
X199044Y76691D01*
X199166Y76666D01*
X199288Y76645D01*
X199411Y76627D01*
X199534Y76614D01*
X199658Y76604D01*
X199782Y76598D01*
X199906Y76596D01*
X203857Y76596D01*
X190070Y66718D02*
X184143Y84498D01*
X178217Y66718D01*
X179698Y71163D02*
X188588Y71163D01*
X171688Y66718D02*
X171688Y84498D01*
X166749Y84498D01*
X166609Y84496D01*
X166470Y84490D01*
X166330Y84480D01*
X166191Y84466D01*
X166052Y84449D01*
X165914Y84427D01*
X165777Y84401D01*
X165640Y84372D01*
X165504Y84339D01*
X165370Y84302D01*
X165236Y84261D01*
X165104Y84216D01*
X164972Y84167D01*
X164843Y84115D01*
X164715Y84060D01*
X164588Y84000D01*
X164463Y83937D01*
X164340Y83871D01*
X164219Y83801D01*
X164100Y83728D01*
X163983Y83651D01*
X163869Y83571D01*
X163756Y83488D01*
X163646Y83402D01*
X163539Y83312D01*
X163434Y83220D01*
X163332Y83125D01*
X163232Y83027D01*
X163135Y82926D01*
X163041Y82822D01*
X162951Y82716D01*
X162863Y82607D01*
X162778Y82496D01*
X162697Y82382D01*
X162618Y82267D01*
X162543Y82149D01*
X162472Y82028D01*
X162404Y81906D01*
X162339Y81783D01*
X162278Y81657D01*
X162220Y81529D01*
X162166Y81401D01*
X162116Y81270D01*
X162069Y81138D01*
X162026Y81005D01*
X161987Y80871D01*
X161952Y80736D01*
X161921Y80600D01*
X161893Y80462D01*
X161870Y80325D01*
X161850Y80186D01*
X161834Y80047D01*
X161822Y79908D01*
X161814Y79769D01*
X161810Y79629D01*
X161810Y79489D01*
X161814Y79349D01*
X161822Y79210D01*
X161834Y79071D01*
X161850Y78932D01*
X161870Y78793D01*
X161893Y78656D01*
X161921Y78518D01*
X161952Y78382D01*
X161987Y78247D01*
X162026Y78113D01*
X162069Y77980D01*
X162116Y77848D01*
X162166Y77717D01*
X162220Y77589D01*
X162278Y77461D01*
X162339Y77335D01*
X162404Y77212D01*
X162472Y77089D01*
X162543Y76969D01*
X162618Y76851D01*
X162697Y76736D01*
X162778Y76622D01*
X162863Y76511D01*
X162951Y76402D01*
X163041Y76296D01*
X163135Y76192D01*
X163232Y76091D01*
X163332Y75993D01*
X163434Y75898D01*
X163539Y75806D01*
X163646Y75716D01*
X163756Y75630D01*
X163869Y75547D01*
X163983Y75467D01*
X164100Y75390D01*
X164219Y75317D01*
X164340Y75247D01*
X164463Y75181D01*
X164588Y75118D01*
X164715Y75058D01*
X164843Y75003D01*
X164972Y74951D01*
X165104Y74902D01*
X165236Y74857D01*
X165370Y74816D01*
X165504Y74779D01*
X165640Y74746D01*
X165777Y74717D01*
X165914Y74691D01*
X166052Y74669D01*
X166191Y74652D01*
X166330Y74638D01*
X166470Y74628D01*
X166609Y74622D01*
X166749Y74620D01*
X171688Y74620D01*
X165761Y74620D02*
X161810Y66718D01*
X155023Y75608D02*
X155019Y75958D01*
X155006Y76307D01*
X154985Y76656D01*
X154956Y77005D01*
X154919Y77353D01*
X154873Y77700D01*
X154819Y78045D01*
X154757Y78389D01*
X154686Y78732D01*
X154607Y79073D01*
X154521Y79412D01*
X154426Y79748D01*
X154323Y80083D01*
X154212Y80414D01*
X154094Y80744D01*
X153967Y81070D01*
X153833Y81393D01*
X153691Y81712D01*
X153541Y82029D01*
X153541Y82028D02*
X153501Y82141D01*
X153457Y82251D01*
X153409Y82361D01*
X153358Y82468D01*
X153303Y82574D01*
X153245Y82679D01*
X153183Y82781D01*
X153118Y82881D01*
X153050Y82979D01*
X152979Y83075D01*
X152904Y83168D01*
X152827Y83259D01*
X152747Y83347D01*
X152664Y83432D01*
X152578Y83515D01*
X152489Y83595D01*
X152398Y83672D01*
X152304Y83746D01*
X152208Y83817D01*
X152110Y83885D01*
X152010Y83949D01*
X151907Y84011D01*
X151803Y84068D01*
X151697Y84123D01*
X151589Y84174D01*
X151479Y84221D01*
X151368Y84265D01*
X151256Y84305D01*
X151142Y84341D01*
X151028Y84374D01*
X150912Y84403D01*
X150795Y84428D01*
X150678Y84449D01*
X150560Y84467D01*
X150441Y84480D01*
X150322Y84490D01*
X150203Y84496D01*
X150084Y84498D01*
X149965Y84496D01*
X149846Y84490D01*
X149727Y84480D01*
X149608Y84467D01*
X149490Y84449D01*
X149373Y84428D01*
X149256Y84403D01*
X149140Y84374D01*
X149026Y84341D01*
X148912Y84305D01*
X148800Y84265D01*
X148689Y84221D01*
X148579Y84174D01*
X148471Y84123D01*
X148365Y84068D01*
X148261Y84011D01*
X148158Y83949D01*
X148058Y83885D01*
X147960Y83817D01*
X147864Y83746D01*
X147770Y83672D01*
X147679Y83595D01*
X147590Y83515D01*
X147505Y83432D01*
X147421Y83347D01*
X147341Y83259D01*
X147264Y83168D01*
X147189Y83075D01*
X147118Y82979D01*
X147050Y82881D01*
X146985Y82781D01*
X146923Y82679D01*
X146865Y82574D01*
X146810Y82469D01*
X146759Y82361D01*
X146711Y82251D01*
X146667Y82141D01*
X146627Y82028D01*
X146627Y82029D02*
X146477Y81712D01*
X146335Y81393D01*
X146201Y81070D01*
X146074Y80744D01*
X145956Y80414D01*
X145845Y80083D01*
X145742Y79748D01*
X145647Y79412D01*
X145561Y79073D01*
X145482Y78732D01*
X145411Y78389D01*
X145349Y78045D01*
X145295Y77700D01*
X145249Y77353D01*
X145212Y77005D01*
X145183Y76656D01*
X145162Y76307D01*
X145149Y75958D01*
X145145Y75608D01*
X155023Y75608D02*
X155019Y75258D01*
X155006Y74909D01*
X154985Y74560D01*
X154956Y74211D01*
X154919Y73863D01*
X154873Y73516D01*
X154819Y73171D01*
X154757Y72827D01*
X154686Y72484D01*
X154607Y72143D01*
X154521Y71804D01*
X154426Y71468D01*
X154323Y71133D01*
X154212Y70802D01*
X154094Y70473D01*
X153967Y70146D01*
X153833Y69823D01*
X153691Y69504D01*
X153541Y69188D01*
X153501Y69075D01*
X153457Y68965D01*
X153409Y68855D01*
X153358Y68748D01*
X153303Y68642D01*
X153245Y68537D01*
X153183Y68435D01*
X153118Y68335D01*
X153050Y68237D01*
X152979Y68141D01*
X152904Y68048D01*
X152827Y67957D01*
X152747Y67869D01*
X152664Y67784D01*
X152578Y67701D01*
X152489Y67621D01*
X152398Y67544D01*
X152304Y67470D01*
X152208Y67399D01*
X152110Y67331D01*
X152010Y67267D01*
X151907Y67205D01*
X151803Y67148D01*
X151697Y67093D01*
X151589Y67042D01*
X151479Y66995D01*
X151368Y66951D01*
X151256Y66911D01*
X151142Y66875D01*
X151028Y66842D01*
X150912Y66813D01*
X150795Y66788D01*
X150678Y66767D01*
X150560Y66749D01*
X150441Y66736D01*
X150322Y66726D01*
X150203Y66720D01*
X150084Y66718D01*
X146627Y69188D02*
X146477Y69504D01*
X146335Y69823D01*
X146201Y70146D01*
X146074Y70473D01*
X145956Y70802D01*
X145845Y71133D01*
X145742Y71468D01*
X145647Y71804D01*
X145561Y72143D01*
X145482Y72484D01*
X145411Y72827D01*
X145349Y73171D01*
X145295Y73516D01*
X145249Y73863D01*
X145212Y74211D01*
X145183Y74560D01*
X145162Y74909D01*
X145149Y75258D01*
X145145Y75608D01*
X146627Y69188D02*
X146667Y69075D01*
X146711Y68965D01*
X146759Y68855D01*
X146810Y68747D01*
X146865Y68641D01*
X146923Y68537D01*
X146985Y68435D01*
X147050Y68335D01*
X147118Y68237D01*
X147189Y68141D01*
X147264Y68048D01*
X147341Y67957D01*
X147421Y67869D01*
X147505Y67784D01*
X147590Y67701D01*
X147679Y67621D01*
X147770Y67544D01*
X147864Y67470D01*
X147960Y67399D01*
X148058Y67331D01*
X148158Y67267D01*
X148261Y67205D01*
X148365Y67147D01*
X148471Y67093D01*
X148579Y67042D01*
X148689Y66995D01*
X148800Y66951D01*
X148912Y66911D01*
X149026Y66875D01*
X149140Y66842D01*
X149256Y66813D01*
X149373Y66788D01*
X149490Y66767D01*
X149608Y66749D01*
X149727Y66736D01*
X149846Y66726D01*
X149965Y66720D01*
X150084Y66718D01*
X154035Y70669D02*
X146133Y80547D01*
X138272Y80547D02*
X133334Y84498D01*
X133334Y66718D01*
X138272Y66718D02*
X128395Y66718D01*
X-182650Y413000D02*
X-198350Y413000D01*
X-198350Y384560D02*
X-182650Y384560D01*
X-182650Y393560D02*
X-182650Y404000D01*
X-198350Y394500D02*
X-198350Y393560D01*
X-198350Y403060D02*
X-198350Y404000D01*
X-198350Y385500D02*
X-198350Y384560D01*
X-198350Y412060D02*
X-198350Y413000D01*
X-182650Y413000D02*
X-182650Y412060D01*
X-182650Y385500D02*
X-182650Y384560D01*
D12*
X-189419Y420822D02*
X-189419Y427609D01*
X-189419Y420822D02*
X-189421Y420721D01*
X-189427Y420620D01*
X-189437Y420519D01*
X-189450Y420419D01*
X-189468Y420319D01*
X-189489Y420220D01*
X-189515Y420122D01*
X-189544Y420025D01*
X-189576Y419929D01*
X-189613Y419835D01*
X-189653Y419742D01*
X-189697Y419650D01*
X-189744Y419561D01*
X-189795Y419473D01*
X-189849Y419387D01*
X-189906Y419304D01*
X-189966Y419222D01*
X-190030Y419144D01*
X-190096Y419067D01*
X-190166Y418994D01*
X-190238Y418923D01*
X-190313Y418855D01*
X-190391Y418790D01*
X-190471Y418728D01*
X-190553Y418669D01*
X-190638Y418613D01*
X-190725Y418561D01*
X-190813Y418512D01*
X-190904Y418466D01*
X-190996Y418425D01*
X-191090Y418386D01*
X-191185Y418352D01*
X-191281Y418321D01*
X-191379Y418294D01*
X-191477Y418270D01*
X-191577Y418251D01*
X-191677Y418235D01*
X-191777Y418223D01*
X-191878Y418215D01*
X-191979Y418211D01*
X-192081Y418211D01*
X-192182Y418215D01*
X-192283Y418223D01*
X-192383Y418235D01*
X-192483Y418251D01*
X-192583Y418270D01*
X-192681Y418294D01*
X-192779Y418321D01*
X-192875Y418352D01*
X-192970Y418386D01*
X-193064Y418425D01*
X-193156Y418466D01*
X-193247Y418512D01*
X-193336Y418561D01*
X-193422Y418613D01*
X-193507Y418669D01*
X-193589Y418728D01*
X-193669Y418790D01*
X-193747Y418855D01*
X-193822Y418923D01*
X-193894Y418994D01*
X-193964Y419067D01*
X-194030Y419144D01*
X-194094Y419222D01*
X-194154Y419304D01*
X-194211Y419387D01*
X-194265Y419473D01*
X-194316Y419561D01*
X-194363Y419650D01*
X-194407Y419742D01*
X-194447Y419835D01*
X-194484Y419929D01*
X-194516Y420025D01*
X-194545Y420122D01*
X-194571Y420220D01*
X-194592Y420319D01*
X-194610Y420419D01*
X-194623Y420519D01*
X-194633Y420620D01*
X-194639Y420721D01*
X-194641Y420822D01*
X-194640Y420822D02*
X-194640Y427609D01*
X-198868Y425521D02*
X-201478Y427609D01*
X-201478Y418211D01*
X-198868Y418211D02*
X-204089Y418211D01*
X-162179Y430801D02*
X-162179Y432889D01*
X-162179Y430801D02*
X-162177Y430712D01*
X-162171Y430624D01*
X-162162Y430536D01*
X-162149Y430448D01*
X-162132Y430361D01*
X-162112Y430275D01*
X-162087Y430190D01*
X-162060Y430105D01*
X-162028Y430022D01*
X-161994Y429941D01*
X-161955Y429861D01*
X-161914Y429783D01*
X-161869Y429706D01*
X-161821Y429632D01*
X-161770Y429559D01*
X-161716Y429489D01*
X-161658Y429422D01*
X-161598Y429356D01*
X-161536Y429294D01*
X-161470Y429234D01*
X-161403Y429176D01*
X-161333Y429122D01*
X-161260Y429071D01*
X-161186Y429023D01*
X-161109Y428978D01*
X-161031Y428937D01*
X-160951Y428898D01*
X-160870Y428864D01*
X-160787Y428832D01*
X-160702Y428805D01*
X-160617Y428780D01*
X-160531Y428760D01*
X-160444Y428743D01*
X-160356Y428730D01*
X-160268Y428721D01*
X-160180Y428715D01*
X-160091Y428713D01*
X-160091Y428712D02*
X-154869Y428712D01*
X-154778Y428714D01*
X-154687Y428720D01*
X-154596Y428730D01*
X-154506Y428744D01*
X-154417Y428762D01*
X-154328Y428783D01*
X-154241Y428809D01*
X-154155Y428838D01*
X-154070Y428871D01*
X-153986Y428908D01*
X-153904Y428948D01*
X-153825Y428992D01*
X-153747Y429039D01*
X-153671Y429090D01*
X-153597Y429144D01*
X-153526Y429201D01*
X-153458Y429261D01*
X-153392Y429324D01*
X-153329Y429390D01*
X-153269Y429458D01*
X-153212Y429529D01*
X-153158Y429603D01*
X-153107Y429679D01*
X-153060Y429756D01*
X-153016Y429836D01*
X-152976Y429918D01*
X-152939Y430002D01*
X-152906Y430086D01*
X-152877Y430173D01*
X-152851Y430260D01*
X-152830Y430349D01*
X-152812Y430438D01*
X-152798Y430528D01*
X-152788Y430619D01*
X-152782Y430710D01*
X-152780Y430801D01*
X-152781Y430801D02*
X-152781Y432889D01*
X-152781Y439230D02*
X-152783Y439325D01*
X-152789Y439419D01*
X-152798Y439513D01*
X-152811Y439607D01*
X-152828Y439700D01*
X-152849Y439792D01*
X-152874Y439884D01*
X-152902Y439974D01*
X-152934Y440063D01*
X-152969Y440151D01*
X-153008Y440237D01*
X-153050Y440322D01*
X-153096Y440405D01*
X-153145Y440486D01*
X-153197Y440565D01*
X-153252Y440642D01*
X-153311Y440716D01*
X-153372Y440788D01*
X-153436Y440858D01*
X-153503Y440925D01*
X-153573Y440989D01*
X-153645Y441050D01*
X-153719Y441109D01*
X-153796Y441164D01*
X-153875Y441216D01*
X-153956Y441265D01*
X-154039Y441311D01*
X-154124Y441353D01*
X-154210Y441392D01*
X-154298Y441427D01*
X-154387Y441459D01*
X-154477Y441487D01*
X-154569Y441512D01*
X-154661Y441533D01*
X-154754Y441550D01*
X-154848Y441563D01*
X-154942Y441572D01*
X-155036Y441578D01*
X-155131Y441580D01*
X-152781Y439230D02*
X-152783Y439122D01*
X-152789Y439013D01*
X-152799Y438905D01*
X-152812Y438798D01*
X-152830Y438691D01*
X-152851Y438584D01*
X-152876Y438479D01*
X-152905Y438374D01*
X-152937Y438271D01*
X-152974Y438169D01*
X-153014Y438068D01*
X-153057Y437969D01*
X-153104Y437871D01*
X-153155Y437775D01*
X-153209Y437681D01*
X-153266Y437589D01*
X-153327Y437499D01*
X-153391Y437411D01*
X-153457Y437326D01*
X-153527Y437243D01*
X-153600Y437163D01*
X-153676Y437085D01*
X-153754Y437010D01*
X-153835Y436938D01*
X-153919Y436869D01*
X-154005Y436803D01*
X-154093Y436740D01*
X-154184Y436681D01*
X-154276Y436624D01*
X-154371Y436571D01*
X-154468Y436522D01*
X-154566Y436476D01*
X-154665Y436433D01*
X-154767Y436394D01*
X-154869Y436359D01*
X-156959Y440796D02*
X-156890Y440865D01*
X-156819Y440931D01*
X-156746Y440995D01*
X-156670Y441056D01*
X-156591Y441114D01*
X-156511Y441168D01*
X-156428Y441220D01*
X-156344Y441268D01*
X-156258Y441314D01*
X-156170Y441355D01*
X-156080Y441394D01*
X-155989Y441429D01*
X-155897Y441460D01*
X-155804Y441488D01*
X-155710Y441512D01*
X-155615Y441532D01*
X-155519Y441549D01*
X-155422Y441562D01*
X-155325Y441571D01*
X-155228Y441577D01*
X-155131Y441579D01*
X-156958Y440796D02*
X-162179Y436358D01*
X-162179Y441579D01*
D11*
X-161290Y367030D02*
X-161290Y341630D01*
D12*
X-145528Y354711D02*
X-143439Y354711D01*
X-143350Y354713D01*
X-143262Y354719D01*
X-143174Y354728D01*
X-143086Y354741D01*
X-142999Y354758D01*
X-142913Y354778D01*
X-142828Y354803D01*
X-142743Y354830D01*
X-142660Y354862D01*
X-142579Y354896D01*
X-142499Y354935D01*
X-142421Y354976D01*
X-142344Y355021D01*
X-142270Y355069D01*
X-142197Y355120D01*
X-142127Y355174D01*
X-142060Y355232D01*
X-141994Y355292D01*
X-141932Y355354D01*
X-141872Y355420D01*
X-141814Y355487D01*
X-141760Y355557D01*
X-141709Y355630D01*
X-141661Y355704D01*
X-141616Y355781D01*
X-141575Y355859D01*
X-141536Y355939D01*
X-141502Y356020D01*
X-141470Y356103D01*
X-141443Y356188D01*
X-141418Y356273D01*
X-141398Y356359D01*
X-141381Y356446D01*
X-141368Y356534D01*
X-141359Y356622D01*
X-141353Y356710D01*
X-141351Y356799D01*
X-141351Y362021D01*
X-141353Y362112D01*
X-141359Y362203D01*
X-141369Y362294D01*
X-141383Y362384D01*
X-141400Y362473D01*
X-141422Y362561D01*
X-141448Y362649D01*
X-141477Y362735D01*
X-141510Y362820D01*
X-141547Y362903D01*
X-141587Y362985D01*
X-141631Y363065D01*
X-141678Y363143D01*
X-141729Y363219D01*
X-141782Y363292D01*
X-141839Y363363D01*
X-141900Y363432D01*
X-141963Y363497D01*
X-142028Y363560D01*
X-142097Y363620D01*
X-142168Y363678D01*
X-142241Y363731D01*
X-142317Y363782D01*
X-142395Y363829D01*
X-142475Y363873D01*
X-142557Y363913D01*
X-142640Y363950D01*
X-142725Y363983D01*
X-142811Y364012D01*
X-142899Y364038D01*
X-142987Y364060D01*
X-143076Y364077D01*
X-143166Y364091D01*
X-143257Y364101D01*
X-143348Y364107D01*
X-143439Y364109D01*
X-145528Y364109D01*
X-148997Y354711D02*
X-151607Y354711D01*
X-151708Y354713D01*
X-151809Y354719D01*
X-151910Y354729D01*
X-152010Y354742D01*
X-152110Y354760D01*
X-152209Y354781D01*
X-152307Y354807D01*
X-152404Y354836D01*
X-152500Y354868D01*
X-152594Y354905D01*
X-152687Y354945D01*
X-152779Y354989D01*
X-152868Y355036D01*
X-152956Y355087D01*
X-153042Y355141D01*
X-153125Y355198D01*
X-153207Y355258D01*
X-153285Y355322D01*
X-153362Y355388D01*
X-153435Y355458D01*
X-153506Y355530D01*
X-153574Y355605D01*
X-153639Y355683D01*
X-153701Y355763D01*
X-153760Y355845D01*
X-153816Y355930D01*
X-153868Y356017D01*
X-153917Y356105D01*
X-153963Y356196D01*
X-154004Y356288D01*
X-154043Y356382D01*
X-154077Y356477D01*
X-154108Y356573D01*
X-154135Y356671D01*
X-154159Y356769D01*
X-154178Y356869D01*
X-154194Y356969D01*
X-154206Y357069D01*
X-154214Y357170D01*
X-154218Y357271D01*
X-154218Y357373D01*
X-154214Y357474D01*
X-154206Y357575D01*
X-154194Y357675D01*
X-154178Y357775D01*
X-154159Y357875D01*
X-154135Y357973D01*
X-154108Y358071D01*
X-154077Y358167D01*
X-154043Y358262D01*
X-154004Y358356D01*
X-153963Y358448D01*
X-153917Y358539D01*
X-153868Y358628D01*
X-153816Y358714D01*
X-153760Y358799D01*
X-153701Y358881D01*
X-153639Y358961D01*
X-153574Y359039D01*
X-153506Y359114D01*
X-153435Y359186D01*
X-153362Y359256D01*
X-153285Y359322D01*
X-153207Y359386D01*
X-153125Y359446D01*
X-153042Y359503D01*
X-152956Y359557D01*
X-152868Y359608D01*
X-152779Y359655D01*
X-152687Y359699D01*
X-152594Y359739D01*
X-152500Y359776D01*
X-152404Y359808D01*
X-152307Y359837D01*
X-152209Y359863D01*
X-152110Y359884D01*
X-152010Y359902D01*
X-151910Y359915D01*
X-151809Y359925D01*
X-151708Y359931D01*
X-151607Y359933D01*
X-152129Y364109D02*
X-148997Y364109D01*
X-152129Y364109D02*
X-152219Y364107D01*
X-152308Y364101D01*
X-152398Y364092D01*
X-152487Y364078D01*
X-152575Y364061D01*
X-152662Y364040D01*
X-152749Y364015D01*
X-152834Y363986D01*
X-152918Y363954D01*
X-153000Y363919D01*
X-153081Y363879D01*
X-153160Y363837D01*
X-153237Y363791D01*
X-153312Y363741D01*
X-153385Y363689D01*
X-153456Y363633D01*
X-153524Y363575D01*
X-153589Y363513D01*
X-153652Y363449D01*
X-153712Y363382D01*
X-153769Y363313D01*
X-153823Y363241D01*
X-153874Y363167D01*
X-153922Y363091D01*
X-153966Y363013D01*
X-154007Y362933D01*
X-154045Y362851D01*
X-154079Y362768D01*
X-154109Y362683D01*
X-154136Y362597D01*
X-154159Y362511D01*
X-154178Y362423D01*
X-154193Y362334D01*
X-154205Y362245D01*
X-154213Y362156D01*
X-154217Y362066D01*
X-154217Y361976D01*
X-154213Y361886D01*
X-154205Y361797D01*
X-154193Y361708D01*
X-154178Y361619D01*
X-154159Y361531D01*
X-154136Y361445D01*
X-154109Y361359D01*
X-154079Y361274D01*
X-154045Y361191D01*
X-154007Y361109D01*
X-153966Y361029D01*
X-153922Y360951D01*
X-153874Y360875D01*
X-153823Y360801D01*
X-153769Y360729D01*
X-153712Y360660D01*
X-153652Y360593D01*
X-153589Y360529D01*
X-153524Y360467D01*
X-153456Y360409D01*
X-153385Y360353D01*
X-153312Y360301D01*
X-153237Y360251D01*
X-153160Y360205D01*
X-153081Y360163D01*
X-153000Y360123D01*
X-152918Y360088D01*
X-152834Y360056D01*
X-152749Y360027D01*
X-152662Y360002D01*
X-152575Y359981D01*
X-152487Y359964D01*
X-152398Y359950D01*
X-152308Y359941D01*
X-152219Y359935D01*
X-152129Y359933D01*
X-152129Y359932D02*
X-150041Y359932D01*
D11*
X-217170Y373350D02*
X-242570Y373350D01*
D12*
X-235839Y358858D02*
X-235839Y356769D01*
X-235837Y356680D01*
X-235831Y356592D01*
X-235822Y356504D01*
X-235809Y356416D01*
X-235792Y356329D01*
X-235772Y356243D01*
X-235747Y356158D01*
X-235720Y356073D01*
X-235688Y355990D01*
X-235654Y355909D01*
X-235615Y355829D01*
X-235574Y355751D01*
X-235529Y355674D01*
X-235481Y355600D01*
X-235430Y355527D01*
X-235376Y355457D01*
X-235318Y355390D01*
X-235258Y355324D01*
X-235196Y355262D01*
X-235130Y355202D01*
X-235063Y355144D01*
X-234993Y355090D01*
X-234920Y355039D01*
X-234846Y354991D01*
X-234769Y354946D01*
X-234691Y354905D01*
X-234611Y354866D01*
X-234530Y354832D01*
X-234447Y354800D01*
X-234362Y354773D01*
X-234277Y354748D01*
X-234191Y354728D01*
X-234104Y354711D01*
X-234016Y354698D01*
X-233928Y354689D01*
X-233840Y354683D01*
X-233751Y354681D01*
X-228529Y354681D01*
X-228438Y354683D01*
X-228347Y354689D01*
X-228256Y354699D01*
X-228166Y354713D01*
X-228077Y354731D01*
X-227988Y354752D01*
X-227901Y354778D01*
X-227815Y354807D01*
X-227730Y354840D01*
X-227646Y354877D01*
X-227564Y354917D01*
X-227485Y354961D01*
X-227407Y355008D01*
X-227331Y355059D01*
X-227257Y355113D01*
X-227186Y355170D01*
X-227118Y355230D01*
X-227052Y355293D01*
X-226989Y355359D01*
X-226929Y355427D01*
X-226872Y355498D01*
X-226818Y355572D01*
X-226767Y355648D01*
X-226720Y355725D01*
X-226676Y355805D01*
X-226636Y355887D01*
X-226599Y355971D01*
X-226566Y356055D01*
X-226537Y356142D01*
X-226511Y356229D01*
X-226490Y356318D01*
X-226472Y356407D01*
X-226458Y356497D01*
X-226448Y356588D01*
X-226442Y356679D01*
X-226440Y356770D01*
X-226441Y356769D02*
X-226441Y358858D01*
X-228529Y362327D02*
X-226441Y364937D01*
X-235839Y364937D01*
X-235839Y362327D02*
X-235839Y367548D01*
X-159498Y368681D02*
X-157409Y368681D01*
X-157320Y368683D01*
X-157232Y368689D01*
X-157144Y368698D01*
X-157056Y368711D01*
X-156969Y368728D01*
X-156883Y368748D01*
X-156798Y368773D01*
X-156713Y368800D01*
X-156630Y368832D01*
X-156549Y368866D01*
X-156469Y368905D01*
X-156391Y368946D01*
X-156314Y368991D01*
X-156240Y369039D01*
X-156167Y369090D01*
X-156097Y369144D01*
X-156030Y369202D01*
X-155964Y369262D01*
X-155902Y369324D01*
X-155842Y369390D01*
X-155784Y369457D01*
X-155730Y369527D01*
X-155679Y369600D01*
X-155631Y369674D01*
X-155586Y369751D01*
X-155545Y369829D01*
X-155506Y369909D01*
X-155472Y369990D01*
X-155440Y370073D01*
X-155413Y370158D01*
X-155388Y370243D01*
X-155368Y370329D01*
X-155351Y370416D01*
X-155338Y370504D01*
X-155329Y370592D01*
X-155323Y370680D01*
X-155321Y370769D01*
X-155321Y375991D01*
X-155323Y376082D01*
X-155329Y376173D01*
X-155339Y376264D01*
X-155353Y376354D01*
X-155370Y376443D01*
X-155392Y376531D01*
X-155418Y376619D01*
X-155447Y376705D01*
X-155480Y376790D01*
X-155517Y376873D01*
X-155557Y376955D01*
X-155601Y377035D01*
X-155648Y377113D01*
X-155699Y377189D01*
X-155752Y377262D01*
X-155809Y377333D01*
X-155870Y377402D01*
X-155933Y377467D01*
X-155998Y377530D01*
X-156067Y377590D01*
X-156138Y377648D01*
X-156211Y377701D01*
X-156287Y377752D01*
X-156365Y377799D01*
X-156445Y377843D01*
X-156527Y377883D01*
X-156610Y377920D01*
X-156695Y377953D01*
X-156781Y377982D01*
X-156869Y378008D01*
X-156957Y378030D01*
X-157046Y378047D01*
X-157136Y378061D01*
X-157227Y378071D01*
X-157318Y378077D01*
X-157409Y378079D01*
X-159498Y378079D01*
X-165055Y378079D02*
X-162967Y370769D01*
X-168188Y370769D01*
X-166621Y368681D02*
X-166621Y372858D01*
M02*
