M48
;GenerationSoftware,Autodesk,EAGLE,9.6.1*%
;CreationDate,2020-05-12T19:56:48Z*%
FMAT,2
ICI,OFF
METRIC,TZ,000.000
T2C0.350
T1C1.016
%
G90
M71
T1
X58928Y24562
X58928Y27102
X58928Y29642
X58928Y32182
X58928Y34722
X58928Y37262
X58928Y39802
X58928Y42342
X58928Y44882
X58928Y47422
X13208Y24562
X13208Y27102
X13208Y29642
X13208Y32182
X13208Y34722
X13208Y37262
X13208Y39802
X13208Y42342
X13208Y44882
X13208Y47422
T2
X19812Y18415
X18796Y17526
M30