G04 EAGLE Gerber RS-274X export*
G75*
%MOMM*%
%FSLAX34Y34*%
%LPD*%
%INBottom Copper*%
%IPPOS*%
%AMOC8*
5,1,8,0,0,1.08239X$1,22.5*%
G01*
%ADD10C,1.000000*%
%ADD11C,1.524000*%
%ADD12R,1.200000X0.550000*%
%ADD13R,1.000000X1.100000*%
%ADD14R,2.700000X1.600000*%
%ADD15R,1.100000X1.000000*%
%ADD16C,0.609600*%
%ADD17C,0.756400*%
%ADD18C,0.508000*%
%ADD19C,0.406400*%

G36*
X589044Y135386D02*
X589044Y135386D01*
X589066Y135384D01*
X592443Y135650D01*
X592492Y135664D01*
X592560Y135673D01*
X598984Y137761D01*
X599031Y137787D01*
X599126Y137833D01*
X604591Y141803D01*
X604627Y141843D01*
X604703Y141915D01*
X608673Y147380D01*
X608696Y147429D01*
X608745Y147522D01*
X610833Y153946D01*
X610839Y153997D01*
X610856Y154063D01*
X611122Y157440D01*
X611119Y157459D01*
X611123Y157480D01*
X611123Y563118D01*
X611120Y563136D01*
X611122Y563158D01*
X610856Y566535D01*
X610842Y566584D01*
X610833Y566652D01*
X608745Y573076D01*
X608719Y573123D01*
X608673Y573218D01*
X604703Y578683D01*
X604663Y578719D01*
X604591Y578795D01*
X599126Y582765D01*
X599077Y582788D01*
X598984Y582837D01*
X592560Y584925D01*
X592509Y584931D01*
X592443Y584948D01*
X589066Y585214D01*
X589047Y585211D01*
X589026Y585215D01*
X131826Y585215D01*
X131808Y585212D01*
X131786Y585214D01*
X128409Y584948D01*
X128360Y584934D01*
X128292Y584925D01*
X121868Y582837D01*
X121821Y582811D01*
X121726Y582765D01*
X116261Y578795D01*
X116225Y578755D01*
X116149Y578683D01*
X112179Y573218D01*
X112156Y573169D01*
X112107Y573076D01*
X110019Y566652D01*
X110013Y566601D01*
X109996Y566535D01*
X109730Y563158D01*
X109733Y563139D01*
X109729Y563118D01*
X109729Y157480D01*
X109732Y157462D01*
X109730Y157440D01*
X109996Y154063D01*
X110010Y154014D01*
X110019Y153946D01*
X112107Y147522D01*
X112133Y147475D01*
X112179Y147380D01*
X116149Y141915D01*
X116189Y141879D01*
X116261Y141803D01*
X121726Y137833D01*
X121775Y137810D01*
X121868Y137761D01*
X128292Y135673D01*
X128343Y135667D01*
X128409Y135650D01*
X131786Y135384D01*
X131805Y135387D01*
X131826Y135383D01*
X589026Y135383D01*
X589044Y135386D01*
G37*
%LPC*%
G36*
X162658Y143001D02*
X162658Y143001D01*
X160604Y143852D01*
X158961Y145496D01*
X134866Y169591D01*
X134859Y169595D01*
X134855Y169601D01*
X134776Y169650D01*
X134699Y169702D01*
X134691Y169703D01*
X134684Y169707D01*
X134507Y169739D01*
X117528Y169739D01*
X116039Y171228D01*
X116039Y189332D01*
X117528Y190821D01*
X146632Y190821D01*
X146906Y190547D01*
X146912Y190543D01*
X146917Y190537D01*
X146996Y190488D01*
X147073Y190436D01*
X147081Y190435D01*
X147087Y190431D01*
X147265Y190399D01*
X167045Y190399D01*
X167053Y190400D01*
X167060Y190399D01*
X167150Y190420D01*
X167241Y190438D01*
X167248Y190443D01*
X167256Y190445D01*
X167404Y190547D01*
X169523Y192666D01*
X169527Y192673D01*
X169533Y192677D01*
X169582Y192756D01*
X169634Y192833D01*
X169635Y192841D01*
X169639Y192848D01*
X169671Y193025D01*
X169671Y194325D01*
X169670Y194333D01*
X169671Y194340D01*
X169650Y194430D01*
X169632Y194521D01*
X169627Y194528D01*
X169625Y194536D01*
X169523Y194684D01*
X166134Y198073D01*
X166127Y198077D01*
X166123Y198083D01*
X166044Y198132D01*
X165967Y198184D01*
X165959Y198185D01*
X165952Y198189D01*
X165775Y198221D01*
X161148Y198221D01*
X160522Y198481D01*
X160513Y198482D01*
X160505Y198487D01*
X160328Y198519D01*
X155208Y198519D01*
X153719Y200008D01*
X153719Y207612D01*
X155209Y209102D01*
X155297Y209122D01*
X155391Y209140D01*
X155395Y209143D01*
X155400Y209144D01*
X155478Y209200D01*
X155556Y209253D01*
X155559Y209257D01*
X155563Y209260D01*
X155614Y209342D01*
X155666Y209421D01*
X155666Y209426D01*
X155669Y209431D01*
X155701Y209608D01*
X155701Y250205D01*
X155700Y250213D01*
X155701Y250220D01*
X155680Y250310D01*
X155662Y250401D01*
X155657Y250408D01*
X155655Y250416D01*
X155553Y250564D01*
X144462Y261654D01*
X144457Y261658D01*
X144453Y261663D01*
X144374Y261713D01*
X144296Y261765D01*
X144289Y261766D01*
X144284Y261770D01*
X144191Y261785D01*
X144099Y261802D01*
X144092Y261801D01*
X144086Y261802D01*
X143910Y261764D01*
X143631Y261648D01*
X142407Y261141D01*
X142406Y261141D01*
X141721Y260857D01*
X122439Y260857D01*
X118704Y262404D01*
X115846Y265262D01*
X114299Y268997D01*
X114299Y273039D01*
X115846Y276774D01*
X118704Y279632D01*
X119566Y279989D01*
X120790Y280496D01*
X122015Y281003D01*
X122439Y281179D01*
X141721Y281179D01*
X145456Y279632D01*
X148314Y276774D01*
X149861Y273039D01*
X149861Y272273D01*
X149862Y272265D01*
X149861Y272258D01*
X149882Y272168D01*
X149900Y272077D01*
X149905Y272070D01*
X149907Y272062D01*
X150009Y271914D01*
X164384Y257539D01*
X166028Y255896D01*
X166879Y253842D01*
X166879Y209906D01*
X166880Y209901D01*
X166879Y209896D01*
X166900Y209803D01*
X166918Y209709D01*
X166921Y209705D01*
X166922Y209700D01*
X166978Y209622D01*
X167031Y209544D01*
X167035Y209541D01*
X167038Y209537D01*
X167120Y209486D01*
X167199Y209434D01*
X167204Y209434D01*
X167209Y209431D01*
X167386Y209399D01*
X169412Y209399D01*
X171466Y208548D01*
X178354Y201659D01*
X178355Y201659D01*
X178853Y201160D01*
X178856Y201159D01*
X178857Y201157D01*
X178938Y201104D01*
X179020Y201049D01*
X179023Y201049D01*
X179025Y201047D01*
X179121Y201030D01*
X179217Y201012D01*
X179220Y201012D01*
X179222Y201012D01*
X179319Y201033D01*
X179413Y201053D01*
X179415Y201055D01*
X179418Y201055D01*
X179498Y201112D01*
X179578Y201168D01*
X179579Y201170D01*
X179581Y201171D01*
X179633Y201255D01*
X179685Y201337D01*
X179686Y201339D01*
X179687Y201342D01*
X179719Y201519D01*
X179719Y207612D01*
X181208Y209101D01*
X181864Y209101D01*
X181869Y209102D01*
X181874Y209101D01*
X181967Y209122D01*
X182061Y209140D01*
X182065Y209143D01*
X182070Y209144D01*
X182148Y209200D01*
X182226Y209253D01*
X182229Y209257D01*
X182233Y209260D01*
X182284Y209342D01*
X182336Y209421D01*
X182336Y209426D01*
X182339Y209431D01*
X182371Y209608D01*
X182371Y214092D01*
X182370Y214097D01*
X182371Y214102D01*
X182350Y214195D01*
X182332Y214289D01*
X182329Y214293D01*
X182328Y214298D01*
X182272Y214376D01*
X182219Y214454D01*
X182215Y214457D01*
X182212Y214461D01*
X182130Y214512D01*
X182051Y214564D01*
X182046Y214564D01*
X182041Y214567D01*
X181917Y214590D01*
X180419Y216088D01*
X180419Y229192D01*
X181908Y230681D01*
X194012Y230681D01*
X195501Y229192D01*
X195501Y216088D01*
X194003Y214590D01*
X193953Y214578D01*
X193859Y214560D01*
X193855Y214557D01*
X193850Y214556D01*
X193772Y214500D01*
X193694Y214447D01*
X193691Y214443D01*
X193687Y214440D01*
X193636Y214358D01*
X193584Y214279D01*
X193584Y214274D01*
X193581Y214269D01*
X193549Y214092D01*
X193549Y209608D01*
X193550Y209603D01*
X193549Y209598D01*
X193570Y209505D01*
X193588Y209411D01*
X193591Y209407D01*
X193592Y209402D01*
X193648Y209324D01*
X193701Y209246D01*
X193705Y209243D01*
X193708Y209239D01*
X193790Y209188D01*
X193869Y209136D01*
X193874Y209136D01*
X193879Y209133D01*
X194056Y209101D01*
X195312Y209101D01*
X196801Y207612D01*
X196801Y200008D01*
X195312Y198519D01*
X190192Y198519D01*
X190183Y198517D01*
X190174Y198519D01*
X189998Y198481D01*
X189996Y198480D01*
X189995Y198480D01*
X189422Y198242D01*
X189372Y198221D01*
X187148Y198221D01*
X186522Y198481D01*
X186513Y198482D01*
X186505Y198487D01*
X186328Y198519D01*
X181356Y198519D01*
X181351Y198518D01*
X181346Y198519D01*
X181253Y198498D01*
X181159Y198480D01*
X181155Y198477D01*
X181150Y198476D01*
X181072Y198420D01*
X180994Y198367D01*
X180991Y198363D01*
X180987Y198360D01*
X180936Y198278D01*
X180884Y198199D01*
X180884Y198194D01*
X180881Y198189D01*
X180849Y198012D01*
X180849Y190608D01*
X180850Y190603D01*
X180849Y190598D01*
X180870Y190505D01*
X180888Y190411D01*
X180891Y190407D01*
X180892Y190402D01*
X180948Y190324D01*
X181001Y190246D01*
X181005Y190243D01*
X181008Y190239D01*
X181090Y190188D01*
X181169Y190136D01*
X181174Y190136D01*
X181179Y190133D01*
X181356Y190101D01*
X186328Y190101D01*
X186337Y190103D01*
X186346Y190101D01*
X186522Y190139D01*
X186524Y190140D01*
X186525Y190140D01*
X186681Y190205D01*
X187148Y190399D01*
X189372Y190399D01*
X189998Y190139D01*
X190007Y190138D01*
X190015Y190133D01*
X190192Y190101D01*
X195336Y190101D01*
X195352Y190091D01*
X195431Y190039D01*
X195437Y190037D01*
X195443Y190034D01*
X195535Y190019D01*
X195627Y190001D01*
X195634Y190002D01*
X195640Y190001D01*
X195816Y190040D01*
X196217Y190205D01*
X196862Y190473D01*
X199378Y190473D01*
X200428Y190038D01*
X200432Y190037D01*
X200435Y190035D01*
X200530Y190018D01*
X200625Y189999D01*
X200628Y190000D01*
X200632Y189999D01*
X200726Y190020D01*
X200821Y190040D01*
X200824Y190042D01*
X200828Y190043D01*
X200906Y190098D01*
X200986Y190153D01*
X200988Y190156D01*
X200991Y190159D01*
X201042Y190240D01*
X201095Y190322D01*
X201095Y190326D01*
X201097Y190329D01*
X201129Y190506D01*
X201129Y194442D01*
X202618Y195931D01*
X231722Y195931D01*
X233211Y194442D01*
X233211Y176338D01*
X231722Y174849D01*
X202618Y174849D01*
X201129Y176338D01*
X201129Y177794D01*
X201128Y177798D01*
X201129Y177801D01*
X201109Y177895D01*
X201090Y177990D01*
X201087Y177993D01*
X201087Y177997D01*
X201031Y178076D01*
X200977Y178156D01*
X200974Y178158D01*
X200971Y178161D01*
X200889Y178213D01*
X200809Y178265D01*
X200805Y178266D01*
X200802Y178268D01*
X200706Y178284D01*
X200612Y178301D01*
X200608Y178300D01*
X200604Y178301D01*
X200428Y178262D01*
X199679Y177952D01*
X199378Y177827D01*
X196862Y177827D01*
X195184Y178523D01*
X195175Y178524D01*
X195167Y178529D01*
X194989Y178561D01*
X194356Y178561D01*
X194351Y178560D01*
X194346Y178561D01*
X194253Y178540D01*
X194159Y178522D01*
X194155Y178519D01*
X194150Y178518D01*
X194072Y178462D01*
X193994Y178409D01*
X193991Y178405D01*
X193987Y178402D01*
X193936Y178320D01*
X193884Y178241D01*
X193884Y178236D01*
X193881Y178231D01*
X193849Y178054D01*
X193849Y177666D01*
X193851Y177657D01*
X193849Y177648D01*
X193887Y177472D01*
X194283Y176518D01*
X194283Y174002D01*
X193887Y173048D01*
X193886Y173039D01*
X193881Y173031D01*
X193849Y172854D01*
X193849Y169338D01*
X193850Y169333D01*
X193849Y169328D01*
X193870Y169235D01*
X193888Y169141D01*
X193891Y169137D01*
X193892Y169132D01*
X193948Y169054D01*
X194001Y168976D01*
X194005Y168973D01*
X194008Y168969D01*
X194090Y168918D01*
X194169Y168866D01*
X194174Y168866D01*
X194179Y168863D01*
X194356Y168831D01*
X194902Y168831D01*
X196391Y167342D01*
X196391Y155238D01*
X196198Y155045D01*
X196196Y155042D01*
X196194Y155041D01*
X196141Y154960D01*
X196087Y154878D01*
X196086Y154875D01*
X196085Y154873D01*
X196068Y154777D01*
X196049Y154681D01*
X196050Y154678D01*
X196049Y154676D01*
X196071Y154579D01*
X196091Y154485D01*
X196092Y154483D01*
X196093Y154480D01*
X196150Y154399D01*
X196205Y154320D01*
X196207Y154319D01*
X196209Y154317D01*
X196293Y154264D01*
X196374Y154213D01*
X196377Y154212D01*
X196379Y154211D01*
X196556Y154179D01*
X447055Y154179D01*
X447063Y154180D01*
X447070Y154179D01*
X447160Y154200D01*
X447251Y154218D01*
X447258Y154223D01*
X447266Y154225D01*
X447414Y154327D01*
X463670Y170583D01*
X463671Y170586D01*
X463673Y170587D01*
X463726Y170668D01*
X463781Y170750D01*
X463781Y170753D01*
X463783Y170755D01*
X463800Y170851D01*
X463818Y170947D01*
X463818Y170950D01*
X463818Y170952D01*
X463797Y171049D01*
X463777Y171143D01*
X463775Y171145D01*
X463775Y171148D01*
X463718Y171228D01*
X463662Y171308D01*
X463660Y171309D01*
X463659Y171311D01*
X463576Y171363D01*
X463493Y171415D01*
X463491Y171416D01*
X463488Y171417D01*
X463311Y171449D01*
X378401Y171449D01*
X375277Y174574D01*
X373114Y176737D01*
X373096Y176748D01*
X373084Y176765D01*
X373014Y176803D01*
X372947Y176848D01*
X372926Y176852D01*
X372908Y176862D01*
X372829Y176870D01*
X372750Y176885D01*
X372730Y176881D01*
X372709Y176883D01*
X372606Y176855D01*
X372554Y176844D01*
X372546Y176838D01*
X372535Y176835D01*
X372153Y176651D01*
X372097Y176609D01*
X372036Y176573D01*
X372016Y176547D01*
X371994Y176530D01*
X371968Y176486D01*
X371925Y176431D01*
X371882Y176350D01*
X370933Y176057D01*
X370902Y176041D01*
X370862Y176029D01*
X369967Y175598D01*
X369880Y175629D01*
X369810Y175638D01*
X369742Y175656D01*
X369709Y175652D01*
X369681Y175656D01*
X369631Y175643D01*
X369563Y175635D01*
X367938Y175133D01*
X367876Y175100D01*
X367810Y175074D01*
X367786Y175051D01*
X367762Y175038D01*
X367730Y174997D01*
X367679Y174950D01*
X367625Y174876D01*
X366642Y174728D01*
X366610Y174716D01*
X366568Y174711D01*
X365619Y174418D01*
X365537Y174461D01*
X365470Y174481D01*
X365405Y174509D01*
X365372Y174510D01*
X365345Y174518D01*
X365294Y174512D01*
X365225Y174514D01*
X363543Y174261D01*
X363477Y174237D01*
X363408Y174221D01*
X363381Y174202D01*
X363355Y174192D01*
X363317Y174157D01*
X363260Y174118D01*
X363195Y174053D01*
X362202Y174053D01*
X362168Y174046D01*
X362126Y174047D01*
X361143Y173899D01*
X361069Y173954D01*
X361005Y173984D01*
X360946Y174021D01*
X360913Y174027D01*
X360888Y174038D01*
X360836Y174040D01*
X360768Y174053D01*
X359068Y174053D01*
X358998Y174039D01*
X358928Y174033D01*
X358899Y174019D01*
X358871Y174013D01*
X358829Y173984D01*
X358767Y173954D01*
X358693Y173899D01*
X357710Y174047D01*
X357675Y174045D01*
X357634Y174053D01*
X356641Y174053D01*
X356576Y174118D01*
X356517Y174157D01*
X356463Y174203D01*
X356432Y174213D01*
X356409Y174229D01*
X356358Y174238D01*
X356293Y174261D01*
X354611Y174514D01*
X354541Y174511D01*
X354470Y174516D01*
X354439Y174506D01*
X354411Y174504D01*
X354364Y174482D01*
X354299Y174461D01*
X354217Y174418D01*
X353268Y174711D01*
X353233Y174714D01*
X353194Y174728D01*
X352211Y174876D01*
X352157Y174950D01*
X352104Y174997D01*
X352058Y175051D01*
X352029Y175066D01*
X352008Y175084D01*
X351959Y175102D01*
X351898Y175133D01*
X350273Y175635D01*
X350203Y175642D01*
X350134Y175657D01*
X350102Y175652D01*
X350074Y175655D01*
X350024Y175640D01*
X349956Y175629D01*
X349869Y175598D01*
X348974Y176029D01*
X348940Y176038D01*
X348903Y176057D01*
X347954Y176350D01*
X347911Y176431D01*
X347866Y176486D01*
X347828Y176546D01*
X347802Y176565D01*
X347784Y176587D01*
X347739Y176611D01*
X347683Y176651D01*
X346151Y177389D01*
X346082Y177407D01*
X346016Y177432D01*
X345984Y177432D01*
X345956Y177439D01*
X345905Y177431D01*
X345836Y177431D01*
X345746Y177413D01*
X344925Y177973D01*
X344893Y177987D01*
X344859Y178011D01*
X343964Y178442D01*
X343933Y178529D01*
X343898Y178590D01*
X343869Y178654D01*
X343846Y178677D01*
X343831Y178701D01*
X343790Y178732D01*
X343740Y178781D01*
X342335Y179739D01*
X342271Y179766D01*
X342209Y179801D01*
X342177Y179806D01*
X342151Y179816D01*
X342099Y179817D01*
X342031Y179826D01*
X341939Y179823D01*
X341211Y180499D01*
X341181Y180517D01*
X341151Y180546D01*
X340330Y181106D01*
X340313Y181196D01*
X340287Y181262D01*
X340268Y181330D01*
X340248Y181356D01*
X340238Y181382D01*
X340201Y181418D01*
X340160Y181474D01*
X338913Y182630D01*
X338853Y182667D01*
X338798Y182711D01*
X338766Y182720D01*
X338742Y182735D01*
X338691Y182743D01*
X338625Y182762D01*
X338534Y182773D01*
X337914Y183550D01*
X337887Y183572D01*
X337862Y183605D01*
X337134Y184281D01*
X337131Y184373D01*
X337114Y184442D01*
X337106Y184512D01*
X337090Y184541D01*
X337084Y184568D01*
X337053Y184609D01*
X337020Y184670D01*
X335960Y186000D01*
X335906Y186045D01*
X335858Y186097D01*
X335828Y186111D01*
X335807Y186129D01*
X335757Y186144D01*
X335695Y186173D01*
X335606Y186197D01*
X335109Y187058D01*
X335086Y187084D01*
X335067Y187120D01*
X334447Y187897D01*
X334457Y187989D01*
X334451Y188059D01*
X334453Y188130D01*
X334442Y188160D01*
X334440Y188188D01*
X334416Y188234D01*
X334392Y188299D01*
X333542Y189772D01*
X333496Y189825D01*
X333456Y189883D01*
X333428Y189901D01*
X333410Y189922D01*
X333363Y189945D01*
X333306Y189983D01*
X333221Y190020D01*
X332858Y190945D01*
X332840Y190974D01*
X332825Y191013D01*
X332329Y191874D01*
X332353Y191962D01*
X332357Y192033D01*
X332370Y192102D01*
X332363Y192134D01*
X332365Y192162D01*
X332348Y192211D01*
X332335Y192279D01*
X331714Y193862D01*
X331675Y193921D01*
X331644Y193985D01*
X331620Y194007D01*
X331605Y194030D01*
X331562Y194060D01*
X331511Y194106D01*
X331433Y194155D01*
X331212Y195124D01*
X331198Y195155D01*
X331190Y195196D01*
X330827Y196121D01*
X330864Y196205D01*
X330879Y196274D01*
X330901Y196341D01*
X330900Y196374D01*
X330906Y196401D01*
X330896Y196452D01*
X330893Y196521D01*
X330515Y198179D01*
X330486Y198243D01*
X330465Y198311D01*
X330444Y198336D01*
X330433Y198362D01*
X330395Y198397D01*
X330351Y198451D01*
X330281Y198511D01*
X330207Y199501D01*
X330198Y199535D01*
X330196Y199576D01*
X329966Y200583D01*
X329946Y200628D01*
X329935Y200676D01*
X329905Y200718D01*
X329884Y200766D01*
X329848Y200799D01*
X329819Y200839D01*
X329775Y200867D01*
X329737Y200902D01*
X329691Y200919D01*
X329649Y200945D01*
X329592Y200956D01*
X329549Y200971D01*
X329514Y200970D01*
X329472Y200977D01*
X289160Y200977D01*
X289415Y203976D01*
X289412Y204005D01*
X289417Y204035D01*
X289401Y204103D01*
X289393Y204173D01*
X289378Y204199D01*
X289371Y204228D01*
X289329Y204285D01*
X289294Y204346D01*
X289271Y204364D01*
X289253Y204388D01*
X289193Y204424D01*
X289136Y204467D01*
X289108Y204474D01*
X289082Y204490D01*
X288986Y204506D01*
X288944Y204517D01*
X288932Y204515D01*
X288918Y204517D01*
X270207Y204517D01*
X260851Y220767D01*
X260831Y220789D01*
X260819Y220816D01*
X260779Y220852D01*
X260757Y220881D01*
X260743Y220889D01*
X260719Y220916D01*
X260693Y220929D01*
X260671Y220949D01*
X260604Y220971D01*
X260586Y220982D01*
X260579Y220983D01*
X260540Y221002D01*
X260510Y221004D01*
X260483Y221013D01*
X260426Y221009D01*
X260422Y221010D01*
X260407Y221010D01*
X260401Y221009D01*
X260341Y221011D01*
X260313Y221001D01*
X260284Y220999D01*
X260231Y220974D01*
X260212Y220970D01*
X260191Y220956D01*
X260155Y220942D01*
X260146Y220934D01*
X260134Y220928D01*
X257642Y219201D01*
X237540Y254022D01*
X237507Y254059D01*
X237483Y254102D01*
X237442Y254133D01*
X237407Y254172D01*
X237363Y254194D01*
X237324Y254224D01*
X237274Y254237D01*
X237227Y254260D01*
X237178Y254262D01*
X237130Y254275D01*
X237073Y254268D01*
X237027Y254270D01*
X236993Y254258D01*
X236951Y254253D01*
X235939Y253940D01*
X235909Y253924D01*
X235869Y253912D01*
X234974Y253481D01*
X234887Y253511D01*
X234817Y253521D01*
X234749Y253539D01*
X234716Y253535D01*
X234688Y253538D01*
X234638Y253525D01*
X234570Y253517D01*
X232949Y253016D01*
X232887Y252982D01*
X232822Y252956D01*
X232798Y252933D01*
X232773Y252920D01*
X232741Y252880D01*
X232691Y252832D01*
X232636Y252758D01*
X231654Y252609D01*
X231621Y252598D01*
X231580Y252593D01*
X230630Y252299D01*
X230549Y252342D01*
X230481Y252362D01*
X230416Y252390D01*
X230384Y252391D01*
X230357Y252399D01*
X230306Y252393D01*
X230236Y252395D01*
X228559Y252141D01*
X228493Y252117D01*
X228424Y252101D01*
X228397Y252082D01*
X228371Y252073D01*
X228333Y252038D01*
X228276Y251998D01*
X228211Y251933D01*
X227218Y251932D01*
X227183Y251925D01*
X227142Y251927D01*
X226160Y251778D01*
X226086Y251833D01*
X226022Y251862D01*
X225962Y251900D01*
X225929Y251905D01*
X225904Y251917D01*
X225852Y251919D01*
X225784Y251932D01*
X224088Y251930D01*
X224019Y251916D01*
X223948Y251911D01*
X223919Y251896D01*
X223892Y251891D01*
X223849Y251862D01*
X223787Y251831D01*
X223713Y251776D01*
X222730Y251924D01*
X222696Y251922D01*
X222655Y251930D01*
X221661Y251929D01*
X221596Y251994D01*
X221537Y252033D01*
X221483Y252079D01*
X221452Y252089D01*
X221429Y252105D01*
X221378Y252115D01*
X221313Y252137D01*
X219635Y252389D01*
X219565Y252385D01*
X219494Y252390D01*
X219463Y252380D01*
X219435Y252379D01*
X219389Y252356D01*
X219323Y252335D01*
X219241Y252292D01*
X218292Y252585D01*
X218257Y252588D01*
X218218Y252601D01*
X217235Y252749D01*
X217181Y252823D01*
X217128Y252870D01*
X217082Y252923D01*
X217053Y252939D01*
X217032Y252957D01*
X216983Y252974D01*
X216922Y253006D01*
X215301Y253505D01*
X215230Y253512D01*
X215161Y253528D01*
X215129Y253522D01*
X215101Y253525D01*
X215052Y253510D01*
X214984Y253499D01*
X214897Y253469D01*
X214001Y253899D01*
X213968Y253908D01*
X213931Y253927D01*
X212981Y254219D01*
X212938Y254300D01*
X212893Y254355D01*
X212855Y254415D01*
X212829Y254434D01*
X212811Y254456D01*
X212766Y254480D01*
X212709Y254520D01*
X211181Y255255D01*
X211112Y255273D01*
X211047Y255298D01*
X211014Y255298D01*
X210987Y255305D01*
X210936Y255297D01*
X210866Y255297D01*
X210776Y255279D01*
X209955Y255839D01*
X209923Y255852D01*
X209889Y255877D01*
X208994Y256307D01*
X208963Y256394D01*
X208927Y256455D01*
X208898Y256519D01*
X208875Y256542D01*
X208861Y256566D01*
X208819Y256597D01*
X208770Y256645D01*
X207368Y257600D01*
X207303Y257627D01*
X207241Y257662D01*
X207209Y257667D01*
X207183Y257678D01*
X207132Y257678D01*
X207063Y257688D01*
X206971Y257684D01*
X206242Y258359D01*
X206213Y258378D01*
X206183Y258407D01*
X205362Y258966D01*
X205345Y259056D01*
X205318Y259122D01*
X205299Y259190D01*
X205280Y259216D01*
X205269Y259242D01*
X205233Y259279D01*
X205191Y259334D01*
X203947Y260487D01*
X203887Y260524D01*
X203831Y260567D01*
X203800Y260577D01*
X203776Y260591D01*
X203725Y260599D01*
X203659Y260619D01*
X203567Y260629D01*
X202947Y261406D01*
X202920Y261428D01*
X202895Y261461D01*
X202167Y262137D01*
X202163Y262228D01*
X202147Y262297D01*
X202138Y262367D01*
X202123Y262396D01*
X202116Y262423D01*
X202086Y262465D01*
X202053Y262526D01*
X200994Y263851D01*
X200940Y263897D01*
X200892Y263948D01*
X200862Y263962D01*
X200841Y263980D01*
X200792Y263995D01*
X200729Y264025D01*
X200640Y264048D01*
X200143Y264909D01*
X200120Y264935D01*
X200100Y264971D01*
X199480Y265748D01*
X199490Y265839D01*
X199484Y265910D01*
X199486Y265980D01*
X199475Y266011D01*
X199473Y266039D01*
X199449Y266085D01*
X199425Y266150D01*
X198576Y267618D01*
X198530Y267671D01*
X198490Y267729D01*
X198462Y267747D01*
X198444Y267768D01*
X198397Y267791D01*
X198340Y267829D01*
X198255Y267866D01*
X197892Y268791D01*
X197873Y268820D01*
X197859Y268859D01*
X197362Y269719D01*
X197385Y269808D01*
X197390Y269878D01*
X197403Y269948D01*
X197396Y269980D01*
X197398Y270008D01*
X197381Y270057D01*
X197367Y270125D01*
X196747Y271703D01*
X196708Y271762D01*
X196677Y271826D01*
X196653Y271848D01*
X196638Y271872D01*
X196595Y271901D01*
X196544Y271947D01*
X196466Y271996D01*
X196245Y272965D01*
X196230Y272997D01*
X196222Y273037D01*
X195859Y273962D01*
X195895Y274046D01*
X195910Y274115D01*
X195933Y274182D01*
X195932Y274215D01*
X195938Y274242D01*
X195928Y274293D01*
X195925Y274362D01*
X195546Y276015D01*
X195526Y276060D01*
X195518Y276097D01*
X195507Y276112D01*
X195496Y276147D01*
X195475Y276173D01*
X195464Y276198D01*
X195426Y276233D01*
X195383Y276287D01*
X195313Y276347D01*
X195238Y277338D01*
X195229Y277371D01*
X195227Y277413D01*
X195005Y278381D01*
X195054Y278459D01*
X195079Y278525D01*
X195111Y278588D01*
X195115Y278620D01*
X195125Y278647D01*
X195123Y278698D01*
X195130Y278767D01*
X195002Y280458D01*
X194983Y280526D01*
X194972Y280596D01*
X194956Y280624D01*
X194948Y280651D01*
X194916Y280692D01*
X194881Y280751D01*
X194821Y280821D01*
X194894Y281812D01*
X194890Y281846D01*
X194894Y281888D01*
X194819Y282879D01*
X194879Y282948D01*
X194914Y283010D01*
X194955Y283067D01*
X194964Y283099D01*
X194977Y283123D01*
X194983Y283174D01*
X195000Y283241D01*
X195126Y284933D01*
X195117Y285003D01*
X195117Y285073D01*
X195105Y285104D01*
X195101Y285132D01*
X195076Y285176D01*
X195050Y285241D01*
X195001Y285319D01*
X195221Y286287D01*
X195222Y286322D01*
X195232Y286362D01*
X195306Y287353D01*
X195376Y287413D01*
X195419Y287469D01*
X195469Y287519D01*
X195482Y287549D01*
X195499Y287571D01*
X195512Y287621D01*
X195539Y287685D01*
X195916Y289339D01*
X195918Y289410D01*
X195928Y289479D01*
X195920Y289511D01*
X195921Y289539D01*
X195902Y289587D01*
X195886Y289655D01*
X195849Y289739D01*
X196212Y290664D01*
X196218Y290698D01*
X196234Y290736D01*
X196454Y291705D01*
X196532Y291754D01*
X196583Y291803D01*
X196640Y291845D01*
X196657Y291873D01*
X196678Y291893D01*
X196698Y291940D01*
X196734Y291999D01*
X197012Y292708D01*
X197013Y292710D01*
X197014Y292711D01*
X197030Y292810D01*
X197047Y292906D01*
X197047Y292907D01*
X197047Y292909D01*
X197025Y293004D01*
X197003Y293101D01*
X197002Y293102D01*
X197002Y293104D01*
X196899Y293252D01*
X148860Y341291D01*
X148855Y341294D01*
X148852Y341298D01*
X148772Y341349D01*
X148693Y341402D01*
X148688Y341403D01*
X148683Y341406D01*
X148589Y341422D01*
X148496Y341440D01*
X148491Y341438D01*
X148486Y341439D01*
X148393Y341418D01*
X148300Y341398D01*
X148296Y341395D01*
X148290Y341394D01*
X148142Y341291D01*
X145456Y338604D01*
X144584Y338243D01*
X143360Y337736D01*
X143359Y337736D01*
X142135Y337229D01*
X141721Y337057D01*
X122439Y337057D01*
X118704Y338604D01*
X115846Y341462D01*
X114299Y345197D01*
X114299Y349239D01*
X115846Y352974D01*
X118704Y355832D01*
X119294Y356076D01*
X120519Y356583D01*
X121743Y357091D01*
X122439Y357379D01*
X141721Y357379D01*
X145456Y355832D01*
X148314Y352974D01*
X148464Y352612D01*
X148467Y352606D01*
X148469Y352600D01*
X148523Y352523D01*
X148575Y352445D01*
X148581Y352442D01*
X148585Y352437D01*
X148665Y352387D01*
X148743Y352335D01*
X148749Y352334D01*
X148755Y352331D01*
X148932Y352299D01*
X152223Y352299D01*
X202208Y302313D01*
X202237Y302294D01*
X202259Y302269D01*
X202319Y302239D01*
X202375Y302202D01*
X202409Y302196D01*
X202439Y302181D01*
X202506Y302177D01*
X202572Y302164D01*
X202605Y302172D01*
X202639Y302170D01*
X202703Y302192D01*
X202768Y302206D01*
X202796Y302225D01*
X202828Y302237D01*
X202888Y302289D01*
X202933Y302320D01*
X202945Y302339D01*
X202964Y302356D01*
X203541Y303081D01*
X203633Y303091D01*
X203700Y303113D01*
X203769Y303127D01*
X203797Y303144D01*
X203824Y303153D01*
X203863Y303186D01*
X203921Y303224D01*
X205164Y304378D01*
X205205Y304436D01*
X205253Y304488D01*
X205264Y304518D01*
X205281Y304541D01*
X205292Y304591D01*
X205317Y304656D01*
X205334Y304746D01*
X206155Y305307D01*
X206179Y305331D01*
X206214Y305354D01*
X207019Y306102D01*
X207048Y306142D01*
X207084Y306175D01*
X207106Y306223D01*
X207136Y306265D01*
X207147Y306313D01*
X207168Y306358D01*
X207170Y306410D01*
X207181Y306460D01*
X207173Y306509D01*
X207174Y306558D01*
X207155Y306613D01*
X207147Y306658D01*
X207128Y306688D01*
X207114Y306727D01*
X186927Y341694D01*
X189631Y342966D01*
X189654Y342984D01*
X189681Y342994D01*
X189733Y343043D01*
X189790Y343085D01*
X189805Y343110D01*
X189826Y343130D01*
X189855Y343195D01*
X189890Y343257D01*
X189894Y343286D01*
X189906Y343312D01*
X189907Y343383D01*
X189916Y343454D01*
X189908Y343482D01*
X189909Y343511D01*
X189874Y343604D01*
X189862Y343645D01*
X189855Y343654D01*
X189851Y343667D01*
X180494Y359918D01*
X189851Y376169D01*
X189860Y376197D01*
X189877Y376221D01*
X189891Y376290D01*
X189914Y376358D01*
X189911Y376387D01*
X189917Y376415D01*
X189903Y376485D01*
X189898Y376556D01*
X189884Y376582D01*
X189879Y376610D01*
X189839Y376669D01*
X189806Y376732D01*
X189784Y376751D01*
X189767Y376775D01*
X189685Y376832D01*
X189653Y376859D01*
X189642Y376862D01*
X189631Y376870D01*
X186927Y378142D01*
X207038Y412978D01*
X207054Y413025D01*
X207079Y413067D01*
X207086Y413119D01*
X207102Y413168D01*
X207099Y413217D01*
X207105Y413266D01*
X207091Y413316D01*
X207088Y413368D01*
X207065Y413412D01*
X207052Y413459D01*
X207018Y413506D01*
X206997Y413547D01*
X206970Y413570D01*
X206944Y413604D01*
X206214Y414282D01*
X206184Y414300D01*
X206155Y414329D01*
X205334Y414890D01*
X205317Y414980D01*
X205294Y415036D01*
X205284Y415083D01*
X205278Y415092D01*
X205272Y415114D01*
X205252Y415140D01*
X205242Y415166D01*
X205205Y415202D01*
X205164Y415258D01*
X203921Y416412D01*
X203861Y416449D01*
X203805Y416493D01*
X203774Y416502D01*
X203750Y416517D01*
X203699Y416525D01*
X203633Y416545D01*
X203541Y416555D01*
X202964Y417280D01*
X202938Y417302D01*
X202918Y417330D01*
X202862Y417366D01*
X202810Y417409D01*
X202778Y417419D01*
X202749Y417438D01*
X202683Y417449D01*
X202619Y417469D01*
X202585Y417466D01*
X202551Y417471D01*
X202486Y417456D01*
X202419Y417450D01*
X202389Y417433D01*
X202356Y417426D01*
X202291Y417381D01*
X202243Y417355D01*
X202229Y417337D01*
X202208Y417323D01*
X177823Y392937D01*
X148932Y392937D01*
X148926Y392936D01*
X148919Y392937D01*
X148828Y392916D01*
X148736Y392898D01*
X148730Y392894D01*
X148724Y392893D01*
X148647Y392838D01*
X148570Y392785D01*
X148566Y392780D01*
X148561Y392776D01*
X148464Y392624D01*
X148314Y392262D01*
X145456Y389404D01*
X144403Y388968D01*
X143178Y388461D01*
X141954Y387954D01*
X141721Y387857D01*
X122439Y387857D01*
X118704Y389404D01*
X115846Y392262D01*
X114299Y395997D01*
X114299Y400039D01*
X115846Y403774D01*
X118704Y406632D01*
X119113Y406801D01*
X120337Y407308D01*
X120338Y407308D01*
X121562Y407816D01*
X122439Y408179D01*
X141721Y408179D01*
X145456Y406632D01*
X148314Y403774D01*
X148464Y403412D01*
X148467Y403406D01*
X148469Y403400D01*
X148523Y403323D01*
X148575Y403245D01*
X148581Y403242D01*
X148585Y403237D01*
X148665Y403187D01*
X148743Y403135D01*
X148749Y403134D01*
X148755Y403131D01*
X148932Y403099D01*
X173403Y403099D01*
X173411Y403100D01*
X173419Y403099D01*
X173509Y403120D01*
X173600Y403138D01*
X173606Y403143D01*
X173614Y403145D01*
X173762Y403247D01*
X196899Y426384D01*
X196900Y426385D01*
X196901Y426386D01*
X196954Y426468D01*
X197010Y426551D01*
X197010Y426553D01*
X197011Y426554D01*
X197029Y426651D01*
X197047Y426748D01*
X197047Y426749D01*
X197047Y426751D01*
X197012Y426928D01*
X196734Y427637D01*
X196696Y427697D01*
X196665Y427760D01*
X196641Y427782D01*
X196626Y427806D01*
X196583Y427835D01*
X196532Y427882D01*
X196454Y427931D01*
X196234Y428900D01*
X196220Y428931D01*
X196212Y428972D01*
X195849Y429897D01*
X195886Y429981D01*
X195901Y430050D01*
X195924Y430117D01*
X195922Y430150D01*
X195928Y430177D01*
X195919Y430228D01*
X195916Y430297D01*
X195539Y431951D01*
X195510Y432015D01*
X195489Y432083D01*
X195469Y432108D01*
X195457Y432134D01*
X195419Y432169D01*
X195376Y432223D01*
X195306Y432283D01*
X195232Y433274D01*
X195223Y433307D01*
X195221Y433349D01*
X195001Y434317D01*
X195050Y434395D01*
X195066Y434439D01*
X195089Y434473D01*
X195093Y434496D01*
X195107Y434524D01*
X195111Y434557D01*
X195121Y434583D01*
X195119Y434634D01*
X195121Y434652D01*
X195124Y434671D01*
X195123Y434675D01*
X195126Y434703D01*
X195000Y436395D01*
X194981Y436462D01*
X194971Y436532D01*
X194954Y436561D01*
X194946Y436588D01*
X194914Y436628D01*
X194879Y436688D01*
X194819Y436757D01*
X194894Y437748D01*
X194890Y437783D01*
X194894Y437824D01*
X194821Y438815D01*
X194881Y438885D01*
X194915Y438946D01*
X194957Y439003D01*
X194964Y439032D01*
X194969Y439039D01*
X194969Y439042D01*
X194979Y439059D01*
X194985Y439111D01*
X195002Y439178D01*
X195130Y440869D01*
X195121Y440939D01*
X195121Y441010D01*
X195109Y441040D01*
X195105Y441068D01*
X195080Y441113D01*
X195054Y441177D01*
X195005Y441255D01*
X195227Y442223D01*
X195228Y442258D01*
X195238Y442298D01*
X195313Y443289D01*
X195383Y443349D01*
X195426Y443405D01*
X195476Y443455D01*
X195489Y443485D01*
X195506Y443507D01*
X195519Y443557D01*
X195546Y443621D01*
X195925Y445274D01*
X195927Y445344D01*
X195937Y445414D01*
X195929Y445446D01*
X195930Y445474D01*
X195911Y445522D01*
X195895Y445590D01*
X195859Y445674D01*
X196222Y446599D01*
X196228Y446633D01*
X196245Y446671D01*
X196466Y447640D01*
X196544Y447689D01*
X196595Y447737D01*
X196652Y447780D01*
X196669Y447807D01*
X196690Y447827D01*
X196710Y447874D01*
X196747Y447933D01*
X197367Y449511D01*
X197380Y449581D01*
X197400Y449648D01*
X197398Y449681D01*
X197402Y449709D01*
X197391Y449759D01*
X197385Y449828D01*
X197362Y449917D01*
X197859Y450777D01*
X197870Y450810D01*
X197892Y450845D01*
X198236Y451720D01*
X198255Y451770D01*
X198340Y451807D01*
X198398Y451847D01*
X198460Y451881D01*
X198481Y451906D01*
X198504Y451922D01*
X198532Y451965D01*
X198576Y452018D01*
X199425Y453486D01*
X199448Y453553D01*
X199478Y453617D01*
X199480Y453650D01*
X199489Y453676D01*
X199486Y453728D01*
X199490Y453797D01*
X199480Y453888D01*
X200100Y454665D01*
X200116Y454696D01*
X200143Y454727D01*
X200640Y455588D01*
X200729Y455611D01*
X200792Y455643D01*
X200859Y455666D01*
X200883Y455688D01*
X200909Y455700D01*
X200942Y455739D01*
X200994Y455785D01*
X202053Y457110D01*
X202085Y457173D01*
X202125Y457232D01*
X202132Y457264D01*
X202144Y457289D01*
X202148Y457340D01*
X202163Y457408D01*
X202167Y457499D01*
X202895Y458175D01*
X202916Y458203D01*
X202947Y458230D01*
X203567Y459007D01*
X203659Y459017D01*
X203726Y459039D01*
X203795Y459052D01*
X203823Y459070D01*
X203849Y459078D01*
X203889Y459112D01*
X203947Y459149D01*
X205191Y460302D01*
X205232Y460359D01*
X205280Y460411D01*
X205292Y460442D01*
X205308Y460465D01*
X205320Y460515D01*
X205345Y460580D01*
X205362Y460670D01*
X206183Y461229D01*
X206207Y461254D01*
X206242Y461277D01*
X206971Y461952D01*
X207063Y461948D01*
X207133Y461960D01*
X207203Y461963D01*
X207233Y461976D01*
X207261Y461980D01*
X207305Y462008D01*
X207368Y462036D01*
X208770Y462991D01*
X208819Y463041D01*
X208874Y463085D01*
X208890Y463114D01*
X208910Y463134D01*
X208929Y463182D01*
X208963Y463242D01*
X208994Y463329D01*
X209889Y463759D01*
X209917Y463780D01*
X209955Y463797D01*
X210776Y464357D01*
X210866Y464339D01*
X210937Y464340D01*
X211007Y464333D01*
X211039Y464341D01*
X211067Y464342D01*
X211114Y464362D01*
X211181Y464381D01*
X212709Y465116D01*
X212766Y465158D01*
X212827Y465194D01*
X212847Y465220D01*
X212869Y465237D01*
X212895Y465281D01*
X212938Y465336D01*
X212981Y465417D01*
X213931Y465709D01*
X213961Y465726D01*
X214001Y465737D01*
X214897Y466167D01*
X214984Y466137D01*
X215041Y466129D01*
X215060Y466126D01*
X215122Y466109D01*
X215139Y466111D01*
X215148Y466110D01*
X215156Y466110D01*
X215165Y466112D01*
X215182Y466109D01*
X215232Y466123D01*
X215301Y466131D01*
X216922Y466630D01*
X216968Y466655D01*
X216976Y466657D01*
X216990Y466666D01*
X217049Y466690D01*
X217073Y466712D01*
X217098Y466725D01*
X217122Y466756D01*
X217142Y466769D01*
X217155Y466789D01*
X217181Y466813D01*
X217235Y466887D01*
X218218Y467035D01*
X218250Y467046D01*
X218292Y467051D01*
X219241Y467344D01*
X219323Y467301D01*
X219390Y467281D01*
X219455Y467253D01*
X219488Y467252D01*
X219515Y467244D01*
X219566Y467249D01*
X219635Y467247D01*
X221313Y467499D01*
X221379Y467523D01*
X221448Y467539D01*
X221475Y467558D01*
X221501Y467568D01*
X221539Y467603D01*
X221596Y467642D01*
X221661Y467707D01*
X222655Y467706D01*
X222689Y467713D01*
X222730Y467712D01*
X223713Y467860D01*
X223787Y467805D01*
X223851Y467775D01*
X223911Y467738D01*
X223943Y467732D01*
X223968Y467720D01*
X224020Y467718D01*
X224088Y467706D01*
X225784Y467704D01*
X225853Y467718D01*
X225924Y467724D01*
X225953Y467738D01*
X225981Y467744D01*
X226023Y467773D01*
X226086Y467803D01*
X226160Y467858D01*
X227142Y467709D01*
X227177Y467711D01*
X227218Y467704D01*
X228211Y467703D01*
X228276Y467638D01*
X228335Y467599D01*
X228389Y467553D01*
X228420Y467542D01*
X228443Y467527D01*
X228494Y467517D01*
X228559Y467495D01*
X230236Y467241D01*
X230307Y467244D01*
X230377Y467239D01*
X230409Y467249D01*
X230437Y467251D01*
X230483Y467273D01*
X230549Y467294D01*
X230630Y467337D01*
X231580Y467043D01*
X231614Y467040D01*
X231654Y467027D01*
X232636Y466878D01*
X232691Y466804D01*
X232723Y466774D01*
X232737Y466755D01*
X232753Y466745D01*
X232789Y466703D01*
X232818Y466688D01*
X232839Y466669D01*
X232888Y466652D01*
X232949Y466620D01*
X234570Y466119D01*
X234640Y466112D01*
X234709Y466097D01*
X234741Y466102D01*
X234769Y466099D01*
X234819Y466114D01*
X234887Y466125D01*
X234974Y466155D01*
X235869Y465724D01*
X235902Y465715D01*
X235939Y465696D01*
X236853Y465413D01*
X236902Y465408D01*
X236949Y465394D01*
X237001Y465398D01*
X237052Y465393D01*
X237100Y465408D01*
X237149Y465412D01*
X237195Y465437D01*
X237244Y465452D01*
X237282Y465484D01*
X237326Y465507D01*
X237363Y465551D01*
X237398Y465580D01*
X237415Y465612D01*
X237442Y465644D01*
X257642Y500635D01*
X260134Y498908D01*
X260161Y498896D01*
X260183Y498877D01*
X260251Y498857D01*
X260316Y498829D01*
X260346Y498829D01*
X260374Y498821D01*
X260444Y498829D01*
X260515Y498828D01*
X260542Y498840D01*
X260572Y498843D01*
X260633Y498878D01*
X260699Y498905D01*
X260719Y498926D01*
X260745Y498941D01*
X260807Y499016D01*
X260838Y499047D01*
X260842Y499058D01*
X260851Y499069D01*
X270207Y515319D01*
X288918Y515319D01*
X288947Y515325D01*
X288977Y515322D01*
X289044Y515344D01*
X289113Y515358D01*
X289137Y515375D01*
X289166Y515385D01*
X289219Y515431D01*
X289277Y515471D01*
X289293Y515496D01*
X289315Y515516D01*
X289346Y515579D01*
X289384Y515638D01*
X289389Y515668D01*
X289402Y515695D01*
X289410Y515792D01*
X289417Y515835D01*
X289414Y515846D01*
X289415Y515860D01*
X289160Y518859D01*
X329472Y518859D01*
X329520Y518868D01*
X329569Y518868D01*
X329617Y518888D01*
X329668Y518898D01*
X329709Y518926D01*
X329755Y518945D01*
X329791Y518982D01*
X329834Y519011D01*
X329861Y519052D01*
X329896Y519087D01*
X329918Y519141D01*
X329943Y519179D01*
X329944Y519184D01*
X329950Y519215D01*
X329966Y519253D01*
X330196Y520260D01*
X330197Y520294D01*
X330207Y520335D01*
X330281Y521325D01*
X330351Y521385D01*
X330395Y521441D01*
X330444Y521491D01*
X330457Y521521D01*
X330474Y521544D01*
X330488Y521593D01*
X330515Y521657D01*
X330893Y523315D01*
X330895Y523382D01*
X330905Y523439D01*
X330904Y523446D01*
X330905Y523455D01*
X330898Y523487D01*
X330898Y523515D01*
X330880Y523563D01*
X330864Y523631D01*
X330827Y523715D01*
X331190Y524640D01*
X331196Y524674D01*
X331212Y524712D01*
X331433Y525681D01*
X331511Y525730D01*
X331562Y525778D01*
X331619Y525821D01*
X331636Y525849D01*
X331657Y525868D01*
X331677Y525915D01*
X331714Y525974D01*
X332335Y527557D01*
X332347Y527627D01*
X332368Y527694D01*
X332365Y527727D01*
X332370Y527754D01*
X332358Y527805D01*
X332353Y527874D01*
X332329Y527962D01*
X332825Y528823D01*
X332837Y528856D01*
X332858Y528891D01*
X333221Y529816D01*
X333306Y529853D01*
X333364Y529893D01*
X333426Y529927D01*
X333447Y529952D01*
X333470Y529968D01*
X333498Y530012D01*
X333542Y530064D01*
X334392Y531537D01*
X334415Y531604D01*
X334445Y531668D01*
X334447Y531700D01*
X334456Y531727D01*
X334453Y531778D01*
X334457Y531847D01*
X334447Y531939D01*
X335067Y532716D01*
X335082Y532747D01*
X335109Y532778D01*
X335606Y533639D01*
X335695Y533663D01*
X335758Y533694D01*
X335825Y533718D01*
X335849Y533739D01*
X335874Y533752D01*
X335908Y533791D01*
X335960Y533836D01*
X337020Y535166D01*
X337053Y535229D01*
X337092Y535287D01*
X337099Y535319D01*
X337112Y535344D01*
X337116Y535395D01*
X337131Y535463D01*
X337134Y535555D01*
X337862Y536231D01*
X337879Y536254D01*
X337892Y536262D01*
X337898Y536272D01*
X337914Y536286D01*
X338186Y536628D01*
X338221Y536696D01*
X338263Y536762D01*
X338267Y536785D01*
X338278Y536806D01*
X338284Y536883D01*
X338297Y536959D01*
X338291Y536982D01*
X338293Y537006D01*
X338269Y537079D01*
X338251Y537155D01*
X338237Y537175D01*
X338230Y537196D01*
X338194Y537237D01*
X338148Y537303D01*
X330770Y544681D01*
X330763Y544685D01*
X330759Y544691D01*
X330680Y544740D01*
X330603Y544792D01*
X330595Y544793D01*
X330589Y544797D01*
X330411Y544829D01*
X258855Y544829D01*
X258847Y544828D01*
X258839Y544829D01*
X258749Y544808D01*
X258658Y544790D01*
X258652Y544785D01*
X258644Y544783D01*
X258496Y544681D01*
X157553Y443737D01*
X148932Y443737D01*
X148926Y443736D01*
X148919Y443737D01*
X148828Y443716D01*
X148736Y443698D01*
X148730Y443694D01*
X148724Y443693D01*
X148647Y443638D01*
X148570Y443585D01*
X148566Y443580D01*
X148561Y443576D01*
X148464Y443424D01*
X148314Y443062D01*
X145456Y440204D01*
X145447Y440200D01*
X145446Y440200D01*
X144222Y439693D01*
X142997Y439186D01*
X141773Y438679D01*
X141721Y438657D01*
X122439Y438657D01*
X118704Y440204D01*
X115846Y443062D01*
X114299Y446797D01*
X114299Y450839D01*
X115846Y454574D01*
X118704Y457432D01*
X118932Y457526D01*
X120156Y458033D01*
X120157Y458033D01*
X121381Y458541D01*
X122439Y458979D01*
X141721Y458979D01*
X145456Y457432D01*
X148314Y454574D01*
X148464Y454212D01*
X148467Y454206D01*
X148469Y454200D01*
X148523Y454123D01*
X148575Y454045D01*
X148581Y454042D01*
X148585Y454037D01*
X148665Y453987D01*
X148743Y453935D01*
X148749Y453934D01*
X148755Y453931D01*
X148932Y453899D01*
X153133Y453899D01*
X153141Y453900D01*
X153149Y453899D01*
X153239Y453920D01*
X153330Y453938D01*
X153336Y453943D01*
X153344Y453945D01*
X153492Y454047D01*
X254435Y554991D01*
X334831Y554991D01*
X346722Y543099D01*
X346740Y543088D01*
X346752Y543071D01*
X346822Y543033D01*
X346889Y542988D01*
X346910Y542984D01*
X346928Y542974D01*
X347007Y542966D01*
X347086Y542951D01*
X347106Y542955D01*
X347127Y542953D01*
X347230Y542981D01*
X347282Y542992D01*
X347290Y542998D01*
X347301Y543001D01*
X347683Y543185D01*
X347739Y543227D01*
X347800Y543263D01*
X347820Y543289D01*
X347842Y543306D01*
X347868Y543350D01*
X347911Y543405D01*
X347954Y543486D01*
X348903Y543779D01*
X348934Y543795D01*
X348974Y543807D01*
X349869Y544238D01*
X349956Y544207D01*
X350026Y544198D01*
X350094Y544180D01*
X350127Y544184D01*
X350155Y544180D01*
X350205Y544193D01*
X350273Y544201D01*
X351898Y544703D01*
X351960Y544736D01*
X352026Y544762D01*
X352050Y544785D01*
X352074Y544798D01*
X352106Y544839D01*
X352157Y544886D01*
X352211Y544960D01*
X353194Y545108D01*
X353226Y545120D01*
X353268Y545125D01*
X354217Y545418D01*
X354299Y545375D01*
X354366Y545355D01*
X354431Y545327D01*
X354464Y545326D01*
X354491Y545318D01*
X354542Y545324D01*
X354611Y545322D01*
X356293Y545575D01*
X356359Y545599D01*
X356428Y545615D01*
X356455Y545634D01*
X356481Y545644D01*
X356519Y545679D01*
X356576Y545718D01*
X356641Y545783D01*
X357634Y545783D01*
X357668Y545790D01*
X357710Y545789D01*
X358693Y545937D01*
X358767Y545882D01*
X358831Y545852D01*
X358890Y545815D01*
X358923Y545809D01*
X358948Y545798D01*
X359000Y545796D01*
X359068Y545783D01*
X360768Y545783D01*
X360838Y545797D01*
X360908Y545803D01*
X360937Y545817D01*
X360965Y545823D01*
X361007Y545852D01*
X361069Y545882D01*
X361143Y545937D01*
X362126Y545789D01*
X362161Y545791D01*
X362202Y545783D01*
X363195Y545783D01*
X363260Y545718D01*
X363319Y545679D01*
X363373Y545633D01*
X363404Y545623D01*
X363427Y545607D01*
X363478Y545598D01*
X363543Y545575D01*
X365225Y545322D01*
X365295Y545325D01*
X365366Y545320D01*
X365397Y545330D01*
X365425Y545332D01*
X365472Y545354D01*
X365537Y545375D01*
X365619Y545418D01*
X366568Y545125D01*
X366603Y545122D01*
X366642Y545108D01*
X367625Y544960D01*
X367679Y544886D01*
X367732Y544839D01*
X367778Y544785D01*
X367807Y544770D01*
X367828Y544752D01*
X367877Y544734D01*
X367938Y544703D01*
X369563Y544201D01*
X369633Y544194D01*
X369702Y544179D01*
X369734Y544184D01*
X369762Y544181D01*
X369812Y544196D01*
X369880Y544207D01*
X369967Y544238D01*
X370862Y543807D01*
X370896Y543798D01*
X370933Y543779D01*
X371882Y543486D01*
X371925Y543405D01*
X371970Y543350D01*
X372008Y543290D01*
X372034Y543271D01*
X372052Y543249D01*
X372097Y543225D01*
X372153Y543185D01*
X373685Y542447D01*
X373754Y542429D01*
X373820Y542404D01*
X373852Y542404D01*
X373880Y542397D01*
X373931Y542405D01*
X374000Y542405D01*
X374090Y542423D01*
X374911Y541863D01*
X374943Y541849D01*
X374977Y541825D01*
X375872Y541394D01*
X375903Y541307D01*
X375938Y541246D01*
X375967Y541182D01*
X375990Y541159D01*
X376005Y541135D01*
X376046Y541104D01*
X376096Y541055D01*
X377501Y540097D01*
X377565Y540070D01*
X377627Y540035D01*
X377659Y540030D01*
X377685Y540020D01*
X377737Y540019D01*
X377805Y540010D01*
X377897Y540013D01*
X378625Y539337D01*
X378655Y539319D01*
X378685Y539290D01*
X379506Y538730D01*
X379523Y538640D01*
X379549Y538574D01*
X379568Y538506D01*
X379588Y538480D01*
X379598Y538454D01*
X379635Y538418D01*
X379676Y538362D01*
X380923Y537206D01*
X380983Y537169D01*
X381038Y537125D01*
X381070Y537116D01*
X381094Y537101D01*
X381145Y537093D01*
X381211Y537074D01*
X381302Y537063D01*
X381922Y536286D01*
X381947Y536266D01*
X381959Y536248D01*
X381962Y536246D01*
X381974Y536231D01*
X382702Y535555D01*
X382705Y535463D01*
X382722Y535394D01*
X382730Y535324D01*
X382746Y535295D01*
X382752Y535268D01*
X382783Y535227D01*
X382816Y535166D01*
X383876Y533836D01*
X383930Y533791D01*
X383978Y533739D01*
X384008Y533725D01*
X384029Y533707D01*
X384079Y533692D01*
X384141Y533663D01*
X384230Y533639D01*
X384727Y532778D01*
X384750Y532752D01*
X384770Y532716D01*
X385389Y531939D01*
X385379Y531847D01*
X385385Y531777D01*
X385383Y531706D01*
X385394Y531676D01*
X385396Y531648D01*
X385420Y531602D01*
X385444Y531537D01*
X386294Y530064D01*
X386340Y530011D01*
X386380Y529953D01*
X386408Y529935D01*
X386426Y529914D01*
X386473Y529891D01*
X386530Y529853D01*
X386615Y529816D01*
X386978Y528891D01*
X386996Y528862D01*
X387011Y528823D01*
X387507Y527962D01*
X387483Y527874D01*
X387479Y527803D01*
X387466Y527734D01*
X387473Y527702D01*
X387471Y527674D01*
X387488Y527625D01*
X387501Y527557D01*
X388122Y525974D01*
X388161Y525915D01*
X388192Y525851D01*
X388216Y525829D01*
X388231Y525806D01*
X388274Y525777D01*
X388325Y525730D01*
X388403Y525681D01*
X388624Y524712D01*
X388638Y524680D01*
X388646Y524640D01*
X389009Y523715D01*
X388972Y523631D01*
X388971Y523623D01*
X388966Y523616D01*
X388955Y523555D01*
X388935Y523495D01*
X388936Y523462D01*
X388930Y523435D01*
X388932Y523425D01*
X388931Y523419D01*
X388940Y523377D01*
X388943Y523315D01*
X389321Y521657D01*
X389350Y521593D01*
X389371Y521525D01*
X389392Y521500D01*
X389403Y521474D01*
X389441Y521439D01*
X389485Y521385D01*
X389555Y521325D01*
X389629Y520335D01*
X389638Y520301D01*
X389640Y520260D01*
X389870Y519253D01*
X389890Y519208D01*
X389900Y519165D01*
X389901Y519160D01*
X389931Y519118D01*
X389952Y519070D01*
X389988Y519037D01*
X390017Y518997D01*
X390061Y518969D01*
X390099Y518934D01*
X390145Y518917D01*
X390187Y518891D01*
X390244Y518880D01*
X390287Y518865D01*
X390322Y518866D01*
X390364Y518859D01*
X430676Y518859D01*
X430421Y515860D01*
X430424Y515831D01*
X430419Y515801D01*
X430435Y515733D01*
X430443Y515663D01*
X430458Y515637D01*
X430465Y515608D01*
X430507Y515551D01*
X430542Y515490D01*
X430565Y515472D01*
X430583Y515448D01*
X430643Y515412D01*
X430700Y515369D01*
X430728Y515362D01*
X430754Y515346D01*
X430850Y515330D01*
X430892Y515319D01*
X430904Y515321D01*
X430918Y515319D01*
X449629Y515319D01*
X458985Y499069D01*
X459005Y499047D01*
X459017Y499020D01*
X459070Y498973D01*
X459117Y498920D01*
X459143Y498907D01*
X459165Y498887D01*
X459232Y498864D01*
X459296Y498834D01*
X459326Y498833D01*
X459353Y498823D01*
X459424Y498828D01*
X459495Y498825D01*
X459523Y498835D01*
X459552Y498837D01*
X459641Y498879D01*
X459681Y498894D01*
X459690Y498902D01*
X459702Y498908D01*
X462194Y500635D01*
X482394Y465644D01*
X482427Y465607D01*
X482451Y465564D01*
X482492Y465533D01*
X482526Y465494D01*
X482571Y465472D01*
X482610Y465442D01*
X482660Y465429D01*
X482707Y465407D01*
X482756Y465404D01*
X482804Y465392D01*
X482861Y465399D01*
X482907Y465396D01*
X482941Y465408D01*
X482983Y465413D01*
X483897Y465696D01*
X483927Y465712D01*
X483967Y465724D01*
X484862Y466155D01*
X484949Y466125D01*
X485019Y466115D01*
X485087Y466097D01*
X485120Y466101D01*
X485148Y466098D01*
X485198Y466111D01*
X485266Y466119D01*
X486887Y466620D01*
X486949Y466654D01*
X487014Y466680D01*
X487038Y466703D01*
X487063Y466716D01*
X487095Y466756D01*
X487096Y466757D01*
X487114Y466769D01*
X487122Y466781D01*
X487145Y466804D01*
X487200Y466878D01*
X488182Y467027D01*
X488215Y467038D01*
X488256Y467043D01*
X489206Y467337D01*
X489287Y467294D01*
X489355Y467274D01*
X489420Y467246D01*
X489452Y467245D01*
X489479Y467237D01*
X489530Y467243D01*
X489600Y467241D01*
X491277Y467495D01*
X491343Y467519D01*
X491412Y467535D01*
X491439Y467554D01*
X491465Y467563D01*
X491503Y467598D01*
X491560Y467638D01*
X491625Y467703D01*
X492618Y467704D01*
X492653Y467711D01*
X492694Y467709D01*
X493676Y467858D01*
X493750Y467803D01*
X493814Y467774D01*
X493874Y467736D01*
X493907Y467731D01*
X493932Y467719D01*
X493984Y467717D01*
X494052Y467704D01*
X495748Y467706D01*
X495817Y467720D01*
X495888Y467725D01*
X495917Y467740D01*
X495944Y467745D01*
X495987Y467774D01*
X496049Y467805D01*
X496123Y467860D01*
X497106Y467712D01*
X497140Y467714D01*
X497181Y467706D01*
X498175Y467707D01*
X498240Y467642D01*
X498299Y467603D01*
X498353Y467557D01*
X498384Y467547D01*
X498407Y467531D01*
X498458Y467521D01*
X498523Y467499D01*
X500201Y467247D01*
X500271Y467251D01*
X500342Y467246D01*
X500373Y467256D01*
X500401Y467257D01*
X500447Y467280D01*
X500513Y467301D01*
X500595Y467344D01*
X501544Y467051D01*
X501579Y467048D01*
X501618Y467035D01*
X502601Y466887D01*
X502655Y466813D01*
X502689Y466783D01*
X502709Y466755D01*
X502728Y466743D01*
X502754Y466713D01*
X502783Y466697D01*
X502804Y466679D01*
X502853Y466662D01*
X502914Y466630D01*
X504535Y466131D01*
X504598Y466125D01*
X504620Y466121D01*
X504675Y466108D01*
X504682Y466110D01*
X504688Y466110D01*
X504708Y466114D01*
X504735Y466111D01*
X504784Y466126D01*
X504852Y466137D01*
X504939Y466167D01*
X505835Y465737D01*
X505868Y465728D01*
X505905Y465709D01*
X506855Y465417D01*
X506898Y465336D01*
X506943Y465281D01*
X506981Y465221D01*
X507007Y465202D01*
X507025Y465180D01*
X507070Y465156D01*
X507127Y465116D01*
X508655Y464381D01*
X508724Y464363D01*
X508789Y464338D01*
X508822Y464338D01*
X508849Y464331D01*
X508900Y464339D01*
X508970Y464339D01*
X509060Y464357D01*
X509881Y463797D01*
X509913Y463784D01*
X509947Y463759D01*
X510842Y463329D01*
X510873Y463242D01*
X510909Y463181D01*
X510938Y463117D01*
X510961Y463094D01*
X510975Y463070D01*
X511017Y463039D01*
X511066Y462991D01*
X512468Y462036D01*
X512533Y462009D01*
X512595Y461974D01*
X512627Y461969D01*
X512653Y461958D01*
X512704Y461958D01*
X512773Y461948D01*
X512865Y461952D01*
X513594Y461277D01*
X513623Y461258D01*
X513653Y461229D01*
X514474Y460670D01*
X514491Y460580D01*
X514518Y460514D01*
X514537Y460446D01*
X514556Y460420D01*
X514567Y460394D01*
X514603Y460357D01*
X514645Y460302D01*
X515889Y459149D01*
X515949Y459112D01*
X516005Y459069D01*
X516036Y459059D01*
X516060Y459045D01*
X516111Y459037D01*
X516177Y459017D01*
X516269Y459007D01*
X516889Y458230D01*
X516916Y458208D01*
X516941Y458175D01*
X517669Y457499D01*
X517673Y457408D01*
X517689Y457339D01*
X517698Y457269D01*
X517713Y457240D01*
X517720Y457213D01*
X517750Y457171D01*
X517783Y457110D01*
X518842Y455785D01*
X518896Y455739D01*
X518944Y455688D01*
X518974Y455674D01*
X518995Y455656D01*
X519044Y455641D01*
X519107Y455611D01*
X519196Y455588D01*
X519693Y454727D01*
X519716Y454701D01*
X519736Y454665D01*
X520195Y454089D01*
X520223Y454066D01*
X520244Y454037D01*
X520299Y454002D01*
X520349Y453961D01*
X520383Y453950D01*
X520414Y453931D01*
X520489Y453917D01*
X520540Y453901D01*
X520564Y453904D01*
X520592Y453899D01*
X572428Y453899D01*
X572434Y453900D01*
X572441Y453899D01*
X572532Y453920D01*
X572624Y453938D01*
X572630Y453942D01*
X572636Y453943D01*
X572713Y453998D01*
X572790Y454051D01*
X572794Y454056D01*
X572799Y454060D01*
X572896Y454212D01*
X573046Y454574D01*
X575904Y457432D01*
X576132Y457526D01*
X577356Y458033D01*
X577357Y458033D01*
X578581Y458541D01*
X579639Y458979D01*
X598921Y458979D01*
X602656Y457432D01*
X605514Y454574D01*
X607061Y450839D01*
X607061Y446797D01*
X605514Y443062D01*
X602656Y440204D01*
X602647Y440200D01*
X602646Y440200D01*
X601422Y439693D01*
X600197Y439186D01*
X598973Y438679D01*
X598921Y438657D01*
X579639Y438657D01*
X575904Y440204D01*
X573046Y443062D01*
X572896Y443424D01*
X572893Y443430D01*
X572891Y443436D01*
X572837Y443513D01*
X572785Y443591D01*
X572779Y443594D01*
X572775Y443599D01*
X572695Y443649D01*
X572617Y443701D01*
X572611Y443702D01*
X572605Y443705D01*
X572428Y443737D01*
X525036Y443737D01*
X525012Y443732D01*
X524988Y443735D01*
X524915Y443713D01*
X524840Y443698D01*
X524820Y443684D01*
X524796Y443677D01*
X524737Y443628D01*
X524674Y443585D01*
X524661Y443564D01*
X524642Y443549D01*
X524606Y443481D01*
X524565Y443417D01*
X524560Y443393D01*
X524549Y443371D01*
X524539Y443275D01*
X524529Y443220D01*
X524532Y443207D01*
X524531Y443192D01*
X524598Y442298D01*
X524607Y442265D01*
X524609Y442223D01*
X524831Y441255D01*
X524782Y441177D01*
X524757Y441111D01*
X524725Y441048D01*
X524721Y441016D01*
X524711Y440989D01*
X524713Y440938D01*
X524706Y440869D01*
X524834Y439178D01*
X524853Y439110D01*
X524864Y439040D01*
X524875Y439021D01*
X524875Y439020D01*
X524878Y439015D01*
X524881Y439012D01*
X524888Y438985D01*
X524920Y438944D01*
X524955Y438885D01*
X525015Y438815D01*
X524942Y437824D01*
X524946Y437790D01*
X524942Y437748D01*
X525017Y436757D01*
X524957Y436688D01*
X524922Y436626D01*
X524881Y436569D01*
X524872Y436537D01*
X524859Y436513D01*
X524853Y436462D01*
X524836Y436395D01*
X524710Y434703D01*
X524715Y434665D01*
X524712Y434650D01*
X524719Y434619D01*
X524719Y434563D01*
X524731Y434532D01*
X524735Y434504D01*
X524750Y434477D01*
X524755Y434454D01*
X524772Y434431D01*
X524786Y434395D01*
X524835Y434317D01*
X524615Y433349D01*
X524614Y433314D01*
X524604Y433274D01*
X524530Y432283D01*
X524460Y432223D01*
X524417Y432167D01*
X524367Y432117D01*
X524354Y432087D01*
X524337Y432065D01*
X524324Y432015D01*
X524297Y431951D01*
X523920Y430297D01*
X523918Y430226D01*
X523908Y430157D01*
X523916Y430125D01*
X523915Y430097D01*
X523934Y430049D01*
X523950Y429981D01*
X523987Y429897D01*
X523624Y428972D01*
X523618Y428938D01*
X523602Y428900D01*
X523382Y427931D01*
X523304Y427882D01*
X523253Y427833D01*
X523196Y427791D01*
X523179Y427763D01*
X523158Y427743D01*
X523138Y427696D01*
X523102Y427637D01*
X522548Y426224D01*
X522483Y426058D01*
X522471Y425989D01*
X522450Y425921D01*
X522453Y425888D01*
X522448Y425861D01*
X522459Y425810D01*
X522465Y425741D01*
X522489Y425652D01*
X521993Y424792D01*
X521982Y424759D01*
X521960Y424723D01*
X521598Y423798D01*
X521513Y423761D01*
X521455Y423721D01*
X521393Y423688D01*
X521372Y423663D01*
X521349Y423646D01*
X521321Y423603D01*
X521277Y423550D01*
X520430Y422080D01*
X520407Y422014D01*
X520377Y421950D01*
X520375Y421917D01*
X520366Y421890D01*
X520370Y421839D01*
X520365Y421770D01*
X520375Y421679D01*
X519756Y420901D01*
X519741Y420870D01*
X519714Y420839D01*
X519217Y419978D01*
X519129Y419954D01*
X519065Y419923D01*
X518999Y419899D01*
X518974Y419877D01*
X518949Y419865D01*
X518915Y419826D01*
X518893Y419806D01*
X518881Y419798D01*
X518877Y419792D01*
X518863Y419780D01*
X517807Y418453D01*
X517774Y418391D01*
X517735Y418332D01*
X517728Y418300D01*
X517715Y418275D01*
X517711Y418224D01*
X517696Y418156D01*
X517693Y418064D01*
X516965Y417388D01*
X516945Y417360D01*
X516914Y417332D01*
X516295Y416555D01*
X516203Y416545D01*
X516136Y416523D01*
X516067Y416509D01*
X516039Y416492D01*
X516012Y416483D01*
X515973Y416450D01*
X515915Y416412D01*
X514672Y415258D01*
X514655Y415233D01*
X514654Y415232D01*
X514648Y415224D01*
X514631Y415200D01*
X514583Y415148D01*
X514572Y415118D01*
X514555Y415095D01*
X514550Y415074D01*
X514544Y415064D01*
X514538Y415030D01*
X514519Y414980D01*
X514502Y414890D01*
X513681Y414329D01*
X513657Y414304D01*
X513622Y414282D01*
X512892Y413604D01*
X512863Y413564D01*
X512827Y413530D01*
X512805Y413483D01*
X512775Y413441D01*
X512764Y413393D01*
X512743Y413348D01*
X512742Y413296D01*
X512730Y413245D01*
X512738Y413197D01*
X512737Y413148D01*
X512756Y413093D01*
X512764Y413048D01*
X512783Y413018D01*
X512798Y412978D01*
X532909Y378142D01*
X530205Y376870D01*
X530182Y376852D01*
X530155Y376842D01*
X530103Y376793D01*
X530046Y376751D01*
X530031Y376726D01*
X530010Y376706D01*
X529981Y376641D01*
X529946Y376579D01*
X529942Y376550D01*
X529930Y376524D01*
X529929Y376453D01*
X529920Y376382D01*
X529928Y376354D01*
X529928Y376325D01*
X529962Y376232D01*
X529974Y376191D01*
X529981Y376182D01*
X529985Y376169D01*
X539342Y359918D01*
X529985Y343667D01*
X529976Y343640D01*
X529959Y343616D01*
X529945Y343546D01*
X529922Y343478D01*
X529925Y343449D01*
X529919Y343421D01*
X529933Y343351D01*
X529938Y343280D01*
X529952Y343254D01*
X529957Y343226D01*
X529997Y343167D01*
X530030Y343104D01*
X530052Y343085D01*
X530069Y343061D01*
X530151Y343004D01*
X530183Y342977D01*
X530194Y342974D01*
X530205Y342966D01*
X532909Y341694D01*
X512798Y306858D01*
X512782Y306811D01*
X512757Y306769D01*
X512750Y306717D01*
X512734Y306668D01*
X512737Y306619D01*
X512731Y306570D01*
X512745Y306520D01*
X512748Y306468D01*
X512771Y306424D01*
X512784Y306377D01*
X512818Y306330D01*
X512839Y306289D01*
X512866Y306266D01*
X512892Y306232D01*
X513339Y305817D01*
X513421Y305767D01*
X513502Y305715D01*
X513506Y305714D01*
X513510Y305712D01*
X513605Y305698D01*
X513700Y305681D01*
X513704Y305682D01*
X513708Y305682D01*
X513801Y305705D01*
X513895Y305727D01*
X513899Y305730D01*
X513902Y305731D01*
X513933Y305753D01*
X514043Y305830D01*
X559159Y350946D01*
X559163Y350952D01*
X559169Y350957D01*
X559218Y351035D01*
X559270Y351112D01*
X559271Y351120D01*
X559275Y351127D01*
X559307Y351304D01*
X559307Y357560D01*
X559422Y358240D01*
X559421Y358276D01*
X559429Y358324D01*
X559429Y361512D01*
X559422Y361547D01*
X559422Y361596D01*
X559307Y362276D01*
X559307Y379084D01*
X562134Y381911D01*
X572642Y392419D01*
X572646Y392425D01*
X572651Y392428D01*
X572701Y392508D01*
X572753Y392586D01*
X572754Y392593D01*
X572758Y392598D01*
X572773Y392691D01*
X572791Y392783D01*
X572790Y392789D01*
X572791Y392796D01*
X572752Y392972D01*
X571499Y395997D01*
X571499Y400039D01*
X573046Y403774D01*
X575904Y406632D01*
X576313Y406801D01*
X577537Y407308D01*
X577538Y407308D01*
X578762Y407816D01*
X579639Y408179D01*
X598921Y408179D01*
X602656Y406632D01*
X605514Y403774D01*
X607061Y400039D01*
X607061Y395997D01*
X605514Y392262D01*
X602656Y389404D01*
X601603Y388968D01*
X600378Y388461D01*
X599154Y387954D01*
X598921Y387857D01*
X581224Y387857D01*
X581216Y387856D01*
X581209Y387857D01*
X581119Y387836D01*
X581028Y387818D01*
X581021Y387813D01*
X581014Y387811D01*
X580866Y387709D01*
X568601Y375444D01*
X568597Y375438D01*
X568591Y375433D01*
X568542Y375355D01*
X568490Y375278D01*
X568489Y375270D01*
X568485Y375263D01*
X568453Y375086D01*
X568453Y347306D01*
X565626Y344479D01*
X520221Y299074D01*
X520220Y299073D01*
X520219Y299072D01*
X520195Y299035D01*
X520178Y299010D01*
X520130Y298950D01*
X520123Y298927D01*
X520110Y298907D01*
X520095Y298831D01*
X520074Y298757D01*
X520077Y298733D01*
X520072Y298710D01*
X520088Y298635D01*
X520097Y298558D01*
X520109Y298536D01*
X520114Y298514D01*
X520145Y298469D01*
X520183Y298399D01*
X520375Y298157D01*
X520365Y298066D01*
X520371Y297996D01*
X520369Y297925D01*
X520380Y297894D01*
X520382Y297866D01*
X520406Y297821D01*
X520430Y297756D01*
X521277Y296286D01*
X521324Y296233D01*
X521364Y296175D01*
X521391Y296157D01*
X521409Y296136D01*
X521456Y296113D01*
X521513Y296075D01*
X521598Y296038D01*
X521960Y295113D01*
X521979Y295083D01*
X521993Y295044D01*
X522489Y294184D01*
X522465Y294095D01*
X522461Y294024D01*
X522448Y293955D01*
X522454Y293923D01*
X522452Y293895D01*
X522469Y293846D01*
X522483Y293778D01*
X523102Y292199D01*
X523140Y292139D01*
X523171Y292076D01*
X523195Y292054D01*
X523210Y292030D01*
X523253Y292001D01*
X523304Y291954D01*
X523382Y291905D01*
X523602Y290936D01*
X523616Y290905D01*
X523624Y290864D01*
X523987Y289939D01*
X523950Y289855D01*
X523935Y289786D01*
X523912Y289719D01*
X523914Y289686D01*
X523908Y289659D01*
X523917Y289608D01*
X523920Y289539D01*
X524297Y287885D01*
X524326Y287821D01*
X524347Y287753D01*
X524367Y287728D01*
X524379Y287702D01*
X524417Y287667D01*
X524460Y287613D01*
X524530Y287553D01*
X524604Y286562D01*
X524613Y286529D01*
X524615Y286487D01*
X524835Y285519D01*
X524786Y285441D01*
X524761Y285375D01*
X524729Y285312D01*
X524725Y285279D01*
X524715Y285253D01*
X524717Y285202D01*
X524710Y285133D01*
X524836Y283441D01*
X524855Y283373D01*
X524865Y283304D01*
X524882Y283275D01*
X524890Y283248D01*
X524922Y283208D01*
X524957Y283148D01*
X525017Y283079D01*
X524942Y282088D01*
X524946Y282053D01*
X524942Y282012D01*
X525015Y281021D01*
X524955Y280951D01*
X524921Y280890D01*
X524879Y280833D01*
X524871Y280801D01*
X524857Y280777D01*
X524851Y280725D01*
X524834Y280658D01*
X524706Y278967D01*
X524709Y278945D01*
X524705Y278924D01*
X524715Y278881D01*
X524715Y278826D01*
X524727Y278796D01*
X524731Y278768D01*
X524746Y278742D01*
X524749Y278729D01*
X524762Y278710D01*
X524782Y278659D01*
X524831Y278581D01*
X524609Y277613D01*
X524608Y277578D01*
X524598Y277538D01*
X524523Y276547D01*
X524453Y276487D01*
X524410Y276431D01*
X524360Y276381D01*
X524347Y276351D01*
X524330Y276329D01*
X524317Y276279D01*
X524290Y276215D01*
X523911Y274562D01*
X523909Y274491D01*
X523899Y274422D01*
X523907Y274390D01*
X523906Y274362D01*
X523925Y274314D01*
X523941Y274246D01*
X523977Y274162D01*
X523614Y273237D01*
X523608Y273203D01*
X523591Y273165D01*
X523370Y272196D01*
X523292Y272147D01*
X523241Y272099D01*
X523184Y272056D01*
X523167Y272029D01*
X523146Y272009D01*
X523126Y271962D01*
X523089Y271903D01*
X522469Y270325D01*
X522456Y270255D01*
X522436Y270188D01*
X522438Y270155D01*
X522434Y270127D01*
X522445Y270077D01*
X522451Y270008D01*
X522474Y269919D01*
X521977Y269059D01*
X521966Y269026D01*
X521944Y268991D01*
X521581Y268066D01*
X521496Y268029D01*
X521438Y267989D01*
X521376Y267956D01*
X521355Y267931D01*
X521332Y267914D01*
X521304Y267871D01*
X521260Y267818D01*
X520411Y266350D01*
X520388Y266283D01*
X520358Y266219D01*
X520356Y266186D01*
X520347Y266160D01*
X520350Y266108D01*
X520346Y266039D01*
X520356Y265948D01*
X519736Y265171D01*
X519720Y265140D01*
X519693Y265109D01*
X519196Y264248D01*
X519107Y264225D01*
X519044Y264193D01*
X518977Y264170D01*
X518953Y264148D01*
X518927Y264136D01*
X518894Y264097D01*
X518879Y264084D01*
X518862Y264072D01*
X518856Y264064D01*
X518842Y264051D01*
X517783Y262726D01*
X517751Y262663D01*
X517711Y262604D01*
X517704Y262572D01*
X517692Y262547D01*
X517688Y262496D01*
X517673Y262428D01*
X517669Y262337D01*
X516941Y261661D01*
X516920Y261633D01*
X516889Y261606D01*
X516269Y260829D01*
X516177Y260819D01*
X516110Y260797D01*
X516041Y260784D01*
X516013Y260766D01*
X515987Y260758D01*
X515947Y260724D01*
X515889Y260687D01*
X514645Y259534D01*
X514604Y259477D01*
X514556Y259425D01*
X514544Y259394D01*
X514528Y259371D01*
X514522Y259348D01*
X514516Y259339D01*
X514510Y259306D01*
X514491Y259256D01*
X514474Y259166D01*
X513653Y258607D01*
X513629Y258582D01*
X513594Y258559D01*
X512865Y257884D01*
X512773Y257888D01*
X512703Y257876D01*
X512633Y257873D01*
X512603Y257860D01*
X512575Y257856D01*
X512531Y257828D01*
X512468Y257800D01*
X511066Y256845D01*
X511017Y256795D01*
X510962Y256751D01*
X510946Y256722D01*
X510926Y256702D01*
X510907Y256654D01*
X510873Y256594D01*
X510842Y256507D01*
X509947Y256077D01*
X509919Y256056D01*
X509881Y256039D01*
X509060Y255479D01*
X508970Y255497D01*
X508899Y255496D01*
X508829Y255503D01*
X508797Y255495D01*
X508769Y255494D01*
X508722Y255474D01*
X508655Y255455D01*
X507127Y254720D01*
X507070Y254678D01*
X507009Y254642D01*
X506989Y254616D01*
X506967Y254599D01*
X506941Y254555D01*
X506898Y254500D01*
X506855Y254419D01*
X505905Y254127D01*
X505875Y254110D01*
X505835Y254099D01*
X504939Y253669D01*
X504852Y253699D01*
X504782Y253709D01*
X504714Y253727D01*
X504682Y253723D01*
X504654Y253727D01*
X504604Y253713D01*
X504535Y253705D01*
X502914Y253206D01*
X502852Y253172D01*
X502787Y253146D01*
X502763Y253124D01*
X502738Y253111D01*
X502706Y253070D01*
X502655Y253023D01*
X502601Y252949D01*
X501618Y252801D01*
X501586Y252790D01*
X501544Y252785D01*
X500595Y252492D01*
X500513Y252535D01*
X500446Y252555D01*
X500381Y252583D01*
X500348Y252584D01*
X500321Y252592D01*
X500270Y252587D01*
X500201Y252589D01*
X498523Y252337D01*
X498457Y252313D01*
X498388Y252297D01*
X498361Y252278D01*
X498335Y252268D01*
X498297Y252233D01*
X498240Y252194D01*
X498175Y252129D01*
X497181Y252130D01*
X497147Y252123D01*
X497106Y252124D01*
X496123Y251976D01*
X496049Y252031D01*
X495985Y252061D01*
X495925Y252098D01*
X495893Y252104D01*
X495868Y252116D01*
X495816Y252118D01*
X495748Y252130D01*
X494052Y252131D01*
X493983Y252118D01*
X493912Y252112D01*
X493883Y252098D01*
X493855Y252092D01*
X493813Y252063D01*
X493750Y252033D01*
X493676Y251978D01*
X492694Y252127D01*
X492659Y252125D01*
X492618Y252132D01*
X491625Y252133D01*
X491560Y252198D01*
X491501Y252237D01*
X491447Y252283D01*
X491416Y252294D01*
X491393Y252309D01*
X491342Y252319D01*
X491277Y252341D01*
X489600Y252595D01*
X489529Y252592D01*
X489459Y252597D01*
X489427Y252587D01*
X489399Y252585D01*
X489353Y252563D01*
X489287Y252542D01*
X489206Y252499D01*
X488256Y252793D01*
X488222Y252796D01*
X488182Y252809D01*
X487200Y252958D01*
X487145Y253032D01*
X487093Y253080D01*
X487047Y253133D01*
X487018Y253148D01*
X486997Y253167D01*
X486948Y253184D01*
X486887Y253216D01*
X485266Y253717D01*
X485196Y253724D01*
X485127Y253739D01*
X485095Y253734D01*
X485067Y253737D01*
X485017Y253722D01*
X484949Y253711D01*
X484862Y253681D01*
X483967Y254112D01*
X483934Y254121D01*
X483897Y254140D01*
X482983Y254423D01*
X482934Y254428D01*
X482887Y254442D01*
X482835Y254438D01*
X482784Y254443D01*
X482736Y254428D01*
X482687Y254424D01*
X482641Y254399D01*
X482592Y254384D01*
X482554Y254352D01*
X482510Y254329D01*
X482473Y254285D01*
X482438Y254256D01*
X482421Y254224D01*
X482394Y254192D01*
X462194Y219201D01*
X459702Y220928D01*
X459675Y220940D01*
X459653Y220959D01*
X459612Y220971D01*
X459593Y220982D01*
X459567Y220986D01*
X459520Y221007D01*
X459490Y221007D01*
X459462Y221015D01*
X459392Y221007D01*
X459321Y221008D01*
X459294Y220996D01*
X459264Y220993D01*
X459227Y220972D01*
X459219Y220970D01*
X459200Y220957D01*
X459137Y220931D01*
X459117Y220910D01*
X459091Y220895D01*
X459067Y220866D01*
X459055Y220858D01*
X459037Y220830D01*
X459029Y220820D01*
X458999Y220789D01*
X458994Y220778D01*
X458985Y220767D01*
X449629Y204517D01*
X430918Y204517D01*
X430889Y204511D01*
X430859Y204514D01*
X430792Y204492D01*
X430723Y204478D01*
X430699Y204461D01*
X430670Y204452D01*
X430617Y204405D01*
X430559Y204365D01*
X430543Y204340D01*
X430521Y204320D01*
X430490Y204257D01*
X430452Y204198D01*
X430447Y204168D01*
X430434Y204141D01*
X430426Y204044D01*
X430419Y204001D01*
X430422Y203990D01*
X430421Y203976D01*
X430676Y200977D01*
X390364Y200977D01*
X390316Y200968D01*
X390267Y200968D01*
X390219Y200948D01*
X390168Y200938D01*
X390127Y200910D01*
X390082Y200891D01*
X390045Y200854D01*
X390002Y200825D01*
X389975Y200784D01*
X389940Y200749D01*
X389918Y200695D01*
X389893Y200657D01*
X389887Y200622D01*
X389870Y200583D01*
X389640Y199576D01*
X389639Y199542D01*
X389629Y199501D01*
X389555Y198511D01*
X389485Y198451D01*
X389441Y198395D01*
X389392Y198345D01*
X389379Y198315D01*
X389362Y198292D01*
X389348Y198243D01*
X389321Y198179D01*
X388943Y196521D01*
X388941Y196451D01*
X388931Y196381D01*
X388938Y196349D01*
X388938Y196321D01*
X388956Y196273D01*
X388972Y196205D01*
X389009Y196121D01*
X388646Y195196D01*
X388640Y195162D01*
X388624Y195124D01*
X388403Y194155D01*
X388325Y194106D01*
X388274Y194058D01*
X388217Y194015D01*
X388200Y193987D01*
X388180Y193968D01*
X388159Y193921D01*
X388122Y193862D01*
X387501Y192279D01*
X387489Y192209D01*
X387468Y192142D01*
X387471Y192109D01*
X387466Y192082D01*
X387478Y192031D01*
X387483Y191962D01*
X387507Y191874D01*
X387011Y191013D01*
X386999Y190980D01*
X386978Y190945D01*
X386615Y190020D01*
X386530Y189983D01*
X386472Y189943D01*
X386410Y189909D01*
X386389Y189884D01*
X386366Y189868D01*
X386338Y189824D01*
X386294Y189772D01*
X385444Y188299D01*
X385421Y188232D01*
X385391Y188168D01*
X385389Y188136D01*
X385380Y188109D01*
X385383Y188058D01*
X385379Y187989D01*
X385389Y187897D01*
X384770Y187120D01*
X384754Y187089D01*
X384727Y187058D01*
X384230Y186197D01*
X384141Y186173D01*
X384078Y186142D01*
X384011Y186118D01*
X383987Y186097D01*
X383962Y186084D01*
X383928Y186045D01*
X383876Y186000D01*
X382816Y184670D01*
X382783Y184607D01*
X382744Y184549D01*
X382737Y184517D01*
X382724Y184492D01*
X382720Y184441D01*
X382705Y184373D01*
X382702Y184281D01*
X381974Y183605D01*
X381953Y183577D01*
X381922Y183550D01*
X381650Y183208D01*
X381615Y183140D01*
X381573Y183074D01*
X381569Y183051D01*
X381558Y183030D01*
X381552Y182953D01*
X381539Y182877D01*
X381545Y182854D01*
X381543Y182830D01*
X381567Y182757D01*
X381585Y182681D01*
X381599Y182661D01*
X381606Y182640D01*
X381642Y182599D01*
X381688Y182533D01*
X382462Y181759D01*
X382469Y181755D01*
X382473Y181749D01*
X382552Y181700D01*
X382629Y181648D01*
X382637Y181647D01*
X382643Y181643D01*
X382821Y181611D01*
X461235Y181611D01*
X461243Y181612D01*
X461251Y181611D01*
X461341Y181632D01*
X461432Y181650D01*
X461438Y181655D01*
X461446Y181657D01*
X461594Y181759D01*
X558651Y278816D01*
X558655Y278823D01*
X558661Y278827D01*
X558710Y278906D01*
X558762Y278983D01*
X558763Y278991D01*
X558767Y278997D01*
X558799Y279175D01*
X558799Y329765D01*
X572060Y343025D01*
X572064Y343031D01*
X572069Y343034D01*
X572119Y343114D01*
X572171Y343192D01*
X572172Y343199D01*
X572176Y343204D01*
X572191Y343297D01*
X572208Y343389D01*
X572207Y343395D01*
X572208Y343402D01*
X572170Y343578D01*
X571499Y345197D01*
X571499Y349239D01*
X573046Y352974D01*
X575904Y355832D01*
X576494Y356076D01*
X577719Y356583D01*
X578943Y357091D01*
X579639Y357379D01*
X598921Y357379D01*
X602656Y355832D01*
X605514Y352974D01*
X607061Y349239D01*
X607061Y345197D01*
X605514Y341462D01*
X602656Y338604D01*
X601784Y338243D01*
X600560Y337736D01*
X600559Y337736D01*
X599335Y337229D01*
X598921Y337057D01*
X580673Y337057D01*
X580665Y337056D01*
X580657Y337057D01*
X580567Y337036D01*
X580476Y337018D01*
X580470Y337013D01*
X580462Y337011D01*
X580314Y336909D01*
X569109Y325704D01*
X569105Y325697D01*
X569099Y325693D01*
X569050Y325614D01*
X568998Y325537D01*
X568997Y325529D01*
X568993Y325523D01*
X568961Y325345D01*
X568961Y276564D01*
X568962Y276560D01*
X568961Y276556D01*
X568981Y276462D01*
X569000Y276368D01*
X569003Y276364D01*
X569003Y276360D01*
X569059Y276281D01*
X569113Y276202D01*
X569116Y276200D01*
X569119Y276196D01*
X569201Y276145D01*
X569281Y276093D01*
X569285Y276092D01*
X569288Y276090D01*
X569384Y276074D01*
X569478Y276057D01*
X569482Y276058D01*
X569486Y276057D01*
X569662Y276095D01*
X570488Y276438D01*
X570489Y276438D01*
X570896Y276607D01*
X572669Y276607D01*
X572677Y276608D01*
X572685Y276607D01*
X572775Y276628D01*
X572866Y276646D01*
X572872Y276651D01*
X572880Y276653D01*
X573028Y276755D01*
X575904Y279632D01*
X576766Y279989D01*
X577990Y280496D01*
X579215Y281003D01*
X579639Y281179D01*
X598921Y281179D01*
X602656Y279632D01*
X605514Y276774D01*
X607061Y273039D01*
X607061Y268997D01*
X605514Y265262D01*
X602656Y262404D01*
X602056Y262156D01*
X600831Y261648D01*
X599607Y261141D01*
X599606Y261141D01*
X598921Y260857D01*
X579639Y260857D01*
X575904Y262404D01*
X573960Y264349D01*
X573955Y264352D01*
X573952Y264356D01*
X573872Y264407D01*
X573793Y264460D01*
X573788Y264461D01*
X573783Y264464D01*
X573689Y264479D01*
X573596Y264497D01*
X573591Y264496D01*
X573586Y264497D01*
X573493Y264476D01*
X573400Y264456D01*
X573396Y264453D01*
X573390Y264452D01*
X573242Y264349D01*
X454389Y145496D01*
X452746Y143852D01*
X451797Y143459D01*
X450692Y143001D01*
X162658Y143001D01*
G37*
%LPD*%
G36*
X361967Y176601D02*
X361967Y176601D01*
X362010Y176600D01*
X366000Y177201D01*
X366030Y177212D01*
X366073Y177218D01*
X369929Y178407D01*
X369957Y178423D01*
X369999Y178435D01*
X373635Y180186D01*
X373660Y180205D01*
X373699Y180223D01*
X377033Y182496D01*
X377056Y182519D01*
X377092Y182543D01*
X380050Y185287D01*
X380069Y185313D01*
X380101Y185342D01*
X382617Y188497D01*
X382631Y188525D01*
X382659Y188559D01*
X384677Y192054D01*
X384687Y192084D01*
X384709Y192121D01*
X386183Y195877D01*
X386184Y195884D01*
X386186Y195885D01*
X386190Y195912D01*
X386205Y195949D01*
X387103Y199883D01*
X387104Y199915D01*
X387114Y199957D01*
X387416Y203981D01*
X387412Y204008D01*
X387417Y204035D01*
X387400Y204105D01*
X387391Y204178D01*
X387377Y204202D01*
X387371Y204228D01*
X387328Y204287D01*
X387291Y204350D01*
X387269Y204366D01*
X387253Y204388D01*
X387190Y204425D01*
X387132Y204469D01*
X387105Y204476D01*
X387082Y204490D01*
X386978Y204507D01*
X386939Y204517D01*
X386929Y204515D01*
X386918Y204517D01*
X332918Y204517D01*
X332891Y204512D01*
X332864Y204514D01*
X332795Y204492D01*
X332723Y204478D01*
X332701Y204462D01*
X332675Y204454D01*
X332619Y204406D01*
X332559Y204365D01*
X332545Y204342D01*
X332524Y204324D01*
X332492Y204259D01*
X332452Y204198D01*
X332448Y204171D01*
X332436Y204146D01*
X332426Y204042D01*
X332419Y204001D01*
X332421Y203992D01*
X332420Y203981D01*
X332722Y199957D01*
X332730Y199926D01*
X332733Y199883D01*
X333631Y195949D01*
X333644Y195920D01*
X333653Y195877D01*
X335127Y192121D01*
X335144Y192094D01*
X335159Y192054D01*
X337177Y188559D01*
X337198Y188535D01*
X337219Y188497D01*
X339735Y185342D01*
X339760Y185322D01*
X339786Y185287D01*
X342744Y182543D01*
X342771Y182526D01*
X342803Y182496D01*
X346137Y180223D01*
X346166Y180210D01*
X346201Y180186D01*
X349837Y178435D01*
X349868Y178427D01*
X349907Y178407D01*
X353763Y177218D01*
X353794Y177215D01*
X353836Y177201D01*
X357826Y176600D01*
X357858Y176601D01*
X357900Y176594D01*
X361936Y176594D01*
X361967Y176601D01*
G37*
G36*
X386945Y515324D02*
X386945Y515324D01*
X386972Y515322D01*
X387041Y515344D01*
X387113Y515358D01*
X387135Y515374D01*
X387161Y515382D01*
X387217Y515430D01*
X387277Y515471D01*
X387291Y515494D01*
X387312Y515512D01*
X387345Y515577D01*
X387384Y515638D01*
X387388Y515665D01*
X387400Y515690D01*
X387410Y515794D01*
X387417Y515835D01*
X387415Y515844D01*
X387416Y515855D01*
X387114Y519879D01*
X387106Y519910D01*
X387103Y519953D01*
X386205Y523887D01*
X386192Y523916D01*
X386183Y523959D01*
X384709Y527715D01*
X384692Y527742D01*
X384677Y527783D01*
X382659Y531277D01*
X382638Y531301D01*
X382617Y531339D01*
X380101Y534494D01*
X380076Y534514D01*
X380050Y534549D01*
X377092Y537293D01*
X377065Y537310D01*
X377033Y537340D01*
X373699Y539613D01*
X373670Y539626D01*
X373635Y539651D01*
X369999Y541401D01*
X369968Y541409D01*
X369929Y541429D01*
X366073Y542618D01*
X366042Y542621D01*
X366000Y542635D01*
X362010Y543236D01*
X361978Y543235D01*
X361936Y543242D01*
X357900Y543242D01*
X357869Y543235D01*
X357826Y543236D01*
X353836Y542635D01*
X353806Y542624D01*
X353763Y542618D01*
X349907Y541429D01*
X349879Y541413D01*
X349837Y541401D01*
X346201Y539651D01*
X346176Y539631D01*
X346137Y539613D01*
X342803Y537340D01*
X342780Y537317D01*
X342744Y537293D01*
X339786Y534549D01*
X339768Y534523D01*
X339735Y534494D01*
X337219Y531339D01*
X337205Y531311D01*
X337177Y531277D01*
X335159Y527783D01*
X335149Y527752D01*
X335127Y527715D01*
X333653Y523959D01*
X333647Y523927D01*
X333631Y523887D01*
X332733Y519953D01*
X332732Y519921D01*
X332722Y519879D01*
X332420Y515855D01*
X332424Y515828D01*
X332419Y515801D01*
X332436Y515731D01*
X332445Y515658D01*
X332459Y515634D01*
X332465Y515608D01*
X332508Y515549D01*
X332545Y515486D01*
X332567Y515470D01*
X332583Y515448D01*
X332646Y515411D01*
X332704Y515367D01*
X332731Y515360D01*
X332754Y515346D01*
X332858Y515329D01*
X332897Y515319D01*
X332907Y515321D01*
X332918Y515319D01*
X386918Y515319D01*
X386945Y515324D01*
G37*
G36*
X211446Y413929D02*
X211446Y413929D01*
X211519Y413929D01*
X211544Y413940D01*
X211571Y413943D01*
X211634Y413978D01*
X211702Y414007D01*
X211720Y414027D01*
X211744Y414040D01*
X211811Y414121D01*
X211839Y414150D01*
X211843Y414159D01*
X211850Y414168D01*
X238850Y460868D01*
X238859Y460894D01*
X238875Y460916D01*
X238890Y460987D01*
X238913Y461057D01*
X238911Y461084D01*
X238917Y461110D01*
X238904Y461182D01*
X238898Y461255D01*
X238886Y461279D01*
X238881Y461306D01*
X238840Y461367D01*
X238807Y461431D01*
X238786Y461449D01*
X238771Y461471D01*
X238685Y461532D01*
X238653Y461558D01*
X238644Y461561D01*
X238635Y461568D01*
X235004Y463319D01*
X234973Y463327D01*
X234935Y463346D01*
X231083Y464537D01*
X231052Y464540D01*
X231010Y464553D01*
X227025Y465157D01*
X226993Y465155D01*
X226950Y465162D01*
X222919Y465165D01*
X222888Y465158D01*
X222845Y465159D01*
X218858Y464561D01*
X218828Y464550D01*
X218785Y464544D01*
X214932Y463358D01*
X214904Y463343D01*
X214863Y463331D01*
X211230Y461584D01*
X211205Y461565D01*
X211165Y461547D01*
X207833Y459278D01*
X207811Y459255D01*
X207775Y459232D01*
X204818Y456492D01*
X204800Y456466D01*
X204767Y456437D01*
X202252Y453287D01*
X202237Y453258D01*
X202210Y453225D01*
X200192Y449735D01*
X200182Y449705D01*
X200160Y449668D01*
X199523Y448047D01*
X198737Y446050D01*
X198685Y445916D01*
X198679Y445885D01*
X198663Y445845D01*
X197763Y441915D01*
X197763Y441884D01*
X197752Y441842D01*
X197448Y437822D01*
X197452Y437790D01*
X197448Y437747D01*
X197747Y433727D01*
X197756Y433697D01*
X197758Y433653D01*
X198653Y429723D01*
X198666Y429694D01*
X198675Y429651D01*
X200145Y425898D01*
X200163Y425871D01*
X200178Y425831D01*
X202191Y422338D01*
X202212Y422315D01*
X202233Y422277D01*
X204745Y419124D01*
X204769Y419103D01*
X204795Y419069D01*
X207749Y416325D01*
X207776Y416309D01*
X207807Y416279D01*
X211137Y414006D01*
X211162Y413995D01*
X211183Y413978D01*
X211252Y413957D01*
X211320Y413929D01*
X211347Y413929D01*
X211373Y413921D01*
X211446Y413929D01*
G37*
G36*
X508423Y413928D02*
X508423Y413928D01*
X508496Y413925D01*
X508521Y413934D01*
X508548Y413936D01*
X508644Y413980D01*
X508682Y413994D01*
X508689Y414001D01*
X508700Y414006D01*
X512029Y416279D01*
X512051Y416301D01*
X512087Y416325D01*
X515041Y419069D01*
X515059Y419095D01*
X515091Y419124D01*
X517603Y422277D01*
X517617Y422305D01*
X517645Y422338D01*
X519658Y425831D01*
X519668Y425861D01*
X519691Y425898D01*
X520599Y428217D01*
X520599Y428218D01*
X520795Y428717D01*
X520990Y429216D01*
X520991Y429216D01*
X521161Y429651D01*
X521167Y429683D01*
X521183Y429723D01*
X522078Y433653D01*
X522078Y433685D01*
X522089Y433727D01*
X522388Y437747D01*
X522384Y437779D01*
X522388Y437822D01*
X522084Y441842D01*
X522075Y441872D01*
X522073Y441915D01*
X521173Y445845D01*
X521160Y445874D01*
X521151Y445916D01*
X519676Y449668D01*
X519659Y449695D01*
X519644Y449735D01*
X517626Y453225D01*
X517605Y453249D01*
X517584Y453287D01*
X515069Y456437D01*
X515044Y456457D01*
X515018Y456492D01*
X512061Y459232D01*
X512034Y459248D01*
X512003Y459278D01*
X508671Y461547D01*
X508641Y461559D01*
X508606Y461584D01*
X504973Y463331D01*
X504942Y463339D01*
X504904Y463358D01*
X501051Y464544D01*
X501019Y464547D01*
X500978Y464561D01*
X496991Y465159D01*
X496960Y465158D01*
X496917Y465165D01*
X492886Y465162D01*
X492855Y465156D01*
X492811Y465157D01*
X488826Y464553D01*
X488796Y464542D01*
X488753Y464537D01*
X484901Y463346D01*
X484874Y463331D01*
X484832Y463319D01*
X481201Y461568D01*
X481179Y461551D01*
X481154Y461542D01*
X481101Y461491D01*
X481043Y461447D01*
X481029Y461424D01*
X481010Y461405D01*
X480980Y461338D01*
X480944Y461275D01*
X480941Y461248D01*
X480930Y461223D01*
X480929Y461150D01*
X480920Y461077D01*
X480928Y461051D01*
X480928Y461024D01*
X480964Y460925D01*
X480976Y460886D01*
X480982Y460879D01*
X480986Y460868D01*
X507986Y414168D01*
X508004Y414148D01*
X508015Y414123D01*
X508069Y414074D01*
X508118Y414019D01*
X508142Y414008D01*
X508162Y413989D01*
X508231Y413965D01*
X508297Y413934D01*
X508324Y413932D01*
X508350Y413923D01*
X508423Y413928D01*
G37*
G36*
X226950Y254474D02*
X226950Y254474D01*
X226981Y254480D01*
X227025Y254479D01*
X231010Y255083D01*
X231040Y255094D01*
X231083Y255099D01*
X234935Y256290D01*
X234962Y256305D01*
X235004Y256317D01*
X238635Y258068D01*
X238657Y258085D01*
X238682Y258094D01*
X238735Y258145D01*
X238793Y258189D01*
X238807Y258212D01*
X238826Y258231D01*
X238856Y258298D01*
X238892Y258361D01*
X238895Y258388D01*
X238906Y258413D01*
X238907Y258486D01*
X238916Y258559D01*
X238908Y258585D01*
X238908Y258612D01*
X238872Y258711D01*
X238860Y258750D01*
X238854Y258757D01*
X238850Y258768D01*
X211850Y305468D01*
X211832Y305488D01*
X211821Y305513D01*
X211767Y305562D01*
X211718Y305617D01*
X211694Y305628D01*
X211674Y305647D01*
X211605Y305671D01*
X211539Y305702D01*
X211512Y305704D01*
X211486Y305713D01*
X211413Y305708D01*
X211340Y305711D01*
X211315Y305702D01*
X211288Y305700D01*
X211192Y305656D01*
X211154Y305642D01*
X211147Y305635D01*
X211137Y305630D01*
X207807Y303357D01*
X207785Y303335D01*
X207749Y303311D01*
X204795Y300567D01*
X204777Y300541D01*
X204745Y300512D01*
X202233Y297359D01*
X202219Y297331D01*
X202191Y297298D01*
X200178Y293805D01*
X200168Y293775D01*
X200145Y293738D01*
X198675Y289985D01*
X198669Y289953D01*
X198653Y289913D01*
X197758Y285983D01*
X197758Y285951D01*
X197747Y285909D01*
X197448Y281889D01*
X197452Y281857D01*
X197448Y281814D01*
X197752Y277794D01*
X197761Y277764D01*
X197763Y277721D01*
X198663Y273791D01*
X198676Y273762D01*
X198685Y273720D01*
X200160Y269968D01*
X200177Y269941D01*
X200192Y269901D01*
X202210Y266411D01*
X202231Y266387D01*
X202252Y266349D01*
X204767Y263199D01*
X204792Y263179D01*
X204818Y263144D01*
X207775Y260404D01*
X207802Y260388D01*
X207833Y260358D01*
X211165Y258089D01*
X211195Y258077D01*
X211230Y258052D01*
X214863Y256305D01*
X214894Y256297D01*
X214932Y256278D01*
X218785Y255092D01*
X218817Y255089D01*
X218858Y255075D01*
X222845Y254477D01*
X222876Y254478D01*
X222919Y254471D01*
X226950Y254474D01*
G37*
G36*
X496948Y254678D02*
X496948Y254678D01*
X496991Y254677D01*
X500978Y255275D01*
X501008Y255286D01*
X501051Y255292D01*
X504904Y256478D01*
X504932Y256493D01*
X504973Y256505D01*
X508606Y258252D01*
X508631Y258271D01*
X508671Y258289D01*
X512003Y260558D01*
X512025Y260581D01*
X512061Y260604D01*
X515018Y263344D01*
X515036Y263370D01*
X515069Y263399D01*
X517584Y266549D01*
X517599Y266578D01*
X517626Y266611D01*
X519644Y270101D01*
X519654Y270131D01*
X519676Y270168D01*
X521151Y273920D01*
X521157Y273951D01*
X521161Y273962D01*
X521162Y273962D01*
X521162Y273963D01*
X521173Y273991D01*
X522073Y277921D01*
X522073Y277952D01*
X522084Y277994D01*
X522388Y282014D01*
X522384Y282046D01*
X522388Y282089D01*
X522089Y286109D01*
X522080Y286139D01*
X522078Y286183D01*
X521183Y290113D01*
X521170Y290142D01*
X521161Y290185D01*
X519691Y293938D01*
X519673Y293965D01*
X519658Y294005D01*
X517645Y297498D01*
X517624Y297521D01*
X517603Y297559D01*
X515091Y300712D01*
X515067Y300733D01*
X515041Y300767D01*
X512087Y303511D01*
X512060Y303527D01*
X512029Y303557D01*
X508700Y305830D01*
X508674Y305841D01*
X508653Y305858D01*
X508584Y305879D01*
X508516Y305908D01*
X508489Y305907D01*
X508463Y305915D01*
X508390Y305907D01*
X508317Y305907D01*
X508292Y305896D01*
X508265Y305893D01*
X508202Y305858D01*
X508135Y305829D01*
X508116Y305809D01*
X508092Y305796D01*
X508025Y305715D01*
X507997Y305686D01*
X507993Y305677D01*
X507986Y305668D01*
X480986Y258968D01*
X480977Y258942D01*
X480961Y258920D01*
X480946Y258849D01*
X480923Y258779D01*
X480925Y258752D01*
X480919Y258726D01*
X480932Y258654D01*
X480938Y258581D01*
X480950Y258557D01*
X480955Y258530D01*
X480996Y258469D01*
X481029Y258405D01*
X481050Y258387D01*
X481065Y258365D01*
X481151Y258304D01*
X481183Y258278D01*
X481192Y258275D01*
X481201Y258268D01*
X484832Y256517D01*
X484863Y256509D01*
X484901Y256490D01*
X488753Y255299D01*
X488785Y255296D01*
X488826Y255283D01*
X492811Y254679D01*
X492843Y254681D01*
X492886Y254674D01*
X496917Y254671D01*
X496948Y254678D01*
G37*
%LPC*%
G36*
X122439Y362457D02*
X122439Y362457D01*
X118704Y364004D01*
X115846Y366862D01*
X114299Y370597D01*
X114299Y374639D01*
X115846Y378374D01*
X118704Y381232D01*
X119203Y381439D01*
X119204Y381439D01*
X120428Y381946D01*
X121653Y382453D01*
X122439Y382779D01*
X141721Y382779D01*
X145456Y381232D01*
X148314Y378374D01*
X149861Y374639D01*
X149861Y370597D01*
X148314Y366862D01*
X145456Y364004D01*
X144494Y363606D01*
X144493Y363606D01*
X143269Y363098D01*
X142044Y362591D01*
X141721Y362457D01*
X122439Y362457D01*
G37*
%LPD*%
%LPC*%
G36*
X579639Y362457D02*
X579639Y362457D01*
X575904Y364004D01*
X573046Y366862D01*
X571499Y370597D01*
X571499Y374639D01*
X573046Y378374D01*
X575904Y381232D01*
X576403Y381439D01*
X576404Y381439D01*
X577628Y381946D01*
X578853Y382453D01*
X579639Y382779D01*
X598921Y382779D01*
X602656Y381232D01*
X605514Y378374D01*
X607061Y374639D01*
X607061Y370597D01*
X605514Y366862D01*
X602656Y364004D01*
X601694Y363606D01*
X601693Y363606D01*
X600469Y363098D01*
X599244Y362591D01*
X598921Y362457D01*
X579639Y362457D01*
G37*
%LPD*%
%LPC*%
G36*
X579639Y413257D02*
X579639Y413257D01*
X575904Y414804D01*
X573046Y417662D01*
X571499Y421397D01*
X571499Y425439D01*
X573046Y429174D01*
X575904Y432032D01*
X576222Y432164D01*
X577447Y432671D01*
X578672Y433178D01*
X579639Y433579D01*
X598921Y433579D01*
X602656Y432032D01*
X605514Y429174D01*
X607061Y425439D01*
X607061Y421397D01*
X605514Y417662D01*
X602656Y414804D01*
X601513Y414331D01*
X601512Y414331D01*
X600288Y413823D01*
X599063Y413316D01*
X598921Y413257D01*
X579639Y413257D01*
G37*
%LPD*%
%LPC*%
G36*
X122439Y413257D02*
X122439Y413257D01*
X118704Y414804D01*
X115846Y417662D01*
X114299Y421397D01*
X114299Y425439D01*
X115846Y429174D01*
X118704Y432032D01*
X119022Y432164D01*
X120247Y432671D01*
X121472Y433178D01*
X122439Y433579D01*
X141721Y433579D01*
X145456Y432032D01*
X148314Y429174D01*
X149861Y425439D01*
X149861Y421397D01*
X148314Y417662D01*
X145456Y414804D01*
X144313Y414331D01*
X144312Y414331D01*
X143088Y413823D01*
X141863Y413316D01*
X141721Y413257D01*
X122439Y413257D01*
G37*
%LPD*%
%LPC*%
G36*
X579639Y311657D02*
X579639Y311657D01*
X575904Y313204D01*
X573046Y316062D01*
X571499Y319797D01*
X571499Y323839D01*
X573046Y327574D01*
X575904Y330432D01*
X576584Y330714D01*
X576585Y330714D01*
X577809Y331221D01*
X579034Y331728D01*
X579639Y331979D01*
X598921Y331979D01*
X602656Y330432D01*
X605514Y327574D01*
X607061Y323839D01*
X607061Y319797D01*
X605514Y316062D01*
X602656Y313204D01*
X601875Y312881D01*
X600650Y312373D01*
X599425Y311866D01*
X598921Y311657D01*
X579639Y311657D01*
G37*
%LPD*%
%LPC*%
G36*
X122439Y311657D02*
X122439Y311657D01*
X118704Y313204D01*
X115846Y316062D01*
X114299Y319797D01*
X114299Y323839D01*
X115846Y327574D01*
X118704Y330432D01*
X119384Y330714D01*
X119385Y330714D01*
X120609Y331221D01*
X121834Y331728D01*
X122439Y331979D01*
X141721Y331979D01*
X145456Y330432D01*
X148314Y327574D01*
X149861Y323839D01*
X149861Y319797D01*
X148314Y316062D01*
X145456Y313204D01*
X144675Y312881D01*
X143450Y312373D01*
X142225Y311866D01*
X141721Y311657D01*
X122439Y311657D01*
G37*
%LPD*%
%LPC*%
G36*
X579639Y286257D02*
X579639Y286257D01*
X575904Y287804D01*
X573046Y290662D01*
X571499Y294397D01*
X571499Y298439D01*
X573046Y302174D01*
X575904Y305032D01*
X576675Y305351D01*
X577900Y305858D01*
X579124Y306366D01*
X579639Y306579D01*
X598921Y306579D01*
X602656Y305032D01*
X605514Y302174D01*
X607061Y298439D01*
X607061Y294397D01*
X605514Y290662D01*
X602656Y287804D01*
X601965Y287518D01*
X600741Y287011D01*
X600740Y287011D01*
X599516Y286504D01*
X598921Y286257D01*
X579639Y286257D01*
G37*
%LPD*%
%LPC*%
G36*
X122439Y286257D02*
X122439Y286257D01*
X118704Y287804D01*
X115846Y290662D01*
X114299Y294397D01*
X114299Y298439D01*
X115846Y302174D01*
X118704Y305032D01*
X119475Y305351D01*
X120700Y305858D01*
X121924Y306366D01*
X122439Y306579D01*
X141721Y306579D01*
X145456Y305032D01*
X148314Y302174D01*
X149861Y298439D01*
X149861Y294397D01*
X148314Y290662D01*
X145456Y287804D01*
X144765Y287518D01*
X143541Y287011D01*
X143540Y287011D01*
X142316Y286504D01*
X141721Y286257D01*
X122439Y286257D01*
G37*
%LPD*%
D10*
X453918Y522718D03*
X547918Y359918D03*
X453918Y197118D03*
X265918Y197118D03*
X171918Y359918D03*
X265918Y522718D03*
X500918Y441218D03*
X500918Y278618D03*
X359918Y197118D03*
X218918Y278418D03*
X218918Y441218D03*
X359918Y522718D03*
D11*
X581660Y245618D02*
X596900Y245618D01*
X596900Y271018D02*
X581660Y271018D01*
X581660Y296418D02*
X596900Y296418D01*
X596900Y321818D02*
X581660Y321818D01*
X581660Y347218D02*
X596900Y347218D01*
X596900Y372618D02*
X581660Y372618D01*
X581660Y398018D02*
X596900Y398018D01*
X596900Y423418D02*
X581660Y423418D01*
X581660Y448818D02*
X596900Y448818D01*
X596900Y474218D02*
X581660Y474218D01*
X139700Y245618D02*
X124460Y245618D01*
X124460Y271018D02*
X139700Y271018D01*
X139700Y296418D02*
X124460Y296418D01*
X124460Y321818D02*
X139700Y321818D01*
X139700Y347218D02*
X124460Y347218D01*
X124460Y372618D02*
X139700Y372618D01*
X139700Y398018D02*
X124460Y398018D01*
X124460Y423418D02*
X139700Y423418D01*
X139700Y448818D02*
X124460Y448818D01*
X124460Y474218D02*
X139700Y474218D01*
D12*
X162260Y184810D03*
X162260Y194310D03*
X162260Y203810D03*
X188260Y203810D03*
X188260Y184810D03*
D13*
X187960Y222640D03*
X187960Y239640D03*
D14*
X217170Y185390D03*
X217170Y213390D03*
X132080Y180280D03*
X132080Y208280D03*
D15*
X188350Y161290D03*
X205350Y161290D03*
D16*
X188260Y161380D02*
X188260Y184810D01*
X188260Y161380D02*
X188350Y161290D01*
D17*
X198120Y184150D03*
X187960Y175260D03*
D16*
X198120Y184150D02*
X215930Y184150D01*
X217170Y185390D01*
X198120Y184150D02*
X188920Y184150D01*
X188260Y184810D01*
X168300Y203810D02*
X162260Y203810D01*
X168300Y203810D02*
X175260Y196850D01*
X175260Y190500D01*
X169570Y184810D02*
X162260Y184810D01*
X169570Y184810D02*
X175260Y190500D01*
X162260Y184810D02*
X136610Y184810D01*
X132080Y180280D01*
X132080Y271018D02*
X143002Y271018D01*
X161290Y252730D01*
X161290Y204780D01*
X162260Y203810D01*
X572008Y271018D02*
X589280Y271018D01*
X572008Y271018D02*
X449580Y148590D01*
X163770Y148590D02*
X132080Y180280D01*
X163770Y148590D02*
X449580Y148590D01*
D18*
X508518Y448818D02*
X589280Y448818D01*
X508518Y448818D02*
X500918Y441218D01*
X584708Y398018D02*
X589280Y398018D01*
D19*
X563880Y349200D02*
X500918Y286238D01*
D18*
X500918Y278618D01*
D19*
X563880Y377190D02*
X584708Y398018D01*
X563880Y377190D02*
X563880Y349200D01*
D18*
X380506Y176530D02*
X359918Y197118D01*
X563880Y276860D02*
X563880Y327660D01*
X583438Y347218D01*
X589280Y347218D01*
X463550Y176530D02*
X380506Y176530D01*
X463550Y176530D02*
X563880Y276860D01*
X150118Y347218D02*
X132080Y347218D01*
X150118Y347218D02*
X218918Y278418D01*
X175718Y398018D02*
X132080Y398018D01*
X175718Y398018D02*
X218918Y441218D01*
X155448Y448818D02*
X132080Y448818D01*
X155448Y448818D02*
X256540Y549910D01*
X332726Y549910D01*
X359918Y522718D01*
D16*
X187960Y222640D02*
X187960Y204110D01*
X188260Y203810D01*
M02*
