G04 EAGLE Gerber RS-274X export*
G75*
%MOMM*%
%FSLAX34Y34*%
%LPD*%
%INBottom Copper*%
%IPPOS*%
%AMOC8*
5,1,8,0,0,1.08239X$1,22.5*%
G01*
%ADD10C,1.000000*%
%ADD11C,1.524000*%
%ADD12R,1.200000X0.550000*%
%ADD13R,1.000000X1.100000*%
%ADD14R,2.700000X1.600000*%
%ADD15R,1.100000X1.000000*%
%ADD16C,0.609600*%
%ADD17C,0.756400*%
%ADD18C,0.508000*%
%ADD19C,0.406400*%

G36*
X589044Y135386D02*
X589044Y135386D01*
X589066Y135384D01*
X592443Y135650D01*
X592492Y135664D01*
X592560Y135673D01*
X598984Y137761D01*
X599031Y137787D01*
X599126Y137833D01*
X604591Y141803D01*
X604627Y141843D01*
X604703Y141915D01*
X608673Y147380D01*
X608696Y147429D01*
X608745Y147522D01*
X610833Y153946D01*
X610839Y153997D01*
X610856Y154063D01*
X611122Y157440D01*
X611119Y157459D01*
X611123Y157480D01*
X611123Y563118D01*
X611120Y563136D01*
X611122Y563158D01*
X610856Y566535D01*
X610842Y566584D01*
X610833Y566652D01*
X608745Y573076D01*
X608719Y573123D01*
X608673Y573218D01*
X604703Y578683D01*
X604663Y578719D01*
X604591Y578795D01*
X599126Y582765D01*
X599077Y582788D01*
X598984Y582837D01*
X592560Y584925D01*
X592509Y584931D01*
X592443Y584948D01*
X589066Y585214D01*
X589047Y585211D01*
X589026Y585215D01*
X131826Y585215D01*
X131808Y585212D01*
X131786Y585214D01*
X128409Y584948D01*
X128360Y584934D01*
X128292Y584925D01*
X121868Y582837D01*
X121821Y582811D01*
X121726Y582765D01*
X116261Y578795D01*
X116225Y578755D01*
X116149Y578683D01*
X112179Y573218D01*
X112156Y573169D01*
X112107Y573076D01*
X110019Y566652D01*
X110013Y566601D01*
X109996Y566535D01*
X109730Y563158D01*
X109733Y563139D01*
X109729Y563118D01*
X109729Y157480D01*
X109732Y157462D01*
X109730Y157440D01*
X109996Y154063D01*
X110010Y154014D01*
X110019Y153946D01*
X112107Y147522D01*
X112133Y147475D01*
X112179Y147380D01*
X116149Y141915D01*
X116189Y141879D01*
X116261Y141803D01*
X121726Y137833D01*
X121775Y137810D01*
X121868Y137761D01*
X128292Y135673D01*
X128343Y135667D01*
X128409Y135650D01*
X131786Y135384D01*
X131805Y135387D01*
X131826Y135383D01*
X589026Y135383D01*
X589044Y135386D01*
G37*
%LPC*%
G36*
X162658Y143001D02*
X162658Y143001D01*
X160604Y143852D01*
X158961Y145496D01*
X134866Y169591D01*
X134859Y169595D01*
X134855Y169601D01*
X134776Y169650D01*
X134699Y169702D01*
X134691Y169703D01*
X134684Y169707D01*
X134507Y169739D01*
X117528Y169739D01*
X116039Y171228D01*
X116039Y189332D01*
X117528Y190821D01*
X146632Y190821D01*
X146906Y190547D01*
X146912Y190543D01*
X146917Y190537D01*
X146996Y190488D01*
X147073Y190436D01*
X147081Y190435D01*
X147087Y190431D01*
X147265Y190399D01*
X167045Y190399D01*
X167053Y190400D01*
X167060Y190399D01*
X167150Y190420D01*
X167241Y190438D01*
X167248Y190443D01*
X167256Y190445D01*
X167404Y190547D01*
X169523Y192666D01*
X169527Y192673D01*
X169533Y192677D01*
X169582Y192756D01*
X169634Y192833D01*
X169635Y192841D01*
X169639Y192848D01*
X169671Y193025D01*
X169671Y194325D01*
X169670Y194333D01*
X169671Y194340D01*
X169650Y194430D01*
X169632Y194521D01*
X169627Y194528D01*
X169625Y194536D01*
X169523Y194684D01*
X166134Y198073D01*
X166127Y198077D01*
X166123Y198083D01*
X166044Y198132D01*
X165967Y198184D01*
X165959Y198185D01*
X165952Y198189D01*
X165775Y198221D01*
X161148Y198221D01*
X160522Y198481D01*
X160513Y198482D01*
X160505Y198487D01*
X160328Y198519D01*
X155208Y198519D01*
X153719Y200008D01*
X153719Y207612D01*
X155209Y209102D01*
X155297Y209122D01*
X155391Y209140D01*
X155395Y209143D01*
X155400Y209144D01*
X155478Y209200D01*
X155556Y209253D01*
X155559Y209257D01*
X155563Y209260D01*
X155614Y209342D01*
X155666Y209421D01*
X155666Y209426D01*
X155669Y209431D01*
X155701Y209608D01*
X155701Y250205D01*
X155700Y250213D01*
X155701Y250220D01*
X155680Y250310D01*
X155662Y250401D01*
X155657Y250408D01*
X155655Y250416D01*
X155553Y250564D01*
X144462Y261654D01*
X144457Y261658D01*
X144453Y261663D01*
X144374Y261713D01*
X144296Y261765D01*
X144289Y261766D01*
X144284Y261770D01*
X144191Y261785D01*
X144099Y261802D01*
X144092Y261801D01*
X144086Y261802D01*
X143910Y261764D01*
X143631Y261648D01*
X142407Y261141D01*
X142406Y261141D01*
X141721Y260857D01*
X122439Y260857D01*
X118704Y262404D01*
X115846Y265262D01*
X114299Y268997D01*
X114299Y273039D01*
X115846Y276774D01*
X118704Y279632D01*
X119566Y279989D01*
X120790Y280496D01*
X122015Y281003D01*
X122439Y281179D01*
X141721Y281179D01*
X145456Y279632D01*
X148314Y276774D01*
X149861Y273039D01*
X149861Y272273D01*
X149862Y272265D01*
X149861Y272258D01*
X149882Y272168D01*
X149900Y272077D01*
X149905Y272070D01*
X149907Y272062D01*
X150009Y271914D01*
X164384Y257539D01*
X166028Y255896D01*
X166879Y253842D01*
X166879Y209906D01*
X166880Y209901D01*
X166879Y209896D01*
X166900Y209803D01*
X166918Y209709D01*
X166921Y209705D01*
X166922Y209700D01*
X166978Y209622D01*
X167031Y209544D01*
X167035Y209541D01*
X167038Y209537D01*
X167120Y209486D01*
X167199Y209434D01*
X167204Y209434D01*
X167209Y209431D01*
X167386Y209399D01*
X169412Y209399D01*
X171466Y208548D01*
X178354Y201659D01*
X178355Y201659D01*
X178853Y201160D01*
X178856Y201159D01*
X178857Y201157D01*
X178938Y201104D01*
X179020Y201049D01*
X179023Y201049D01*
X179025Y201047D01*
X179121Y201030D01*
X179217Y201012D01*
X179220Y201012D01*
X179222Y201012D01*
X179319Y201033D01*
X179413Y201053D01*
X179415Y201055D01*
X179418Y201055D01*
X179498Y201112D01*
X179578Y201168D01*
X179579Y201170D01*
X179581Y201171D01*
X179633Y201255D01*
X179685Y201337D01*
X179686Y201339D01*
X179687Y201342D01*
X179719Y201519D01*
X179719Y207612D01*
X181208Y209101D01*
X181864Y209101D01*
X181869Y209102D01*
X181874Y209101D01*
X181967Y209122D01*
X182061Y209140D01*
X182065Y209143D01*
X182070Y209144D01*
X182148Y209200D01*
X182226Y209253D01*
X182229Y209257D01*
X182233Y209260D01*
X182284Y209342D01*
X182336Y209421D01*
X182336Y209426D01*
X182339Y209431D01*
X182371Y209608D01*
X182371Y214092D01*
X182370Y214097D01*
X182371Y214102D01*
X182350Y214195D01*
X182332Y214289D01*
X182329Y214293D01*
X182328Y214298D01*
X182272Y214376D01*
X182219Y214454D01*
X182215Y214457D01*
X182212Y214461D01*
X182130Y214512D01*
X182051Y214564D01*
X182046Y214564D01*
X182041Y214567D01*
X181917Y214590D01*
X180419Y216088D01*
X180419Y229192D01*
X181908Y230681D01*
X194012Y230681D01*
X195501Y229192D01*
X195501Y216088D01*
X194003Y214590D01*
X193953Y214578D01*
X193859Y214560D01*
X193855Y214557D01*
X193850Y214556D01*
X193772Y214500D01*
X193694Y214447D01*
X193691Y214443D01*
X193687Y214440D01*
X193636Y214358D01*
X193584Y214279D01*
X193584Y214274D01*
X193581Y214269D01*
X193549Y214092D01*
X193549Y209608D01*
X193550Y209603D01*
X193549Y209598D01*
X193570Y209505D01*
X193588Y209411D01*
X193591Y209407D01*
X193592Y209402D01*
X193648Y209324D01*
X193701Y209246D01*
X193705Y209243D01*
X193708Y209239D01*
X193790Y209188D01*
X193869Y209136D01*
X193874Y209136D01*
X193879Y209133D01*
X194056Y209101D01*
X195312Y209101D01*
X196801Y207612D01*
X196801Y200008D01*
X195312Y198519D01*
X190192Y198519D01*
X190183Y198517D01*
X190174Y198519D01*
X189998Y198481D01*
X189996Y198480D01*
X189995Y198480D01*
X189422Y198242D01*
X189372Y198221D01*
X187148Y198221D01*
X186522Y198481D01*
X186513Y198482D01*
X186505Y198487D01*
X186328Y198519D01*
X181356Y198519D01*
X181351Y198518D01*
X181346Y198519D01*
X181253Y198498D01*
X181159Y198480D01*
X181155Y198477D01*
X181150Y198476D01*
X181072Y198420D01*
X180994Y198367D01*
X180991Y198363D01*
X180987Y198360D01*
X180936Y198278D01*
X180884Y198199D01*
X180884Y198194D01*
X180881Y198189D01*
X180849Y198012D01*
X180849Y190608D01*
X180850Y190603D01*
X180849Y190598D01*
X180870Y190505D01*
X180888Y190411D01*
X180891Y190407D01*
X180892Y190402D01*
X180948Y190324D01*
X181001Y190246D01*
X181005Y190243D01*
X181008Y190239D01*
X181090Y190188D01*
X181169Y190136D01*
X181174Y190136D01*
X181179Y190133D01*
X181356Y190101D01*
X186328Y190101D01*
X186337Y190103D01*
X186346Y190101D01*
X186522Y190139D01*
X186524Y190140D01*
X186525Y190140D01*
X186681Y190205D01*
X187148Y190399D01*
X189372Y190399D01*
X189998Y190139D01*
X190007Y190138D01*
X190015Y190133D01*
X190192Y190101D01*
X195336Y190101D01*
X195352Y190091D01*
X195431Y190039D01*
X195437Y190037D01*
X195443Y190034D01*
X195535Y190019D01*
X195627Y190001D01*
X195634Y190002D01*
X195640Y190001D01*
X195816Y190040D01*
X196217Y190205D01*
X196862Y190473D01*
X199378Y190473D01*
X200428Y190038D01*
X200432Y190037D01*
X200435Y190035D01*
X200530Y190018D01*
X200625Y189999D01*
X200628Y190000D01*
X200632Y189999D01*
X200726Y190020D01*
X200821Y190040D01*
X200824Y190042D01*
X200828Y190043D01*
X200906Y190098D01*
X200986Y190153D01*
X200988Y190156D01*
X200991Y190159D01*
X201042Y190240D01*
X201095Y190322D01*
X201095Y190326D01*
X201097Y190329D01*
X201129Y190506D01*
X201129Y194442D01*
X202618Y195931D01*
X231722Y195931D01*
X233211Y194442D01*
X233211Y176338D01*
X231722Y174849D01*
X202618Y174849D01*
X201129Y176338D01*
X201129Y177794D01*
X201128Y177798D01*
X201129Y177801D01*
X201109Y177895D01*
X201090Y177990D01*
X201087Y177993D01*
X201087Y177997D01*
X201031Y178076D01*
X200977Y178156D01*
X200974Y178158D01*
X200971Y178161D01*
X200889Y178213D01*
X200809Y178265D01*
X200805Y178266D01*
X200802Y178268D01*
X200706Y178284D01*
X200612Y178301D01*
X200608Y178300D01*
X200604Y178301D01*
X200428Y178262D01*
X199679Y177952D01*
X199378Y177827D01*
X196862Y177827D01*
X195184Y178523D01*
X195175Y178524D01*
X195167Y178529D01*
X194989Y178561D01*
X194356Y178561D01*
X194351Y178560D01*
X194346Y178561D01*
X194253Y178540D01*
X194159Y178522D01*
X194155Y178519D01*
X194150Y178518D01*
X194072Y178462D01*
X193994Y178409D01*
X193991Y178405D01*
X193987Y178402D01*
X193936Y178320D01*
X193884Y178241D01*
X193884Y178236D01*
X193881Y178231D01*
X193849Y178054D01*
X193849Y177666D01*
X193851Y177657D01*
X193849Y177648D01*
X193887Y177472D01*
X194283Y176518D01*
X194283Y174002D01*
X193887Y173048D01*
X193886Y173039D01*
X193881Y173031D01*
X193849Y172854D01*
X193849Y169338D01*
X193850Y169333D01*
X193849Y169328D01*
X193870Y169235D01*
X193888Y169141D01*
X193891Y169137D01*
X193892Y169132D01*
X193948Y169054D01*
X194001Y168976D01*
X194005Y168973D01*
X194008Y168969D01*
X194090Y168918D01*
X194169Y168866D01*
X194174Y168866D01*
X194179Y168863D01*
X194356Y168831D01*
X194902Y168831D01*
X196391Y167342D01*
X196391Y155238D01*
X196198Y155045D01*
X196196Y155042D01*
X196194Y155041D01*
X196141Y154960D01*
X196087Y154878D01*
X196086Y154875D01*
X196085Y154873D01*
X196068Y154777D01*
X196049Y154681D01*
X196050Y154678D01*
X196049Y154676D01*
X196071Y154579D01*
X196091Y154485D01*
X196092Y154483D01*
X196093Y154480D01*
X196150Y154399D01*
X196205Y154320D01*
X196207Y154319D01*
X196209Y154317D01*
X196293Y154264D01*
X196374Y154213D01*
X196377Y154212D01*
X196379Y154211D01*
X196556Y154179D01*
X447055Y154179D01*
X447063Y154180D01*
X447070Y154179D01*
X447160Y154200D01*
X447251Y154218D01*
X447258Y154223D01*
X447266Y154225D01*
X447414Y154327D01*
X463670Y170583D01*
X463671Y170586D01*
X463673Y170587D01*
X463726Y170668D01*
X463781Y170750D01*
X463781Y170753D01*
X463783Y170755D01*
X463800Y170851D01*
X463818Y170947D01*
X463818Y170950D01*
X463818Y170952D01*
X463797Y171049D01*
X463777Y171143D01*
X463775Y171145D01*
X463775Y171148D01*
X463718Y171228D01*
X463662Y171308D01*
X463660Y171309D01*
X463659Y171311D01*
X463576Y171363D01*
X463493Y171415D01*
X463491Y171416D01*
X463488Y171417D01*
X463311Y171449D01*
X382571Y171449D01*
X382484Y171432D01*
X382397Y171418D01*
X382386Y171412D01*
X382374Y171410D01*
X382329Y171379D01*
X382241Y171327D01*
X382211Y171302D01*
X380329Y171448D01*
X380310Y171445D01*
X380289Y171449D01*
X378402Y171449D01*
X378374Y171477D01*
X378300Y171526D01*
X378228Y171579D01*
X378216Y171582D01*
X378207Y171588D01*
X378153Y171598D01*
X378054Y171624D01*
X378015Y171627D01*
X376787Y173062D01*
X376773Y173073D01*
X376760Y173090D01*
X375425Y174425D01*
X375425Y174465D01*
X375408Y174552D01*
X375394Y174639D01*
X375388Y174650D01*
X375386Y174662D01*
X375355Y174707D01*
X375303Y174795D01*
X371412Y179341D01*
X371392Y179357D01*
X371379Y179376D01*
X371367Y179383D01*
X371355Y179398D01*
X371302Y179427D01*
X371255Y179464D01*
X371222Y179473D01*
X371208Y179481D01*
X371201Y179483D01*
X371180Y179495D01*
X371120Y179501D01*
X371061Y179517D01*
X371032Y179513D01*
X371031Y179513D01*
X371017Y179513D01*
X371013Y179513D01*
X370981Y179516D01*
X370914Y179498D01*
X370862Y179491D01*
X370840Y179478D01*
X370821Y179474D01*
X370815Y179470D01*
X370807Y179468D01*
X369967Y179063D01*
X369880Y179094D01*
X369810Y179103D01*
X369742Y179121D01*
X369709Y179117D01*
X369681Y179121D01*
X369631Y179108D01*
X369563Y179100D01*
X367938Y178598D01*
X367876Y178565D01*
X367810Y178539D01*
X367786Y178516D01*
X367762Y178503D01*
X367730Y178462D01*
X367679Y178415D01*
X367625Y178341D01*
X366642Y178193D01*
X366610Y178181D01*
X366568Y178176D01*
X365619Y177883D01*
X365537Y177926D01*
X365470Y177946D01*
X365405Y177974D01*
X365372Y177975D01*
X365345Y177983D01*
X365294Y177977D01*
X365225Y177979D01*
X363543Y177726D01*
X363477Y177702D01*
X363408Y177686D01*
X363381Y177667D01*
X363355Y177657D01*
X363317Y177622D01*
X363260Y177583D01*
X363195Y177518D01*
X362202Y177518D01*
X362168Y177511D01*
X362126Y177512D01*
X361143Y177364D01*
X361069Y177419D01*
X361005Y177449D01*
X360946Y177486D01*
X360913Y177492D01*
X360888Y177503D01*
X360836Y177505D01*
X360768Y177518D01*
X359068Y177518D01*
X358998Y177504D01*
X358928Y177498D01*
X358899Y177484D01*
X358871Y177478D01*
X358829Y177449D01*
X358767Y177419D01*
X358693Y177364D01*
X357710Y177512D01*
X357675Y177510D01*
X357634Y177518D01*
X356641Y177518D01*
X356576Y177583D01*
X356517Y177622D01*
X356463Y177668D01*
X356432Y177678D01*
X356409Y177694D01*
X356358Y177703D01*
X356293Y177726D01*
X354611Y177979D01*
X354541Y177976D01*
X354470Y177981D01*
X354439Y177971D01*
X354411Y177969D01*
X354364Y177947D01*
X354299Y177926D01*
X354217Y177883D01*
X353268Y178176D01*
X353233Y178179D01*
X353194Y178193D01*
X352211Y178341D01*
X352157Y178415D01*
X352104Y178462D01*
X352058Y178516D01*
X352029Y178531D01*
X352008Y178549D01*
X351959Y178567D01*
X351898Y178598D01*
X350273Y179100D01*
X350203Y179107D01*
X350134Y179122D01*
X350102Y179117D01*
X350074Y179120D01*
X350024Y179105D01*
X349956Y179094D01*
X349869Y179063D01*
X348974Y179494D01*
X348940Y179503D01*
X348903Y179522D01*
X347954Y179815D01*
X347911Y179896D01*
X347866Y179951D01*
X347828Y180011D01*
X347802Y180030D01*
X347784Y180052D01*
X347739Y180076D01*
X347683Y180116D01*
X346151Y180854D01*
X346082Y180872D01*
X346016Y180897D01*
X345984Y180897D01*
X345956Y180904D01*
X345905Y180896D01*
X345836Y180896D01*
X345746Y180878D01*
X344925Y181438D01*
X344893Y181452D01*
X344859Y181476D01*
X343964Y181907D01*
X343933Y181994D01*
X343898Y182055D01*
X343869Y182119D01*
X343846Y182142D01*
X343831Y182166D01*
X343790Y182197D01*
X343740Y182246D01*
X342335Y183204D01*
X342271Y183231D01*
X342209Y183266D01*
X342177Y183271D01*
X342151Y183281D01*
X342099Y183282D01*
X342031Y183291D01*
X341939Y183288D01*
X341211Y183964D01*
X341181Y183982D01*
X341151Y184011D01*
X340330Y184571D01*
X340313Y184661D01*
X340287Y184727D01*
X340268Y184795D01*
X340248Y184821D01*
X340238Y184847D01*
X340201Y184883D01*
X340160Y184939D01*
X338913Y186095D01*
X338853Y186132D01*
X338798Y186176D01*
X338766Y186185D01*
X338742Y186200D01*
X338691Y186208D01*
X338625Y186227D01*
X338534Y186238D01*
X337914Y187015D01*
X337887Y187037D01*
X337862Y187070D01*
X337134Y187746D01*
X337131Y187838D01*
X337114Y187907D01*
X337106Y187977D01*
X337090Y188006D01*
X337084Y188033D01*
X337053Y188074D01*
X337020Y188135D01*
X335960Y189465D01*
X335911Y189506D01*
X335901Y189521D01*
X335890Y189527D01*
X335858Y189562D01*
X335828Y189576D01*
X335807Y189594D01*
X335760Y189608D01*
X335730Y189626D01*
X335714Y189629D01*
X335695Y189638D01*
X335606Y189662D01*
X335109Y190523D01*
X335086Y190549D01*
X335067Y190585D01*
X334447Y191362D01*
X334457Y191454D01*
X334451Y191524D01*
X334453Y191595D01*
X334442Y191625D01*
X334440Y191653D01*
X334416Y191699D01*
X334392Y191764D01*
X333542Y193237D01*
X333496Y193290D01*
X333456Y193348D01*
X333428Y193366D01*
X333410Y193387D01*
X333363Y193410D01*
X333306Y193448D01*
X333221Y193485D01*
X332858Y194410D01*
X332852Y194419D01*
X332850Y194430D01*
X332836Y194450D01*
X332825Y194478D01*
X332329Y195339D01*
X332353Y195427D01*
X332357Y195498D01*
X332370Y195567D01*
X332363Y195599D01*
X332365Y195627D01*
X332348Y195676D01*
X332335Y195744D01*
X331714Y197327D01*
X331675Y197386D01*
X331644Y197450D01*
X331620Y197472D01*
X331605Y197495D01*
X331562Y197525D01*
X331511Y197571D01*
X331433Y197620D01*
X331212Y198589D01*
X331198Y198620D01*
X331190Y198661D01*
X330827Y199586D01*
X330864Y199670D01*
X330879Y199739D01*
X330901Y199806D01*
X330900Y199839D01*
X330906Y199866D01*
X330896Y199917D01*
X330893Y199986D01*
X330515Y201644D01*
X330486Y201708D01*
X330465Y201776D01*
X330444Y201801D01*
X330433Y201827D01*
X330395Y201862D01*
X330351Y201916D01*
X330281Y201976D01*
X330207Y202966D01*
X330198Y203000D01*
X330196Y203041D01*
X329966Y204048D01*
X329946Y204093D01*
X329935Y204141D01*
X329905Y204183D01*
X329884Y204231D01*
X329848Y204264D01*
X329819Y204304D01*
X329775Y204332D01*
X329737Y204367D01*
X329691Y204384D01*
X329649Y204410D01*
X329592Y204421D01*
X329549Y204436D01*
X329514Y204435D01*
X329472Y204442D01*
X291160Y204442D01*
X291415Y207441D01*
X291412Y207470D01*
X291417Y207500D01*
X291401Y207568D01*
X291393Y207638D01*
X291378Y207664D01*
X291371Y207693D01*
X291329Y207750D01*
X291294Y207811D01*
X291271Y207829D01*
X291253Y207853D01*
X291193Y207889D01*
X291136Y207932D01*
X291108Y207939D01*
X291082Y207955D01*
X290986Y207971D01*
X290944Y207982D01*
X290932Y207980D01*
X290918Y207982D01*
X272207Y207982D01*
X262851Y224232D01*
X262831Y224254D01*
X262819Y224281D01*
X262779Y224317D01*
X262757Y224346D01*
X262743Y224354D01*
X262719Y224381D01*
X262693Y224394D01*
X262671Y224414D01*
X262604Y224436D01*
X262586Y224447D01*
X262579Y224448D01*
X262540Y224467D01*
X262510Y224469D01*
X262483Y224478D01*
X262426Y224474D01*
X262422Y224475D01*
X262407Y224475D01*
X262401Y224474D01*
X262341Y224476D01*
X262313Y224466D01*
X262284Y224464D01*
X262231Y224439D01*
X262212Y224435D01*
X262191Y224421D01*
X262155Y224407D01*
X262146Y224399D01*
X262134Y224393D01*
X259642Y222666D01*
X240540Y255754D01*
X240507Y255792D01*
X240483Y255835D01*
X240442Y255866D01*
X240408Y255905D01*
X240363Y255926D01*
X240324Y255956D01*
X240274Y255970D01*
X240227Y255992D01*
X240178Y255995D01*
X240130Y256007D01*
X240073Y256000D01*
X240027Y256003D01*
X239993Y255991D01*
X239951Y255985D01*
X238939Y255673D01*
X238909Y255656D01*
X238869Y255645D01*
X237974Y255213D01*
X237887Y255244D01*
X237817Y255253D01*
X237749Y255271D01*
X237716Y255267D01*
X237688Y255271D01*
X237638Y255258D01*
X237570Y255249D01*
X235949Y254748D01*
X235887Y254715D01*
X235822Y254688D01*
X235798Y254666D01*
X235773Y254653D01*
X235741Y254612D01*
X235691Y254565D01*
X235636Y254491D01*
X234654Y254342D01*
X234621Y254330D01*
X234580Y254325D01*
X233630Y254032D01*
X233549Y254075D01*
X233481Y254094D01*
X233416Y254122D01*
X233384Y254123D01*
X233357Y254131D01*
X233306Y254126D01*
X233236Y254127D01*
X231559Y253874D01*
X231493Y253850D01*
X231424Y253833D01*
X231397Y253815D01*
X231371Y253805D01*
X231333Y253770D01*
X231276Y253731D01*
X231211Y253665D01*
X230218Y253665D01*
X230183Y253658D01*
X230142Y253659D01*
X229160Y253510D01*
X229086Y253565D01*
X229022Y253595D01*
X228962Y253632D01*
X228929Y253638D01*
X228904Y253650D01*
X228852Y253652D01*
X228784Y253664D01*
X227088Y253663D01*
X227019Y253649D01*
X226948Y253643D01*
X226919Y253629D01*
X226892Y253623D01*
X226849Y253594D01*
X226787Y253564D01*
X226713Y253509D01*
X225730Y253656D01*
X225696Y253655D01*
X225655Y253662D01*
X224661Y253662D01*
X224596Y253727D01*
X224537Y253766D01*
X224483Y253811D01*
X224452Y253822D01*
X224429Y253837D01*
X224378Y253847D01*
X224313Y253869D01*
X222635Y254121D01*
X222565Y254118D01*
X222494Y254122D01*
X222463Y254112D01*
X222435Y254111D01*
X222389Y254089D01*
X222323Y254068D01*
X222241Y254025D01*
X221292Y254317D01*
X221257Y254321D01*
X221218Y254334D01*
X220235Y254481D01*
X220181Y254555D01*
X220128Y254603D01*
X220082Y254656D01*
X220053Y254671D01*
X220032Y254690D01*
X219983Y254707D01*
X219922Y254739D01*
X218301Y255238D01*
X218230Y255245D01*
X218161Y255260D01*
X218129Y255255D01*
X218101Y255258D01*
X218052Y255242D01*
X217984Y255232D01*
X217897Y255201D01*
X217001Y255632D01*
X216968Y255640D01*
X216931Y255659D01*
X215981Y255952D01*
X215938Y256033D01*
X215893Y256088D01*
X215855Y256147D01*
X215829Y256166D01*
X215811Y256188D01*
X215766Y256212D01*
X215709Y256253D01*
X214181Y256988D01*
X214112Y257005D01*
X214047Y257031D01*
X214014Y257030D01*
X213987Y257037D01*
X213936Y257030D01*
X213866Y257029D01*
X213776Y257012D01*
X212955Y257571D01*
X212923Y257585D01*
X212889Y257609D01*
X211994Y258040D01*
X211963Y258126D01*
X211927Y258187D01*
X211898Y258252D01*
X211875Y258275D01*
X211861Y258299D01*
X211819Y258329D01*
X211770Y258378D01*
X210368Y259333D01*
X210303Y259360D01*
X210241Y259395D01*
X210209Y259399D01*
X210183Y259410D01*
X210132Y259410D01*
X210063Y259420D01*
X209971Y259417D01*
X209242Y260092D01*
X209213Y260110D01*
X209183Y260139D01*
X208362Y260698D01*
X208345Y260789D01*
X208321Y260847D01*
X208314Y260879D01*
X208309Y260886D01*
X208299Y260922D01*
X208280Y260949D01*
X208269Y260975D01*
X208233Y261011D01*
X208191Y261066D01*
X206947Y262219D01*
X206887Y262256D01*
X206831Y262300D01*
X206800Y262309D01*
X206776Y262324D01*
X206725Y262332D01*
X206659Y262351D01*
X206567Y262362D01*
X205947Y263138D01*
X205920Y263161D01*
X205895Y263194D01*
X205167Y263869D01*
X205163Y263961D01*
X205147Y264029D01*
X205138Y264100D01*
X205123Y264129D01*
X205116Y264156D01*
X205086Y264197D01*
X205053Y264258D01*
X203994Y265584D01*
X203973Y265602D01*
X203968Y265608D01*
X203956Y265616D01*
X203940Y265629D01*
X203892Y265681D01*
X203862Y265695D01*
X203841Y265713D01*
X203792Y265728D01*
X203729Y265757D01*
X203640Y265781D01*
X203143Y266641D01*
X203120Y266667D01*
X203100Y266704D01*
X202480Y267480D01*
X202490Y267572D01*
X202484Y267642D01*
X202486Y267713D01*
X202475Y267743D01*
X202473Y267771D01*
X202449Y267817D01*
X202425Y267882D01*
X201576Y269351D01*
X201530Y269404D01*
X201490Y269462D01*
X201462Y269480D01*
X201444Y269501D01*
X201397Y269523D01*
X201340Y269562D01*
X201255Y269598D01*
X200892Y270523D01*
X200873Y270552D01*
X200859Y270591D01*
X200362Y271452D01*
X200385Y271540D01*
X200390Y271611D01*
X200403Y271680D01*
X200396Y271713D01*
X200398Y271741D01*
X200381Y271789D01*
X200367Y271857D01*
X199747Y273436D01*
X199708Y273495D01*
X199677Y273558D01*
X199653Y273580D01*
X199638Y273604D01*
X199595Y273633D01*
X199544Y273680D01*
X199466Y273729D01*
X199245Y274697D01*
X199230Y274729D01*
X199222Y274770D01*
X198859Y275694D01*
X198895Y275779D01*
X198910Y275848D01*
X198933Y275914D01*
X198932Y275947D01*
X198938Y275975D01*
X198928Y276025D01*
X198925Y276094D01*
X198546Y277748D01*
X198517Y277812D01*
X198496Y277880D01*
X198475Y277905D01*
X198464Y277931D01*
X198426Y277966D01*
X198383Y278019D01*
X198313Y278079D01*
X198238Y279070D01*
X198229Y279104D01*
X198227Y279145D01*
X198005Y280114D01*
X198054Y280192D01*
X198070Y280235D01*
X198093Y280269D01*
X198097Y280292D01*
X198111Y280320D01*
X198115Y280353D01*
X198125Y280379D01*
X198123Y280431D01*
X198124Y280446D01*
X198128Y280467D01*
X198127Y280471D01*
X198130Y280500D01*
X198002Y282191D01*
X197983Y282259D01*
X197972Y282329D01*
X197956Y282357D01*
X197948Y282384D01*
X197916Y282424D01*
X197881Y282484D01*
X197821Y282554D01*
X197894Y283544D01*
X197890Y283579D01*
X197894Y283620D01*
X197819Y284611D01*
X197879Y284681D01*
X197914Y284742D01*
X197955Y284799D01*
X197963Y284828D01*
X197967Y284835D01*
X197968Y284838D01*
X197977Y284856D01*
X197983Y284907D01*
X198000Y284974D01*
X198126Y286665D01*
X198117Y286735D01*
X198117Y286806D01*
X198105Y286836D01*
X198101Y286864D01*
X198076Y286909D01*
X198050Y286973D01*
X198001Y287051D01*
X198221Y288020D01*
X198222Y288055D01*
X198232Y288095D01*
X198306Y289086D01*
X198376Y289146D01*
X198419Y289201D01*
X198469Y289252D01*
X198482Y289282D01*
X198499Y289304D01*
X198512Y289354D01*
X198539Y289417D01*
X198916Y291071D01*
X198918Y291142D01*
X198928Y291212D01*
X198920Y291244D01*
X198921Y291272D01*
X198902Y291320D01*
X198886Y291387D01*
X198849Y291471D01*
X199212Y292396D01*
X199218Y292431D01*
X199234Y292469D01*
X199460Y293462D01*
X199480Y293477D01*
X199496Y293503D01*
X199518Y293525D01*
X199546Y293589D01*
X199582Y293650D01*
X199586Y293680D01*
X199598Y293708D01*
X199599Y293779D01*
X199609Y293848D01*
X199601Y293878D01*
X199601Y293909D01*
X199575Y293974D01*
X199556Y294042D01*
X199537Y294068D01*
X199526Y294094D01*
X199490Y294131D01*
X199449Y294186D01*
X148925Y341380D01*
X148843Y341431D01*
X148760Y341483D01*
X148757Y341484D01*
X148754Y341485D01*
X148659Y341500D01*
X148563Y341517D01*
X148559Y341516D01*
X148556Y341516D01*
X148462Y341493D01*
X148368Y341471D01*
X148365Y341469D01*
X148361Y341468D01*
X148333Y341447D01*
X148220Y341368D01*
X145456Y338604D01*
X144584Y338243D01*
X143360Y337736D01*
X143359Y337736D01*
X142135Y337229D01*
X141721Y337057D01*
X122439Y337057D01*
X118704Y338604D01*
X115846Y341462D01*
X114299Y345197D01*
X114299Y349239D01*
X115846Y352974D01*
X118704Y355832D01*
X119294Y356076D01*
X120519Y356583D01*
X121743Y357091D01*
X122439Y357379D01*
X141721Y357379D01*
X145456Y355832D01*
X148314Y352974D01*
X148464Y352612D01*
X148467Y352606D01*
X148469Y352600D01*
X148523Y352523D01*
X148575Y352445D01*
X148581Y352442D01*
X148585Y352437D01*
X148665Y352387D01*
X148743Y352335D01*
X148749Y352334D01*
X148755Y352331D01*
X148932Y352299D01*
X150023Y352299D01*
X150031Y352300D01*
X150040Y352299D01*
X152084Y352369D01*
X152145Y352331D01*
X152146Y352330D01*
X152158Y352328D01*
X152201Y352321D01*
X153644Y350878D01*
X153650Y350873D01*
X153656Y350866D01*
X204512Y303362D01*
X204587Y303316D01*
X204659Y303266D01*
X204672Y303263D01*
X204683Y303257D01*
X204769Y303243D01*
X204855Y303225D01*
X204868Y303228D01*
X204881Y303226D01*
X204966Y303247D01*
X205052Y303264D01*
X205063Y303271D01*
X205075Y303274D01*
X205120Y303307D01*
X205204Y303361D01*
X205871Y303981D01*
X205891Y304009D01*
X205922Y304036D01*
X206541Y304814D01*
X206633Y304824D01*
X206700Y304846D01*
X206769Y304859D01*
X206797Y304877D01*
X206824Y304885D01*
X206863Y304919D01*
X206921Y304956D01*
X208164Y306111D01*
X208205Y306168D01*
X208253Y306220D01*
X208264Y306251D01*
X208281Y306274D01*
X208292Y306324D01*
X208317Y306388D01*
X208334Y306479D01*
X209155Y307039D01*
X209179Y307064D01*
X209214Y307086D01*
X210019Y307835D01*
X210048Y307875D01*
X210084Y307908D01*
X210106Y307955D01*
X210136Y307997D01*
X210147Y308045D01*
X210168Y308090D01*
X210170Y308142D01*
X210181Y308193D01*
X210173Y308241D01*
X210174Y308290D01*
X210155Y308345D01*
X210147Y308390D01*
X210128Y308420D01*
X210113Y308460D01*
X190927Y341694D01*
X193631Y342966D01*
X193654Y342984D01*
X193681Y342994D01*
X193733Y343043D01*
X193790Y343085D01*
X193805Y343110D01*
X193826Y343130D01*
X193855Y343195D01*
X193890Y343257D01*
X193894Y343286D01*
X193906Y343312D01*
X193907Y343383D01*
X193916Y343454D01*
X193908Y343482D01*
X193909Y343511D01*
X193874Y343604D01*
X193862Y343645D01*
X193855Y343654D01*
X193851Y343667D01*
X184494Y359918D01*
X193851Y376169D01*
X193860Y376197D01*
X193877Y376221D01*
X193891Y376290D01*
X193914Y376358D01*
X193911Y376387D01*
X193917Y376415D01*
X193903Y376485D01*
X193898Y376556D01*
X193884Y376582D01*
X193879Y376610D01*
X193839Y376669D01*
X193806Y376732D01*
X193784Y376751D01*
X193767Y376775D01*
X193685Y376832D01*
X193653Y376859D01*
X193642Y376862D01*
X193631Y376870D01*
X190927Y378142D01*
X210038Y411246D01*
X210054Y411292D01*
X210079Y411335D01*
X210086Y411387D01*
X210102Y411436D01*
X210099Y411485D01*
X210105Y411534D01*
X210091Y411584D01*
X210088Y411636D01*
X210065Y411680D01*
X210052Y411727D01*
X210017Y411774D01*
X209997Y411814D01*
X209970Y411837D01*
X209944Y411871D01*
X209214Y412550D01*
X209184Y412568D01*
X209155Y412597D01*
X208334Y413157D01*
X208317Y413248D01*
X208290Y413313D01*
X208272Y413381D01*
X208252Y413407D01*
X208242Y413433D01*
X208205Y413470D01*
X208164Y413525D01*
X206921Y414680D01*
X206861Y414717D01*
X206805Y414760D01*
X206774Y414770D01*
X206750Y414784D01*
X206699Y414792D01*
X206633Y414812D01*
X206541Y414822D01*
X205922Y415600D01*
X205896Y415622D01*
X205871Y415655D01*
X205143Y416332D01*
X205140Y416423D01*
X205123Y416492D01*
X205115Y416562D01*
X205100Y416590D01*
X205096Y416605D01*
X205096Y416606D01*
X205093Y416618D01*
X205062Y416660D01*
X205029Y416721D01*
X205003Y416754D01*
X204987Y416767D01*
X204977Y416785D01*
X204911Y416831D01*
X204849Y416883D01*
X204830Y416889D01*
X204813Y416901D01*
X204735Y416919D01*
X204658Y416943D01*
X204638Y416941D01*
X204618Y416945D01*
X204539Y416931D01*
X204459Y416923D01*
X204441Y416914D01*
X204421Y416910D01*
X204328Y416853D01*
X204282Y416828D01*
X204276Y416821D01*
X204267Y416816D01*
X179224Y394338D01*
X179216Y394327D01*
X179204Y394319D01*
X177814Y392928D01*
X177766Y392919D01*
X177673Y392902D01*
X177667Y392899D01*
X177662Y392898D01*
X177624Y392872D01*
X177557Y392831D01*
X175595Y392937D01*
X175582Y392935D01*
X175567Y392937D01*
X148932Y392937D01*
X148926Y392936D01*
X148919Y392937D01*
X148828Y392916D01*
X148736Y392898D01*
X148730Y392894D01*
X148724Y392893D01*
X148647Y392838D01*
X148570Y392785D01*
X148566Y392780D01*
X148561Y392776D01*
X148464Y392624D01*
X148314Y392262D01*
X145456Y389404D01*
X144403Y388968D01*
X143178Y388461D01*
X141954Y387954D01*
X141721Y387857D01*
X122439Y387857D01*
X118704Y389404D01*
X115846Y392262D01*
X114299Y395997D01*
X114299Y400039D01*
X115846Y403774D01*
X118704Y406632D01*
X119113Y406801D01*
X120337Y407308D01*
X120338Y407308D01*
X121562Y407816D01*
X122439Y408179D01*
X141721Y408179D01*
X145456Y406632D01*
X148314Y403774D01*
X148464Y403412D01*
X148467Y403406D01*
X148469Y403400D01*
X148523Y403323D01*
X148575Y403245D01*
X148581Y403242D01*
X148585Y403237D01*
X148665Y403187D01*
X148743Y403135D01*
X148749Y403134D01*
X148755Y403131D01*
X148932Y403099D01*
X173578Y403099D01*
X173670Y403117D01*
X173764Y403134D01*
X173769Y403137D01*
X173775Y403138D01*
X173812Y403164D01*
X173917Y403228D01*
X199241Y425959D01*
X199288Y426021D01*
X199340Y426080D01*
X199348Y426101D01*
X199361Y426120D01*
X199380Y426195D01*
X199405Y426269D01*
X199404Y426294D01*
X199409Y426314D01*
X199401Y426369D01*
X199397Y426449D01*
X199234Y427167D01*
X199220Y427199D01*
X199212Y427240D01*
X198849Y428165D01*
X198886Y428249D01*
X198901Y428318D01*
X198924Y428385D01*
X198922Y428417D01*
X198928Y428445D01*
X198919Y428495D01*
X198916Y428565D01*
X198539Y430219D01*
X198519Y430263D01*
X198511Y430301D01*
X198500Y430316D01*
X198489Y430350D01*
X198469Y430376D01*
X198457Y430401D01*
X198419Y430436D01*
X198376Y430490D01*
X198306Y430550D01*
X198232Y431541D01*
X198223Y431575D01*
X198221Y431616D01*
X198001Y432585D01*
X198050Y432663D01*
X198075Y432729D01*
X198107Y432791D01*
X198111Y432824D01*
X198121Y432850D01*
X198119Y432902D01*
X198126Y432971D01*
X198000Y434662D01*
X197981Y434730D01*
X197971Y434800D01*
X197954Y434828D01*
X197946Y434855D01*
X197914Y434896D01*
X197879Y434955D01*
X197819Y435025D01*
X197894Y436016D01*
X197890Y436050D01*
X197894Y436092D01*
X197821Y437082D01*
X197881Y437152D01*
X197915Y437214D01*
X197957Y437271D01*
X197965Y437302D01*
X197979Y437327D01*
X197985Y437378D01*
X198002Y437445D01*
X198130Y439136D01*
X198121Y439207D01*
X198121Y439277D01*
X198109Y439308D01*
X198105Y439335D01*
X198080Y439380D01*
X198054Y439444D01*
X198005Y439522D01*
X198227Y440491D01*
X198228Y440526D01*
X198238Y440566D01*
X198313Y441557D01*
X198383Y441617D01*
X198426Y441672D01*
X198476Y441722D01*
X198489Y441753D01*
X198506Y441775D01*
X198519Y441824D01*
X198546Y441888D01*
X198925Y443542D01*
X198927Y443612D01*
X198937Y443682D01*
X198929Y443714D01*
X198930Y443742D01*
X198911Y443790D01*
X198895Y443857D01*
X198859Y443942D01*
X198925Y444111D01*
X199222Y444866D01*
X199228Y444900D01*
X199245Y444939D01*
X199466Y445907D01*
X199544Y445956D01*
X199595Y446005D01*
X199652Y446047D01*
X199669Y446075D01*
X199690Y446094D01*
X199710Y446142D01*
X199747Y446200D01*
X200122Y447154D01*
X200122Y447155D01*
X200321Y447662D01*
X200367Y447779D01*
X200380Y447848D01*
X200400Y447916D01*
X200398Y447949D01*
X200402Y447976D01*
X200391Y448027D01*
X200385Y448096D01*
X200362Y448184D01*
X200859Y449045D01*
X200870Y449078D01*
X200892Y449113D01*
X201255Y450038D01*
X201340Y450074D01*
X201398Y450115D01*
X201460Y450148D01*
X201481Y450173D01*
X201504Y450189D01*
X201532Y450233D01*
X201576Y450285D01*
X202425Y451754D01*
X202448Y451821D01*
X202478Y451885D01*
X202480Y451917D01*
X202489Y451944D01*
X202486Y451995D01*
X202490Y452064D01*
X202480Y452156D01*
X203100Y452932D01*
X203116Y452963D01*
X203143Y452995D01*
X203640Y453855D01*
X203729Y453879D01*
X203792Y453910D01*
X203859Y453934D01*
X203883Y453955D01*
X203909Y453968D01*
X203942Y454007D01*
X203994Y454052D01*
X205053Y455378D01*
X205085Y455441D01*
X205125Y455499D01*
X205132Y455531D01*
X205144Y455556D01*
X205148Y455608D01*
X205163Y455675D01*
X205167Y455767D01*
X205895Y456442D01*
X205916Y456470D01*
X205947Y456498D01*
X206567Y457274D01*
X206659Y457285D01*
X206726Y457306D01*
X206795Y457320D01*
X206823Y457337D01*
X206849Y457346D01*
X206889Y457380D01*
X206947Y457417D01*
X208191Y458570D01*
X208232Y458627D01*
X208280Y458679D01*
X208292Y458709D01*
X208308Y458732D01*
X208320Y458783D01*
X208345Y458847D01*
X208362Y458938D01*
X209183Y459497D01*
X209207Y459522D01*
X209242Y459544D01*
X209971Y460219D01*
X210063Y460216D01*
X210133Y460227D01*
X210203Y460230D01*
X210233Y460243D01*
X210261Y460248D01*
X210305Y460275D01*
X210368Y460303D01*
X211770Y461258D01*
X211819Y461309D01*
X211874Y461353D01*
X211890Y461381D01*
X211910Y461402D01*
X211929Y461449D01*
X211963Y461510D01*
X211994Y461596D01*
X212889Y462027D01*
X212917Y462048D01*
X212955Y462065D01*
X213776Y462624D01*
X213866Y462607D01*
X213937Y462608D01*
X214007Y462600D01*
X214039Y462609D01*
X214067Y462609D01*
X214114Y462630D01*
X214181Y462648D01*
X215709Y463383D01*
X215766Y463426D01*
X215827Y463461D01*
X215847Y463487D01*
X215869Y463504D01*
X215895Y463549D01*
X215938Y463603D01*
X215981Y463684D01*
X216931Y463977D01*
X216961Y463993D01*
X217001Y464004D01*
X217897Y464435D01*
X217984Y464404D01*
X218054Y464395D01*
X218122Y464377D01*
X218154Y464381D01*
X218182Y464377D01*
X218232Y464390D01*
X218301Y464398D01*
X219922Y464897D01*
X219984Y464931D01*
X220049Y464957D01*
X220073Y464980D01*
X220098Y464993D01*
X220130Y465033D01*
X220181Y465081D01*
X220235Y465155D01*
X221218Y465302D01*
X221250Y465314D01*
X221292Y465319D01*
X222241Y465611D01*
X222323Y465568D01*
X222390Y465548D01*
X222455Y465520D01*
X222488Y465519D01*
X222515Y465511D01*
X222566Y465517D01*
X222635Y465515D01*
X224313Y465767D01*
X224379Y465791D01*
X224448Y465807D01*
X224475Y465826D01*
X224501Y465835D01*
X224539Y465870D01*
X224596Y465909D01*
X224661Y465974D01*
X225655Y465974D01*
X225689Y465981D01*
X225730Y465979D01*
X226713Y466127D01*
X226787Y466072D01*
X226851Y466042D01*
X226911Y466005D01*
X226943Y465999D01*
X226968Y465987D01*
X227020Y465985D01*
X227088Y465973D01*
X228784Y465972D01*
X228853Y465986D01*
X228924Y465991D01*
X228953Y466006D01*
X228981Y466011D01*
X229023Y466040D01*
X229086Y466071D01*
X229160Y466126D01*
X230142Y465977D01*
X230177Y465979D01*
X230218Y465971D01*
X231211Y465971D01*
X231276Y465905D01*
X231335Y465866D01*
X231389Y465820D01*
X231420Y465810D01*
X231443Y465794D01*
X231494Y465785D01*
X231559Y465762D01*
X233236Y465509D01*
X233307Y465512D01*
X233377Y465507D01*
X233409Y465517D01*
X233437Y465518D01*
X233483Y465541D01*
X233549Y465561D01*
X233630Y465604D01*
X234580Y465311D01*
X234614Y465307D01*
X234654Y465294D01*
X235636Y465145D01*
X235691Y465071D01*
X235743Y465024D01*
X235789Y464971D01*
X235818Y464955D01*
X235839Y464937D01*
X235888Y464919D01*
X235949Y464888D01*
X237570Y464387D01*
X237640Y464380D01*
X237709Y464364D01*
X237741Y464369D01*
X237769Y464366D01*
X237819Y464382D01*
X237887Y464392D01*
X237974Y464423D01*
X238869Y463991D01*
X238902Y463982D01*
X238939Y463963D01*
X239853Y463681D01*
X239902Y463676D01*
X239949Y463661D01*
X240001Y463666D01*
X240052Y463661D01*
X240100Y463675D01*
X240149Y463680D01*
X240195Y463704D01*
X240244Y463719D01*
X240282Y463751D01*
X240326Y463774D01*
X240363Y463818D01*
X240398Y463848D01*
X240415Y463879D01*
X240442Y463912D01*
X259642Y497170D01*
X262134Y495443D01*
X262161Y495431D01*
X262183Y495412D01*
X262251Y495392D01*
X262316Y495364D01*
X262346Y495364D01*
X262374Y495356D01*
X262444Y495364D01*
X262515Y495363D01*
X262542Y495375D01*
X262572Y495378D01*
X262633Y495413D01*
X262699Y495440D01*
X262719Y495461D01*
X262745Y495476D01*
X262807Y495551D01*
X262838Y495582D01*
X262842Y495593D01*
X262851Y495604D01*
X272207Y511854D01*
X290918Y511854D01*
X290947Y511860D01*
X290977Y511857D01*
X291044Y511879D01*
X291113Y511893D01*
X291137Y511910D01*
X291166Y511920D01*
X291219Y511966D01*
X291277Y512006D01*
X291293Y512031D01*
X291315Y512051D01*
X291346Y512114D01*
X291384Y512173D01*
X291389Y512203D01*
X291402Y512230D01*
X291410Y512327D01*
X291417Y512370D01*
X291414Y512381D01*
X291415Y512395D01*
X291160Y515394D01*
X329472Y515394D01*
X329520Y515403D01*
X329569Y515403D01*
X329617Y515423D01*
X329668Y515433D01*
X329709Y515461D01*
X329755Y515480D01*
X329791Y515517D01*
X329834Y515546D01*
X329861Y515587D01*
X329896Y515622D01*
X329918Y515676D01*
X329943Y515714D01*
X329950Y515749D01*
X329966Y515788D01*
X330196Y516795D01*
X330197Y516829D01*
X330207Y516870D01*
X330281Y517860D01*
X330351Y517920D01*
X330395Y517976D01*
X330444Y518026D01*
X330457Y518056D01*
X330474Y518079D01*
X330488Y518128D01*
X330515Y518192D01*
X330893Y519850D01*
X330895Y519920D01*
X330905Y519990D01*
X330898Y520022D01*
X330898Y520050D01*
X330880Y520098D01*
X330864Y520166D01*
X330827Y520250D01*
X331190Y521175D01*
X331196Y521209D01*
X331196Y521210D01*
X331198Y521213D01*
X331199Y521216D01*
X331212Y521247D01*
X331433Y522216D01*
X331511Y522265D01*
X331562Y522313D01*
X331619Y522356D01*
X331636Y522384D01*
X331657Y522403D01*
X331677Y522450D01*
X331714Y522509D01*
X332335Y524092D01*
X332347Y524162D01*
X332368Y524229D01*
X332365Y524262D01*
X332370Y524289D01*
X332358Y524340D01*
X332353Y524409D01*
X332329Y524497D01*
X332825Y525358D01*
X332837Y525391D01*
X332858Y525426D01*
X333221Y526351D01*
X333306Y526388D01*
X333364Y526428D01*
X333426Y526462D01*
X333447Y526487D01*
X333470Y526503D01*
X333498Y526547D01*
X333542Y526599D01*
X334392Y528072D01*
X334415Y528139D01*
X334445Y528203D01*
X334447Y528235D01*
X334456Y528262D01*
X334453Y528313D01*
X334457Y528382D01*
X334447Y528474D01*
X335067Y529251D01*
X335082Y529282D01*
X335109Y529313D01*
X335606Y530174D01*
X335695Y530198D01*
X335758Y530229D01*
X335825Y530253D01*
X335849Y530274D01*
X335874Y530287D01*
X335908Y530326D01*
X335960Y530371D01*
X337020Y531701D01*
X337053Y531764D01*
X337092Y531822D01*
X337099Y531854D01*
X337112Y531879D01*
X337116Y531930D01*
X337131Y531998D01*
X337134Y532090D01*
X337862Y532766D01*
X337883Y532794D01*
X337914Y532821D01*
X338534Y533598D01*
X338625Y533609D01*
X338692Y533630D01*
X338762Y533644D01*
X338789Y533661D01*
X338816Y533670D01*
X338855Y533703D01*
X338913Y533741D01*
X339670Y534443D01*
X339724Y534519D01*
X339787Y534605D01*
X339787Y534606D01*
X339809Y534703D01*
X339832Y534800D01*
X339832Y534801D01*
X339815Y534901D01*
X339798Y534997D01*
X339798Y534998D01*
X339793Y535005D01*
X339704Y535151D01*
X331272Y544659D01*
X331253Y544673D01*
X331240Y544691D01*
X331174Y544733D01*
X331112Y544779D01*
X331089Y544785D01*
X331069Y544797D01*
X330971Y544815D01*
X330917Y544829D01*
X330905Y544827D01*
X330892Y544829D01*
X258855Y544829D01*
X258847Y544828D01*
X258839Y544829D01*
X258749Y544808D01*
X258658Y544790D01*
X258652Y544785D01*
X258644Y544783D01*
X258496Y544681D01*
X157553Y443737D01*
X148932Y443737D01*
X148926Y443736D01*
X148919Y443737D01*
X148828Y443716D01*
X148736Y443698D01*
X148730Y443694D01*
X148724Y443693D01*
X148647Y443638D01*
X148570Y443585D01*
X148566Y443580D01*
X148561Y443576D01*
X148464Y443424D01*
X148314Y443062D01*
X145456Y440204D01*
X145447Y440200D01*
X145446Y440200D01*
X144222Y439693D01*
X142997Y439186D01*
X141773Y438679D01*
X141721Y438657D01*
X122439Y438657D01*
X118704Y440204D01*
X115846Y443062D01*
X114299Y446797D01*
X114299Y450839D01*
X115846Y454574D01*
X118704Y457432D01*
X118932Y457526D01*
X120156Y458033D01*
X120157Y458033D01*
X121381Y458541D01*
X122439Y458979D01*
X141721Y458979D01*
X145456Y457432D01*
X148314Y454574D01*
X148464Y454212D01*
X148467Y454206D01*
X148469Y454200D01*
X148523Y454123D01*
X148575Y454045D01*
X148581Y454042D01*
X148585Y454037D01*
X148665Y453987D01*
X148743Y453935D01*
X148749Y453934D01*
X148755Y453931D01*
X148932Y453899D01*
X153133Y453899D01*
X153141Y453900D01*
X153149Y453899D01*
X153239Y453920D01*
X153330Y453938D01*
X153336Y453943D01*
X153344Y453945D01*
X153492Y454047D01*
X254435Y554991D01*
X334831Y554991D01*
X337807Y552015D01*
X337807Y551266D01*
X337825Y551174D01*
X337841Y551083D01*
X337845Y551076D01*
X337846Y551069D01*
X337874Y551028D01*
X337935Y550929D01*
X347467Y540182D01*
X347545Y540123D01*
X347623Y540063D01*
X347625Y540063D01*
X347627Y540061D01*
X347721Y540037D01*
X347817Y540012D01*
X347819Y540012D01*
X347821Y540012D01*
X347846Y540016D01*
X347996Y540034D01*
X348903Y540314D01*
X348934Y540330D01*
X348974Y540342D01*
X349869Y540773D01*
X349956Y540742D01*
X350026Y540733D01*
X350094Y540715D01*
X350127Y540719D01*
X350155Y540715D01*
X350205Y540728D01*
X350273Y540736D01*
X351898Y541238D01*
X351960Y541271D01*
X352026Y541297D01*
X352050Y541320D01*
X352074Y541333D01*
X352106Y541374D01*
X352157Y541421D01*
X352211Y541495D01*
X353194Y541643D01*
X353226Y541655D01*
X353268Y541660D01*
X354217Y541953D01*
X354299Y541910D01*
X354366Y541890D01*
X354431Y541862D01*
X354464Y541861D01*
X354491Y541853D01*
X354542Y541859D01*
X354611Y541857D01*
X356293Y542110D01*
X356359Y542134D01*
X356428Y542150D01*
X356455Y542169D01*
X356481Y542179D01*
X356519Y542214D01*
X356576Y542253D01*
X356641Y542318D01*
X357634Y542318D01*
X357668Y542325D01*
X357710Y542324D01*
X358693Y542472D01*
X358767Y542417D01*
X358831Y542387D01*
X358890Y542350D01*
X358923Y542344D01*
X358948Y542333D01*
X359000Y542331D01*
X359068Y542318D01*
X360768Y542318D01*
X360838Y542332D01*
X360908Y542338D01*
X360937Y542352D01*
X360965Y542358D01*
X361007Y542387D01*
X361069Y542417D01*
X361143Y542472D01*
X362126Y542324D01*
X362161Y542326D01*
X362202Y542318D01*
X363195Y542318D01*
X363260Y542253D01*
X363319Y542214D01*
X363373Y542168D01*
X363404Y542158D01*
X363427Y542142D01*
X363478Y542133D01*
X363543Y542110D01*
X365225Y541857D01*
X365295Y541860D01*
X365366Y541855D01*
X365397Y541865D01*
X365425Y541867D01*
X365472Y541889D01*
X365537Y541910D01*
X365619Y541953D01*
X366568Y541660D01*
X366603Y541657D01*
X366642Y541643D01*
X367625Y541495D01*
X367679Y541421D01*
X367732Y541374D01*
X367778Y541320D01*
X367807Y541305D01*
X367828Y541287D01*
X367877Y541269D01*
X367938Y541238D01*
X369563Y540736D01*
X369633Y540729D01*
X369702Y540714D01*
X369734Y540719D01*
X369762Y540716D01*
X369812Y540731D01*
X369880Y540742D01*
X369967Y540773D01*
X370862Y540342D01*
X370896Y540333D01*
X370933Y540314D01*
X371882Y540021D01*
X371925Y539940D01*
X371970Y539885D01*
X372008Y539825D01*
X372034Y539806D01*
X372052Y539784D01*
X372097Y539760D01*
X372153Y539720D01*
X373685Y538982D01*
X373754Y538964D01*
X373820Y538939D01*
X373852Y538939D01*
X373880Y538932D01*
X373931Y538940D01*
X374000Y538940D01*
X374090Y538958D01*
X374911Y538398D01*
X374943Y538384D01*
X374977Y538360D01*
X375872Y537929D01*
X375903Y537842D01*
X375938Y537781D01*
X375967Y537717D01*
X375990Y537694D01*
X376005Y537670D01*
X376046Y537639D01*
X376096Y537590D01*
X377501Y536632D01*
X377565Y536605D01*
X377627Y536570D01*
X377659Y536565D01*
X377685Y536555D01*
X377737Y536554D01*
X377805Y536545D01*
X377897Y536548D01*
X378625Y535872D01*
X378655Y535854D01*
X378685Y535825D01*
X379506Y535265D01*
X379523Y535175D01*
X379549Y535109D01*
X379568Y535041D01*
X379588Y535015D01*
X379598Y534989D01*
X379635Y534953D01*
X379676Y534897D01*
X380923Y533741D01*
X380983Y533704D01*
X381038Y533660D01*
X381070Y533651D01*
X381094Y533636D01*
X381145Y533628D01*
X381211Y533609D01*
X381302Y533598D01*
X381922Y532821D01*
X381949Y532799D01*
X381974Y532766D01*
X382702Y532090D01*
X382705Y531998D01*
X382722Y531929D01*
X382730Y531859D01*
X382746Y531830D01*
X382752Y531803D01*
X382783Y531762D01*
X382816Y531701D01*
X383876Y530371D01*
X383930Y530326D01*
X383978Y530274D01*
X384008Y530260D01*
X384029Y530242D01*
X384079Y530227D01*
X384141Y530198D01*
X384230Y530174D01*
X384727Y529313D01*
X384750Y529287D01*
X384770Y529251D01*
X385389Y528474D01*
X385379Y528382D01*
X385385Y528312D01*
X385383Y528241D01*
X385394Y528211D01*
X385396Y528183D01*
X385420Y528137D01*
X385444Y528072D01*
X386294Y526599D01*
X386340Y526546D01*
X386380Y526488D01*
X386408Y526470D01*
X386426Y526449D01*
X386473Y526426D01*
X386530Y526388D01*
X386615Y526351D01*
X386978Y525426D01*
X386996Y525397D01*
X387011Y525358D01*
X387507Y524497D01*
X387483Y524409D01*
X387479Y524338D01*
X387466Y524269D01*
X387473Y524237D01*
X387471Y524209D01*
X387488Y524160D01*
X387501Y524092D01*
X388122Y522509D01*
X388161Y522450D01*
X388192Y522386D01*
X388216Y522364D01*
X388231Y522341D01*
X388274Y522312D01*
X388325Y522265D01*
X388403Y522216D01*
X388624Y521247D01*
X388638Y521215D01*
X388646Y521175D01*
X389009Y520250D01*
X388972Y520166D01*
X388957Y520097D01*
X388935Y520030D01*
X388936Y519997D01*
X388930Y519970D01*
X388940Y519919D01*
X388943Y519850D01*
X389321Y518192D01*
X389350Y518128D01*
X389371Y518060D01*
X389392Y518035D01*
X389403Y518009D01*
X389441Y517974D01*
X389485Y517920D01*
X389555Y517860D01*
X389629Y516870D01*
X389638Y516836D01*
X389640Y516795D01*
X389870Y515788D01*
X389890Y515743D01*
X389901Y515695D01*
X389931Y515653D01*
X389952Y515605D01*
X389988Y515572D01*
X390017Y515532D01*
X390061Y515504D01*
X390099Y515469D01*
X390145Y515452D01*
X390187Y515426D01*
X390244Y515415D01*
X390287Y515400D01*
X390322Y515401D01*
X390364Y515394D01*
X428676Y515394D01*
X428421Y512395D01*
X428424Y512366D01*
X428419Y512336D01*
X428435Y512268D01*
X428443Y512198D01*
X428458Y512172D01*
X428465Y512143D01*
X428507Y512086D01*
X428542Y512025D01*
X428565Y512007D01*
X428583Y511983D01*
X428643Y511947D01*
X428700Y511904D01*
X428728Y511897D01*
X428754Y511881D01*
X428850Y511865D01*
X428892Y511854D01*
X428904Y511856D01*
X428918Y511854D01*
X447629Y511854D01*
X456985Y495604D01*
X457005Y495582D01*
X457017Y495555D01*
X457070Y495508D01*
X457117Y495455D01*
X457143Y495442D01*
X457165Y495422D01*
X457232Y495399D01*
X457296Y495369D01*
X457326Y495368D01*
X457353Y495358D01*
X457424Y495363D01*
X457495Y495360D01*
X457523Y495370D01*
X457552Y495372D01*
X457641Y495414D01*
X457681Y495429D01*
X457690Y495437D01*
X457702Y495443D01*
X460194Y497170D01*
X479394Y463912D01*
X479427Y463875D01*
X479451Y463832D01*
X479492Y463800D01*
X479526Y463761D01*
X479571Y463740D01*
X479610Y463710D01*
X479660Y463697D01*
X479707Y463674D01*
X479756Y463672D01*
X479804Y463659D01*
X479861Y463666D01*
X479907Y463664D01*
X479941Y463676D01*
X479983Y463681D01*
X480897Y463963D01*
X480927Y463980D01*
X480967Y463991D01*
X481862Y464423D01*
X481949Y464392D01*
X482019Y464383D01*
X482087Y464365D01*
X482120Y464369D01*
X482148Y464365D01*
X482198Y464378D01*
X482266Y464387D01*
X483887Y464888D01*
X483949Y464921D01*
X484014Y464948D01*
X484038Y464970D01*
X484063Y464983D01*
X484095Y465024D01*
X484145Y465071D01*
X484200Y465145D01*
X485182Y465294D01*
X485215Y465306D01*
X485256Y465311D01*
X486206Y465604D01*
X486287Y465561D01*
X486355Y465542D01*
X486420Y465514D01*
X486452Y465513D01*
X486479Y465505D01*
X486530Y465510D01*
X486600Y465509D01*
X488277Y465762D01*
X488343Y465786D01*
X488412Y465803D01*
X488439Y465821D01*
X488465Y465831D01*
X488503Y465866D01*
X488560Y465905D01*
X488625Y465971D01*
X489618Y465971D01*
X489653Y465978D01*
X489694Y465977D01*
X490676Y466126D01*
X490750Y466071D01*
X490814Y466041D01*
X490874Y466004D01*
X490907Y465998D01*
X490932Y465986D01*
X490984Y465984D01*
X491052Y465972D01*
X492748Y465973D01*
X492817Y465987D01*
X492888Y465993D01*
X492917Y466007D01*
X492944Y466013D01*
X492987Y466042D01*
X493049Y466072D01*
X493123Y466127D01*
X494106Y465979D01*
X494140Y465981D01*
X494181Y465974D01*
X495175Y465974D01*
X495240Y465909D01*
X495299Y465870D01*
X495353Y465825D01*
X495384Y465814D01*
X495407Y465799D01*
X495458Y465789D01*
X495523Y465767D01*
X497201Y465515D01*
X497271Y465518D01*
X497342Y465514D01*
X497373Y465524D01*
X497401Y465525D01*
X497447Y465547D01*
X497513Y465568D01*
X497595Y465611D01*
X498544Y465319D01*
X498579Y465315D01*
X498618Y465302D01*
X499601Y465155D01*
X499655Y465081D01*
X499708Y465033D01*
X499754Y464980D01*
X499783Y464965D01*
X499804Y464946D01*
X499853Y464929D01*
X499914Y464897D01*
X501535Y464398D01*
X501606Y464391D01*
X501675Y464376D01*
X501707Y464381D01*
X501735Y464378D01*
X501784Y464394D01*
X501852Y464404D01*
X501939Y464435D01*
X502835Y464004D01*
X502868Y463996D01*
X502905Y463977D01*
X503855Y463684D01*
X503898Y463603D01*
X503943Y463548D01*
X503981Y463489D01*
X504007Y463470D01*
X504025Y463448D01*
X504070Y463424D01*
X504127Y463383D01*
X505655Y462648D01*
X505724Y462631D01*
X505789Y462605D01*
X505822Y462606D01*
X505849Y462599D01*
X505900Y462606D01*
X505970Y462607D01*
X506060Y462624D01*
X506881Y462065D01*
X506913Y462051D01*
X506947Y462027D01*
X507842Y461596D01*
X507873Y461510D01*
X507909Y461449D01*
X507938Y461384D01*
X507961Y461361D01*
X507975Y461337D01*
X508017Y461307D01*
X508066Y461258D01*
X509468Y460303D01*
X509533Y460276D01*
X509595Y460241D01*
X509627Y460237D01*
X509653Y460226D01*
X509704Y460226D01*
X509773Y460216D01*
X509865Y460219D01*
X510594Y459544D01*
X510623Y459526D01*
X510653Y459497D01*
X511474Y458938D01*
X511491Y458847D01*
X511518Y458782D01*
X511537Y458714D01*
X511556Y458687D01*
X511567Y458661D01*
X511603Y458625D01*
X511645Y458570D01*
X512889Y457417D01*
X512949Y457380D01*
X513005Y457336D01*
X513036Y457327D01*
X513060Y457312D01*
X513111Y457304D01*
X513177Y457285D01*
X513269Y457274D01*
X513889Y456498D01*
X513916Y456475D01*
X513941Y456442D01*
X514669Y455767D01*
X514673Y455675D01*
X514689Y455607D01*
X514698Y455536D01*
X514713Y455507D01*
X514720Y455480D01*
X514750Y455439D01*
X514783Y455378D01*
X515812Y454089D01*
X515840Y454066D01*
X515861Y454037D01*
X515916Y454002D01*
X515965Y453961D01*
X516000Y453950D01*
X516031Y453931D01*
X516105Y453917D01*
X516157Y453901D01*
X516181Y453904D01*
X516208Y453899D01*
X572428Y453899D01*
X572434Y453900D01*
X572441Y453899D01*
X572532Y453920D01*
X572624Y453938D01*
X572630Y453942D01*
X572636Y453943D01*
X572713Y453998D01*
X572790Y454051D01*
X572794Y454056D01*
X572799Y454060D01*
X572896Y454212D01*
X573046Y454574D01*
X575904Y457432D01*
X576132Y457526D01*
X577356Y458033D01*
X577357Y458033D01*
X578581Y458541D01*
X579639Y458979D01*
X598921Y458979D01*
X602656Y457432D01*
X605514Y454574D01*
X607061Y450839D01*
X607061Y446797D01*
X605514Y443062D01*
X602656Y440204D01*
X602647Y440200D01*
X602646Y440200D01*
X601422Y439693D01*
X600197Y439186D01*
X598973Y438679D01*
X598921Y438657D01*
X579639Y438657D01*
X575904Y440204D01*
X573046Y443062D01*
X572896Y443424D01*
X572893Y443430D01*
X572891Y443436D01*
X572837Y443513D01*
X572785Y443591D01*
X572779Y443594D01*
X572775Y443599D01*
X572695Y443649D01*
X572617Y443701D01*
X572611Y443702D01*
X572605Y443705D01*
X572428Y443737D01*
X521503Y443737D01*
X521442Y443725D01*
X521380Y443722D01*
X521344Y443705D01*
X521306Y443698D01*
X521255Y443663D01*
X521199Y443636D01*
X521173Y443607D01*
X521141Y443585D01*
X521107Y443533D01*
X521065Y443486D01*
X521052Y443450D01*
X521031Y443417D01*
X521020Y443356D01*
X521000Y443297D01*
X521002Y443254D01*
X520996Y443220D01*
X521006Y443175D01*
X521008Y443117D01*
X521290Y441888D01*
X521319Y441824D01*
X521340Y441756D01*
X521361Y441731D01*
X521372Y441705D01*
X521410Y441670D01*
X521453Y441617D01*
X521523Y441557D01*
X521598Y440566D01*
X521607Y440532D01*
X521609Y440491D01*
X521831Y439522D01*
X521782Y439444D01*
X521757Y439378D01*
X521725Y439316D01*
X521721Y439283D01*
X521711Y439257D01*
X521713Y439205D01*
X521706Y439136D01*
X521834Y437445D01*
X521853Y437377D01*
X521864Y437307D01*
X521881Y437279D01*
X521888Y437252D01*
X521920Y437212D01*
X521955Y437152D01*
X522015Y437082D01*
X521942Y436092D01*
X521946Y436057D01*
X521942Y436016D01*
X522017Y435025D01*
X521957Y434955D01*
X521922Y434894D01*
X521881Y434837D01*
X521872Y434805D01*
X521859Y434780D01*
X521853Y434729D01*
X521836Y434662D01*
X521710Y432971D01*
X521719Y432901D01*
X521719Y432830D01*
X521731Y432800D01*
X521735Y432772D01*
X521760Y432727D01*
X521786Y432663D01*
X521835Y432585D01*
X521615Y431616D01*
X521614Y431581D01*
X521604Y431541D01*
X521530Y430550D01*
X521460Y430490D01*
X521432Y430453D01*
X521426Y430450D01*
X521415Y430433D01*
X521367Y430384D01*
X521354Y430354D01*
X521337Y430332D01*
X521328Y430299D01*
X521317Y430282D01*
X521312Y430256D01*
X521297Y430219D01*
X520920Y428565D01*
X520918Y428494D01*
X520908Y428424D01*
X520916Y428392D01*
X520915Y428364D01*
X520934Y428316D01*
X520950Y428249D01*
X520987Y428165D01*
X520624Y427240D01*
X520618Y427205D01*
X520602Y427167D01*
X520382Y426198D01*
X520304Y426149D01*
X520253Y426100D01*
X520196Y426058D01*
X520179Y426030D01*
X520158Y426011D01*
X520138Y425964D01*
X520102Y425905D01*
X519630Y424702D01*
X519483Y424326D01*
X519471Y424256D01*
X519450Y424188D01*
X519453Y424156D01*
X519448Y424128D01*
X519459Y424078D01*
X519465Y424009D01*
X519489Y423920D01*
X518993Y423059D01*
X518982Y423026D01*
X518960Y422991D01*
X518598Y422066D01*
X518513Y422029D01*
X518455Y421988D01*
X518393Y421955D01*
X518372Y421930D01*
X518349Y421914D01*
X518321Y421870D01*
X518277Y421817D01*
X517430Y420348D01*
X517407Y420281D01*
X517377Y420217D01*
X517375Y420185D01*
X517366Y420158D01*
X517370Y420107D01*
X517365Y420038D01*
X517375Y419946D01*
X516756Y419169D01*
X516741Y419138D01*
X516714Y419106D01*
X516217Y418245D01*
X516129Y418221D01*
X516065Y418190D01*
X515999Y418166D01*
X515974Y418145D01*
X515949Y418132D01*
X515915Y418093D01*
X515863Y418048D01*
X514807Y416721D01*
X514774Y416658D01*
X514735Y416599D01*
X514732Y416587D01*
X514732Y416586D01*
X514730Y416576D01*
X514728Y416567D01*
X514715Y416543D01*
X514711Y416491D01*
X514696Y416423D01*
X514693Y416332D01*
X513965Y415655D01*
X513945Y415627D01*
X513914Y415600D01*
X513295Y414822D01*
X513203Y414812D01*
X513136Y414790D01*
X513067Y414777D01*
X513039Y414759D01*
X513012Y414751D01*
X512973Y414717D01*
X512915Y414680D01*
X511672Y413525D01*
X511631Y413468D01*
X511583Y413416D01*
X511572Y413385D01*
X511555Y413362D01*
X511544Y413312D01*
X511519Y413248D01*
X511502Y413157D01*
X510681Y412597D01*
X510657Y412572D01*
X510622Y412550D01*
X509892Y411871D01*
X509863Y411831D01*
X509827Y411798D01*
X509805Y411751D01*
X509775Y411708D01*
X509764Y411660D01*
X509743Y411616D01*
X509742Y411564D01*
X509730Y411513D01*
X509738Y411465D01*
X509737Y411415D01*
X509756Y411361D01*
X509764Y411316D01*
X509783Y411286D01*
X509798Y411246D01*
X528909Y378142D01*
X526205Y376870D01*
X526182Y376852D01*
X526155Y376842D01*
X526103Y376793D01*
X526046Y376751D01*
X526031Y376726D01*
X526010Y376706D01*
X525981Y376641D01*
X525946Y376579D01*
X525942Y376550D01*
X525930Y376524D01*
X525929Y376453D01*
X525920Y376382D01*
X525928Y376354D01*
X525928Y376325D01*
X525962Y376232D01*
X525974Y376191D01*
X525981Y376182D01*
X525985Y376169D01*
X535342Y359918D01*
X525985Y343667D01*
X525976Y343640D01*
X525959Y343616D01*
X525945Y343546D01*
X525922Y343478D01*
X525925Y343449D01*
X525919Y343421D01*
X525933Y343351D01*
X525938Y343280D01*
X525952Y343254D01*
X525957Y343226D01*
X525997Y343167D01*
X526030Y343104D01*
X526052Y343085D01*
X526069Y343061D01*
X526151Y343004D01*
X526183Y342977D01*
X526194Y342974D01*
X526205Y342966D01*
X528909Y341694D01*
X509798Y308590D01*
X509787Y308559D01*
X509776Y308542D01*
X509774Y308530D01*
X509757Y308501D01*
X509750Y308449D01*
X509734Y308400D01*
X509737Y308351D01*
X509731Y308302D01*
X509745Y308252D01*
X509748Y308200D01*
X509771Y308156D01*
X509784Y308109D01*
X509819Y308062D01*
X509839Y308022D01*
X509866Y307999D01*
X509892Y307965D01*
X510622Y307286D01*
X510652Y307268D01*
X510681Y307239D01*
X511502Y306679D01*
X511519Y306588D01*
X511546Y306523D01*
X511564Y306455D01*
X511584Y306429D01*
X511594Y306403D01*
X511631Y306366D01*
X511672Y306311D01*
X512792Y305270D01*
X512874Y305220D01*
X512956Y305168D01*
X512960Y305168D01*
X512963Y305165D01*
X513058Y305151D01*
X513153Y305135D01*
X513157Y305136D01*
X513161Y305135D01*
X513255Y305159D01*
X513348Y305180D01*
X513352Y305183D01*
X513356Y305184D01*
X513387Y305207D01*
X513496Y305283D01*
X559159Y350946D01*
X559163Y350952D01*
X559169Y350957D01*
X559218Y351035D01*
X559270Y351112D01*
X559271Y351120D01*
X559275Y351127D01*
X559307Y351304D01*
X559307Y379084D01*
X562134Y381911D01*
X572642Y392419D01*
X572646Y392425D01*
X572651Y392428D01*
X572701Y392508D01*
X572753Y392586D01*
X572754Y392593D01*
X572758Y392598D01*
X572773Y392691D01*
X572791Y392783D01*
X572790Y392789D01*
X572791Y392796D01*
X572752Y392972D01*
X571499Y395997D01*
X571499Y400039D01*
X573046Y403774D01*
X575904Y406632D01*
X576313Y406801D01*
X577537Y407308D01*
X577538Y407308D01*
X578762Y407816D01*
X579639Y408179D01*
X598921Y408179D01*
X602656Y406632D01*
X605514Y403774D01*
X607061Y400039D01*
X607061Y395997D01*
X605514Y392262D01*
X602656Y389404D01*
X601603Y388968D01*
X600378Y388461D01*
X599154Y387954D01*
X598921Y387857D01*
X581224Y387857D01*
X581216Y387856D01*
X581209Y387857D01*
X581119Y387836D01*
X581028Y387818D01*
X581021Y387813D01*
X581014Y387811D01*
X580866Y387709D01*
X568601Y375444D01*
X568597Y375438D01*
X568591Y375433D01*
X568542Y375355D01*
X568490Y375278D01*
X568489Y375270D01*
X568485Y375263D01*
X568453Y375086D01*
X568453Y347306D01*
X518922Y297775D01*
X518921Y297774D01*
X518920Y297773D01*
X518867Y297692D01*
X518811Y297608D01*
X518811Y297607D01*
X518810Y297605D01*
X518792Y297509D01*
X518774Y297411D01*
X518774Y297410D01*
X518774Y297408D01*
X518809Y297232D01*
X518960Y296845D01*
X518979Y296816D01*
X518993Y296777D01*
X519489Y295916D01*
X519465Y295827D01*
X519461Y295757D01*
X519448Y295687D01*
X519454Y295655D01*
X519452Y295627D01*
X519469Y295578D01*
X519483Y295510D01*
X520102Y293931D01*
X520140Y293872D01*
X520171Y293808D01*
X520195Y293786D01*
X520210Y293763D01*
X520253Y293734D01*
X520304Y293687D01*
X520382Y293638D01*
X520602Y292669D01*
X520616Y292637D01*
X520624Y292596D01*
X520987Y291671D01*
X520950Y291587D01*
X520935Y291518D01*
X520912Y291451D01*
X520914Y291419D01*
X520908Y291391D01*
X520917Y291341D01*
X520920Y291271D01*
X521297Y289617D01*
X521326Y289553D01*
X521347Y289486D01*
X521367Y289460D01*
X521379Y289435D01*
X521417Y289399D01*
X521460Y289346D01*
X521530Y289286D01*
X521604Y288295D01*
X521613Y288261D01*
X521615Y288220D01*
X521835Y287251D01*
X521786Y287173D01*
X521761Y287107D01*
X521729Y287045D01*
X521725Y287012D01*
X521715Y286986D01*
X521717Y286934D01*
X521710Y286865D01*
X521836Y285174D01*
X521855Y285106D01*
X521865Y285036D01*
X521882Y285008D01*
X521890Y284981D01*
X521922Y284940D01*
X521957Y284881D01*
X522017Y284811D01*
X521942Y283820D01*
X521946Y283786D01*
X521942Y283744D01*
X522015Y282754D01*
X521955Y282684D01*
X521921Y282622D01*
X521879Y282565D01*
X521871Y282534D01*
X521857Y282509D01*
X521851Y282458D01*
X521834Y282391D01*
X521706Y280700D01*
X521715Y280629D01*
X521715Y280559D01*
X521727Y280528D01*
X521731Y280501D01*
X521756Y280456D01*
X521782Y280392D01*
X521831Y280314D01*
X521609Y279345D01*
X521608Y279310D01*
X521598Y279270D01*
X521523Y278279D01*
X521453Y278219D01*
X521410Y278164D01*
X521360Y278114D01*
X521347Y278083D01*
X521330Y278061D01*
X521317Y278012D01*
X521290Y277948D01*
X520911Y276294D01*
X520909Y276224D01*
X520899Y276154D01*
X520907Y276122D01*
X520906Y276094D01*
X520925Y276046D01*
X520941Y275979D01*
X520977Y275894D01*
X520850Y275571D01*
X520614Y274970D01*
X520608Y274936D01*
X520591Y274897D01*
X520370Y273929D01*
X520292Y273880D01*
X520241Y273831D01*
X520184Y273789D01*
X520167Y273761D01*
X520146Y273742D01*
X520126Y273694D01*
X520089Y273636D01*
X519469Y272057D01*
X519456Y271988D01*
X519436Y271920D01*
X519438Y271887D01*
X519434Y271860D01*
X519445Y271809D01*
X519451Y271740D01*
X519474Y271652D01*
X518977Y270791D01*
X518966Y270758D01*
X518944Y270723D01*
X518856Y270498D01*
X518581Y269798D01*
X518496Y269762D01*
X518438Y269721D01*
X518376Y269688D01*
X518357Y269666D01*
X518337Y269652D01*
X518335Y269649D01*
X518332Y269647D01*
X518304Y269603D01*
X518260Y269551D01*
X517411Y268082D01*
X517388Y268015D01*
X517358Y267951D01*
X517356Y267919D01*
X517347Y267892D01*
X517350Y267841D01*
X517346Y267772D01*
X517356Y267680D01*
X516736Y266904D01*
X516720Y266873D01*
X516693Y266841D01*
X516196Y265981D01*
X516107Y265957D01*
X516044Y265926D01*
X515977Y265902D01*
X515953Y265881D01*
X515927Y265868D01*
X515894Y265829D01*
X515842Y265784D01*
X514783Y264458D01*
X514751Y264395D01*
X514711Y264337D01*
X514704Y264305D01*
X514692Y264280D01*
X514688Y264228D01*
X514673Y264161D01*
X514669Y264069D01*
X513941Y263394D01*
X513920Y263366D01*
X513889Y263338D01*
X513269Y262562D01*
X513177Y262551D01*
X513110Y262530D01*
X513041Y262516D01*
X513013Y262499D01*
X512987Y262490D01*
X512947Y262456D01*
X512889Y262419D01*
X511645Y261266D01*
X511604Y261209D01*
X511556Y261157D01*
X511544Y261127D01*
X511528Y261104D01*
X511516Y261053D01*
X511491Y260989D01*
X511474Y260898D01*
X510653Y260339D01*
X510629Y260314D01*
X510594Y260292D01*
X509865Y259617D01*
X509773Y259620D01*
X509703Y259609D01*
X509633Y259606D01*
X509603Y259593D01*
X509575Y259588D01*
X509531Y259561D01*
X509468Y259533D01*
X508066Y258578D01*
X508017Y258527D01*
X507962Y258483D01*
X507946Y258455D01*
X507926Y258434D01*
X507907Y258387D01*
X507873Y258326D01*
X507842Y258240D01*
X506947Y257809D01*
X506919Y257788D01*
X506881Y257771D01*
X506060Y257212D01*
X505970Y257229D01*
X505899Y257228D01*
X505829Y257236D01*
X505797Y257227D01*
X505769Y257227D01*
X505722Y257206D01*
X505655Y257188D01*
X504127Y256453D01*
X504070Y256410D01*
X504009Y256375D01*
X503989Y256349D01*
X503967Y256332D01*
X503941Y256287D01*
X503898Y256233D01*
X503855Y256152D01*
X502905Y255859D01*
X502875Y255843D01*
X502835Y255832D01*
X501939Y255401D01*
X501852Y255432D01*
X501782Y255441D01*
X501714Y255459D01*
X501682Y255455D01*
X501654Y255459D01*
X501604Y255446D01*
X501535Y255438D01*
X499914Y254939D01*
X499852Y254905D01*
X499787Y254879D01*
X499763Y254856D01*
X499738Y254843D01*
X499706Y254803D01*
X499655Y254755D01*
X499601Y254681D01*
X498618Y254534D01*
X498586Y254522D01*
X498544Y254517D01*
X497595Y254225D01*
X497513Y254268D01*
X497446Y254288D01*
X497381Y254316D01*
X497348Y254317D01*
X497321Y254325D01*
X497270Y254319D01*
X497201Y254321D01*
X495523Y254069D01*
X495457Y254045D01*
X495446Y254043D01*
X495431Y254040D01*
X495430Y254039D01*
X495388Y254029D01*
X495361Y254010D01*
X495335Y254001D01*
X495297Y253966D01*
X495240Y253927D01*
X495175Y253862D01*
X494181Y253862D01*
X494147Y253855D01*
X494106Y253856D01*
X493123Y253709D01*
X493049Y253764D01*
X492985Y253794D01*
X492925Y253831D01*
X492893Y253837D01*
X492868Y253849D01*
X492816Y253851D01*
X492748Y253863D01*
X491052Y253864D01*
X490983Y253850D01*
X490912Y253844D01*
X490883Y253830D01*
X490855Y253824D01*
X490813Y253796D01*
X490750Y253765D01*
X490676Y253710D01*
X489694Y253859D01*
X489659Y253857D01*
X489618Y253865D01*
X488625Y253865D01*
X488560Y253931D01*
X488553Y253935D01*
X488548Y253941D01*
X488495Y253974D01*
X488447Y254015D01*
X488416Y254026D01*
X488393Y254042D01*
X488385Y254043D01*
X488378Y254047D01*
X488327Y254056D01*
X488277Y254074D01*
X486600Y254327D01*
X486529Y254324D01*
X486459Y254329D01*
X486427Y254319D01*
X486399Y254318D01*
X486353Y254295D01*
X486287Y254275D01*
X486206Y254232D01*
X485256Y254525D01*
X485222Y254529D01*
X485182Y254542D01*
X484200Y254691D01*
X484145Y254765D01*
X484093Y254812D01*
X484047Y254865D01*
X484018Y254881D01*
X483997Y254899D01*
X483948Y254917D01*
X483887Y254948D01*
X482266Y255449D01*
X482196Y255456D01*
X482127Y255472D01*
X482095Y255467D01*
X482067Y255470D01*
X482017Y255454D01*
X481949Y255444D01*
X481862Y255413D01*
X480967Y255845D01*
X480934Y255854D01*
X480897Y255873D01*
X479983Y256155D01*
X479934Y256160D01*
X479887Y256175D01*
X479835Y256170D01*
X479784Y256175D01*
X479736Y256161D01*
X479687Y256156D01*
X479641Y256132D01*
X479592Y256117D01*
X479554Y256085D01*
X479510Y256062D01*
X479473Y256018D01*
X479438Y255988D01*
X479421Y255957D01*
X479394Y255924D01*
X460194Y222666D01*
X457702Y224393D01*
X457675Y224405D01*
X457653Y224424D01*
X457612Y224436D01*
X457593Y224447D01*
X457567Y224451D01*
X457520Y224472D01*
X457490Y224472D01*
X457462Y224480D01*
X457392Y224472D01*
X457321Y224473D01*
X457294Y224461D01*
X457264Y224458D01*
X457227Y224437D01*
X457219Y224435D01*
X457200Y224422D01*
X457137Y224396D01*
X457117Y224375D01*
X457091Y224360D01*
X457067Y224331D01*
X457055Y224323D01*
X457037Y224295D01*
X457029Y224285D01*
X456999Y224254D01*
X456994Y224243D01*
X456985Y224232D01*
X447629Y207982D01*
X428918Y207982D01*
X428889Y207976D01*
X428859Y207979D01*
X428792Y207957D01*
X428723Y207943D01*
X428699Y207926D01*
X428670Y207917D01*
X428617Y207870D01*
X428559Y207830D01*
X428543Y207805D01*
X428521Y207785D01*
X428490Y207722D01*
X428452Y207663D01*
X428447Y207633D01*
X428434Y207606D01*
X428426Y207509D01*
X428419Y207466D01*
X428422Y207455D01*
X428421Y207441D01*
X428676Y204442D01*
X390364Y204442D01*
X390316Y204433D01*
X390267Y204433D01*
X390219Y204413D01*
X390168Y204403D01*
X390127Y204375D01*
X390082Y204356D01*
X390045Y204319D01*
X390002Y204290D01*
X389975Y204249D01*
X389940Y204214D01*
X389918Y204160D01*
X389893Y204122D01*
X389887Y204087D01*
X389870Y204048D01*
X389640Y203041D01*
X389639Y203007D01*
X389629Y202966D01*
X389555Y201976D01*
X389485Y201916D01*
X389441Y201860D01*
X389392Y201810D01*
X389379Y201780D01*
X389362Y201757D01*
X389348Y201708D01*
X389321Y201644D01*
X388943Y199986D01*
X388941Y199916D01*
X388931Y199846D01*
X388938Y199814D01*
X388938Y199786D01*
X388956Y199738D01*
X388972Y199670D01*
X389009Y199586D01*
X388646Y198661D01*
X388640Y198627D01*
X388624Y198589D01*
X388403Y197620D01*
X388325Y197571D01*
X388274Y197523D01*
X388217Y197480D01*
X388200Y197452D01*
X388180Y197433D01*
X388159Y197386D01*
X388122Y197327D01*
X387501Y195744D01*
X387489Y195674D01*
X387468Y195607D01*
X387471Y195574D01*
X387466Y195547D01*
X387478Y195496D01*
X387483Y195427D01*
X387507Y195339D01*
X387011Y194478D01*
X386999Y194445D01*
X386981Y194416D01*
X386978Y194411D01*
X386978Y194410D01*
X386615Y193485D01*
X386530Y193448D01*
X386472Y193408D01*
X386410Y193374D01*
X386389Y193349D01*
X386366Y193333D01*
X386338Y193289D01*
X386294Y193237D01*
X385444Y191764D01*
X385421Y191697D01*
X385391Y191633D01*
X385389Y191601D01*
X385380Y191574D01*
X385383Y191523D01*
X385379Y191454D01*
X385389Y191362D01*
X384770Y190585D01*
X384754Y190554D01*
X384727Y190523D01*
X384230Y189662D01*
X384141Y189638D01*
X384112Y189624D01*
X384086Y189619D01*
X384059Y189600D01*
X384011Y189583D01*
X383987Y189562D01*
X383962Y189549D01*
X383930Y189513D01*
X383921Y189506D01*
X383917Y189501D01*
X383876Y189465D01*
X382816Y188135D01*
X382783Y188072D01*
X382744Y188014D01*
X382737Y187982D01*
X382724Y187957D01*
X382720Y187906D01*
X382705Y187838D01*
X382702Y187746D01*
X381974Y187070D01*
X381953Y187042D01*
X381922Y187015D01*
X381302Y186238D01*
X381211Y186227D01*
X381144Y186206D01*
X381074Y186192D01*
X381047Y186175D01*
X381020Y186166D01*
X380981Y186133D01*
X380923Y186095D01*
X380212Y185436D01*
X380156Y185358D01*
X380099Y185282D01*
X380098Y185277D01*
X380095Y185273D01*
X380073Y185180D01*
X380050Y185088D01*
X380051Y185083D01*
X380050Y185078D01*
X380066Y184984D01*
X380081Y184890D01*
X380083Y184885D01*
X380084Y184880D01*
X380107Y184845D01*
X380172Y184734D01*
X382693Y181788D01*
X382715Y181771D01*
X382731Y181749D01*
X382793Y181710D01*
X382851Y181665D01*
X382878Y181657D01*
X382901Y181643D01*
X382990Y181627D01*
X383044Y181612D01*
X383060Y181614D01*
X383078Y181611D01*
X461235Y181611D01*
X461243Y181612D01*
X461251Y181611D01*
X461341Y181632D01*
X461432Y181650D01*
X461438Y181655D01*
X461446Y181657D01*
X461594Y181759D01*
X558651Y278816D01*
X558655Y278823D01*
X558661Y278827D01*
X558710Y278906D01*
X558762Y278983D01*
X558763Y278991D01*
X558767Y278997D01*
X558799Y279175D01*
X558799Y329765D01*
X572060Y343025D01*
X572064Y343031D01*
X572069Y343034D01*
X572119Y343114D01*
X572171Y343192D01*
X572172Y343199D01*
X572176Y343204D01*
X572191Y343297D01*
X572208Y343389D01*
X572207Y343395D01*
X572208Y343402D01*
X572170Y343578D01*
X571499Y345197D01*
X571499Y349239D01*
X573046Y352974D01*
X575904Y355832D01*
X576494Y356076D01*
X577719Y356583D01*
X578943Y357091D01*
X579639Y357379D01*
X598921Y357379D01*
X602656Y355832D01*
X605514Y352974D01*
X607061Y349239D01*
X607061Y345197D01*
X605514Y341462D01*
X602656Y338604D01*
X601784Y338243D01*
X600560Y337736D01*
X600559Y337736D01*
X599335Y337229D01*
X598921Y337057D01*
X580673Y337057D01*
X580665Y337056D01*
X580657Y337057D01*
X580567Y337036D01*
X580476Y337018D01*
X580470Y337013D01*
X580462Y337011D01*
X580314Y336909D01*
X569109Y325704D01*
X569105Y325697D01*
X569099Y325693D01*
X569050Y325614D01*
X568998Y325537D01*
X568997Y325529D01*
X568993Y325523D01*
X568961Y325345D01*
X568961Y276564D01*
X568962Y276560D01*
X568961Y276556D01*
X568981Y276462D01*
X569000Y276368D01*
X569003Y276364D01*
X569003Y276360D01*
X569059Y276281D01*
X569113Y276202D01*
X569116Y276200D01*
X569119Y276196D01*
X569201Y276145D01*
X569281Y276093D01*
X569285Y276092D01*
X569288Y276090D01*
X569384Y276074D01*
X569478Y276057D01*
X569482Y276058D01*
X569486Y276057D01*
X569662Y276095D01*
X570488Y276438D01*
X570489Y276438D01*
X570896Y276607D01*
X572669Y276607D01*
X572677Y276608D01*
X572685Y276607D01*
X572775Y276628D01*
X572866Y276646D01*
X572872Y276651D01*
X572880Y276653D01*
X573028Y276755D01*
X575904Y279632D01*
X576766Y279989D01*
X577990Y280496D01*
X579215Y281003D01*
X579639Y281179D01*
X598921Y281179D01*
X602656Y279632D01*
X605514Y276774D01*
X607061Y273039D01*
X607061Y268997D01*
X605514Y265262D01*
X602656Y262404D01*
X602056Y262156D01*
X600831Y261648D01*
X599607Y261141D01*
X599606Y261141D01*
X598921Y260857D01*
X579639Y260857D01*
X575904Y262404D01*
X573960Y264349D01*
X573955Y264352D01*
X573952Y264356D01*
X573872Y264407D01*
X573793Y264460D01*
X573788Y264461D01*
X573783Y264464D01*
X573689Y264479D01*
X573596Y264497D01*
X573591Y264496D01*
X573586Y264497D01*
X573493Y264476D01*
X573400Y264456D01*
X573396Y264453D01*
X573390Y264452D01*
X573242Y264349D01*
X454389Y145496D01*
X452746Y143852D01*
X451797Y143459D01*
X450692Y143001D01*
X162658Y143001D01*
G37*
%LPD*%
G36*
X361967Y180066D02*
X361967Y180066D01*
X362010Y180065D01*
X366000Y180666D01*
X366030Y180677D01*
X366073Y180683D01*
X369929Y181872D01*
X369957Y181888D01*
X369999Y181900D01*
X373635Y183651D01*
X373660Y183670D01*
X373699Y183688D01*
X377033Y185961D01*
X377056Y185984D01*
X377092Y186008D01*
X380050Y188752D01*
X380069Y188778D01*
X380101Y188807D01*
X382617Y191962D01*
X382631Y191990D01*
X382659Y192024D01*
X384677Y195519D01*
X384687Y195549D01*
X384709Y195586D01*
X386183Y199342D01*
X386184Y199349D01*
X386186Y199350D01*
X386190Y199377D01*
X386205Y199414D01*
X387103Y203348D01*
X387104Y203380D01*
X387114Y203422D01*
X387416Y207446D01*
X387412Y207473D01*
X387417Y207500D01*
X387400Y207570D01*
X387391Y207643D01*
X387377Y207667D01*
X387371Y207693D01*
X387328Y207752D01*
X387291Y207815D01*
X387269Y207831D01*
X387253Y207853D01*
X387190Y207890D01*
X387132Y207934D01*
X387105Y207941D01*
X387082Y207955D01*
X386978Y207972D01*
X386939Y207982D01*
X386929Y207980D01*
X386918Y207982D01*
X332918Y207982D01*
X332891Y207977D01*
X332864Y207979D01*
X332795Y207957D01*
X332723Y207943D01*
X332701Y207927D01*
X332675Y207919D01*
X332619Y207871D01*
X332559Y207830D01*
X332545Y207807D01*
X332524Y207789D01*
X332492Y207724D01*
X332452Y207663D01*
X332448Y207636D01*
X332436Y207611D01*
X332426Y207507D01*
X332419Y207466D01*
X332421Y207457D01*
X332420Y207446D01*
X332722Y203422D01*
X332730Y203391D01*
X332733Y203348D01*
X333631Y199414D01*
X333644Y199385D01*
X333653Y199342D01*
X335127Y195586D01*
X335144Y195559D01*
X335159Y195519D01*
X337177Y192024D01*
X337198Y192000D01*
X337219Y191962D01*
X339735Y188807D01*
X339760Y188787D01*
X339786Y188752D01*
X342744Y186008D01*
X342771Y185991D01*
X342803Y185961D01*
X346137Y183688D01*
X346166Y183675D01*
X346201Y183651D01*
X349837Y181900D01*
X349868Y181892D01*
X349907Y181872D01*
X353763Y180683D01*
X353794Y180680D01*
X353836Y180666D01*
X357826Y180065D01*
X357858Y180066D01*
X357900Y180059D01*
X361936Y180059D01*
X361967Y180066D01*
G37*
G36*
X386945Y511859D02*
X386945Y511859D01*
X386972Y511857D01*
X387041Y511879D01*
X387113Y511893D01*
X387135Y511909D01*
X387161Y511917D01*
X387217Y511965D01*
X387277Y512006D01*
X387291Y512029D01*
X387312Y512047D01*
X387345Y512112D01*
X387384Y512173D01*
X387388Y512200D01*
X387400Y512225D01*
X387410Y512329D01*
X387417Y512370D01*
X387415Y512379D01*
X387416Y512390D01*
X387114Y516414D01*
X387106Y516445D01*
X387103Y516488D01*
X386205Y520422D01*
X386192Y520451D01*
X386183Y520494D01*
X384709Y524250D01*
X384692Y524277D01*
X384677Y524318D01*
X382659Y527812D01*
X382638Y527836D01*
X382617Y527874D01*
X380101Y531029D01*
X380076Y531049D01*
X380050Y531084D01*
X377092Y533828D01*
X377065Y533845D01*
X377033Y533875D01*
X373699Y536148D01*
X373670Y536161D01*
X373635Y536186D01*
X369999Y537936D01*
X369968Y537944D01*
X369929Y537964D01*
X366073Y539153D01*
X366042Y539156D01*
X366000Y539170D01*
X362010Y539771D01*
X361978Y539770D01*
X361936Y539777D01*
X357900Y539777D01*
X357869Y539770D01*
X357826Y539771D01*
X353836Y539170D01*
X353806Y539159D01*
X353763Y539153D01*
X349907Y537964D01*
X349879Y537948D01*
X349837Y537936D01*
X346201Y536186D01*
X346176Y536166D01*
X346137Y536148D01*
X342803Y533875D01*
X342780Y533852D01*
X342744Y533828D01*
X339786Y531084D01*
X339768Y531058D01*
X339735Y531029D01*
X337219Y527874D01*
X337205Y527846D01*
X337177Y527812D01*
X335159Y524318D01*
X335149Y524287D01*
X335127Y524250D01*
X333653Y520494D01*
X333647Y520462D01*
X333631Y520422D01*
X332733Y516488D01*
X332732Y516456D01*
X332722Y516414D01*
X332420Y512390D01*
X332424Y512363D01*
X332419Y512336D01*
X332436Y512266D01*
X332445Y512193D01*
X332459Y512169D01*
X332465Y512143D01*
X332508Y512084D01*
X332545Y512021D01*
X332567Y512005D01*
X332583Y511983D01*
X332646Y511946D01*
X332704Y511902D01*
X332731Y511895D01*
X332754Y511881D01*
X332858Y511864D01*
X332897Y511854D01*
X332907Y511856D01*
X332918Y511854D01*
X386918Y511854D01*
X386945Y511859D01*
G37*
G36*
X214446Y412196D02*
X214446Y412196D01*
X214519Y412197D01*
X214544Y412207D01*
X214571Y412210D01*
X214634Y412246D01*
X214702Y412275D01*
X214720Y412294D01*
X214744Y412307D01*
X214811Y412389D01*
X214839Y412418D01*
X214843Y412427D01*
X214850Y412436D01*
X241850Y459136D01*
X241859Y459161D01*
X241875Y459184D01*
X241890Y459255D01*
X241913Y459324D01*
X241911Y459351D01*
X241917Y459378D01*
X241904Y459450D01*
X241898Y459522D01*
X241886Y459547D01*
X241881Y459573D01*
X241840Y459634D01*
X241807Y459699D01*
X241786Y459716D01*
X241771Y459739D01*
X241685Y459800D01*
X241653Y459826D01*
X241644Y459828D01*
X241635Y459835D01*
X238004Y461586D01*
X237973Y461594D01*
X237935Y461614D01*
X234083Y462804D01*
X234052Y462807D01*
X234010Y462821D01*
X230025Y463424D01*
X229993Y463423D01*
X229950Y463430D01*
X225919Y463432D01*
X225888Y463426D01*
X225845Y463427D01*
X221858Y462828D01*
X221828Y462817D01*
X221785Y462812D01*
X217932Y461626D01*
X217904Y461611D01*
X217863Y461599D01*
X214230Y459852D01*
X214205Y459833D01*
X214165Y459815D01*
X210833Y457546D01*
X210811Y457523D01*
X210775Y457499D01*
X207818Y454759D01*
X207800Y454733D01*
X207767Y454704D01*
X205252Y451554D01*
X205237Y451526D01*
X205210Y451493D01*
X203192Y448003D01*
X203182Y447973D01*
X203160Y447936D01*
X202523Y446315D01*
X201737Y444318D01*
X201685Y444184D01*
X201679Y444152D01*
X201663Y444113D01*
X200763Y440183D01*
X200763Y440151D01*
X200752Y440109D01*
X200448Y436089D01*
X200452Y436058D01*
X200448Y436015D01*
X200747Y431995D01*
X200756Y431964D01*
X200758Y431921D01*
X201653Y427990D01*
X201666Y427961D01*
X201675Y427919D01*
X203145Y424166D01*
X203163Y424139D01*
X203178Y424098D01*
X205191Y420606D01*
X205212Y420582D01*
X205233Y420544D01*
X207745Y417391D01*
X207769Y417371D01*
X207795Y417336D01*
X210749Y414593D01*
X210776Y414576D01*
X210807Y414546D01*
X214137Y412273D01*
X214162Y412263D01*
X214183Y412245D01*
X214252Y412224D01*
X214320Y412196D01*
X214347Y412196D01*
X214373Y412188D01*
X214446Y412196D01*
G37*
G36*
X505423Y412196D02*
X505423Y412196D01*
X505496Y412192D01*
X505521Y412202D01*
X505548Y412204D01*
X505644Y412248D01*
X505682Y412262D01*
X505689Y412268D01*
X505700Y412273D01*
X509029Y414546D01*
X509051Y414569D01*
X509087Y414593D01*
X512041Y417336D01*
X512059Y417362D01*
X512091Y417391D01*
X514603Y420544D01*
X514617Y420573D01*
X514645Y420606D01*
X516658Y424098D01*
X516668Y424128D01*
X516691Y424166D01*
X517599Y426485D01*
X517795Y426984D01*
X517990Y427483D01*
X517991Y427484D01*
X518161Y427919D01*
X518167Y427950D01*
X518183Y427990D01*
X519078Y431921D01*
X519078Y431953D01*
X519089Y431995D01*
X519388Y436015D01*
X519384Y436046D01*
X519388Y436089D01*
X519084Y440109D01*
X519075Y440140D01*
X519073Y440183D01*
X518173Y444113D01*
X518160Y444142D01*
X518151Y444184D01*
X516676Y447936D01*
X516659Y447962D01*
X516644Y448003D01*
X514626Y451493D01*
X514605Y451516D01*
X514584Y451554D01*
X512069Y454704D01*
X512044Y454725D01*
X512018Y454759D01*
X509061Y457499D01*
X509034Y457516D01*
X509003Y457546D01*
X505671Y459815D01*
X505641Y459827D01*
X505606Y459852D01*
X501973Y461599D01*
X501942Y461606D01*
X501904Y461626D01*
X498051Y462812D01*
X498019Y462815D01*
X497978Y462828D01*
X493991Y463427D01*
X493960Y463425D01*
X493917Y463432D01*
X489886Y463430D01*
X489855Y463423D01*
X489811Y463424D01*
X485826Y462821D01*
X485796Y462810D01*
X485753Y462804D01*
X481901Y461614D01*
X481874Y461599D01*
X481832Y461586D01*
X478201Y459835D01*
X478179Y459819D01*
X478154Y459809D01*
X478101Y459759D01*
X478043Y459715D01*
X478029Y459691D01*
X478010Y459673D01*
X477980Y459606D01*
X477944Y459542D01*
X477941Y459515D01*
X477930Y459490D01*
X477929Y459417D01*
X477920Y459345D01*
X477928Y459319D01*
X477928Y459292D01*
X477964Y459193D01*
X477976Y459154D01*
X477982Y459147D01*
X477986Y459136D01*
X504986Y412436D01*
X505004Y412415D01*
X505015Y412391D01*
X505069Y412341D01*
X505118Y412287D01*
X505142Y412275D01*
X505162Y412257D01*
X505231Y412233D01*
X505297Y412201D01*
X505324Y412200D01*
X505350Y412191D01*
X505423Y412196D01*
G37*
G36*
X229950Y256206D02*
X229950Y256206D01*
X229981Y256213D01*
X230025Y256212D01*
X234010Y256815D01*
X234040Y256826D01*
X234083Y256832D01*
X237935Y258022D01*
X237962Y258037D01*
X238004Y258050D01*
X241635Y259801D01*
X241657Y259817D01*
X241682Y259827D01*
X241735Y259877D01*
X241793Y259921D01*
X241807Y259945D01*
X241826Y259963D01*
X241856Y260030D01*
X241892Y260094D01*
X241895Y260121D01*
X241906Y260146D01*
X241907Y260219D01*
X241916Y260291D01*
X241908Y260317D01*
X241908Y260345D01*
X241872Y260443D01*
X241860Y260482D01*
X241854Y260490D01*
X241850Y260500D01*
X214850Y307200D01*
X214832Y307221D01*
X214821Y307245D01*
X214767Y307295D01*
X214718Y307349D01*
X214694Y307361D01*
X214674Y307379D01*
X214605Y307403D01*
X214539Y307435D01*
X214512Y307436D01*
X214486Y307445D01*
X214413Y307440D01*
X214340Y307444D01*
X214315Y307434D01*
X214288Y307432D01*
X214192Y307388D01*
X214154Y307374D01*
X214147Y307368D01*
X214137Y307363D01*
X210807Y305090D01*
X210785Y305067D01*
X210749Y305043D01*
X207795Y302300D01*
X207777Y302274D01*
X207745Y302245D01*
X205233Y299092D01*
X205219Y299063D01*
X205191Y299030D01*
X203178Y295538D01*
X203168Y295508D01*
X203145Y295470D01*
X201675Y291717D01*
X201669Y291686D01*
X201653Y291646D01*
X200758Y287715D01*
X200758Y287683D01*
X200747Y287641D01*
X200448Y283621D01*
X200452Y283590D01*
X200448Y283547D01*
X200752Y279527D01*
X200761Y279496D01*
X200763Y279453D01*
X201663Y275523D01*
X201676Y275494D01*
X201685Y275452D01*
X203160Y271701D01*
X203177Y271674D01*
X203192Y271633D01*
X205210Y268143D01*
X205231Y268120D01*
X205252Y268082D01*
X207767Y264932D01*
X207792Y264911D01*
X207818Y264877D01*
X210775Y262137D01*
X210802Y262120D01*
X210833Y262090D01*
X214165Y259822D01*
X214195Y259809D01*
X214230Y259784D01*
X217863Y258037D01*
X217894Y258030D01*
X217932Y258010D01*
X221785Y256824D01*
X221817Y256821D01*
X221858Y256808D01*
X225845Y256209D01*
X225876Y256211D01*
X225919Y256204D01*
X229950Y256206D01*
G37*
G36*
X493948Y256410D02*
X493948Y256410D01*
X493991Y256409D01*
X497978Y257008D01*
X498008Y257019D01*
X498051Y257024D01*
X501904Y258210D01*
X501932Y258225D01*
X501973Y258237D01*
X505606Y259984D01*
X505631Y260003D01*
X505671Y260022D01*
X509003Y262290D01*
X509025Y262313D01*
X509061Y262337D01*
X512018Y265077D01*
X512036Y265103D01*
X512069Y265132D01*
X514584Y268282D01*
X514599Y268310D01*
X514626Y268343D01*
X516644Y271833D01*
X516654Y271864D01*
X516676Y271901D01*
X518151Y275652D01*
X518157Y275684D01*
X518161Y275695D01*
X518162Y275695D01*
X518173Y275723D01*
X519073Y279653D01*
X519073Y279685D01*
X519084Y279727D01*
X519388Y283747D01*
X519384Y283778D01*
X519388Y283821D01*
X519089Y287841D01*
X519080Y287872D01*
X519078Y287915D01*
X518183Y291846D01*
X518170Y291875D01*
X518161Y291917D01*
X516691Y295670D01*
X516673Y295697D01*
X516658Y295738D01*
X514645Y299230D01*
X514624Y299254D01*
X514603Y299292D01*
X512091Y302445D01*
X512067Y302465D01*
X512041Y302500D01*
X509087Y305243D01*
X509060Y305260D01*
X509029Y305290D01*
X505700Y307563D01*
X505674Y307573D01*
X505653Y307591D01*
X505584Y307612D01*
X505516Y307640D01*
X505489Y307640D01*
X505463Y307648D01*
X505390Y307640D01*
X505317Y307640D01*
X505292Y307629D01*
X505265Y307626D01*
X505202Y307590D01*
X505135Y307561D01*
X505116Y307542D01*
X505092Y307529D01*
X505025Y307447D01*
X504997Y307418D01*
X504993Y307409D01*
X504986Y307400D01*
X477986Y260700D01*
X477977Y260675D01*
X477961Y260652D01*
X477946Y260581D01*
X477923Y260512D01*
X477925Y260485D01*
X477919Y260458D01*
X477932Y260386D01*
X477938Y260314D01*
X477950Y260289D01*
X477955Y260263D01*
X477996Y260202D01*
X478029Y260137D01*
X478050Y260120D01*
X478065Y260097D01*
X478151Y260036D01*
X478183Y260010D01*
X478192Y260008D01*
X478201Y260001D01*
X481832Y258250D01*
X481863Y258242D01*
X481901Y258222D01*
X485753Y257032D01*
X485785Y257029D01*
X485826Y257015D01*
X489811Y256412D01*
X489843Y256413D01*
X489886Y256406D01*
X493917Y256404D01*
X493948Y256410D01*
G37*
%LPC*%
G36*
X122439Y362457D02*
X122439Y362457D01*
X118704Y364004D01*
X115846Y366862D01*
X114299Y370597D01*
X114299Y374639D01*
X115846Y378374D01*
X118704Y381232D01*
X119203Y381439D01*
X119204Y381439D01*
X120428Y381946D01*
X121653Y382453D01*
X122439Y382779D01*
X141721Y382779D01*
X145456Y381232D01*
X148314Y378374D01*
X149861Y374639D01*
X149861Y370597D01*
X148314Y366862D01*
X145456Y364004D01*
X144494Y363606D01*
X144493Y363606D01*
X143269Y363098D01*
X142044Y362591D01*
X141721Y362457D01*
X122439Y362457D01*
G37*
%LPD*%
%LPC*%
G36*
X579639Y362457D02*
X579639Y362457D01*
X575904Y364004D01*
X573046Y366862D01*
X571499Y370597D01*
X571499Y374639D01*
X573046Y378374D01*
X575904Y381232D01*
X576403Y381439D01*
X576404Y381439D01*
X577628Y381946D01*
X578853Y382453D01*
X579639Y382779D01*
X598921Y382779D01*
X602656Y381232D01*
X605514Y378374D01*
X607061Y374639D01*
X607061Y370597D01*
X605514Y366862D01*
X602656Y364004D01*
X601694Y363606D01*
X601693Y363606D01*
X600469Y363098D01*
X599244Y362591D01*
X598921Y362457D01*
X579639Y362457D01*
G37*
%LPD*%
%LPC*%
G36*
X122439Y413257D02*
X122439Y413257D01*
X118704Y414804D01*
X115846Y417662D01*
X114299Y421397D01*
X114299Y425439D01*
X115846Y429174D01*
X118704Y432032D01*
X119022Y432164D01*
X120247Y432671D01*
X121472Y433178D01*
X122439Y433579D01*
X141721Y433579D01*
X145456Y432032D01*
X148314Y429174D01*
X149861Y425439D01*
X149861Y421397D01*
X148314Y417662D01*
X145456Y414804D01*
X144313Y414331D01*
X144312Y414331D01*
X143088Y413823D01*
X141863Y413316D01*
X141721Y413257D01*
X122439Y413257D01*
G37*
%LPD*%
%LPC*%
G36*
X579639Y413257D02*
X579639Y413257D01*
X575904Y414804D01*
X573046Y417662D01*
X571499Y421397D01*
X571499Y425439D01*
X573046Y429174D01*
X575904Y432032D01*
X576222Y432164D01*
X577447Y432671D01*
X578672Y433178D01*
X579639Y433579D01*
X598921Y433579D01*
X602656Y432032D01*
X605514Y429174D01*
X607061Y425439D01*
X607061Y421397D01*
X605514Y417662D01*
X602656Y414804D01*
X601513Y414331D01*
X601512Y414331D01*
X600288Y413823D01*
X599063Y413316D01*
X598921Y413257D01*
X579639Y413257D01*
G37*
%LPD*%
%LPC*%
G36*
X579639Y311657D02*
X579639Y311657D01*
X575904Y313204D01*
X573046Y316062D01*
X571499Y319797D01*
X571499Y323839D01*
X573046Y327574D01*
X575904Y330432D01*
X576584Y330714D01*
X576585Y330714D01*
X577809Y331221D01*
X579034Y331728D01*
X579639Y331979D01*
X598921Y331979D01*
X602656Y330432D01*
X605514Y327574D01*
X607061Y323839D01*
X607061Y319797D01*
X605514Y316062D01*
X602656Y313204D01*
X601875Y312881D01*
X600650Y312373D01*
X599425Y311866D01*
X598921Y311657D01*
X579639Y311657D01*
G37*
%LPD*%
%LPC*%
G36*
X122439Y311657D02*
X122439Y311657D01*
X118704Y313204D01*
X115846Y316062D01*
X114299Y319797D01*
X114299Y323839D01*
X115846Y327574D01*
X118704Y330432D01*
X119384Y330714D01*
X119385Y330714D01*
X120609Y331221D01*
X121834Y331728D01*
X122439Y331979D01*
X141721Y331979D01*
X145456Y330432D01*
X148314Y327574D01*
X149861Y323839D01*
X149861Y319797D01*
X148314Y316062D01*
X145456Y313204D01*
X144675Y312881D01*
X143450Y312373D01*
X142225Y311866D01*
X141721Y311657D01*
X122439Y311657D01*
G37*
%LPD*%
%LPC*%
G36*
X122439Y286257D02*
X122439Y286257D01*
X118704Y287804D01*
X115846Y290662D01*
X114299Y294397D01*
X114299Y298439D01*
X115846Y302174D01*
X118704Y305032D01*
X119475Y305351D01*
X120700Y305858D01*
X121924Y306366D01*
X122439Y306579D01*
X141721Y306579D01*
X145456Y305032D01*
X148314Y302174D01*
X149861Y298439D01*
X149861Y294397D01*
X148314Y290662D01*
X145456Y287804D01*
X144765Y287518D01*
X143541Y287011D01*
X143540Y287011D01*
X142316Y286504D01*
X141721Y286257D01*
X122439Y286257D01*
G37*
%LPD*%
%LPC*%
G36*
X579639Y286257D02*
X579639Y286257D01*
X575904Y287804D01*
X573046Y290662D01*
X571499Y294397D01*
X571499Y298439D01*
X573046Y302174D01*
X575904Y305032D01*
X576675Y305351D01*
X577900Y305858D01*
X579124Y306366D01*
X579639Y306579D01*
X598921Y306579D01*
X602656Y305032D01*
X605514Y302174D01*
X607061Y298439D01*
X607061Y294397D01*
X605514Y290662D01*
X602656Y287804D01*
X601965Y287518D01*
X600741Y287011D01*
X600740Y287011D01*
X599516Y286504D01*
X598921Y286257D01*
X579639Y286257D01*
G37*
%LPD*%
D10*
X451918Y519253D03*
X543918Y359918D03*
X451918Y200583D03*
X267918Y200583D03*
X175918Y359918D03*
X267918Y519253D03*
X497918Y439486D03*
X497918Y280351D03*
X359918Y200583D03*
X221918Y280151D03*
X221918Y439486D03*
X359918Y519253D03*
D11*
X581660Y245618D02*
X596900Y245618D01*
X596900Y271018D02*
X581660Y271018D01*
X581660Y296418D02*
X596900Y296418D01*
X596900Y321818D02*
X581660Y321818D01*
X581660Y347218D02*
X596900Y347218D01*
X596900Y372618D02*
X581660Y372618D01*
X581660Y398018D02*
X596900Y398018D01*
X596900Y423418D02*
X581660Y423418D01*
X581660Y448818D02*
X596900Y448818D01*
X596900Y474218D02*
X581660Y474218D01*
X139700Y245618D02*
X124460Y245618D01*
X124460Y271018D02*
X139700Y271018D01*
X139700Y296418D02*
X124460Y296418D01*
X124460Y321818D02*
X139700Y321818D01*
X139700Y347218D02*
X124460Y347218D01*
X124460Y372618D02*
X139700Y372618D01*
X139700Y398018D02*
X124460Y398018D01*
X124460Y423418D02*
X139700Y423418D01*
X139700Y448818D02*
X124460Y448818D01*
X124460Y474218D02*
X139700Y474218D01*
D12*
X162260Y184810D03*
X162260Y194310D03*
X162260Y203810D03*
X188260Y203810D03*
X188260Y184810D03*
D13*
X187960Y222640D03*
X187960Y239640D03*
D14*
X217170Y185390D03*
X217170Y213390D03*
X132080Y180280D03*
X132080Y208280D03*
D15*
X188350Y161290D03*
X205350Y161290D03*
D16*
X188260Y161380D02*
X188260Y184810D01*
X188260Y161380D02*
X188350Y161290D01*
D17*
X198120Y184150D03*
X187960Y175260D03*
D16*
X198120Y184150D02*
X215930Y184150D01*
X217170Y185390D01*
X198120Y184150D02*
X188920Y184150D01*
X188260Y184810D01*
X168300Y203810D02*
X162260Y203810D01*
X168300Y203810D02*
X175260Y196850D01*
X175260Y190500D01*
X169570Y184810D02*
X162260Y184810D01*
X169570Y184810D02*
X175260Y190500D01*
X162260Y184810D02*
X136610Y184810D01*
X132080Y180280D01*
X132080Y271018D02*
X143002Y271018D01*
X161290Y252730D01*
X161290Y204780D01*
X162260Y203810D01*
X572008Y271018D02*
X589280Y271018D01*
X572008Y271018D02*
X449580Y148590D01*
X163770Y148590D02*
X132080Y180280D01*
X163770Y148590D02*
X449580Y148590D01*
D18*
X508518Y448818D02*
X589280Y448818D01*
X508518Y448818D02*
X497918Y439486D01*
X584708Y398018D02*
X589280Y398018D01*
D19*
X563880Y349200D02*
X500918Y286238D01*
D18*
X497918Y280351D01*
D19*
X563880Y377190D02*
X584708Y398018D01*
X563880Y377190D02*
X563880Y349200D01*
D18*
X380506Y176530D02*
X359918Y200583D01*
X563880Y276860D02*
X563880Y327660D01*
X583438Y347218D01*
X589280Y347218D01*
X463550Y176530D02*
X380506Y176530D01*
X463550Y176530D02*
X563880Y276860D01*
X150118Y347218D02*
X132080Y347218D01*
X150118Y347218D02*
X221918Y280151D01*
X175718Y398018D02*
X132080Y398018D01*
X175718Y398018D02*
X221918Y439486D01*
X155448Y448818D02*
X132080Y448818D01*
X155448Y448818D02*
X256540Y549910D01*
X332726Y549910D01*
D19*
X359918Y519253D01*
D16*
X187960Y222640D02*
X187960Y204110D01*
X188260Y203810D01*
M02*
