G04 EAGLE Gerber RS-274X export*
G75*
%MOMM*%
%FSLAX34Y34*%
%LPD*%
%INSoldermask Bottom*%
%IPPOS*%
%AMOC8*
5,1,8,0,0,1.08239X$1,22.5*%
G01*
%ADD10C,1.101600*%
%ADD11C,1.625600*%
%ADD12R,1.301600X0.651600*%
%ADD13R,1.101600X1.201600*%
%ADD14R,2.801600X1.701600*%
%ADD15R,1.201600X1.101600*%

G36*
X538759Y340572D02*
X538759Y340572D01*
X538793Y340581D01*
X538842Y340584D01*
X541946Y341312D01*
X541978Y341327D01*
X542025Y341338D01*
X544965Y342573D01*
X544994Y342593D01*
X545039Y342612D01*
X547731Y344321D01*
X547756Y344345D01*
X547798Y344371D01*
X550167Y346505D01*
X550172Y346511D01*
X550175Y346514D01*
X550185Y346528D01*
X550188Y346533D01*
X550224Y346566D01*
X552205Y349064D01*
X552221Y349096D01*
X552251Y349134D01*
X553787Y351928D01*
X553798Y351962D01*
X553821Y352004D01*
X554870Y355016D01*
X554874Y355050D01*
X554891Y355097D01*
X555422Y358240D01*
X555421Y358276D01*
X555429Y358324D01*
X555429Y361512D01*
X555422Y361547D01*
X555422Y361596D01*
X554891Y364739D01*
X554878Y364772D01*
X554870Y364820D01*
X553821Y367832D01*
X553803Y367862D01*
X553787Y367908D01*
X552251Y370702D01*
X552228Y370729D01*
X552205Y370772D01*
X550224Y373270D01*
X550197Y373293D01*
X550167Y373331D01*
X547798Y375465D01*
X547767Y375483D01*
X547731Y375515D01*
X545039Y377224D01*
X545006Y377236D01*
X544965Y377263D01*
X542025Y378498D01*
X541991Y378505D01*
X541946Y378524D01*
X538842Y379252D01*
X538806Y379253D01*
X538759Y379264D01*
X535577Y379465D01*
X535542Y379460D01*
X535493Y379463D01*
X532322Y379130D01*
X532289Y379119D01*
X532240Y379114D01*
X529169Y378256D01*
X529138Y378241D01*
X529091Y378227D01*
X526205Y376870D01*
X526182Y376852D01*
X526155Y376842D01*
X526103Y376793D01*
X526046Y376751D01*
X526031Y376726D01*
X526010Y376706D01*
X525981Y376641D01*
X525946Y376579D01*
X525942Y376550D01*
X525930Y376524D01*
X525929Y376453D01*
X525920Y376382D01*
X525928Y376354D01*
X525928Y376325D01*
X525962Y376232D01*
X525974Y376191D01*
X525981Y376182D01*
X525985Y376169D01*
X535342Y359918D01*
X525985Y343667D01*
X525976Y343640D01*
X525959Y343616D01*
X525945Y343546D01*
X525922Y343478D01*
X525925Y343449D01*
X525919Y343421D01*
X525933Y343351D01*
X525938Y343280D01*
X525952Y343254D01*
X525957Y343226D01*
X525997Y343167D01*
X526030Y343104D01*
X526052Y343085D01*
X526069Y343061D01*
X526151Y343004D01*
X526183Y342977D01*
X526194Y342974D01*
X526205Y342966D01*
X529091Y341609D01*
X529125Y341600D01*
X529169Y341580D01*
X532240Y340722D01*
X532275Y340720D01*
X532322Y340706D01*
X535493Y340373D01*
X535528Y340376D01*
X535577Y340371D01*
X538759Y340572D01*
G37*
G36*
X184294Y340376D02*
X184294Y340376D01*
X184343Y340373D01*
X187514Y340706D01*
X187547Y340717D01*
X187596Y340722D01*
X190667Y341580D01*
X190698Y341595D01*
X190745Y341609D01*
X193631Y342966D01*
X193654Y342984D01*
X193681Y342994D01*
X193733Y343043D01*
X193790Y343085D01*
X193805Y343110D01*
X193826Y343130D01*
X193855Y343195D01*
X193890Y343257D01*
X193894Y343286D01*
X193906Y343312D01*
X193907Y343383D01*
X193916Y343454D01*
X193908Y343482D01*
X193909Y343511D01*
X193874Y343604D01*
X193862Y343645D01*
X193855Y343654D01*
X193851Y343667D01*
X184494Y359918D01*
X193851Y376169D01*
X193860Y376197D01*
X193877Y376221D01*
X193891Y376290D01*
X193914Y376358D01*
X193911Y376387D01*
X193917Y376415D01*
X193903Y376485D01*
X193898Y376556D01*
X193884Y376582D01*
X193879Y376610D01*
X193839Y376669D01*
X193806Y376732D01*
X193784Y376751D01*
X193767Y376775D01*
X193685Y376832D01*
X193653Y376859D01*
X193642Y376862D01*
X193631Y376870D01*
X190745Y378227D01*
X190711Y378236D01*
X190667Y378256D01*
X187596Y379114D01*
X187561Y379116D01*
X187514Y379130D01*
X184343Y379463D01*
X184308Y379460D01*
X184259Y379465D01*
X181077Y379264D01*
X181043Y379255D01*
X180994Y379252D01*
X177890Y378524D01*
X177858Y378510D01*
X177811Y378498D01*
X177277Y378274D01*
X176089Y377775D01*
X174901Y377275D01*
X174871Y377263D01*
X174842Y377243D01*
X174797Y377224D01*
X172105Y375515D01*
X172080Y375491D01*
X172039Y375465D01*
X169669Y373331D01*
X169648Y373303D01*
X169612Y373270D01*
X167631Y370772D01*
X167615Y370740D01*
X167585Y370702D01*
X166049Y367908D01*
X166038Y367874D01*
X166015Y367832D01*
X164966Y364820D01*
X164962Y364786D01*
X164945Y364739D01*
X164414Y361596D01*
X164415Y361561D01*
X164407Y361512D01*
X164407Y358324D01*
X164414Y358289D01*
X164414Y358240D01*
X164945Y355097D01*
X164958Y355064D01*
X164966Y355016D01*
X166015Y352004D01*
X166033Y351974D01*
X166049Y351928D01*
X167585Y349134D01*
X167608Y349107D01*
X167631Y349064D01*
X169612Y346566D01*
X169639Y346543D01*
X169669Y346505D01*
X172039Y344371D01*
X172069Y344353D01*
X172105Y344321D01*
X174797Y342612D01*
X174830Y342600D01*
X174871Y342573D01*
X177811Y341338D01*
X177845Y341331D01*
X177890Y341312D01*
X180994Y340584D01*
X181030Y340583D01*
X181077Y340572D01*
X184259Y340371D01*
X184294Y340376D01*
G37*
G36*
X273100Y188036D02*
X273100Y188036D01*
X273148Y188035D01*
X276297Y188496D01*
X276330Y188508D01*
X276378Y188515D01*
X279406Y189494D01*
X279436Y189512D01*
X279483Y189527D01*
X282304Y190998D01*
X282331Y191020D01*
X282375Y191042D01*
X284912Y192963D01*
X284935Y192989D01*
X284974Y193019D01*
X287155Y195336D01*
X287173Y195366D01*
X287207Y195401D01*
X288971Y198049D01*
X288984Y198082D01*
X289011Y198123D01*
X290309Y201028D01*
X290316Y201062D01*
X290336Y201107D01*
X291131Y204188D01*
X291133Y204223D01*
X291145Y204270D01*
X291415Y207441D01*
X291412Y207470D01*
X291417Y207500D01*
X291401Y207568D01*
X291393Y207638D01*
X291378Y207664D01*
X291371Y207693D01*
X291329Y207750D01*
X291294Y207811D01*
X291271Y207829D01*
X291253Y207853D01*
X291193Y207889D01*
X291136Y207932D01*
X291108Y207939D01*
X291082Y207955D01*
X290986Y207971D01*
X290944Y207982D01*
X290932Y207980D01*
X290918Y207982D01*
X272207Y207982D01*
X262851Y224232D01*
X262831Y224254D01*
X262819Y224281D01*
X262779Y224317D01*
X262757Y224346D01*
X262743Y224354D01*
X262719Y224381D01*
X262693Y224394D01*
X262671Y224414D01*
X262604Y224436D01*
X262586Y224447D01*
X262579Y224448D01*
X262540Y224467D01*
X262510Y224469D01*
X262483Y224478D01*
X262426Y224474D01*
X262422Y224475D01*
X262407Y224475D01*
X262401Y224474D01*
X262341Y224476D01*
X262313Y224466D01*
X262284Y224464D01*
X262231Y224439D01*
X262212Y224435D01*
X262191Y224421D01*
X262155Y224407D01*
X262146Y224399D01*
X262134Y224393D01*
X259519Y222580D01*
X259494Y222555D01*
X259454Y222527D01*
X257178Y220304D01*
X257158Y220275D01*
X257123Y220241D01*
X255250Y217668D01*
X255235Y217637D01*
X255207Y217597D01*
X253788Y214749D01*
X253779Y214715D01*
X253758Y214671D01*
X252834Y211626D01*
X252831Y211591D01*
X252817Y211544D01*
X252414Y208388D01*
X252417Y208353D01*
X252411Y208304D01*
X252540Y205125D01*
X252548Y205091D01*
X252550Y205042D01*
X253208Y201929D01*
X253222Y201897D01*
X253232Y201849D01*
X254400Y198889D01*
X254419Y198860D01*
X254437Y198814D01*
X256082Y196090D01*
X256106Y196065D01*
X256131Y196023D01*
X258208Y193612D01*
X258235Y193590D01*
X258267Y193553D01*
X260716Y191522D01*
X260747Y191505D01*
X260785Y191474D01*
X263539Y189880D01*
X263572Y189869D01*
X263614Y189844D01*
X266595Y188731D01*
X266630Y188726D01*
X266676Y188709D01*
X269801Y188109D01*
X269836Y188109D01*
X269884Y188100D01*
X273065Y188030D01*
X273100Y188036D01*
G37*
G36*
X449952Y188100D02*
X449952Y188100D01*
X449987Y188108D01*
X450035Y188109D01*
X453160Y188709D01*
X453193Y188722D01*
X453241Y188731D01*
X456222Y189844D01*
X456251Y189863D01*
X456297Y189880D01*
X459051Y191474D01*
X459077Y191497D01*
X459120Y191522D01*
X461569Y193553D01*
X461591Y193580D01*
X461629Y193612D01*
X463705Y196023D01*
X463722Y196053D01*
X463754Y196090D01*
X465399Y198814D01*
X465411Y198847D01*
X465436Y198889D01*
X465611Y199333D01*
X465808Y199832D01*
X466604Y201849D01*
X466610Y201883D01*
X466628Y201929D01*
X467286Y205042D01*
X467286Y205077D01*
X467296Y205125D01*
X467426Y208304D01*
X467420Y208339D01*
X467422Y208388D01*
X467019Y211544D01*
X467008Y211577D01*
X467002Y211626D01*
X466079Y214671D01*
X466066Y214694D01*
X466065Y214700D01*
X466061Y214705D01*
X466048Y214749D01*
X464629Y217597D01*
X464608Y217625D01*
X464586Y217668D01*
X462713Y220241D01*
X462687Y220264D01*
X462658Y220304D01*
X460382Y222527D01*
X460352Y222546D01*
X460317Y222580D01*
X457702Y224393D01*
X457675Y224405D01*
X457653Y224424D01*
X457612Y224436D01*
X457593Y224447D01*
X457567Y224451D01*
X457520Y224472D01*
X457490Y224472D01*
X457462Y224480D01*
X457392Y224472D01*
X457321Y224473D01*
X457294Y224461D01*
X457264Y224458D01*
X457227Y224437D01*
X457219Y224435D01*
X457200Y224422D01*
X457137Y224396D01*
X457117Y224375D01*
X457091Y224360D01*
X457067Y224331D01*
X457055Y224323D01*
X457037Y224295D01*
X457029Y224285D01*
X456999Y224254D01*
X456994Y224243D01*
X456985Y224232D01*
X447629Y207982D01*
X428918Y207982D01*
X428889Y207976D01*
X428859Y207979D01*
X428792Y207957D01*
X428723Y207943D01*
X428699Y207926D01*
X428670Y207917D01*
X428617Y207870D01*
X428559Y207830D01*
X428543Y207805D01*
X428521Y207785D01*
X428490Y207722D01*
X428452Y207663D01*
X428447Y207633D01*
X428434Y207606D01*
X428426Y207509D01*
X428419Y207466D01*
X428422Y207455D01*
X428421Y207441D01*
X428691Y204270D01*
X428701Y204237D01*
X428705Y204188D01*
X429500Y201107D01*
X429515Y201075D01*
X429527Y201028D01*
X430825Y198123D01*
X430845Y198094D01*
X430865Y198049D01*
X432629Y195401D01*
X432654Y195376D01*
X432681Y195336D01*
X434862Y193019D01*
X434891Y192999D01*
X434924Y192963D01*
X437461Y191042D01*
X437493Y191027D01*
X437532Y190998D01*
X440353Y189527D01*
X440387Y189517D01*
X440431Y189494D01*
X443458Y188515D01*
X443493Y188511D01*
X443539Y188496D01*
X446688Y188035D01*
X446723Y188037D01*
X446771Y188030D01*
X449952Y188100D01*
G37*
G36*
X262444Y495364D02*
X262444Y495364D01*
X262515Y495363D01*
X262542Y495375D01*
X262572Y495378D01*
X262633Y495413D01*
X262699Y495440D01*
X262719Y495461D01*
X262745Y495476D01*
X262807Y495551D01*
X262838Y495582D01*
X262842Y495593D01*
X262851Y495604D01*
X272207Y511854D01*
X290918Y511854D01*
X290947Y511860D01*
X290977Y511857D01*
X291044Y511879D01*
X291113Y511893D01*
X291137Y511910D01*
X291166Y511920D01*
X291219Y511966D01*
X291277Y512006D01*
X291293Y512031D01*
X291315Y512051D01*
X291346Y512114D01*
X291384Y512173D01*
X291389Y512203D01*
X291402Y512230D01*
X291410Y512327D01*
X291417Y512370D01*
X291414Y512381D01*
X291415Y512395D01*
X291145Y515566D01*
X291136Y515600D01*
X291131Y515648D01*
X290336Y518729D01*
X290321Y518761D01*
X290309Y518808D01*
X289011Y521713D01*
X288991Y521742D01*
X288971Y521787D01*
X287207Y524435D01*
X287182Y524460D01*
X287155Y524500D01*
X284974Y526817D01*
X284945Y526837D01*
X284912Y526873D01*
X282375Y528794D01*
X282343Y528809D01*
X282304Y528838D01*
X279483Y530309D01*
X279449Y530319D01*
X279406Y530342D01*
X276378Y531321D01*
X276343Y531325D01*
X276297Y531340D01*
X273148Y531801D01*
X273113Y531799D01*
X273065Y531806D01*
X269884Y531736D01*
X269850Y531728D01*
X269801Y531727D01*
X266676Y531127D01*
X266643Y531114D01*
X266595Y531105D01*
X263614Y529992D01*
X263585Y529973D01*
X263539Y529956D01*
X260785Y528362D01*
X260759Y528339D01*
X260716Y528314D01*
X258267Y526283D01*
X258245Y526256D01*
X258208Y526224D01*
X256131Y523813D01*
X256114Y523783D01*
X256082Y523746D01*
X254437Y521022D01*
X254425Y520989D01*
X254400Y520947D01*
X253232Y517987D01*
X253226Y517953D01*
X253208Y517907D01*
X252550Y514794D01*
X252550Y514759D01*
X252540Y514711D01*
X252411Y511532D01*
X252416Y511497D01*
X252414Y511448D01*
X252817Y508292D01*
X252828Y508259D01*
X252834Y508210D01*
X253758Y505165D01*
X253771Y505140D01*
X253774Y505129D01*
X253777Y505124D01*
X253788Y505087D01*
X255207Y502239D01*
X255228Y502211D01*
X255250Y502168D01*
X257123Y499596D01*
X257149Y499572D01*
X257178Y499532D01*
X259454Y497309D01*
X259484Y497290D01*
X259519Y497256D01*
X262134Y495443D01*
X262161Y495431D01*
X262183Y495412D01*
X262251Y495392D01*
X262316Y495364D01*
X262346Y495364D01*
X262374Y495356D01*
X262444Y495364D01*
G37*
G36*
X457424Y495363D02*
X457424Y495363D01*
X457495Y495360D01*
X457523Y495370D01*
X457552Y495372D01*
X457641Y495414D01*
X457681Y495429D01*
X457690Y495437D01*
X457702Y495443D01*
X460317Y497256D01*
X460342Y497281D01*
X460382Y497309D01*
X462658Y499532D01*
X462678Y499561D01*
X462713Y499596D01*
X464586Y502168D01*
X464601Y502199D01*
X464629Y502239D01*
X466048Y505087D01*
X466057Y505121D01*
X466079Y505165D01*
X467002Y508210D01*
X467005Y508245D01*
X467019Y508292D01*
X467422Y511448D01*
X467419Y511483D01*
X467426Y511532D01*
X467296Y514711D01*
X467288Y514745D01*
X467286Y514794D01*
X466628Y517907D01*
X466614Y517939D01*
X466604Y517987D01*
X465436Y520947D01*
X465417Y520976D01*
X465399Y521022D01*
X463754Y523746D01*
X463730Y523771D01*
X463705Y523813D01*
X461629Y526224D01*
X461601Y526246D01*
X461569Y526283D01*
X459120Y528314D01*
X459089Y528331D01*
X459051Y528362D01*
X456297Y529956D01*
X456264Y529967D01*
X456222Y529992D01*
X453241Y531105D01*
X453206Y531110D01*
X453160Y531127D01*
X450035Y531727D01*
X450000Y531727D01*
X449952Y531736D01*
X446771Y531806D01*
X446737Y531800D01*
X446688Y531801D01*
X443539Y531340D01*
X443506Y531328D01*
X443458Y531321D01*
X440431Y530342D01*
X440400Y530324D01*
X440353Y530309D01*
X437532Y528838D01*
X437505Y528816D01*
X437461Y528794D01*
X434924Y526873D01*
X434901Y526847D01*
X434862Y526817D01*
X432681Y524500D01*
X432663Y524470D01*
X432629Y524435D01*
X430865Y521787D01*
X430852Y521754D01*
X430825Y521713D01*
X429527Y518808D01*
X429520Y518774D01*
X429500Y518729D01*
X428705Y515648D01*
X428703Y515613D01*
X428691Y515566D01*
X428421Y512395D01*
X428424Y512366D01*
X428419Y512336D01*
X428435Y512268D01*
X428443Y512198D01*
X428458Y512172D01*
X428465Y512143D01*
X428507Y512086D01*
X428542Y512025D01*
X428565Y512007D01*
X428583Y511983D01*
X428643Y511947D01*
X428700Y511904D01*
X428728Y511897D01*
X428754Y511881D01*
X428850Y511865D01*
X428892Y511854D01*
X428904Y511856D01*
X428918Y511854D01*
X447629Y511854D01*
X456985Y495604D01*
X457005Y495582D01*
X457017Y495555D01*
X457070Y495508D01*
X457117Y495455D01*
X457143Y495442D01*
X457165Y495422D01*
X457232Y495399D01*
X457296Y495369D01*
X457326Y495368D01*
X457353Y495358D01*
X457424Y495363D01*
G37*
G36*
X494298Y266441D02*
X494298Y266441D01*
X494331Y266450D01*
X494380Y266453D01*
X497123Y267070D01*
X497154Y267084D01*
X497201Y267095D01*
X499805Y268155D01*
X499834Y268174D01*
X499879Y268192D01*
X502273Y269666D01*
X502298Y269690D01*
X502339Y269715D01*
X504458Y271563D01*
X504479Y271591D01*
X504516Y271623D01*
X506301Y273794D01*
X506318Y273825D01*
X506348Y273862D01*
X507752Y276298D01*
X507763Y276331D01*
X507787Y276373D01*
X508771Y279007D01*
X508776Y279041D01*
X508793Y279086D01*
X509330Y281846D01*
X509330Y281881D01*
X509339Y281928D01*
X509414Y284739D01*
X509411Y284757D01*
X509414Y284772D01*
X509409Y284793D01*
X509410Y284821D01*
X509021Y287606D01*
X509010Y287638D01*
X509003Y287686D01*
X508162Y290369D01*
X508145Y290399D01*
X508131Y290445D01*
X506859Y292953D01*
X506837Y292980D01*
X506816Y293023D01*
X505149Y295287D01*
X505123Y295311D01*
X505095Y295349D01*
X503078Y297308D01*
X503049Y297327D01*
X503014Y297361D01*
X500702Y298961D01*
X500675Y298973D01*
X500653Y298991D01*
X500585Y299011D01*
X500519Y299039D01*
X500490Y299039D01*
X500462Y299048D01*
X500392Y299040D01*
X500321Y299040D01*
X500294Y299029D01*
X500265Y299026D01*
X500203Y298991D01*
X500137Y298963D01*
X500117Y298942D01*
X500091Y298928D01*
X500028Y298851D01*
X499998Y298821D01*
X499994Y298810D01*
X499985Y298800D01*
X482985Y269300D01*
X482976Y269272D01*
X482960Y269248D01*
X482945Y269179D01*
X482922Y269111D01*
X482925Y269082D01*
X482919Y269054D01*
X482932Y268984D01*
X482938Y268913D01*
X482952Y268887D01*
X482957Y268858D01*
X482997Y268800D01*
X483030Y268737D01*
X483052Y268718D01*
X483069Y268694D01*
X483151Y268637D01*
X483183Y268610D01*
X483194Y268607D01*
X483205Y268599D01*
X485749Y267401D01*
X485783Y267393D01*
X485826Y267372D01*
X488532Y266609D01*
X488567Y266607D01*
X488613Y266594D01*
X491408Y266286D01*
X491443Y266290D01*
X491491Y266284D01*
X494298Y266441D01*
G37*
G36*
X228380Y266089D02*
X228380Y266089D01*
X228428Y266086D01*
X231223Y266394D01*
X231256Y266404D01*
X231304Y266409D01*
X234010Y267172D01*
X234041Y267188D01*
X234087Y267201D01*
X236631Y268399D01*
X236654Y268416D01*
X236681Y268426D01*
X236733Y268475D01*
X236790Y268518D01*
X236805Y268543D01*
X236826Y268563D01*
X236855Y268628D01*
X236891Y268689D01*
X236894Y268718D01*
X236906Y268745D01*
X236907Y268816D01*
X236916Y268887D01*
X236908Y268915D01*
X236908Y268944D01*
X236874Y269037D01*
X236862Y269078D01*
X236855Y269087D01*
X236851Y269100D01*
X219851Y298600D01*
X219831Y298622D01*
X219819Y298648D01*
X219766Y298696D01*
X219719Y298749D01*
X219693Y298761D01*
X219671Y298781D01*
X219604Y298804D01*
X219540Y298835D01*
X219511Y298836D01*
X219483Y298846D01*
X219412Y298841D01*
X219341Y298844D01*
X219314Y298834D01*
X219285Y298832D01*
X219195Y298789D01*
X219155Y298775D01*
X219146Y298767D01*
X219134Y298761D01*
X216822Y297161D01*
X216798Y297136D01*
X216758Y297108D01*
X214741Y295149D01*
X214722Y295121D01*
X214687Y295087D01*
X213020Y292823D01*
X213006Y292792D01*
X212977Y292753D01*
X211705Y290245D01*
X211701Y290231D01*
X211699Y290227D01*
X211697Y290214D01*
X211696Y290212D01*
X211674Y290169D01*
X210833Y287486D01*
X210829Y287452D01*
X210815Y287406D01*
X210426Y284621D01*
X210428Y284586D01*
X210422Y284539D01*
X210497Y281728D01*
X210505Y281694D01*
X210506Y281646D01*
X211043Y278886D01*
X211056Y278854D01*
X211065Y278807D01*
X212049Y276173D01*
X212067Y276144D01*
X212084Y276098D01*
X213488Y273662D01*
X213511Y273636D01*
X213535Y273594D01*
X215320Y271423D01*
X215347Y271401D01*
X215378Y271363D01*
X217497Y269515D01*
X217527Y269498D01*
X217563Y269466D01*
X219957Y267992D01*
X219990Y267980D01*
X220031Y267955D01*
X222635Y266895D01*
X222669Y266888D01*
X222713Y266870D01*
X225457Y266253D01*
X225491Y266252D01*
X225538Y266241D01*
X228345Y266084D01*
X228380Y266089D01*
G37*
G36*
X500424Y420795D02*
X500424Y420795D01*
X500495Y420792D01*
X500522Y420802D01*
X500552Y420804D01*
X500641Y420847D01*
X500681Y420861D01*
X500690Y420869D01*
X500702Y420875D01*
X503014Y422475D01*
X503038Y422500D01*
X503078Y422528D01*
X505095Y424487D01*
X505114Y424515D01*
X505149Y424549D01*
X506816Y426813D01*
X506830Y426844D01*
X506859Y426883D01*
X508131Y429391D01*
X508140Y429424D01*
X508162Y429467D01*
X509003Y432150D01*
X509007Y432184D01*
X509021Y432230D01*
X509410Y435015D01*
X509408Y435050D01*
X509414Y435097D01*
X509339Y437908D01*
X509331Y437942D01*
X509330Y437990D01*
X508793Y440750D01*
X508780Y440782D01*
X508771Y440829D01*
X507787Y443463D01*
X507769Y443493D01*
X507752Y443538D01*
X506348Y445974D01*
X506325Y446000D01*
X506301Y446042D01*
X504516Y448213D01*
X504489Y448235D01*
X504458Y448273D01*
X502339Y450121D01*
X502309Y450138D01*
X502273Y450170D01*
X499879Y451644D01*
X499846Y451656D01*
X499805Y451681D01*
X497201Y452741D01*
X497167Y452748D01*
X497123Y452766D01*
X494380Y453383D01*
X494345Y453384D01*
X494298Y453395D01*
X491491Y453552D01*
X491456Y453547D01*
X491408Y453550D01*
X488613Y453243D01*
X488580Y453232D01*
X488532Y453227D01*
X485826Y452464D01*
X485795Y452448D01*
X485749Y452435D01*
X483205Y451237D01*
X483182Y451220D01*
X483155Y451210D01*
X483103Y451161D01*
X483046Y451118D01*
X483031Y451093D01*
X483010Y451073D01*
X482981Y451008D01*
X482946Y450947D01*
X482942Y450918D01*
X482930Y450891D01*
X482929Y450820D01*
X482920Y450749D01*
X482928Y450721D01*
X482928Y450692D01*
X482962Y450599D01*
X482974Y450558D01*
X482981Y450549D01*
X482985Y450536D01*
X499985Y421036D01*
X500005Y421014D01*
X500017Y420988D01*
X500070Y420941D01*
X500117Y420887D01*
X500143Y420875D01*
X500165Y420855D01*
X500232Y420832D01*
X500296Y420801D01*
X500326Y420800D01*
X500353Y420790D01*
X500424Y420795D01*
G37*
G36*
X219443Y420796D02*
X219443Y420796D01*
X219513Y420795D01*
X219541Y420807D01*
X219571Y420810D01*
X219632Y420845D01*
X219697Y420871D01*
X219718Y420893D01*
X219745Y420908D01*
X219806Y420982D01*
X219836Y421013D01*
X219841Y421025D01*
X219851Y421036D01*
X236851Y450536D01*
X236860Y450565D01*
X236877Y450590D01*
X236891Y450659D01*
X236914Y450725D01*
X236911Y450755D01*
X236917Y450785D01*
X236903Y450853D01*
X236898Y450923D01*
X236884Y450950D01*
X236878Y450980D01*
X236838Y451037D01*
X236806Y451099D01*
X236783Y451119D01*
X236766Y451144D01*
X236686Y451199D01*
X236653Y451226D01*
X236641Y451230D01*
X236629Y451238D01*
X233938Y452490D01*
X233903Y452499D01*
X233856Y452520D01*
X230989Y453285D01*
X230953Y453288D01*
X230904Y453301D01*
X227947Y453557D01*
X227911Y453553D01*
X227860Y453557D01*
X224904Y453296D01*
X224870Y453285D01*
X224819Y453280D01*
X221953Y452510D01*
X221921Y452494D01*
X221871Y452480D01*
X219183Y451224D01*
X219154Y451202D01*
X219107Y451180D01*
X216678Y449476D01*
X216653Y449450D01*
X216611Y449420D01*
X214515Y447320D01*
X214495Y447290D01*
X214459Y447254D01*
X212759Y444822D01*
X212744Y444788D01*
X212715Y444746D01*
X211463Y442056D01*
X211455Y442020D01*
X211434Y441974D01*
X210668Y439107D01*
X210666Y439071D01*
X210653Y439021D01*
X210397Y436065D01*
X210401Y436029D01*
X210397Y435978D01*
X210658Y433022D01*
X210668Y432987D01*
X210673Y432936D01*
X211443Y430070D01*
X211460Y430038D01*
X211473Y429989D01*
X212729Y427300D01*
X212751Y427271D01*
X212773Y427225D01*
X214477Y424796D01*
X214503Y424771D01*
X214533Y424729D01*
X216633Y422632D01*
X216663Y422612D01*
X216700Y422576D01*
X219132Y420876D01*
X219160Y420864D01*
X219183Y420845D01*
X219250Y420825D01*
X219314Y420797D01*
X219345Y420797D01*
X219374Y420788D01*
X219443Y420796D01*
G37*
G36*
X376947Y511860D02*
X376947Y511860D01*
X376976Y511857D01*
X377043Y511879D01*
X377113Y511893D01*
X377137Y511910D01*
X377165Y511919D01*
X377218Y511966D01*
X377277Y512006D01*
X377293Y512030D01*
X377315Y512050D01*
X377346Y512114D01*
X377384Y512173D01*
X377389Y512202D01*
X377401Y512228D01*
X377410Y512328D01*
X377417Y512370D01*
X377414Y512380D01*
X377416Y512394D01*
X377184Y515192D01*
X377174Y515226D01*
X377170Y515274D01*
X376481Y517995D01*
X376466Y518027D01*
X376454Y518073D01*
X375326Y520645D01*
X375306Y520673D01*
X375287Y520717D01*
X373751Y523068D01*
X373727Y523092D01*
X373701Y523133D01*
X371799Y525198D01*
X371771Y525219D01*
X371738Y525254D01*
X369523Y526979D01*
X369492Y526994D01*
X369454Y527024D01*
X366984Y528360D01*
X366951Y528370D01*
X366909Y528393D01*
X364269Y529300D01*
X364253Y529305D01*
X364219Y529310D01*
X364173Y529325D01*
X361404Y529787D01*
X361369Y529786D01*
X361322Y529794D01*
X358514Y529794D01*
X358480Y529787D01*
X358432Y529787D01*
X355663Y529325D01*
X355630Y529313D01*
X355583Y529305D01*
X352927Y528393D01*
X352897Y528376D01*
X352852Y528360D01*
X350382Y527024D01*
X350356Y527002D01*
X350313Y526979D01*
X348098Y525254D01*
X348075Y525228D01*
X348037Y525198D01*
X346135Y523133D01*
X346117Y523103D01*
X346085Y523068D01*
X344549Y520717D01*
X344536Y520685D01*
X344510Y520645D01*
X343382Y518073D01*
X343375Y518040D01*
X343372Y518033D01*
X343366Y518024D01*
X343365Y518018D01*
X343355Y517995D01*
X342666Y515274D01*
X342664Y515239D01*
X342652Y515192D01*
X342420Y512394D01*
X342424Y512365D01*
X342419Y512336D01*
X342436Y512267D01*
X342444Y512197D01*
X342458Y512171D01*
X342465Y512143D01*
X342507Y512086D01*
X342542Y512024D01*
X342566Y512006D01*
X342583Y511983D01*
X342644Y511947D01*
X342701Y511904D01*
X342729Y511896D01*
X342754Y511881D01*
X342852Y511865D01*
X342893Y511854D01*
X342904Y511856D01*
X342918Y511854D01*
X376918Y511854D01*
X376947Y511860D01*
G37*
G36*
X361356Y190049D02*
X361356Y190049D01*
X361404Y190049D01*
X364173Y190511D01*
X364206Y190523D01*
X364253Y190531D01*
X366909Y191443D01*
X366939Y191460D01*
X366984Y191476D01*
X369454Y192812D01*
X369480Y192834D01*
X369523Y192857D01*
X371738Y194582D01*
X371761Y194608D01*
X371799Y194638D01*
X373701Y196703D01*
X373719Y196733D01*
X373751Y196768D01*
X375287Y199119D01*
X375300Y199151D01*
X375326Y199191D01*
X376454Y201763D01*
X376461Y201796D01*
X376481Y201841D01*
X377170Y204562D01*
X377172Y204597D01*
X377184Y204644D01*
X377416Y207442D01*
X377412Y207471D01*
X377417Y207500D01*
X377401Y207569D01*
X377392Y207639D01*
X377378Y207665D01*
X377371Y207693D01*
X377329Y207750D01*
X377294Y207812D01*
X377270Y207830D01*
X377253Y207853D01*
X377192Y207889D01*
X377135Y207932D01*
X377107Y207940D01*
X377082Y207955D01*
X376984Y207971D01*
X376943Y207982D01*
X376932Y207980D01*
X376918Y207982D01*
X342918Y207982D01*
X342889Y207976D01*
X342860Y207979D01*
X342793Y207957D01*
X342723Y207943D01*
X342699Y207926D01*
X342671Y207917D01*
X342618Y207870D01*
X342559Y207830D01*
X342544Y207806D01*
X342522Y207786D01*
X342490Y207722D01*
X342452Y207663D01*
X342447Y207634D01*
X342435Y207608D01*
X342426Y207508D01*
X342419Y207466D01*
X342422Y207456D01*
X342420Y207442D01*
X342652Y204644D01*
X342662Y204610D01*
X342666Y204562D01*
X343355Y201841D01*
X343370Y201809D01*
X343382Y201763D01*
X344510Y199191D01*
X344530Y199163D01*
X344549Y199119D01*
X346085Y196768D01*
X346109Y196744D01*
X346135Y196703D01*
X348037Y194638D01*
X348065Y194617D01*
X348098Y194582D01*
X350313Y192857D01*
X350344Y192842D01*
X350382Y192812D01*
X352852Y191476D01*
X352885Y191466D01*
X352927Y191443D01*
X354018Y191068D01*
X355473Y190569D01*
X355583Y190531D01*
X355617Y190527D01*
X355663Y190511D01*
X358432Y190049D01*
X358467Y190050D01*
X358514Y190042D01*
X361322Y190042D01*
X361356Y190049D01*
G37*
D10*
X451918Y519253D03*
X543918Y359918D03*
X451918Y200583D03*
X267918Y200583D03*
X175918Y359918D03*
X267918Y519253D03*
X497918Y439486D03*
X497918Y280351D03*
X359918Y200583D03*
X221918Y280151D03*
X221918Y439486D03*
X359918Y519253D03*
D11*
X581660Y245618D02*
X596900Y245618D01*
X596900Y271018D02*
X581660Y271018D01*
X581660Y296418D02*
X596900Y296418D01*
X596900Y321818D02*
X581660Y321818D01*
X581660Y347218D02*
X596900Y347218D01*
X596900Y372618D02*
X581660Y372618D01*
X581660Y398018D02*
X596900Y398018D01*
X596900Y423418D02*
X581660Y423418D01*
X581660Y448818D02*
X596900Y448818D01*
X596900Y474218D02*
X581660Y474218D01*
X139700Y245618D02*
X124460Y245618D01*
X124460Y271018D02*
X139700Y271018D01*
X139700Y296418D02*
X124460Y296418D01*
X124460Y321818D02*
X139700Y321818D01*
X139700Y347218D02*
X124460Y347218D01*
X124460Y372618D02*
X139700Y372618D01*
X139700Y398018D02*
X124460Y398018D01*
X124460Y423418D02*
X139700Y423418D01*
X139700Y448818D02*
X124460Y448818D01*
X124460Y474218D02*
X139700Y474218D01*
D12*
X162260Y184810D03*
X162260Y194310D03*
X162260Y203810D03*
X188260Y203810D03*
X188260Y184810D03*
D13*
X187960Y222640D03*
X187960Y239640D03*
D14*
X217170Y185390D03*
X217170Y213390D03*
X132080Y180280D03*
X132080Y208280D03*
D15*
X188350Y161290D03*
X205350Y161290D03*
M02*
